<svg
  xmlns="http://www.w3.org/2000/svg"

  viewBox="-32.825 -30.3312 328.25 251.075"
  id='svgCanvas4'
>
  <defs>
    <style>
        #svgCanvas4{
        
            border: 0.1px #ccb8b8;
            background-color: #f6f4f4;
            display: block;
            margin-left: auto;
            margin-right: auto;
    }
      .cls-1 {
     
        stroke: #fff;
        stroke-width: 0.58592px;
      }

      .cls-1,
      .cls-2 {
        stroke-miterlimit: 10;
      }

      .cls-2 {
        fill: none;
        stroke: #784c9e;
      }

      .cls-3,
      .cls-4 {
        isolation: isolate;
        fill: #2b2969;
        font-family: MyriadPro-Regular, Myriad Pro;
      }

      .cls-3 {
        font-size: 18px;
      }

      .cls-4 {
        font-size: 7.5px;
      }
    </style>
  </defs>
  <g id="Layer_2" data-name="Layer 2">
    <g id="kifle_ketema">
      <g id="addis_ketema_kk">
        <g id="addis_ketema_all">
          <path
            id="Addis-Ketema-Woreda-11"
        class="cls-1 pathHovered NaN-ri subcity Addis-Ketema-Woreda-11-path"
         data-html="true"            d="M106.11944,143.76527c-.64953.01855-1.29912.0345-1.94853.05657a2.09271,2.09271,0,0,0-1.1004.3236c-.65246.42658-1.42607.6118-2.07691,1.0465a1.55449,1.55449,0,0,1-.74517.18236,2.2121,2.2121,0,0,0-1.09817.33718c-.64528.43937-1.42454.61479-2.07714,1.04545a1.75955,1.75955,0,0,1-.74432.18658,3.04053,3.04053,0,0,0-1.44521.51423,1.60659,1.60659,0,0,1-.73173.23059c-1.55937.01163-3.11876.01516-4.67808.0292a2.581,2.581,0,0,1-1.46186-.44864,2.29729,2.29729,0,0,0-1.10348-.324c-.2587-.02172-.51921-.02952-.77891-.02969a2.26134,2.26134,0,0,1-1.09878-.33656,3.60094,3.60094,0,0,0-.34126-.1881,1.92746,1.92746,0,0,0-1.85411.05974,11.71845,11.71845,0,0,1-1.4009.65949,10.43935,10.43935,0,0,1-1.02092.5543c-.50707.16381-.90353.51208-1.3771.71206a9.15285,9.15285,0,0,0-1.39878.66385,1.3522,1.3522,0,0,1-.73366.222c-2.98912.01009-5.97829.013-8.96733.03329a2.89572,2.89572,0,0,1-1.8365-.49273,2.76628,2.76628,0,0,0-.71011-.30476,2.7811,2.7811,0,0,1-.96936-.63426c-.92642-.91132-1.85155-1.824-2.78529-2.72772a2.3208,2.3208,0,0,0-.99486-.58656,2.84434,2.84434,0,0,1-.69507-.3395,1.92906,1.92906,0,0,0-1.08072-.38624c-.38871.01576-.77994-.03185-1.16875-.01722a3.06631,3.06631,0,0,1-1.8441-.49358,1.35644,1.35644,0,0,0-.72832-.23955c-1.03923-.01836-2.07844-.03793-3.11774-.05128a2.21819,2.21819,0,0,1-1.46553-.427,1.76251,1.76251,0,0,0-.71611-.27889,3.2762,3.2762,0,0,1-1.809-.621,6.71015,6.71015,0,0,1-1.95668-1.21878,2.67423,2.67423,0,0,0-.9927-.59168,1.7177,1.7177,0,0,1-.6722-.37314c-.86107-.79021-1.69721-1.60755-2.55272-2.404a1.08863,1.08863,0,0,0-.70611-.28922,3.76476,3.76476,0,0,1-1.80963-.62339c-.44125-.25834-.95518-.38117-1.39755-.66288a1.80109,1.80109,0,0,0-1.84493-.08463c-.46362.22846-.91166.47825-1.39987.66385-.479.18214-.85308.59416-1.37775.70562-.78008.38847-.928.55912-1.4987,1.68508a14.88468,14.88468,0,0,0-.71683,1.37179,7.97547,7.97547,0,0,1-.53014,1.03486,2.01946,2.01946,0,0,0-.03012,1.859c.0498.11878.13721.22127.19394.33776a2.46682,2.46682,0,0,1,.33589,1.09952q-.01136,5.45846.00329,10.91689a2.43208,2.43208,0,0,1-.3394,1.0978,4.76084,4.76084,0,0,0-.34734.68944,2.4617,2.4617,0,0,1-.56029,1.01154c-.62677.65842-1.28,1.29178-1.929,1.92874a1.42688,1.42688,0,0,1-.32836.20849,1.36133,1.36133,0,0,1-.35083.15892c-.65233.1358-1.08863.70872-1.73988.84684a2.514,2.514,0,0,0-.69373.34066,2.07682,2.07682,0,0,1-1.08784.3677c-.90921-.019-1.81936.011-2.72886-.0001a2.46354,2.46354,0,0,1-1.83705-.50693,1.48978,1.48978,0,0,0-.73475-.2241c-.51928-.00077-1.03854-.02992-1.55779-.02952a2.01807,2.01807,0,0,0-1.46032.43915,2.76717,2.76717,0,0,1-1.10439.32806,1.72858,1.72858,0,0,0-.74656.17933c-.55156.34588-1.18556.5265-1.73644.855a4.20072,4.20072,0,0,1-1.82366.59323,1.78249,1.78249,0,0,0-.71214.28753,2.20976,2.20976,0,0,1-1.46461.43054c-.12976.00677-.25989.01316-.38971.011a2.59572,2.59572,0,0,0-1.46335.45145,2.01728,2.01728,0,0,1-1.1078.2994c-1.42943-.00074-2.85885-.008-4.28827-.01283.0228-.3889.03407-.779.07168-1.16645a2.17631,2.17631,0,0,1,.36917-1.08793,2.6517,2.6517,0,0,0,.446-1.46474,1.386,1.386,0,0,1,.24237-.72866,3.20407,3.20407,0,0,0,.38838-.67315,5.34617,5.34617,0,0,1,.46657-1.06333,2.49986,2.49986,0,0,0,.36646-.67935c.15716-.64723.67444-1.1035.8581-1.736.18059-.622.71047-1.08651.8284-1.74409a4.8935,4.8935,0,0,1,.446-.635c.9-.936,1.815-1.85742,2.72339-2.78534a2.94717,2.94717,0,0,0,.779-1.32408,1.39334,1.39334,0,0,1,.18611-.33864c.53087-.87477.4377-.72543.51044-1.44154a1.47552,1.47552,0,0,1,.21029-.73669c.38213-.53249.50763-1.19226.86528-1.73131.29023-.43743.40586-.95814.67706-1.38966.34818-.554.55129-1.16821.85391-1.73823a2.94555,2.94555,0,0,0,.516-1.44059,1.56068,1.56068,0,0,1,.21675-.73523c.38346-.53192.50233-1.195.86133-1.73334.43355-.65012.59568-1.4372,1.07231-2.062a7.62556,7.62556,0,0,1,.87235-1.72747,5.35711,5.35711,0,0,1,.65335-1.4034,1.866,1.866,0,0,0,.20265-.741,2.56824,2.56824,0,0,1,.31164-1.10942,2.39064,2.39064,0,0,0,.49552-1.44848,1.51861,1.51861,0,0,1,.21867-.7354c.3794-.5342.505-1.19269.85239-1.73825a2.84283,2.84283,0,0,0,.49318-1.451,1.30021,1.30021,0,0,1,.22751-.73278c.45362-.63744.588-1.43327,1.04743-2.07383.2216-.309.31344-.7086.51978-1.03153a9.92209,9.92209,0,0,1,.73174-.90763,3.1751,3.1751,0,0,0,.60351-.98687,1.86987,1.86987,0,0,1,.37729-.66976c.6221-.66188,1.26455-1.30527,1.91627-1.9382a1.74326,1.74326,0,0,1,.64063-.429,4.87822,4.87822,0,0,0,2.08453-1.6923,1.5899,1.5899,0,0,0,.42107-1.05923,7.13633,7.13633,0,0,1,.078-1.16452,1.7532,1.7532,0,0,1,.54981-1.00139,2.47243,2.47243,0,0,1,.97688-.608,1.90852,1.90852,0,0,0,.67338-.37127c.39481-.33592.75508-.71218,1.13349-1.06767a2.33049,2.33049,0,0,1,2.03358-.95944,1.17162,1.17162,0,0,0,.70433-.29548c.75842-.70877,1.49125-1.44512,2.25507-2.14786a2.01161,2.01161,0,0,1,1.37384-.63982c1.03864-.00062,2.07728-.0277,3.11592-.028a2.34128,2.34128,0,0,0,1.10384-.32183,2.65774,2.65774,0,0,1,1.08641-.38465,2.72718,2.72718,0,0,0,1.454-.48867,2.23511,2.23511,0,0,1,1.10266-.3277,2.0779,2.0779,0,0,0,.74484-.19307,7.71614,7.71614,0,0,1,1.03831-.51945,2.69413,2.69413,0,0,0,.99324-.585c.47546-.44154.92249-.91413,1.40466-1.34787a1.67522,1.67522,0,0,1,1.03627-.47737,2.933,2.933,0,0,0,1.46688-.44726,2.00513,2.00513,0,0,1,1.10194-.32087,3.61946,3.61946,0,0,0,2.22031-.5622,1.3558,1.3558,0,0,1,.73789-.20883,2.83847,2.83847,0,0,0,1.44938-.50156,3.71605,3.71605,0,0,1,.69036-.35239,1.6678,1.6678,0,0,0,.821-.77973c.06537-.11189.11709-.23175.17507-.348a3.697,3.697,0,0,1,1.373.7012c.57321.52666,1.17461,1.0247,1.72243,1.57622a2.08772,2.08772,0,0,1,.62343,1.38557,2.69878,2.69878,0,0,0,.30261,1.11621c.24011.45851.4107.95576.67371,1.39927.26425.44557.53364.88248.76213,1.35087a1.25388,1.25388,0,0,0,.91423.65272,4.36994,4.36994,0,0,1,1.47774.45028c.11146.06607.22892.12247.34575.17891.3505.16924.71048.32094,1.05092.50831a1.25154,1.25154,0,0,0,1.12055-.01011,8.77366,8.77366,0,0,1,1.4901-.43755c.64243-.13008,1.15848-.576,1.789-.74a1.43444,1.43444,0,0,1,.38439-.057,2.1195,2.1195,0,0,1,1.1126.272,3.76452,3.76452,0,0,0,1.02894.5359,2.6186,2.6186,0,0,1,1.30772.79707,30.38865,30.38865,0,0,0,2.14188,2.25226,1.85528,1.85528,0,0,0,.33043.19383,1.081,1.081,0,0,0,1.07189-.18963,4.02414,4.02414,0,0,0,.628-.97045,3.44166,3.44166,0,0,1,1.04139-1.138,15.7092,15.7092,0,0,0,1.89567-1.34107,4.05979,4.05979,0,0,1,.98065,1.199,4.54719,4.54719,0,0,0,.41431.65861,5.385,5.385,0,0,0,1.07311,1.12682c.77326.58742,1.05594.63174,1.73043.13353.41786-.30867.78162-.69808,1.22051-.96875a2.43787,2.43787,0,0,0,1.03291-1.10892,5.14391,5.14391,0,0,1,1.14756-1.565,1.78928,1.78928,0,0,1,1.0296-.51391c.514-.06086,1.0387-.02542,1.5582-.04655a2.91042,2.91042,0,0,1,1.83239.5407,2.068,2.068,0,0,0,1.10708.31682,2.378,2.378,0,0,0,1.48432-.3681,2.53668,2.53668,0,0,1,1.06021-.45975,2.80532,2.80532,0,0,1,1.87855.32478c.66705.40454,1.3422.79815,2.03285,1.16025a6.7628,6.7628,0,0,1,.99641.60773c.41269.31715.82106.64056,1.22016.97459a14.42367,14.42367,0,0,0,3.68424,2.16357,2.42551,2.42551,0,0,0,.75211.19681c.51861.04322,1.03594.11434,1.55529.133a17.13228,17.13228,0,0,1,1.91653.332,1.38372,1.38372,0,0,0,.76-.11439,4.7708,4.7708,0,0,1,1.89133-.41459c3.38445.01041,6.76889.01265,10.15326.03249a1.99707,1.99707,0,0,1,.74334.19116,1.04619,1.04619,0,0,1,.52486.53852,1.07288,1.07288,0,0,1,.11534.37158,4.12493,4.12493,0,0,0,.65532,1.81261,2.298,2.298,0,0,1,.31541,1.11356c.009.52031.03388,1.04145.01393,1.56075a2.03082,2.03082,0,0,1-.30364,1.10959c-.36656.53592-.77209,1.0434-1.09712,1.6106a3.15287,3.15287,0,0,0-.40317,1.48718,5.8047,5.8047,0,0,0,.06237,1.16472,15.83467,15.83467,0,0,1,.18848,3.50141c-.03528.64914-.04167,1.30067-.03643,1.95091a3.11494,3.11494,0,0,0,.18225,1.14861,6.39971,6.39971,0,0,1,.4638,1.888,5.28371,5.28371,0,0,0,.499,1.87164c.3353.70741.3753,1.50875.7193,2.223a4.11048,4.11048,0,0,1,.30894,2.2952c-.126,1.04113.02589,2.07581-.01822,3.11251a21.33856,21.33856,0,0,1-.02372,4.28754c-.05393.64821-.071,1.29945-.10471,1.94933-.38513-.009-.77026-.02515-1.15538-.02568q-2.12135-.00289-4.2427.0043a2.86765,2.86765,0,0,1-1.47773-.34947,3.14815,3.14815,0,0,0-1.47657-.36722c-.51356-.02126-1.02664-.05667-1.53939-.09357a1.5258,1.5258,0,0,1-.37282-.07634,1.7205,1.7205,0,0,1-.34789-.16517,3.80045,3.80045,0,0,0-1.84046-.47587,2.46769,2.46769,0,0,1-1.46417-.39462,3.45485,3.45485,0,0,0-1.0813-.37573,2.53988,2.53988,0,0,1-1.09173-.33363c-.645-.42821-1.41935-.59281-2.07409-1.00266a1.47144,1.47144,0,0,0-.73445-.20207,18.16725,18.16725,0,0,0-2.69649.01979,1.75286,1.75286,0,0,0-.349.13951.61252.61252,0,0,0-.44539.57424C106.17029,143.25788,106.1439,143.51151,106.11944,143.76527Z"
          />
          <path
            id="Addis-Ketema-Woreda-14"
        class="cls-1 pathHovered NaN-ri subcity Addis-Ketema-Woreda-14-path"
         data-html="true"            d="M83.26444,106.599a15.7092,15.7092,0,0,1-1.89567,1.34107,3.44166,3.44166,0,0,0-1.04139,1.138,4.02414,4.02414,0,0,1-.628.97045,1.081,1.081,0,0,1-1.07189.18963,1.85528,1.85528,0,0,1-.33043-.19383A30.38865,30.38865,0,0,1,76.1552,107.792a2.6186,2.6186,0,0,0-1.30772-.79707,3.76452,3.76452,0,0,1-1.02894-.5359,2.1195,2.1195,0,0,0-1.1126-.272,1.43444,1.43444,0,0,0-.38439.057c-.63049.16395-1.14654.60992-1.789.74a8.77366,8.77366,0,0,0-1.4901.43755,1.25154,1.25154,0,0,1-1.12055.01011c-.34044-.18737-.70042-.33907-1.05092-.50831-.11683-.05644-.23429-.11284-.34575-.17891a4.36994,4.36994,0,0,0-1.47774-.45028,1.25388,1.25388,0,0,1-.91423-.65272c-.22849-.46839-.49788-.9053-.76213-1.35087-.263-.44351-.4336-.94076-.67371-1.39927a2.69878,2.69878,0,0,1-.30261-1.11621,2.08772,2.08772,0,0,0-.62343-1.38557C61.22359,99.838,60.62219,99.34,60.049,98.81334a3.697,3.697,0,0,0-1.373-.7012,7.5883,7.5883,0,0,0-.5528-.55054,1.36217,1.36217,0,0,1-.47112-1.02857c-.04426-.77843-.04208-1.55984-.047-2.34011-.009-1.43122-.00227-2.86259-.01984-4.29368a2.33567,2.33567,0,0,0-.14806-.762,2.23212,2.23212,0,0,1-.03552-1.51914,2.944,2.944,0,0,0-.05858-1.913,1.44086,1.44086,0,0,1-.10292-.37515,2.8364,2.8364,0,0,1,.01348-.77467c.17631-.75948.41518-1.50483.57962-2.2665a1.64061,1.64061,0,0,0-.122-1.13761,2.708,2.708,0,0,1-.00134-2.26272,2.37881,2.37881,0,0,1,.38154-.6747,1.74144,1.74144,0,0,1,1.30551-.74006c.3878-.01745.78019.03519,1.16543.00024a1.55008,1.55008,0,0,0,1.24473-.79824,1.24773,1.24773,0,0,0,.15821-.74257,9.983,9.983,0,0,0-.38216-1.50836,2.7212,2.7212,0,0,1,.30408-2.24082,4.83651,4.83651,0,0,0,.78566-1.77009,1.20714,1.20714,0,0,0-.04643-.76121,2.62324,2.62324,0,0,0-.13861-.361c-.7764-1.20348-1.3597-2.51354-2.07692-3.74942a2.15909,2.15909,0,0,0-.97089-.61653,1.767,1.767,0,0,0-.38368-.046c-.38932-.02312-.77981-.03084-1.16824-.06351a1.56865,1.56865,0,0,1-1.37749-1.18955c-.13131-.36453-.20543-.74935-.32884-1.11713a1.2693,1.2693,0,0,0-.45558-.61677c-.31261-.22912-.65441-.41882-.96359-.65206a1.15647,1.15647,0,0,1-.44207-.62046c-.18414-.757-.367-1.51718-.48729-2.286a8.9239,8.9239,0,0,0-.482-1.88263A3.134,3.134,0,0,1,53.145,55.3059c.0009-.39.01-.78.01332-1.17a6.12378,6.12378,0,0,0-.00608-1.16789,29.08318,29.08318,0,0,1-.29783-3.10256,3.70712,3.70712,0,0,0-.167-.76031,2.18987,2.18987,0,0,1,.17117-1.511,1.85862,1.85862,0,0,0,.02548-1.14767c-.05638-.253-.15837-.49552-.22729-.74621a2.59745,2.59745,0,0,1,.05-1.531c.12157-.3706.23688-.74426.33116-1.1225.10625-.42625.44975-.60087.78378-.789a1.50268,1.50268,0,0,0,.89564-1.16344,8.03287,8.03287,0,0,0-.11807-2.3279,3.64517,3.64517,0,0,0-.55328-1.44467c-.07271-.10771-.13047-.22552-.20338-.33307a2.20367,2.20367,0,0,1-.40714-1.84046,15.06188,15.06188,0,0,0,.31112-2.707,4.39893,4.39893,0,0,0-.362-2.2843,1.12822,1.12822,0,0,1-.01267-.76073c.06645-.25055.17965-.48846.25091-.738a3.50928,3.50928,0,0,0-.01072-1.92409c-.13792-.50115-.31459-.9919-.44492-1.49482a2.61114,2.61114,0,0,0-.819-1.29249,2.41959,2.41959,0,0,1-.721-.90968,4.56749,4.56749,0,0,0-1.032-1.627,3.96779,3.96779,0,0,1-.44779-.63.98835.98835,0,0,1-.14578-.36032,14.08952,14.08952,0,0,1-.07529-1.94633,2.71412,2.71412,0,0,0-.9221-2.45277c-.16273-.20158-.30114-.42314-.44595-.63872A.97252.97252,0,0,1,48.7,14.31552a5.66168,5.66168,0,0,0,.83726-.80614,2.03413,2.03413,0,0,0,.329-.69469,1.776,1.776,0,0,0-.18709-1.13195,5.48926,5.48926,0,0,0-.4416-.64c-.35231-.48583-.29488-.84645.20582-1.31187a6.94406,6.94406,0,0,0,.57809-.5217,1.92544,1.92544,0,0,0,.411-.65134,12.79432,12.79432,0,0,0,.4148-2.299,4.73576,4.73576,0,0,0-.06216-.77087,1.63194,1.63194,0,0,1,.39267-1.45045c.07673-.1046.16868-.198.25328-.29692a3.14688,3.14688,0,0,0,.78244-1.74987,2.049,2.049,0,0,1,.07926-.38189,1.78154,1.78154,0,0,1,.65332-.93452,2.46205,2.46205,0,0,1,.62343,1.38592,7.02443,7.02443,0,0,0,.29455,1.51836,1.7103,1.7103,0,0,0,.68443.90888c.43483.2741.91632.47291,1.36421.72787a10.50488,10.50488,0,0,0,1.4575.50569,2.103,2.103,0,0,1,.65672.40351A4.3335,4.3335,0,0,1,59.145,7.6873c.1473.35808.24739.73626.40446,1.0895a5.60821,5.60821,0,0,1,.43186,1.87939c.02944.38643.04369.7748.04553,1.1624a5.05831,5.05831,0,0,1-.46344,2.25878,3.879,3.879,0,0,0-.2275.73448,1.49116,1.49116,0,0,0,.00935.76987,13.08487,13.08487,0,0,0,1.61944,3.50055,4.387,4.387,0,0,0,.4892.6011c.43753.476.88934.93885,1.32523,1.41629A1.73676,1.73676,0,0,1,63.241,22.14a24.02642,24.02642,0,0,1-.05531,4.26072,5.40727,5.40727,0,0,1-.50883,1.85961c-.05679.11621-.11193.23324-.16686.35033a2.16928,2.16928,0,0,0,.68766,2.42836.79845.79845,0,0,0,.34223.177,4.66675,4.66675,0,0,0,.76246.07159,1.6562,1.6562,0,0,0,1.08657-.34433c1.09647-.90951,2.272-1.71154,3.4201-2.54948a11.92923,11.92923,0,0,1,3.78712-1.91235,7.07779,7.07779,0,0,0,.71856-.28908,5.39311,5.39311,0,0,1,1.50216-.36417c.6434-.0642,1.28661-.15621,1.93153-.17269a11.41,11.41,0,0,0,2.684-.342,9.72867,9.72867,0,0,1,1.14907-.1739,1.32556,1.32556,0,0,1,1.32653.59125c.07684.10377.16534.19887.24847.298.07186.24931.15335.49637.21293.74859a1.141,1.141,0,0,0,.43076.6295,3.4159,3.4159,0,0,1,1.37812,1.82666c.70591,1.38631,1.40743,2.77485,2.1208,4.15731.178.345.3924.67142.59326,1.00445a2.09531,2.09531,0,0,1,.34281,1.09432c-.00212,1.2988-.00462,2.59762-.01447,3.89638a1.89457,1.89457,0,0,1-.37733,1.08374c-.22451.31649-.5097.58944-.74162.90129a1.8028,1.8028,0,0,0-.37569,1.07957c-.00236,1.42871.0046,2.85745.01295,4.28615a1.44079,1.44079,0,0,0,.20317.743,19.82027,19.82027,0,0,1,1.02194,2.09671,2.36449,2.36449,0,0,1,.20909.74541,19.94107,19.94107,0,0,1,.02277,3.50126,1.22033,1.22033,0,0,1-.07868.377c-.10023.23906-.22258.46889-.33687.702q-.257.52391-.51525,1.04717c.073.38.14419.76032.21948,1.13985a10.06225,10.06225,0,0,0,.32161,1.51976,7.41131,7.41131,0,0,1,.40151,2.291c.02641.64808.02405,1.29826.00832,1.94687a1.92962,1.92962,0,0,1-.59927,1.38949,2.884,2.884,0,0,0-1.01915,2.02859,1.71141,1.71141,0,0,1-.22413.74048,4.821,4.821,0,0,0-.50045,1.46889,3.69442,3.69442,0,0,1-.61474,1.41639c-.73692.74117-1.18644,1.70234-1.89,2.469a2.78564,2.78564,0,0,0-.57674,1.00489A15.759,15.759,0,0,1,80.625,75.81917c-.31.5688-.5883,1.15519-.87161,1.73819a3.96267,3.96267,0,0,0-.33234,1.11545,4.181,4.181,0,0,0-.096.77192,5.37577,5.37577,0,0,1-.48922,2.264,3.12271,3.12271,0,0,0-.0884.3772,1.90026,1.90026,0,0,0,.1079,1.14213,5.58091,5.58091,0,0,0,.33893.70114,2.72518,2.72518,0,0,1,.10251,2.25838,4.785,4.785,0,0,1-.34934.69589,1.39976,1.39976,0,0,0,.09167,1.46555,3.14843,3.14843,0,0,1,.442,1.07072,3.019,3.019,0,0,0,.565,1.42882,7.24117,7.24117,0,0,1,.44423.64,2.05775,2.05775,0,0,1,.373,1.08647c-.00405.38948.00279.77906.00212,1.1686-.00021.12985-.01261.25965-.01287.3895a1.05956,1.05956,0,0,0,.87642,1.097c1.38161.28476,1.40354.39612,1.96268,1.09128a1.9455,1.9455,0,0,1,.2192.32162,2.02924,2.02924,0,0,1,.13341.36324,4.20172,4.20172,0,0,0,1.037,1.62611c-.02189.24805-.04547.496-.0653.74419a6.68988,6.68988,0,0,1-.46188,2.18044,6.29033,6.29033,0,0,0-.40083,1.43586c-.10879.6199-.44538,1.16127-.58945,1.76675-.05736.241-.07968.49034-.1193.73565Q83.3554,106.0473,83.26444,106.599Z"
          />
          <path
            id="Addis-Ketema-Woreda-13"
        class="cls-1 pathHovered NaN-ri subcity Addis-Ketema-Woreda-13-path"
         data-html="true"            d="M85.08132,98.63242a4.20172,4.20172,0,0,1-1.037-1.62611,2.02924,2.02924,0,0,0-.13341-.36324,1.9455,1.9455,0,0,0-.2192-.32162c-.55914-.69516-.58107-.80652-1.96268-1.09128a1.05956,1.05956,0,0,1-.87642-1.097c.00026-.12985.01266-.25965.01287-.3895.00067-.38954-.00617-.77912-.00212-1.1686a2.05775,2.05775,0,0,0-.373-1.08647,7.24117,7.24117,0,0,0-.44423-.64,3.019,3.019,0,0,1-.565-1.42882,3.14843,3.14843,0,0,0-.442-1.07072,1.39976,1.39976,0,0,1-.09167-1.46555,4.785,4.785,0,0,0,.34934-.69589,2.72518,2.72518,0,0,0-.10251-2.25838,5.58091,5.58091,0,0,1-.33893-.70114,1.90026,1.90026,0,0,1-.1079-1.14213,3.12271,3.12271,0,0,1,.0884-.3772,5.37577,5.37577,0,0,0,.48922-2.264,4.181,4.181,0,0,1,.096-.77192,3.96267,3.96267,0,0,1,.33234-1.11545c.28331-.583.56158-1.16939.87161-1.73819a15.759,15.759,0,0,0,1.16663-2.45466,2.78564,2.78564,0,0,1,.57674-1.00489c.70355-.76665,1.15307-1.72782,1.89-2.469a3.69442,3.69442,0,0,0,.61474-1.41639,4.821,4.821,0,0,1,.50045-1.46889,1.71141,1.71141,0,0,0,.22413-.74048,2.884,2.884,0,0,1,1.01915-2.02859,1.92962,1.92962,0,0,0,.59927-1.38949c.01573-.64861.01809-1.29879-.00832-1.94687a7.41131,7.41131,0,0,0-.40151-2.291,10.06225,10.06225,0,0,1-.32161-1.51976c-.07529-.37953-.14648-.75987-.21948-1.13985q.25765-.52356.51525-1.04717c.11429-.23311.23664-.46294.33687-.702a1.22033,1.22033,0,0,0,.07868-.377,19.94107,19.94107,0,0,0-.02277-3.50126,2.36449,2.36449,0,0,0-.20909-.74541,19.82027,19.82027,0,0,0-1.02194-2.09671,1.44079,1.44079,0,0,1-.20317-.743c-.00835-1.4287-.01531-2.85744-.01295-4.28615a1.8028,1.8028,0,0,1,.37569-1.07957c.23192-.31185.51711-.5848.74162-.90129a1.89457,1.89457,0,0,0,.37733-1.08374c.00985-1.29876.01235-2.59758.01447-3.89638a2.09531,2.09531,0,0,0-.34281-1.09432c-.20086-.333-.41524-.65944-.59326-1.00445-.71337-1.38246-1.41489-2.771-2.1208-4.15731a3.4159,3.4159,0,0,0-1.37812-1.82666,1.141,1.141,0,0,1-.43076-.6295c-.05958-.25222-.14107-.49928-.21293-.74858.51778-.03,1.03542-.06206,1.55336-.08914A2.19676,2.19676,0,0,1,84.84,26.1716a11.69436,11.69436,0,0,1,2.31253,1.42833,4.623,4.623,0,0,1,1.65936,2.56174,10.085,10.085,0,0,0,.65627,1.82223,8.543,8.543,0,0,0,.9859,1.66981,2.55334,2.55334,0,0,0,.51322.579c.62359.465,1.26445.90756,1.91043,1.34124a2.41172,2.41172,0,0,0,.6958.33782,11.94836,11.94836,0,0,1,1.80793.70611,3.11353,3.11353,0,0,0,1.13967.21652,2.01218,2.01218,0,0,1,1.34337.69147,6.02519,6.02519,0,0,1,.97929,1.20679,15.7,15.7,0,0,1,1.86723,4.2542,13.76067,13.76067,0,0,1,.81421,2.59017c.21493.4724.41651.95153.65043,1.41432a3.08166,3.08166,0,0,0,.4419.63533,7.33564,7.33564,0,0,0,2.799,2.05437,4.00628,4.00628,0,0,0,1.11132.33554c.38765.03492.77266.11016,1.16065.1278,1.94531.08845,3.89142.09794,5.83654-.00461a3.64872,3.64872,0,0,0,1.83964-.55464c.43491-.28273.88-.55052,1.3282-.81165a1.51086,1.51086,0,0,1,.3689-.10554,1.19756,1.19756,0,0,1,1.08679.24043,2.17335,2.17335,0,0,1,.28235.2643c.15534.207.272.44543.44022.64a2.56165,2.56165,0,0,1,.643,1.7827,4.10723,4.10723,0,0,0,.40711,1.87642c.38968.82115.846,1.60454,1.28114,2.39938a3.1276,3.1276,0,0,0,1.1099,1.07327,14.19209,14.19209,0,0,0,1.3575.76078c1.50833.74911,2.97843,1.57228,4.49236,2.30963a2.92043,2.92043,0,0,0,.74095.2271,12.59893,12.59893,0,0,0,3.4882.188c.6459-.06051,1.29049-.138,1.93393-.22126a3.83233,3.83233,0,0,0,1.11872-.31294c.94229-.43381,1.94585-.71849,2.879-1.17335a2.61827,2.61827,0,0,0,.64728-.42315c.66161-.6224,1.31654-1.25311,1.94909-1.90487a2.41538,2.41538,0,0,1,2.11787-.73442c.12867.014.25932.01015.389.01454.195.48679.63064.807.87282,1.26106.18138.3401.37444.67455.54154,1.02152a2.4567,2.4567,0,0,1,.26171,1.1141c-.0113.64262-.03228,1.28507-.04919,1.9276a2.05136,2.05136,0,0,0-.93146.64811,1.68411,1.68411,0,0,0-.52193,1.00364,3.66516,3.66516,0,0,1-.603,1.79549c-.269.43078-.35883.95728-.665,1.37964a2.11181,2.11181,0,0,0-.33441,1.08739c-.01161.12786-.04185.25392-.06.3813a1.7238,1.7238,0,0,1-.28976.70425,2.59155,2.59155,0,0,0-.41846,1.4544c-.0035,2.059-.023,4.11792-.03514,6.17688a1.3501,1.3501,0,0,1-.22141.72649,3.06636,3.06636,0,0,0-.51923,1.81876c.00646.12794-.01006.25694-.01393.38553a2.02,2.02,0,0,1-.34094,1.084A2.68654,2.68654,0,0,0,139.647,81.093a1.29005,1.29005,0,0,1-.2213.72735,2.90329,2.90329,0,0,0-.5435,1.80778c.0092.257.00086.51466.00053.772-.25846-.02065-.51738-.03674-.77522-.06324a1.60329,1.60329,0,0,1-.71406-.28725c-.65613-.42928-1.18254-1.01583-1.8092-1.4788-.62556-.46216-1.32727-.81262-1.92385-1.32129a6.1935,6.1935,0,0,0-.95156-.6751,7.75908,7.75908,0,0,1-1.52268-1.20538c-.18734-.18-.36994-.36727-.57325-.52772a2.29007,2.29007,0,0,0-1.41594-.55612,4.87773,4.87773,0,0,0-2.27062.435,3.17427,3.17427,0,0,1-1.13292.26829,8.13944,8.13944,0,0,0-2.23519.64645,3.89,3.89,0,0,0-1.31218.8125,7.52388,7.52388,0,0,1-2.53361,1.772c-.63326.67016-1.59632.856-2.23476,1.52671a3.15257,3.15257,0,0,1-.64006.4294,1.2448,1.2448,0,0,1-1.12176-.008,4.72334,4.72334,0,0,1-1.79053-1.46282,8.923,8.923,0,0,1-.84962-1.30426,7.84575,7.84575,0,0,0-1.6967-2.11388,1.102,1.102,0,0,0-.34519-.17783,1.78139,1.78139,0,0,0-.75726-.12626,3.253,3.253,0,0,0-2.17683.70973c-.21311.14844-.412.31731-.626.46445-.32064.22049-.65691.41884-.97192.64674a3.5679,3.5679,0,0,1-1.80026.66779,2.36664,2.36664,0,0,0-1.63506.95061,5.26751,5.26751,0,0,0-.81258,1.32237,3.5066,3.5066,0,0,1-.89134,1.2618c-.38181.35235-.78291.68372-1.1658,1.03493-.47753.43805-.943.88921-1.41789,1.33022a1.04185,1.04185,0,0,1-.71163.28323,3.1269,3.1269,0,0,0-2.0956.90089c-.19245.174-.37557.35925-.55333.54843a5.71467,5.71467,0,0,1-1.216.96341,1.95007,1.95007,0,0,0-.54377.546c-.37437.53054-.71368,1.08567-1.08,1.62207A3.20522,3.20522,0,0,0,92.058,93.685a1.86456,1.86456,0,0,1-.48995,1.03908c-.5256.575-1.07959,1.1242-1.625,1.681a2.61632,2.61632,0,0,1-.96323.64028,6.34339,6.34339,0,0,0-1.68141.96471,2.08946,2.08946,0,0,1-1.06466.42657C85.84718,98.48039,85.46527,98.56549,85.08132,98.63242Z"
          />
          <path
            id="Addis-Ketema-Woreda-10"
        class="cls-1 pathHovered NaN-ri subcity Addis-Ketema-Woreda-10-path"
         data-html="true"            d="M138.88268,84.4002c.00033-.25737.00867-.515-.00053-.772a2.90329,2.90329,0,0,1,.5435-1.80778,1.29005,1.29005,0,0,0,.2213-.72735,2.68654,2.68654,0,0,1,.45143-1.44834,2.02,2.02,0,0,0,.34094-1.084c.00387-.12859.02039-.25759.01393-.38553a3.06636,3.06636,0,0,1,.51923-1.81876,1.3501,1.3501,0,0,0,.22141-.72649c.01211-2.059.03164-4.1179.03514-6.17688a2.59155,2.59155,0,0,1,.41846-1.4544,1.7238,1.7238,0,0,0,.28976-.70425c.01819-.12738.04843-.25344.06-.3813a2.11181,2.11181,0,0,1,.33441-1.08739c.30615-.42236.39593-.94886.665-1.37964a3.66516,3.66516,0,0,0,.603-1.79549,1.68411,1.68411,0,0,1,.52193-1.00364,2.05128,2.05128,0,0,1,.93149-.64811,6.88785,6.88785,0,0,1,.81934,1.311,13.61864,13.61864,0,0,1,.802,2.17342,2.90765,2.90765,0,0,0,.63229,1.39341,16.45022,16.45022,0,0,0,2.11207,2.27019,2.10674,2.10674,0,0,0,1.39775.58364c.64676.00469,1.294.01259,1.94014-.00918a1.69855,1.69855,0,0,0,1.05722-.418c1.08584-.92342,2.01888-2.00582,3.07676-2.95758a1.85519,1.85519,0,0,1,1.05315-.43583c.38512-.0449.76751-.1136,1.15109-.17184.01652.12865.036.257.049.386a3.15255,3.15255,0,0,0,.49337,1.4513,1.95572,1.95572,0,0,1,.32181,1.09834c-.0026.51849.02717,1.03722.021,1.55558a2.03771,2.03771,0,0,0,.36518,1.0857,2.66389,2.66389,0,0,1,.34686.68942,2.26854,2.26854,0,0,0,.56858,1.00273c.984,1.03213,1.99134,2.0421,2.969,3.0801a1.55141,1.55141,0,0,1,.41907,1.05538c.01784,1.16692.0366,2.33385.06342,3.50058a1.19117,1.19117,0,0,0,.096.36874,1.7062,1.7062,0,0,0,.1672.35069,2.62976,2.62976,0,0,1,.46025,1.45856,1.8047,1.8047,0,0,0,.43369,1.054c.18129.2535,1.3159,1.95727,1.47247,2.25064a3.43424,3.43424,0,0,0,.19156.33834,1.97684,1.97684,0,0,1,.21917,1.12138.994.994,0,0,1-.23092.72514c-.25157.29531-.4851.60719-.75061.88915a8.22454,8.22454,0,0,0-.80764,1.30768,1.46486,1.46486,0,0,1-.60716.46984,1.159,1.159,0,0,0-.64161.89337,5.38983,5.38983,0,0,0-.05576.77529,2.7736,2.7736,0,0,1-.429,1.46757,2.076,2.076,0,0,0-.32288,1.09957c-.00236.64838-.00045,1.297-.01914,1.945a2.21893,2.21893,0,0,1-.88324,2.05717,14.473,14.473,0,0,0-1.05472,1.14254,1.63519,1.63519,0,0,0-.41636,1.05991c.0144.7775-.00825,1.55567-.014,2.33357a1.95031,1.95031,0,0,1-.32167,1.0984,2.86116,2.86116,0,0,0-.41292,1.85557c.01533.25872.04408.51666.06673.775-.0716.24957-.1307.50359-.21831.74741-.08776.24421-.20942.476-.30657.71714a1.4836,1.4836,0,0,0-.04716,1.13011c.47172,1.22886.47317,1.23041.03042,2.18653a.95312.95312,0,0,0,.00048,1.09986,2.312,2.312,0,0,0,1.14284,1.00923,3.4697,3.4697,0,0,1,.36462.13721,2.26807,2.26807,0,0,1,1.2471,1.85333c.03116.38848.1008.7738.14953,1.161a2.188,2.188,0,0,1-.31041,1.49026,2.79211,2.79211,0,0,0-.49413,1.45115c-.00677.2597-.02284.52023-.05443.778a1.74612,1.74612,0,0,1-.48495,1.03491c-.36469.36994-.77964.69346-1.12024,1.08307a2.0842,2.0842,0,0,0-.61214,1.39568c.00117.12915-.03707.25853-.0374.38784a1.58316,1.58316,0,0,1-.4717,1.03966,9.33819,9.33819,0,0,0-1.616,2.17518,2.93912,2.93912,0,0,0-.36224,1.10215c-.04544.64857-.08775,1.29776-.15363,1.9444a3.50481,3.50481,0,0,1-.17408.75573,7.081,7.081,0,0,0-.38976,1.50449,30.15745,30.15745,0,0,0-.26334,3.10889,2.68641,2.68641,0,0,1-.31542,1.11535,4.83366,4.83366,0,0,0-.32805,1.12,1.91351,1.91351,0,0,1-.26068.728c-.29193.43-.60585.84623-.87682,1.28891-.27024.44144-.47375.92448-.75312,1.35937a3.58491,3.58491,0,0,1-1.09094,1.099,2.12533,2.12533,0,0,1-1.08257.388,12.90419,12.90419,0,0,1-1.94816-.0457,15.64551,15.64551,0,0,1-.33416-3.47392c.01574-.77629-.0155-1.5535-.02482-2.33031a1.76989,1.76989,0,0,0-.19719-.744,4.55382,4.55382,0,0,1-.46008-1.8704c-.00825-.3882-.0303-.77619-.05219-1.16394a2.05442,2.05442,0,0,0-.05385-.38444,1.39571,1.39571,0,0,0-.135-.35869,4.40393,4.40393,0,0,1-.66573-2.20336,2.63125,2.63125,0,0,0-.25281-1.12195q-.49755-1.0515-.947-2.12543a4.37045,4.37045,0,0,1-.19159-.74713,3.2696,3.2696,0,0,1-.0513-.385,4.09727,4.09727,0,0,0-.38651-1.48951c-.29315-.5751-.52632-1.18058-.81474-1.75825a9.81132,9.81132,0,0,1-.46438-1.47526c-.15573-.48976-.3928-.9533-.58346-1.4326a1.58071,1.58071,0,0,1-.07565-.38048,4.56339,4.56339,0,0,0-.48056-1.46706,2.5437,2.5437,0,0,1-.24733-.73068,6.18873,6.18873,0,0,0-.63171-1.82416,2.568,2.568,0,0,1-.21686-.74222,7.961,7.961,0,0,1-.12023-1.54723,2.53041,2.53041,0,0,0-.6639-1.77289,12.64235,12.64235,0,0,1-1.32413-2.36193,1.16857,1.16857,0,0,1-.1332-.36128,7.973,7.973,0,0,1-.18984-2.31387c.03175-.25715.06747-.51391.09281-.77168a4.30233,4.30233,0,0,1,.41331-1.48712,2.61615,2.61615,0,0,0,.28077-.71846,6.58031,6.58031,0,0,1,.81472-2.16512c.24709-.45192.41186-.94878.61486-1.42494a2.29144,2.29144,0,0,0,.163-.75423,4.82253,4.82253,0,0,1,.575-2.234,1.779,1.779,0,0,0,.23907-.73357,6.85239,6.85239,0,0,1,.58912-1.8387.89205.89205,0,0,0-.08853-.74407c-.29734-.58192-.84513-.99792-1.11368-1.5841a16.05493,16.05493,0,0,0-1.23914-1.96539,12.22064,12.22064,0,0,0-1.5333-2.22942,1.99188,1.99188,0,0,1-.42859-.64A6.70973,6.70973,0,0,1,138.88268,84.4002Z"
          />
          <path
            id="Addis-Ketema-Woreda-5"
        class="cls-1 pathHovered NaN-ri subcity Addis-Ketema-Woreda-5-path"
         data-html="true"            d="M160.85167,106.48023c-.02265-.25829-.0514-.51623-.06673-.775a2.86116,2.86116,0,0,1,.41292-1.85557,1.95031,1.95031,0,0,0,.32167-1.0984c.00572-.7779.02837-1.55607.014-2.33357a1.63519,1.63519,0,0,1,.41636-1.05991,14.473,14.473,0,0,1,1.05472-1.14254,2.21893,2.21893,0,0,0,.88324-2.05717c.01869-.648.01678-1.29666.01914-1.945a2.076,2.076,0,0,1,.32288-1.09957,2.7736,2.7736,0,0,0,.429-1.46757,5.38983,5.38983,0,0,1,.05576-.77529,1.159,1.159,0,0,1,.64161-.89337,1.46486,1.46486,0,0,0,.60716-.46984,8.22454,8.22454,0,0,1,.80764-1.30768c.26551-.282.499-.59384.75061-.88915a.994.994,0,0,0,.23092-.72514,1.97684,1.97684,0,0,0-.21917-1.12138,3.43424,3.43424,0,0,1-.19156-.33834c-.15657-.29337-1.29118-1.99714-1.47247-2.25064a1.8047,1.8047,0,0,1-.43369-1.054,2.62976,2.62976,0,0,0-.46025-1.45856,1.7062,1.7062,0,0,1-.1672-.35069,1.19117,1.19117,0,0,1-.096-.36874c-.02682-1.16673-.04558-2.33366-.06342-3.50058a1.55141,1.55141,0,0,0-.41907-1.05538c-.97768-1.038-1.985-2.048-2.969-3.0801a2.26854,2.26854,0,0,1-.56858-1.00273,2.66389,2.66389,0,0,0-.34686-.68942,2.03771,2.03771,0,0,1-.36518-1.0857c.00615-.51836-.02362-1.03709-.021-1.55558a1.95572,1.95572,0,0,0-.32181-1.09834,3.15255,3.15255,0,0,1-.49337-1.4513c-.013-.129-.03249-.25735-.049-.386a7.14142,7.14142,0,0,1,.15234-.7517.80451.80451,0,0,1,1.2441-.39307c.19587.16541.41476.30648.5954.48652.72965.72721,1.45058,1.4632,2.17079,2.19982q2.43135,2.48685,4.98854,4.84392c.2828.25978.60918.47214.91542.7064a7.94931,7.94931,0,0,1,1.92426,1.27128,1.68028,1.68028,0,0,0,1.46383.21185c.12486-.03013.24564-.07722.36827-.11651a6.91431,6.91431,0,0,0,.647.9713c1.15477,1.23615,2.34159,2.44227,3.59327,3.58137a1.73512,1.73512,0,0,0,.66295.3943,6.488,6.488,0,0,1,1.37739.71766,15.04076,15.04076,0,0,1,1.74616.8343c.50226.17653.8983.531,1.37536.7192.48724.19222.92625.46192,1.39167.685a12.34078,12.34078,0,0,1,1.72287.89025,6.985,6.985,0,0,1,1.40509.65239,5.46089,5.46089,0,0,1,1.645,1.001c1.26942,1.30663,2.5559,2.59671,3.82391,3.90469a1.7272,1.7272,0,0,1,.41752.64907,3.24383,3.24383,0,0,0,.85256,1.28454,4.01394,4.01394,0,0,0,1.8851,1.32471,1.27861,1.27861,0,0,1,.3323.20152c1.39782.87763,1.62422.70444,2.595,1.67913a1.82863,1.82863,0,0,0,.68174.36427,2.36079,2.36079,0,0,1,.67181.37985c.397.3354.77257.69775,1.14041,1.06554a3.55015,3.55015,0,0,0,1.63163,1.01486,13.96356,13.96356,0,0,0,2.06742,1.07117,2.3081,2.3081,0,0,0,1.0979.34877c2.473.06809,4.94515-.01674,7.41765-.01547a2.23951,2.23951,0,0,1-.5914,1.77925,3.17385,3.17385,0,0,0-1.04588,1.60049,6.29236,6.29236,0,0,1-.44795.63158c-.43445.48128-.89706.93719-1.33052,1.41933a5.81145,5.81145,0,0,0-.44.63655c-.10864.66023-.65844,1.10946-.83191,1.73823a2.37,2.37,0,0,1-.5964.985c-.35459.37867-.72324.74429-1.07445,1.126a5.19125,5.19125,0,0,0-.48158.608c-.21624.32057-.23708.73607-.49993,1.04023-.33859.39181-.66664.79288-.99278,1.19522a1.476,1.476,0,0,0-.19967.33049c-.052.11768-.06721.25133-.11642.37061a1.36554,1.36554,0,0,1-.1836.33775c-.3248.40332-.65765.80027-.99171,1.196-.33949.40227-.36345.96835-.7168,1.36383-.25913.29-.52567.57564-.75984.88521a1.69275,1.69275,0,0,0-.40591,1.06255c.01173.64821.01013,1.29664.01416,1.945-.11678.05419-.2345.10645-.3502.16293a10.77294,10.77294,0,0,1-.9884.59264,4.32831,4.32831,0,0,1-1.52266.1024,1.84738,1.84738,0,0,1-1.05007-.42235,1.26406,1.26406,0,0,1-.2809-.26363c-.15713-.20148-.2986-.41519-.44654-.62387a3.77665,3.77665,0,0,0-1.01949-1.60846c-.16927-.19256-.31443-.40632-.47055-.61044a5.03048,5.03048,0,0,0-1.26092-1.90764,5.17745,5.17745,0,0,1-.59109-.98821.9832.9832,0,0,0-.91986-.57147c-.25677.00622-.51453-.02339-.771-.01373a1.98419,1.98419,0,0,0-1.101.28159c-.63829.441-1.424.58756-2.06122,1.031a1.58158,1.58158,0,0,1-.72674.22647,3.18223,3.18223,0,0,0-1.44052.48163,2.41141,2.41141,0,0,1-1.09828.30529q-1.93062-.01782-3.86136-.02148a2.10415,2.10415,0,0,1-1.08923-.33206,2.811,2.811,0,0,0-1.461-.41209q-.193-.0009-.386-.01362a2.15515,2.15515,0,0,1-1.4441-.45152,2.34076,2.34076,0,0,0-1.09816-.30035c-.38487-.024-.77216-.00858-1.15841-.01044-.86257-.27415-1.6168-.78425-2.451-1.12484a4.47589,4.47589,0,0,0-1.48372-.38487,3.71535,3.71535,0,0,1-1.489-.36877c-.80771-.39917-1.61153-.809-2.4365-1.16969a11.24253,11.24253,0,0,0-2.51046-.98942c-.67522-.381-1.40742-.644-2.09326-.99884A2.92767,2.92767,0,0,0,160.85167,106.48023Z"
          />
          <path
            id="Addis-Ketema-Woreda-12"
        class="cls-1 pathHovered NaN-ri subcity Addis-Ketema-Woreda-12-path"
         data-html="true"            d="M138.88268,84.40019a6.70972,6.70972,0,0,0,.81281,2.56934,1.99188,1.99188,0,0,0,.42859.64,12.22064,12.22064,0,0,1,1.5333,2.22942,16.05493,16.05493,0,0,1,1.23914,1.96539c.26855.58618.81634,1.00218,1.11368,1.5841a.89205.89205,0,0,1,.08853.74407,6.85239,6.85239,0,0,0-.58912,1.8387,1.779,1.779,0,0,1-.23907.73357,4.82253,4.82253,0,0,0-.575,2.234,2.29144,2.29144,0,0,1-.163.75423c-.203.47616-.36777.973-.61486,1.42494a6.58031,6.58031,0,0,0-.81472,2.16512,2.61615,2.61615,0,0,1-.28077.71846,4.30233,4.30233,0,0,0-.41331,1.48712c-.02534.25777-.06106.51453-.09281.77168a7.973,7.973,0,0,0,.18984,2.31387,1.16857,1.16857,0,0,0,.1332.36128,12.64235,12.64235,0,0,0,1.32413,2.36193,2.53041,2.53041,0,0,1,.6639,1.77289,7.961,7.961,0,0,0,.12023,1.54723,2.568,2.568,0,0,0,.21686.74222,6.18873,6.18873,0,0,1,.63171,1.82416,2.5437,2.5437,0,0,0,.24733.73068,4.56339,4.56339,0,0,1,.48056,1.46706,1.58071,1.58071,0,0,0,.07565.38048c.19066.4793.42773.94284.58346,1.4326a9.81132,9.81132,0,0,0,.46438,1.47526c.28842.57767.52159,1.18315.81474,1.75825a4.09727,4.09727,0,0,1,.38651,1.48951,3.2696,3.2696,0,0,0,.0513.385,4.37045,4.37045,0,0,0,.19159.74713q.45066,1.07242.947,2.12543a2.63125,2.63125,0,0,1,.25281,1.12195,4.40393,4.40393,0,0,0,.66573,2.20336,1.39571,1.39571,0,0,1,.135.35869,2.05442,2.05442,0,0,1,.05385.38444c.02189.38775.04394.77574.05219,1.16394a4.55382,4.55382,0,0,0,.46008,1.8704,1.76989,1.76989,0,0,1,.19719.744c.00932.77681.04056,1.554.02482,2.33031a15.64551,15.64551,0,0,0,.33416,3.47392c-.18353.71051-.833,1.16833-1.0198,1.87965a.99047.99047,0,0,1-.18656.30385,1.13067,1.13067,0,0,1-.5734.39884c-1.29144-.07374-2.583-.07913-3.876-.035a4.25322,4.25322,0,0,0-1.85559.4783,1.627,1.627,0,0,1-.73924.2031c-.64583.01113-1.29151.0416-1.93727.04215-2.973.0025-5.94592-.0051-8.91889-.0032-.77528.00048-1.55055.02215-2.32583.03407.03376-.64988.05078-1.30112.10471-1.94933a21.33856,21.33856,0,0,0,.02372-4.28754c.04411-1.0367-.10774-2.07138.01822-3.11251a4.11048,4.11048,0,0,0-.30894-2.2952c-.344-.71423-.384-1.51557-.7193-2.223a5.28371,5.28371,0,0,1-.499-1.87164,6.39971,6.39971,0,0,0-.4638-1.888,3.11494,3.11494,0,0,1-.18225-1.14861c-.00524-.65024.00115-1.30177.03643-1.95091a15.83467,15.83467,0,0,0-.18848-3.50141,5.8047,5.8047,0,0,1-.06237-1.16472,3.15287,3.15287,0,0,1,.40317-1.48718c.325-.5672.73056-1.07468,1.09712-1.6106a2.03082,2.03082,0,0,0,.30364-1.10959c.01995-.5193-.00494-1.04044-.01393-1.56075a2.298,2.298,0,0,0-.31541-1.11356A4.12493,4.12493,0,0,1,127.16,112.041a1.07288,1.07288,0,0,0-.11534-.37158,1.04619,1.04619,0,0,0-.52486-.53852,1.99707,1.99707,0,0,0-.74334-.19116c-3.38437-.01984-6.76881-.02208-10.15326-.03249a4.7708,4.7708,0,0,0-1.89133.41459,1.38372,1.38372,0,0,1-.76.11439,17.13228,17.13228,0,0,0-1.91653-.332c-.51935-.01867-1.03668-.08979-1.55529-.133a2.42551,2.42551,0,0,1-.75211-.19681,14.42367,14.42367,0,0,1-3.68424-2.16357c-.3991-.334-.80747-.65744-1.22016-.97459a6.7628,6.7628,0,0,0-.99641-.60773c-.69065-.3621-1.3658-.75571-2.03285-1.16025a2.80532,2.80532,0,0,0-1.87855-.32478,2.53668,2.53668,0,0,0-1.06021.45975,2.378,2.378,0,0,1-1.48432.3681,2.068,2.068,0,0,1-1.10708-.31682,2.91042,2.91042,0,0,0-1.83239-.5407c-.5195.02113-1.04424-.01431-1.5582.04655a1.78928,1.78928,0,0,0-1.0296.51391,5.14391,5.14391,0,0,0-1.14756,1.565,2.43787,2.43787,0,0,1-1.03291,1.10892c-.43889.27067-.80265.66008-1.22051.96875-.67449.49821-.95717.45389-1.73043-.13353a5.385,5.385,0,0,1-1.07311-1.12682,4.54719,4.54719,0,0,1-.41431-.65861,4.05979,4.05979,0,0,0-.98065-1.199q.09015-.55183.18012-1.1037c.03962-.24531.06194-.49462.1193-.73565.14407-.60548.48066-1.14685.58945-1.76675a6.29033,6.29033,0,0,1,.40083-1.43586,6.68988,6.68988,0,0,0,.46188-2.18044c.01983-.24821.04341-.49614.0653-.74419.38395-.06693.76586-.152,1.15245-.19583A2.08946,2.08946,0,0,0,87.29843,98.01a6.34339,6.34339,0,0,1,1.68141-.96471,2.61632,2.61632,0,0,0,.96323-.64028c.54541-.55678,1.0994-1.10595,1.625-1.681A1.86456,1.86456,0,0,0,92.058,93.685a3.20522,3.20522,0,0,1,.52052-1.44974c.36634-.5364.70565-1.09153,1.08-1.62207a1.95007,1.95007,0,0,1,.54377-.546,5.71467,5.71467,0,0,0,1.216-.96341c.17776-.18918.36088-.37438.55333-.54843a3.1269,3.1269,0,0,1,2.0956-.90089,1.04185,1.04185,0,0,0,.71163-.28323c.47484-.441.94036-.89217,1.41789-1.33022.38289-.35121.784-.68258,1.1658-1.03493a3.5066,3.5066,0,0,0,.89134-1.2618,5.26751,5.26751,0,0,1,.81258-1.32237,2.36664,2.36664,0,0,1,1.63506-.95061,3.5679,3.5679,0,0,0,1.80026-.66779c.315-.2279.65128-.42625.97192-.64674.214-.14714.41288-.316.626-.46445a3.253,3.253,0,0,1,2.17683-.70973,1.78139,1.78139,0,0,1,.75726.12626,1.102,1.102,0,0,1,.34519.17783,7.84575,7.84575,0,0,1,1.6967,2.11388,8.923,8.923,0,0,0,.84962,1.30426,4.72334,4.72334,0,0,0,1.79053,1.46282,1.2448,1.2448,0,0,0,1.12176.008,3.15257,3.15257,0,0,0,.64006-.4294c.63844-.67074,1.6015-.85655,2.23476-1.52671a7.52388,7.52388,0,0,0,2.53361-1.772,3.89,3.89,0,0,1,1.31218-.8125,8.13944,8.13944,0,0,1,2.23519-.64645,3.17427,3.17427,0,0,0,1.13292-.26829,4.87773,4.87773,0,0,1,2.27062-.435,2.29007,2.29007,0,0,1,1.41594.55612c.20331.16045.38591.34773.57325.52772a7.75908,7.75908,0,0,0,1.52268,1.20538,6.1935,6.1935,0,0,1,.95156.6751c.59658.50867,1.29829.85913,1.92385,1.32129.62666.463,1.15307,1.04952,1.8092,1.4788a1.60329,1.60329,0,0,0,.71406.28725C138.3653,84.36345,138.62422,84.37954,138.88268,84.40019Z"
          />
          <path
            id="Addis-Ketema-Woreda-4"
        class="cls-1 pathHovered NaN-ri subcity Addis-Ketema-Woreda-4-path"
         data-html="true"            d="M162.3006,163.1438c-.76131.02913-1.52854.00891-2.2826.09889a18.39763,18.39763,0,0,1-3.42374-.022,2.85255,2.85255,0,0,1-1.09644-.27846,5.441,5.441,0,0,0-1.43361-.497,4.01939,4.01939,0,0,1-1.97008-1.09151,10.306,10.306,0,0,1-1.0021-1.14558,12.59027,12.59027,0,0,0-1.03108-1.11989,1.76694,1.76694,0,0,0-1.02075-.45936,5.85806,5.85806,0,0,0-.45789-1.05938,1.71964,1.71964,0,0,1-.16684-.74613,5.32039,5.32039,0,0,1,.367-2.26451,2.90778,2.90778,0,0,0,.03006-1.89378,7.23073,7.23073,0,0,1-.58453-3.00638c-.01023-.25724-.00811-.51522-.00451-.77275.00725-.51521.02664-1.03029.02776-1.54547.0014-.644-.01047-1.28792-.0166-1.93188a1.13067,1.13067,0,0,0,.5734-.39884.99047.99047,0,0,0,.18656-.30385c.18682-.71132.83627-1.16914,1.0198-1.87965a12.90419,12.90419,0,0,0,1.94816.0457,2.12533,2.12533,0,0,0,1.08257-.388,3.58491,3.58491,0,0,0,1.09094-1.099c.27937-.43489.48288-.91793.75312-1.35937.271-.44268.58489-.85892.87682-1.28891a1.91351,1.91351,0,0,0,.26068-.728,4.83366,4.83366,0,0,1,.32805-1.12,2.68641,2.68641,0,0,0,.31542-1.11535,30.15745,30.15745,0,0,1,.26334-3.10889,7.081,7.081,0,0,1,.38976-1.50449,3.50481,3.50481,0,0,0,.17408-.75573c.06588-.64664.10819-1.29583.15363-1.9444a2.93912,2.93912,0,0,1,.36224-1.10215,9.33819,9.33819,0,0,1,1.616-2.17518,1.58316,1.58316,0,0,0,.4717-1.03966c.00033-.12931.03857-.25869.0374-.38784a2.0842,2.0842,0,0,1,.61214-1.39568c.3406-.38961.75555-.71313,1.12024-1.08307a1.74612,1.74612,0,0,0,.48495-1.03491c.03159-.25775.04766-.51828.05443-.778a2.79211,2.79211,0,0,1,.49413-1.45115,2.188,2.188,0,0,0,.31041-1.49026c-.04873-.3872-.11837-.77252-.14953-1.161a2.26807,2.26807,0,0,0-1.2471-1.85333,3.4697,3.4697,0,0,0-.36462-.13721,2.312,2.312,0,0,1-1.14284-1.00923.95312.95312,0,0,1-.00048-1.09986c.44275-.95612.4413-.95767-.03042-2.18653a1.4836,1.4836,0,0,1,.04716-1.13011c.09715-.24113.21881-.47293.30657-.71714.08761-.24382.14671-.49784.21831-.74741a2.92767,2.92767,0,0,1,1.49373.28321c.68584.35482,1.418.61781,2.09326.99884a11.24253,11.24253,0,0,1,2.51046.98942c.825.36067,1.62879.77052,2.4365,1.16969a3.71535,3.71535,0,0,0,1.489.36877,4.47589,4.47589,0,0,1,1.48372.38487c.83422.34059,1.58845.85069,2.451,1.12484.02093.9102.04375,1.82035.06237,2.7306a11.06521,11.06521,0,0,1-.4588,3.46608,11.59227,11.59227,0,0,0-.49127,3.463c.00675,1.04057-.00317,2.08122.00785,3.12172.00412.38939.03984.779.07329,1.16742a5.66825,5.66825,0,0,0,.32442,1.52115,11.59475,11.59475,0,0,0,.58649,1.44221c.803,1.48484,1.479,3.036,2.34143,4.4884a5.78994,5.78994,0,0,0,.71043.925,9.58876,9.58876,0,0,0,2.072,1.7684,22.26262,22.26262,0,0,1,2.49362,1.8688,12.84084,12.84084,0,0,0,1.21139.97832,6.343,6.343,0,0,1,1.59706,1.064c.51041.58427,1.12489,1.07759,1.6929,1.61172a3.67246,3.67246,0,0,1,.27191.27761c.08456.09841.15723.20708.23514.31124a5.27991,5.27991,0,0,0-.20112,1.13874c-.00885.64433-.04041,1.28834-.04585,1.93265a1.53814,1.53814,0,0,1-.19263.73883,6.35917,6.35917,0,0,0-.65372,1.39429,1.199,1.199,0,0,1-.18155.33983,3.52212,3.52212,0,0,0-.52014,1.82849,2.35788,2.35788,0,0,1-.3915,1.46943,4.40542,4.40542,0,0,0-.42673,1.47035,1.75731,1.75731,0,0,1-.27164.71506,3.03282,3.03282,0,0,0-.50622,1.4415,2.66948,2.66948,0,0,1-.38834,1.078,2.75112,2.75112,0,0,0-.34987,1.09227c-.01094.12819-.04365.25446-.056.3826a1.55738,1.55738,0,0,1-.25214.72224,3.33375,3.33375,0,0,0-.47594,1.84212,3.04056,3.04056,0,0,1-.43447,1.4601c-.25088.44594-.40316.9503-.67528,1.38063a2.59953,2.59953,0,0,0-.40284,1.83511,4.89332,4.89332,0,0,1-.18519.75218,10.2619,10.2619,0,0,0-.76451,2.58506,1.41027,1.41027,0,0,1-.38725.662,2.86609,2.86609,0,0,1-2.38153,1.0711c-.25855-.005-.51713-.00951-.77554-.01883a1.93373,1.93373,0,0,1-1.07054-.398,3.09321,3.09321,0,0,1-.57361-.51492,4.9,4.9,0,0,0-1.16334-1.01214,1.264,1.264,0,0,1-.51733-.98559c-.05722-.38243-.04389-.775-.0926-1.15919a3.26367,3.26367,0,0,0-.18641-.74744,4.36458,4.36458,0,0,0-1.07528-1.59141,1.76361,1.76361,0,0,0-1.02332-.49859c-.512-.05922-1.03382-.0273-1.54945-.063a5.07857,5.07857,0,0,1-1.14709-.15947,14.18967,14.18967,0,0,0-4.22281-.4809,1.26234,1.26234,0,0,0-.9436.57536A2.03451,2.03451,0,0,1,162.3006,163.1438Z"
          />
          <path
            id="Addis-Ketema-Woreda-6"
        class="cls-1 pathHovered NaN-ri subcity Addis-Ketema-Woreda-6-path"
         data-html="true"            d="M226.34064,95.38856a3.52852,3.52852,0,0,0,.594,1.82009,1.1176,1.1176,0,0,1,.15377.35695c.04673.38589.08314.77452.09367,1.16291a3.00051,3.00051,0,0,0,.43708,1.476,1.59607,1.59607,0,0,1,.238.73254q.051.97421.08523,1.94923a1.56476,1.56476,0,0,0,.1976.74562,4.3787,4.3787,0,0,1,.632,1.82321,3.05373,3.05373,0,0,0,.43588,1.07569,1.80952,1.80952,0,0,1,.22456.73712c.02608.78032.05641,1.56063.0695,2.34121a2.87275,2.87275,0,0,0,.43278,1.47547,2.38729,2.38729,0,0,1,.33209,1.10622c.03383.51926.04532,1.04.06689,1.56a2.08828,2.08828,0,0,0,.92923,1.621,4.59822,4.59822,0,0,0,.69351.34224c.47353.2076.90593.51613,1.388.69518a10.98552,10.98552,0,0,1,1.37324.73022,4.84843,4.84843,0,0,1,2.37383,1.92795,1.03236,1.03236,0,0,1,.21807.73058c-.013.25973-.00665.52038-.01941.78013a1.9499,1.9499,0,0,1-.51823,1.42891c-.23264.31274-.47613.61769-.70109.93583a1.51369,1.51369,0,0,0-.26919.72078,12.19132,12.19132,0,0,0-.021,2.727,1.10772,1.10772,0,0,0,.62654.90784,6.01306,6.01306,0,0,1,2.05852,1.76113,1.85459,1.85459,0,0,1,.2397,1.84248,8.08108,8.08108,0,0,1-.52717,1.04028,1.79621,1.79621,0,0,0,.19631,1.49016c.0816.10032.153.20918.2369.30748a1.88651,1.88651,0,0,0,1.34113.68452,13.81492,13.81492,0,0,1,1.94833-.00816,1.617,1.617,0,0,1,.716.28147,7.21726,7.21726,0,0,1,1.13309,1.067,2.15933,2.15933,0,0,1,.607,1.394c.01006.26.02343.52.026.78015a2.14082,2.14082,0,0,0,.87368,1.65793,1.365,1.365,0,0,0,.69768.30607,1.16146,1.16146,0,0,0,1.43313-.93562,6.79673,6.79673,0,0,1,.17089-.76048,1.0172,1.0172,0,0,1,.51053-.54793.88562.88562,0,0,1,.37128-.08166c.77984-.02909,1.56-.06449,2.34016-.06785a2.32434,2.32434,0,0,1,1.92241,1.14668,1.24051,1.24051,0,0,1,.179.34069,2.25834,2.25834,0,0,0,.34048.69906,2.44036,2.44036,0,0,1,.45507,1.84072c-.64773.01156-1.29547.02212-1.94318.03519a1.75506,1.75506,0,0,0-.74963.17539,5.53091,5.53091,0,0,1-1.84758.56468c-.25646.02858-.50813.10042-.762.15256a4.82685,4.82685,0,0,0-1.13955-.21963c-1.0368-.01723-2.07231-.02861-3.10806.04862a14.3409,14.3409,0,0,1-1.55181.043c-.90569-.03085-1.81029-.0957-2.715-.15142a1.979,1.979,0,0,1-.73163-.23528,3.10531,3.10531,0,0,0-1.0769-.41968,3.99653,3.99653,0,0,1-1.82679-.591,1.76183,1.76183,0,0,0-.73082-.24172,4.30577,4.30577,0,0,1-1.46856-.47282,2.60258,2.60258,0,0,0-1.11879-.27441c-1.42493-.05821-2.84971-.07233-4.27523-.02479a3.39386,3.39386,0,0,0-1.49324.36558,3.23638,3.23638,0,0,1-1.49828.33184q-2.13775.02793-4.27524.072a2.74417,2.74417,0,0,0-1.10966.30951,3.4054,3.4054,0,0,1-1.46667.44966c-.38825.01884-.777.03383-1.16566.036a3.00024,3.00024,0,0,0-1.48455.389,2.47725,2.47725,0,0,1-1.111.30362,9.8889,9.8889,0,0,1-1.93984-.0185c.09646-1.55122-.00551-3.10157-.01378-4.65236a3.80361,3.80361,0,0,0-.53256-1.83349,1.56379,1.56379,0,0,1-.19316-.741c-.013-.77493-.02542-1.55-.05286-2.32448a2.18979,2.18979,0,0,0-.31725-1.1c-.06814-.10945-.11079-.23552-.18377-.34112a1.37659,1.37659,0,0,1-.24713-.72619,4.62555,4.62555,0,0,0-.5785-1.82694,2.1693,2.1693,0,0,1,.09-1.861,3.44442,3.44442,0,0,0,.43309-1.46713c.02027-1.0336.07835-2.06649.00456-3.10054a1.11442,1.11442,0,0,0-.61052-.90727,11.82319,11.82319,0,0,0-2.06883-1.03987c-.63329-.45594-1.40592-.64261-2.05712-1.06245-.54383-.35061-1.18148-.50088-1.72964-.855-.53756-.34731-1.17712-.51041-1.7262-.85851a1.8953,1.8953,0,0,0-.73893-.18927c-.38365-.05365-.77181-.075-1.15805-.11008-.004-.64835-.00243-1.29678-.01416-1.945a1.69275,1.69275,0,0,1,.40591-1.06255c.23417-.30957.50071-.59519.75984-.88521.35335-.39548.37731-.96156.7168-1.36383.33406-.39576.66691-.79271.99171-1.196a1.36554,1.36554,0,0,0,.1836-.33775c.04921-.11928.06442-.25293.11642-.37061a1.476,1.476,0,0,1,.19967-.33049c.32614-.40234.65419-.80341.99278-1.19522.26285-.30416.28369-.71966.49993-1.04023a5.19125,5.19125,0,0,1,.48158-.608c.35121-.38175.71986-.74737,1.07445-1.126a2.37,2.37,0,0,0,.5964-.985c.17347-.62877.72327-1.078.83191-1.73823a5.81145,5.81145,0,0,1,.44-.63655c.43346-.48214.89607-.938,1.33052-1.41933a6.29236,6.29236,0,0,0,.44795-.63158,3.17385,3.17385,0,0,1,1.04588-1.60049,2.2395,2.2395,0,0,0,.5914-1.77924,4.22448,4.22448,0,0,0,.69887-.32128,2.6039,2.6039,0,0,1,1.45564-.42307,3.68517,3.68517,0,0,0,2.17375-.65759,3.38341,3.38341,0,0,0,1.626-.99276,3.53837,3.53837,0,0,1,1.29576-.81461c.35866-.13172.66468-.4065,1.02325-.53869a1.81221,1.81221,0,0,1,1.49469.05419,10.3219,10.3219,0,0,0,1.39691.64434c.48541.166.8485.58471,1.35439.72967.13732.566.17678.60968.72054.79818Z"
          />
          <path
            id="Addis-Ketema-Woreda-9"
        class="cls-1 pathHovered NaN-ri subcity Addis-Ketema-Woreda-9-path"
         data-html="true"            d="M201.40705,117.16726c.38624.03507.7744.05643,1.15805.11008a1.8953,1.8953,0,0,1,.73893.18927c.54908.3481,1.18864.5112,1.7262.85851.54816.35416,1.18581.50443,1.72964.855.6512.41984,1.42383.60651,2.05712,1.06245a11.82319,11.82319,0,0,1,2.06883,1.03987,1.11442,1.11442,0,0,1,.61052.90727c.07379,1.034.01571,2.06694-.00456,3.10054a3.44442,3.44442,0,0,1-.43309,1.46713,2.1693,2.1693,0,0,0-.09,1.861,4.62555,4.62555,0,0,1,.5785,1.82694,1.37659,1.37659,0,0,0,.24713.72619c.073.1056.11563.23167.18377.34112a2.18979,2.18979,0,0,1,.31725,1.1c.02744.77448.03982,1.54955.05286,2.32448a1.56379,1.56379,0,0,0,.19316.741,3.80361,3.80361,0,0,1,.53256,1.83349c.00827,1.55079.11024,3.10114.01378,4.65236a10.57625,10.57625,0,0,0-1.50067.41626,4.03222,4.03222,0,0,1-1.5085.34665c-1.30035.05123-2.60028.042-3.90091.00567a5.57924,5.57924,0,0,1-1.904-.36,3.42337,3.42337,0,0,0-1.144-.21211c-1.29967-.04484-2.59971-.09381-3.89991-.105q-4.87714-.04185-9.75456-.04914a9.3929,9.3929,0,0,1-1.93553-.20093c-.07791-.10416-.15058-.21283-.23514-.31124a3.67246,3.67246,0,0,0-.27191-.27761c-.568-.53413-1.18249-1.02745-1.6929-1.61172a6.343,6.343,0,0,0-1.59706-1.064,12.84084,12.84084,0,0,1-1.21139-.97832,22.26262,22.26262,0,0,0-2.49362-1.8688,9.58876,9.58876,0,0,1-2.072-1.7684,5.78994,5.78994,0,0,1-.71043-.925c-.86245-1.45244-1.53844-3.00356-2.34143-4.4884a11.59475,11.59475,0,0,1-.58649-1.44221,5.66825,5.66825,0,0,1-.32442-1.52115c-.03345-.38844-.06917-.778-.07329-1.16742-.011-1.0405-.0011-2.08115-.00785-3.12172a11.59227,11.59227,0,0,1,.49127-3.463,11.06521,11.06521,0,0,0,.4588-3.46608c-.01862-.91025-.04144-1.8204-.06237-2.7306.38625.00186.77354-.01352,1.15841.01044a2.34076,2.34076,0,0,1,1.09816.30035,2.15515,2.15515,0,0,0,1.4441.45152q.19261.01253.386.01362a2.811,2.811,0,0,1,1.461.41209,2.10415,2.10415,0,0,0,1.08923.33206q1.93069.00057,3.86136.02148a2.41141,2.41141,0,0,0,1.09828-.30529,3.18223,3.18223,0,0,1,1.44052-.48163,1.58158,1.58158,0,0,0,.72674-.22647c.63723-.44346,1.42293-.59,2.06122-1.031a1.98419,1.98419,0,0,1,1.101-.28159c.25646-.00966.51422.02.771.01373a.9832.9832,0,0,1,.91986.57147,5.17745,5.17745,0,0,0,.59109.98821,5.03048,5.03048,0,0,1,1.26092,1.90764c.15612.20412.30128.41788.47055.61044a3.77665,3.77665,0,0,1,1.01949,1.60846c.14794.20868.28941.42239.44654.62387a1.26406,1.26406,0,0,0,.2809.26363,1.84738,1.84738,0,0,0,1.05007.42235,4.32831,4.32831,0,0,0,1.52266-.1024,10.77294,10.77294,0,0,0,.9884-.59264C201.17255,117.27371,201.29027,117.22145,201.40705,117.16726Z"
          />
          <path
            id="Addis-Ketema-Woreda-3"
        class="cls-1 pathHovered NaN-ri subcity Addis-Ketema-Woreda-3-path"
         data-html="true"            d="M219.38472,182.02011a1.14168,1.14168,0,0,1-1.13983.84283,2.43586,2.43586,0,0,1-1.44315-.4768,1.09065,1.09065,0,0,0-1.09632-.04928,6.9831,6.9831,0,0,0-.68467.36389.97419.97419,0,0,1-.35692.13785,23.723,23.723,0,0,1-3.10577-.00735.82844.82844,0,0,1-.35883-.12492c-.66023-.40983-1.40759-.63982-2.0821-1.02142a2.16092,2.16092,0,0,0-1.08992-.35132c-2.33131.01106-4.66272.00534-6.99409.00226a2.06745,2.06745,0,0,0-1.1004.31244,2.76825,2.76825,0,0,1-1.46181.44213c-.51764.00293-1.03508.034-1.55276.04375a1.19034,1.19034,0,0,0-.9222.59507,14.829,14.829,0,0,1-.69625,1.3844,1.40139,1.40139,0,0,0-.11994.362,7.38225,7.38225,0,0,0-.03846.77567c-.00255,1.42479.01145,2.84969-.006,4.27424a1.798,1.798,0,0,0,.39063,1.069c.22065.31732.50865.58687.7523.88929a2.05241,2.05241,0,0,1,.2957,1.837,1.38882,1.38882,0,0,1-.186.33935,2.25589,2.25589,0,0,0-.46123,1.45118c-.01347.2586-.03378.51794-.02673.77626a1.53123,1.53123,0,0,1-.44356,1.04555,4.87241,4.87241,0,0,1-2.0966,1.67044.91849.91849,0,0,0-.48752.56124,1.1137,1.1137,0,0,0-.06556.38155,2.49317,2.49317,0,0,1-.51838,1.42889,3.27227,3.27227,0,0,0-.30037.70588c-.12948-.01013-.259-.02885-.38847-.029a2.12636,2.12636,0,0,1-1.82364-1.25594,1.41981,1.41981,0,0,1-.14021-.35928,3.18206,3.18206,0,0,0-.33509-.69719c-.25567-.447-.463-.92188-.7239-1.36551a2.21979,2.21979,0,0,0-.84345-.78733,1.024,1.024,0,0,0-.34431-.17237,3.625,3.625,0,0,0-2.6207.415.865.865,0,0,1-1.0839.0745,15.23056,15.23056,0,0,0-1.38714-.68543,6.616,6.616,0,0,1-1.21022-.96994,1.71183,1.71183,0,0,0-1.0533-.44173c-.12836.00165-.25683-.04437-.38589-.04837a1.24682,1.24682,0,0,1-.724-.25644,7.18738,7.18738,0,0,0-1.39112-.6766c-.35242-.1589-.66052-.4311-1.02209-.55109a3.66729,3.66729,0,0,1-1.30153-.82552c-.3852-.34774-.74877-.71933-1.12837-1.07346a1.60325,1.60325,0,0,0-1.03653-.47517c-1.42784-.03627-2.85692-.023-4.28475-.0592a1.59566,1.59566,0,0,1-1.03761-.47031c-.28411-.26612-.57543-.52636-.8404-.81081A5.10422,5.10422,0,0,1,165.28731,188a12.20788,12.20788,0,0,0-.99908-1.19207,1.201,1.201,0,0,1-.17411-1.4225c.2889-.56932.25266-.66454-.17881-.94088a2.03434,2.03434,0,0,1-.59872-.45634.80988.80988,0,0,1-.177-.344c-.12867-1.16347-.02625-2.33282-.07207-3.49933a1.93527,1.93527,0,0,0-.395-1.07209c-.22587-.31517-.51687-.58274-.76167-.88545a1.8556,1.8556,0,0,1-.37245-1.45671,1.24052,1.24052,0,0,1,.27618-.71094c.43431-.48132.88621-.94677,1.32429-1.4248a3.68048,3.68048,0,0,0,.80275-1.31538c.1234-.36289.38689-.67623.52975-1.03485a1.93731,1.93731,0,0,0-.04282-1.50951,3.97081,3.97081,0,0,1-.60027-2.2061c-.0021-.25977-.00262-.51952-.00417-.77929s-.00858-.51959-.00422-.77922a2.01189,2.01189,0,0,0-.5265-1.41768c-.1724-.19416-.34472-.38863-.51-.58878a1.90714,1.90714,0,0,1-.48543-1.4311c-.0082-.1296-.01166-.25949-.01731-.38925a2.03451,2.03451,0,0,0,.75362-.8599,1.26234,1.26234,0,0,1,.9436-.57536,14.18967,14.18967,0,0,1,4.22281.4809,5.07857,5.07857,0,0,0,1.14709.15947c.51563.03569,1.03746.00377,1.54945.063a1.76361,1.76361,0,0,1,1.02332.49859,4.36458,4.36458,0,0,1,1.07528,1.59141,3.26367,3.26367,0,0,1,.18641.74744c.04871.38419.03538.77676.0926,1.15919a1.264,1.264,0,0,0,.51733.98559,4.9,4.9,0,0,1,1.16334,1.01214,3.09321,3.09321,0,0,0,.57361.51492,1.93373,1.93373,0,0,0,1.07054.398c.25841.00932.517.01383.77554.01883a2.86609,2.86609,0,0,0,2.38153-1.0711,1.41027,1.41027,0,0,0,.38725-.662,10.2619,10.2619,0,0,1,.76451-2.58506,4.89332,4.89332,0,0,0,.18519-.75218,26.33074,26.33074,0,0,0,3.077-.23965,7.47561,7.47561,0,0,0,1.85829-.48154,3.40035,3.40035,0,0,1,1.13387-.20913c.64319-.02733,1.28828-.01018,1.93136-.03891a3.25517,3.25517,0,0,0,1.12921-.22969,9.11959,9.11959,0,0,1,3.38356-.69138,5.12179,5.12179,0,0,0,1.51786-.23858,5.12492,5.12492,0,0,1,1.12877-.24614,42.96191,42.96191,0,0,1,5.01567-.19471c1.931.04256,3.8637.01474,5.79563.008a3.21856,3.21856,0,0,0,1.12748-.2182,3.64866,3.64866,0,0,1,1.86678-.38925,13.05506,13.05506,0,0,0,2.30664-.1871,9.62021,9.62021,0,0,1,1.92446-.12877c.64376.01228,1.28723.03846,1.93084.05853a5.62957,5.62957,0,0,1,.811,2.12824,2.49066,2.49066,0,0,0,.325,1.09754,4.53556,4.53556,0,0,1,.41844,1.47323,31.23911,31.23911,0,0,1,.19952,4.99538,2.53682,2.53682,0,0,0,.26752,1.49622,4.25224,4.25224,0,0,1,.35678,1.87051,4.66443,4.66443,0,0,0,.48459,2.22847,1.56544,1.56544,0,0,1,.00711,1.12558c-.08173.24277-.17356.48232-.24959.72681a5.53713,5.53713,0,0,0-.21548,2.28066,4.10924,4.10924,0,0,0,.60068,1.39724A3.465,3.465,0,0,1,219.38472,182.02011Z"
          />
          <path
            id="Addis-Ketema-Woreda-8"
        class="cls-1 pathHovered NaN-ri subcity Addis-Ketema-Woreda-8-path"
         data-html="true"            d="M216.241,160.84111c-.64361-.02007-1.28708-.04625-1.93084-.05853a9.62021,9.62021,0,0,0-1.92446.12877,13.05506,13.05506,0,0,1-2.30664.1871,3.64866,3.64866,0,0,0-1.86678.38925,3.21856,3.21856,0,0,1-1.12748.2182c-1.93193.00677-3.8646.03459-5.79563-.008a42.96191,42.96191,0,0,0-5.01567.19471,5.12492,5.12492,0,0,0-1.12877.24614,5.12179,5.12179,0,0,1-1.51786.23858,9.11959,9.11959,0,0,0-3.38356.69138,3.25517,3.25517,0,0,1-1.12921.22969c-.64308.02873-1.28817.01158-1.93136.03891a3.40035,3.40035,0,0,0-1.13387.20913,7.47561,7.47561,0,0,1-1.85829.48154,26.33073,26.33073,0,0,1-3.077.23965,2.59936,2.59936,0,0,1,.40281-1.83511c.27212-.43033.4244-.93469.67528-1.38063a3.04056,3.04056,0,0,0,.43447-1.4601,3.33375,3.33375,0,0,1,.47594-1.84212,1.55738,1.55738,0,0,0,.25214-.72224c.01233-.12814.045-.25441.056-.3826a2.75112,2.75112,0,0,1,.34987-1.09227,2.66948,2.66948,0,0,0,.38834-1.078,3.03282,3.03282,0,0,1,.50622-1.4415,1.75731,1.75731,0,0,0,.27164-.71506,4.40542,4.40542,0,0,1,.42673-1.47035,2.35788,2.35788,0,0,0,.3915-1.46943,3.52212,3.52212,0,0,1,.52014-1.82849,1.199,1.199,0,0,0,.18155-.33983,6.35917,6.35917,0,0,1,.65372-1.39429,1.53814,1.53814,0,0,0,.19263-.73883c.00544-.64431.037-1.28832.04585-1.93265a5.27991,5.27991,0,0,1,.20112-1.13874,9.3929,9.3929,0,0,0,1.93553.20093q4.8773.01509,9.75456.04914c1.3002.01116,2.60024.06013,3.89991.105a3.42337,3.42337,0,0,1,1.144.21211,5.57924,5.57924,0,0,0,1.904.36c1.30063.03636,2.60056.04556,3.90091-.00567a4.03222,4.03222,0,0,0,1.5085-.34665,10.57625,10.57625,0,0,1,1.50067-.41626,9.8889,9.8889,0,0,0,1.93984.0185,2.47725,2.47725,0,0,0,1.111-.30362,3.00024,3.00024,0,0,1,1.48455-.389c.38863-.00219.77741-.01718,1.16566-.036a3.4054,3.4054,0,0,0,1.46667-.44966,2.74417,2.74417,0,0,1,1.10966-.30951q2.13745-.04334,4.27524-.072a3.23638,3.23638,0,0,0,1.49828-.33184,3.39386,3.39386,0,0,1,1.49324-.36558c1.42552-.04754,2.8503-.03342,4.27523.02479a2.60258,2.60258,0,0,1,1.11879.27441,4.30577,4.30577,0,0,0,1.46856.47282,1.76183,1.76183,0,0,1,.73082.24172,3.99653,3.99653,0,0,0,1.82679.591,3.10531,3.10531,0,0,1,1.0769.41968,1.979,1.979,0,0,0,.73163.23528c.90474.05572,1.80934.12057,2.715.15142a14.3409,14.3409,0,0,0,1.55181-.043c1.03575-.07723,2.07126-.06585,3.10806-.04862a4.82685,4.82685,0,0,1,1.13955.21963c-.18193,1.41334-.14247,2.8376-.20882,4.25664a1.73794,1.73794,0,0,1-.2078.73614c-.17926.34262-.34064.69453-.5127,1.04094a1.08574,1.08574,0,0,1-.83684.71051,3.2247,3.2247,0,0,0-2.05281.96117,2.53631,2.53631,0,0,1-.61705.46288,6.59242,6.59242,0,0,0-1.91472,1.28493,2.11686,2.11686,0,0,1-.64649.41505,4.30248,4.30248,0,0,0-1.29824.82242c-.29873.24558-.61362.47152-.92134.70621a5.43461,5.43461,0,0,0-1.91884,1.27094,1.34267,1.34267,0,0,1-.32316.21236,4.9,4.9,0,0,0-1.63163,1.00969,7.07624,7.07624,0,0,1-1.65664.96854,4.26163,4.26163,0,0,1-1.81752.57308,3.44378,3.44378,0,0,0-1.83471.52446,1.83144,1.83144,0,0,1-.74379.1845c-1.16191.03252-2.32342.07916-3.48507.12109a1.55446,1.55446,0,0,0-.729.23174,2.97261,2.97261,0,0,1-1.84384.48445c-1.421.02143-2.84237.02565-4.26358.03609a1.40537,1.40537,0,0,0-.74012.19121,9.77718,9.77718,0,0,1-1.40576.63424A1.02273,1.02273,0,0,0,216.241,160.84111Z"
          />
          <path
            id="Addis-Ketema-Woreda-1"
        class="cls-1 pathHovered NaN-ri subcity Addis-Ketema-Woreda-1-path"
         data-html="true"            d="M216.241,160.84111a1.02273,1.02273,0,0,1,.52345-.53737,9.77718,9.77718,0,0,0,1.40576-.63424,1.40537,1.40537,0,0,1,.74012-.19121c1.42121-.01044,2.84254-.01466,4.26358-.03609a2.97261,2.97261,0,0,0,1.84384-.48445,1.55446,1.55446,0,0,1,.729-.23174c1.16165-.04193,2.32316-.08857,3.48507-.12109a1.83144,1.83144,0,0,0,.74379-.1845,3.44378,3.44378,0,0,1,1.83471-.52446,4.26163,4.26163,0,0,0,1.81752-.57308,7.07624,7.07624,0,0,0,1.65664-.96854,4.9,4.9,0,0,1,1.63163-1.00969,1.34267,1.34267,0,0,0,.32316-.21236,5.43461,5.43461,0,0,1,1.91884-1.27094c.30772-.23469.62261-.46063.92134-.70621a4.30248,4.30248,0,0,1,1.29824-.82242,2.11686,2.11686,0,0,0,.64649-.41505,6.59242,6.59242,0,0,1,1.91472-1.28493,2.53631,2.53631,0,0,0,.61705-.46288,3.2247,3.2247,0,0,1,2.05281-.96117,1.08574,1.08574,0,0,0,.83684-.71051c.17206-.34641.33344-.69832.5127-1.04094a1.73794,1.73794,0,0,0,.2078-.73614c.06635-1.419.02689-2.8433.20882-4.25664.25383-.05214.5055-.124.762-.15256a5.53091,5.53091,0,0,0,1.84758-.56468,1.75506,1.75506,0,0,1,.74963-.17539c.64771-.01307,1.29545-.02363,1.94318-.03519a1.3836,1.3836,0,0,0,1.13038.78189c.24015.02219.4824.027.7209.06a3.27692,3.27692,0,0,1,1.02674.3363,4.00789,4.00789,0,0,0,.38822,1.4892c.19309.337.592.483.87723.74191a.78743.78743,0,0,1-.111,1.30942c-.10724.07257-.21741.14092-.32779.20872a5.09106,5.09106,0,0,1-.66664.39765,1.15912,1.15912,0,0,0-.65.90367,4.06918,4.06918,0,0,0-.00942,1.92211,1.55371,1.55371,0,0,0,.81682,1.22557,4.04128,4.04128,0,0,0,2.53248.82365,1.81071,1.81071,0,0,1,1.07037.40692c.31629.22446.60971.48083.921.71266a1.56776,1.56776,0,0,1,.66376,1.678c-.60637.25756-1.00277.82631-1.60829,1.0851a8.88207,8.88207,0,0,0-2.18927,2.19757c-.51351.75-1.06958,1.47092-1.61217,2.20076a1.35156,1.35156,0,0,1-.63227.43667,3.14319,3.14319,0,0,1-1.13323.2437,4.42968,4.42968,0,0,0-1.15667.1456,1.65719,1.65719,0,0,0-1.40855.46652c-1.01152.99734-2.07118,1.94109-3.16487,2.847a22.33564,22.33564,0,0,0-3.26833,3.28965,1.97885,1.97885,0,0,1-.95071.62826,3.18923,3.18923,0,0,0-.98742.5975,7.947,7.947,0,0,1-2.01063,1.13607,5.52131,5.52131,0,0,0-1.95489,1.22192,5.06033,5.06033,0,0,1-1.608,1.05215c-1.11354.88133-2.34908,1.58857-3.483,2.44125-.41163.3096-.84652.5882-1.25954.89608a3.735,3.735,0,0,0-.5743.51766,2.57648,2.57648,0,0,0-.57042.99551,20.45513,20.45513,0,0,0-.3718,2.68,1.60713,1.60713,0,0,0-.74155.01636,1.48613,1.48613,0,0,0-.95159.54178,9.73316,9.73316,0,0,1-1.12265,1.49708,15.76475,15.76475,0,0,1-1.98233,1.72215,2.76131,2.76131,0,0,1-.66383.34267c-.35127.13079-.71566.22632-1.07449.33682a1.04787,1.04787,0,0,0-1.03625-.28759,1.86175,1.86175,0,0,1-1.01527-.48734,9.37319,9.37319,0,0,0-.78456-.84437,2.102,2.102,0,0,0-1.04712-.43861,5.074,5.074,0,0,0-.76939-.04227c-.51423.00751-1.02819.03248-1.54228.05026a3.465,3.465,0,0,0-.13815-.35912,4.10924,4.10924,0,0,1-.60068-1.39724,5.53713,5.53713,0,0,1,.21548-2.28066c.076-.24449.16786-.484.24959-.72681a1.56544,1.56544,0,0,0-.00711-1.12558,4.66443,4.66443,0,0,1-.48459-2.22847,4.25224,4.25224,0,0,0-.35678-1.87051,2.53682,2.53682,0,0,1-.26752-1.49622,31.23911,31.23911,0,0,0-.19952-4.99538,4.53556,4.53556,0,0,0-.41844-1.47323,2.49066,2.49066,0,0,1-.325-1.09754A5.62957,5.62957,0,0,0,216.241,160.84111Z"
          />
        </g>
        <path
          id="addis_ketema_bound"
          class="cls-2"
          d="M261.39664,152.85627c-.31133-.23183-.60475-.4882-.921-.71266a1.81071,1.81071,0,0,0-1.07037-.40692,4.04128,4.04128,0,0,1-2.53248-.82365,1.55371,1.55371,0,0,1-.81682-1.22557,4.06918,4.06918,0,0,1,.00942-1.92211,1.15912,1.15912,0,0,1,.65-.90367,5.09106,5.09106,0,0,0,.66664-.39765c.11038-.0678.22055-.13615.32779-.20872a.78743.78743,0,0,0,.111-1.30942c-.28521-.25889-.68414-.40494-.87723-.74191a4.00789,4.00789,0,0,1-.38822-1.4892,3.27692,3.27692,0,0,0-1.02674-.3363c-.2385-.033-.48075-.03777-.7209-.06a1.3836,1.3836,0,0,1-1.13038-.78189,2.44036,2.44036,0,0,0-.45507-1.84072,2.25834,2.25834,0,0,1-.34048-.69906,1.24051,1.24051,0,0,0-.179-.34069,2.32434,2.32434,0,0,0-1.92241-1.14668c-.78018.00336-1.56032.03876-2.34016.06785a.88562.88562,0,0,0-.37128.08166,1.0172,1.0172,0,0,0-.51053.54793,6.79673,6.79673,0,0,0-.17089.76048,1.16146,1.16146,0,0,1-1.43313.93562,1.365,1.365,0,0,1-.69768-.30607,2.14082,2.14082,0,0,1-.87368-1.65793c-.00258-.2601-.016-.52014-.026-.78015a2.15933,2.15933,0,0,0-.607-1.394,7.21726,7.21726,0,0,0-1.13309-1.067,1.617,1.617,0,0,0-.716-.28147,13.81492,13.81492,0,0,0-1.94833.00816,1.88651,1.88651,0,0,1-1.34113-.68452c-.08389-.0983-.1553-.20716-.2369-.30748a1.79621,1.79621,0,0,1-.19631-1.49016,8.08108,8.08108,0,0,0,.52717-1.04028,1.85459,1.85459,0,0,0-.2397-1.84248,6.01306,6.01306,0,0,0-2.05852-1.76113,1.10772,1.10772,0,0,1-.62654-.90784,12.19132,12.19132,0,0,1,.021-2.727,1.51369,1.51369,0,0,1,.26919-.72078c.225-.31814.46845-.62309.70109-.93583a1.9499,1.9499,0,0,0,.51823-1.42891c.01276-.25975.00644-.5204.01941-.78013a1.03236,1.03236,0,0,0-.21807-.73058,4.84843,4.84843,0,0,0-2.37383-1.92795,10.98552,10.98552,0,0,0-1.37324-.73022c-.482-.17905-.91442-.48758-1.388-.69518a4.59822,4.59822,0,0,1-.69351-.34224,2.08828,2.08828,0,0,1-.92923-1.621c-.02157-.52-.03306-1.04073-.06689-1.56a2.38729,2.38729,0,0,0-.33209-1.10622,2.87275,2.87275,0,0,1-.43278-1.47547c-.01309-.78058-.04342-1.56089-.0695-2.34121a1.80952,1.80952,0,0,0-.22456-.73712,3.0537,3.0537,0,0,1-.43588-1.0757,4.37893,4.37893,0,0,0-.632-1.82322,1.56459,1.56459,0,0,1-.1976-.7456q-.03279-.975-.08523-1.94924a1.59614,1.59614,0,0,0-.238-.73254,3.00047,3.00047,0,0,1-.43708-1.476c-.01053-.38837-.04694-.777-.09367-1.16292a1.11793,1.11793,0,0,0-.15377-.35694,3.52845,3.52845,0,0,1-.594-1.82007l-.00112.00572c-.54376-.18849-.58322-.23221-.72054-.79817-.50589-.145-.869-.56372-1.35439-.72966a10.32074,10.32074,0,0,1-1.39691-.64435,1.81217,1.81217,0,0,0-1.49469-.05419c-.35857.13218-.66459.407-1.02325.53869a3.53839,3.53839,0,0,0-1.29576.81462,3.38329,3.38329,0,0,1-1.626.99274,3.68493,3.68493,0,0,1-2.17375.65758,2.60424,2.60424,0,0,0-1.45564.42309,4.22367,4.22367,0,0,1-.69887.32128q.00455.24836,0,0c-2.4725-.00129-4.94469.08354-7.41765.01545a2.30808,2.30808,0,0,1-1.0979-.34875,13.96552,13.96552,0,0,1-2.06742-1.07118,3.55031,3.55031,0,0,1-1.63163-1.01486c-.36784-.36779-.74343-.73015-1.14041-1.06555a2.36074,2.36074,0,0,0-.67181-.37983,1.82867,1.82867,0,0,1-.68174-.36429c-.97082-.97467-1.19722-.80149-2.595-1.67912a1.27775,1.27775,0,0,0-.3323-.20151,4.014,4.014,0,0,1-1.8851-1.32472,3.2438,3.2438,0,0,1-.85256-1.28453,1.72735,1.72735,0,0,0-.41752-.64909c-1.268-1.308-2.55449-2.59805-3.82391-3.90468a5.46092,5.46092,0,0,0-1.645-1.001,6.98553,6.98553,0,0,0-1.40509-.65238,12.34066,12.34066,0,0,0-1.72287-.89023c-.46542-.2231-.90443-.49279-1.39167-.685-.47706-.18824-.8731-.54271-1.37536-.71923a15.03744,15.03744,0,0,0-1.74616-.83429,6.4885,6.4885,0,0,0-1.37739-.71766,1.73485,1.73485,0,0,1-.66295-.39429c-1.25168-1.13912-2.4385-2.34523-3.59327-3.58139a6.91236,6.91236,0,0,1-.647-.97128c-.12263.03929-.24341.08635-.36827.11649a1.68024,1.68024,0,0,1-1.46383-.21185,7.94861,7.94861,0,0,0-1.92426-1.27125c-.30624-.23427-.63262-.44664-.91542-.70641q-2.56121-2.35268-4.98854-4.84392c-.72021-.73664-1.44114-1.47261-2.17079-2.19981-.18064-.18-.39953-.32113-.5954-.48654a.80451.80451,0,0,0-1.2441.39309,7.1412,7.1412,0,0,0-.15234.75166c-.38358.05826-.766.127-1.15109.17184a1.85563,1.85563,0,0,0-1.05315.43586c-1.05788.95173-1.99092,2.03416-3.07676,2.95757a1.69842,1.69842,0,0,1-1.05722.418c-.6461.02179-1.29338.01388-1.94014.0092a2.10673,2.10673,0,0,1-1.39775-.58363,16.45,16.45,0,0,1-2.11207-2.27023,2.90756,2.90756,0,0,1-.63229-1.39336,13.61743,13.61743,0,0,0-.802-2.17344,6.88754,6.88754,0,0,0-.81934-1.311,1.5678,1.5678,0,0,0-.39394.17838,1.56775,1.56775,0,0,1,.39391-.17838c.01691-.64251.03789-1.285.04919-1.92764a2.45684,2.45684,0,0,0-.26171-1.11409c-.1671-.347-.36016-.68142-.54154-1.02149-.24218-.45412-.67787-.77426-.87282-1.26109-.12972-.00439-.26037-.00048-.389-.0145a2.4152,2.4152,0,0,0-2.11787.7344c-.63255.65177-1.28748,1.28246-1.94909,1.9049a2.61961,2.61961,0,0,1-.64728.42313c-.93312.45484-1.93668.73954-2.879,1.17336a3.83385,3.83385,0,0,1-1.11872.31293c-.64344.08325-1.288.16074-1.93393.22125a12.59777,12.59777,0,0,1-3.4882-.188,2.92085,2.92085,0,0,1-.74095-.22711c-1.51393-.73736-2.984-1.56049-4.49236-2.30962a14.192,14.192,0,0,1-1.3575-.76077,3.12751,3.12751,0,0,1-1.1099-1.07327c-.43512-.79486-.89146-1.57823-1.28114-2.39941a4.1071,4.1071,0,0,1-.40711-1.87638,2.56171,2.56171,0,0,0-.643-1.78273c-.16827-.19454-.28488-.43295-.44022-.64a2.16992,2.16992,0,0,0-.28235-.2643,1.19757,1.19757,0,0,0-1.08679-.24046,1.51179,1.51179,0,0,0-.3689.10557c-.44825.2611-.89329.52889-1.3282.81164a3.64882,3.64882,0,0,1-1.83964.55464c-1.94512.10256-3.89123.09307-5.83654.00462-.388-.01764-.773-.09288-1.16065-.12783a4.00652,4.00652,0,0,1-1.11132-.33549,7.336,7.336,0,0,1-2.799-2.05443,3.07992,3.07992,0,0,1-.4419-.63531c-.23392-.4628-.4355-.94191-.65043-1.4143a13.761,13.761,0,0,0-.81421-2.59018,15.69987,15.69987,0,0,0-1.86723-4.25418,6.02351,6.02351,0,0,0-.97929-1.20679,2.012,2.012,0,0,0-1.34337-.69148,3.114,3.114,0,0,1-1.13967-.21653,11.94841,11.94841,0,0,0-1.80793-.70612,2.41094,2.41094,0,0,1-.6958-.33782c-.646-.43367-1.28684-.87626-1.91043-1.34125a2.5526,2.5526,0,0,1-.51322-.579,8.5431,8.5431,0,0,1-.9859-1.66982,10.08512,10.08512,0,0,1-.65627-1.82221,4.623,4.623,0,0,0-1.65936-2.56176A11.69338,11.69338,0,0,0,84.84,26.1716a2.19676,2.19676,0,0,0-1.13011-.23192c-.51794.02708-1.03558.05917-1.55336.08911h0c-.08313-.09908-.17163-.19416-.24847-.298a1.32562,1.32562,0,0,0-1.32653-.59126,9.73489,9.73489,0,0,0-1.14907.1739,11.40791,11.40791,0,0,1-2.684.342c-.64492.01649-1.28813.10852-1.93153.1727a5.39349,5.39349,0,0,0-1.50216.36419,7.07987,7.07987,0,0,1-.71856.289A11.93,11.93,0,0,0,68.809,28.39373c-1.1481.838-2.32363,1.64-3.4201,2.5495a1.65613,1.65613,0,0,1-1.08657.34431,4.65792,4.65792,0,0,1-.76246-.07157.79915.79915,0,0,1-.34223-.17694,2.16934,2.16934,0,0,1-.68766-2.4284c.05493-.11706.11007-.23412.16686-.35032a5.4071,5.4071,0,0,0,.50883-1.8596A24.02639,24.02639,0,0,0,63.241,22.14a1.73668,1.73668,0,0,0-.46183-1.04033c-.43589-.47744-.8877-.94034-1.32523-1.4163a4.38746,4.38746,0,0,1-.4892-.60108,13.08485,13.08485,0,0,1-1.61944-3.50057,1.49116,1.49116,0,0,1-.00935-.76987,3.87909,3.87909,0,0,1,.2275-.73449,5.05813,5.05813,0,0,0,.46344-2.25875c-.00184-.3876-.01609-.776-.04553-1.16244a5.60815,5.60815,0,0,0-.43186-1.87938c-.15707-.35323-.25716-.73139-.40446-1.08949a4.33388,4.33388,0,0,0-1.11812-1.56273,2.10389,2.10389,0,0,0-.65672-.40348,10.50462,10.50462,0,0,1-1.4575-.50572c-.4479-.25495-.92939-.45378-1.3642-.72786a1.71025,1.71025,0,0,1-.68443-.90887,7.0238,7.0238,0,0,1-.29456-1.51833A2.46214,2.46214,0,0,0,52.9461.67438a1.78144,1.78144,0,0,0-.65334.93447,2.04726,2.04726,0,0,0-.07925.38194,3.14682,3.14682,0,0,1-.78246,1.74983c-.08459.09889-.17654.19235-.25329.297A1.632,1.632,0,0,0,50.7851,5.488a4.73255,4.73255,0,0,1,.06218.77087,12.79439,12.79439,0,0,1-.41481,2.299,1.92519,1.92519,0,0,1-.411.65134,6.94073,6.94073,0,0,1-.5781.52169c-.50069.46542-.55812.826-.2058,1.31187a5.49113,5.49113,0,0,1,.44159.63994,1.77615,1.77615,0,0,1,.1871,1.132,2.03422,2.03422,0,0,1-.329.69468,5.66038,5.66038,0,0,1-.83727.80616.97247.97247,0,0,0-.14183,1.06645c.14481.21562.28321.43715.44595.63875a2.71414,2.71414,0,0,1,.92212,2.45276,14.08008,14.08008,0,0,0,.07529,1.94633.98772.98772,0,0,0,.14576.36033,3.96745,3.96745,0,0,0,.44778.63,4.56658,4.56658,0,0,1,1.03205,1.627,2.41929,2.41929,0,0,0,.721.90968,2.61113,2.61113,0,0,1,.819,1.29251c.13032.50291.307.99365.44492,1.49479a3.50926,3.50926,0,0,1,.01073,1.92411c-.07128.24956-.18448.4875-.25092.73807a1.12823,1.12823,0,0,0,.01265.76071,4.39892,4.39892,0,0,1,.362,2.28431,15.06427,15.06427,0,0,1-.31112,2.707,2.20354,2.20354,0,0,0,.40713,1.84047c.07291.10757.13067.22535.20339.33306a3.64509,3.64509,0,0,1,.55325,1.44467,8.03253,8.03253,0,0,1,.11809,2.32788,1.5026,1.5026,0,0,1-.89564,1.16344c-.334.18815-.67753.36277-.78379.789-.09427.37826-.20957.75189-.33115,1.12248a2.59747,2.59747,0,0,0-.05,1.531c.06892.25071.17091.49322.22729.74622a1.85868,1.85868,0,0,1-.02548,1.14771,2.18978,2.18978,0,0,0-.17116,1.51094,3.70743,3.70743,0,0,1,.167.76029,29.07563,29.07563,0,0,0,.29785,3.10257,6.12613,6.12613,0,0,1,.006,1.16788c-.00329.39-.0124.78-.0133,1.17a3.13361,3.13361,0,0,0,.20632,1.14565,8.92386,8.92386,0,0,1,.482,1.88263c.12025.76882.30316,1.529.48731,2.286a1.15622,1.15622,0,0,0,.44206.62048c.30917.23322.651.42294.9636.65205a1.26927,1.26927,0,0,1,.45556.61677c.12342.36777.19754.75261.32886,1.11714a1.56858,1.56858,0,0,0,1.37748,1.18952c.38842.03271.77892.04044,1.16824.06352a1.76643,1.76643,0,0,1,.38368.046,2.15858,2.15858,0,0,1,.97089.61653c.71722,1.23587,1.30052,2.54593,2.07692,3.74942a2.62275,2.62275,0,0,1,.13861.361,1.20709,1.20709,0,0,1,.04643.7612,4.83651,4.83651,0,0,1-.78566,1.77009,2.7212,2.7212,0,0,0-.30408,2.24082,9.98223,9.98223,0,0,1,.38216,1.50837,1.24762,1.24762,0,0,1-.15821.74255,1.55,1.55,0,0,1-1.24473.79825c-.38524.035-.77763-.01769-1.16543-.00024a1.74147,1.74147,0,0,0-1.3055.74007,2.37832,2.37832,0,0,0-.38155.6747,2.708,2.708,0,0,0,.00133,2.2627,1.64037,1.64037,0,0,1,.122,1.1376c-.1644.76167-.40329,1.507-.5796,2.26651a2.83575,2.83575,0,0,0-.01347.77469,1.44007,1.44007,0,0,0,.1029.37511,2.94419,2.94419,0,0,1,.0586,1.913,2.23207,2.23207,0,0,0,.03553,1.51914,2.33591,2.33591,0,0,1,.148.762c.01755,1.4311.0108,2.86247.01983,4.29369.00494.78027.00277,1.56168.047,2.34011a1.36219,1.36219,0,0,0,.47112,1.02857,7.59231,7.59231,0,0,1,.5528.55054c-.058.11622-.10971.23607-.17509.348a1.66782,1.66782,0,0,1-.821.77974,3.71779,3.71779,0,0,0-.69036.35237,2.8383,2.8383,0,0,1-1.44939.50157,1.35574,1.35574,0,0,0-.73788.20884,3.6196,3.6196,0,0,1-2.22031.56218,2.00525,2.00525,0,0,0-1.10193.32089,2.93334,2.93334,0,0,1-1.46689.44726,1.67522,1.67522,0,0,0-1.03627.47735c-.48216.43376-.9292.90634-1.40466,1.34787a2.694,2.694,0,0,1-.99324.585,7.71543,7.71543,0,0,0-1.0383.51945,2.07773,2.07773,0,0,1-.74484.19306,2.23524,2.23524,0,0,0-1.10267.32772,2.72712,2.72712,0,0,1-1.454.48867,2.65764,2.65764,0,0,0-1.08641.38465,2.34128,2.34128,0,0,1-1.10384.32183c-1.03863.00029-2.07729.02737-3.11592.028a2.01159,2.01159,0,0,0-1.37384.63982c-.76382.70274-1.49664,1.43909-2.25507,2.14786a1.17162,1.17162,0,0,1-.70433.29548,2.33048,2.33048,0,0,0-2.03357.95944c-.3784.35549-.73869.73175-1.1335,1.06767a1.90835,1.90835,0,0,1-.67338.37127,2.47261,2.47261,0,0,0-.97689.608,1.75318,1.75318,0,0,0-.5498,1.00139,7.13633,7.13633,0,0,0-.078,1.16452,1.5899,1.5899,0,0,1-.42107,1.05923,4.87824,4.87824,0,0,1-2.08454,1.6923,1.7431,1.7431,0,0,0-.64061.429c-.65172.63293-1.29418,1.27632-1.91629,1.9382a1.87015,1.87015,0,0,0-.37728.66976,3.1751,3.1751,0,0,1-.60351.98687,9.92569,9.92569,0,0,0-.73176.90763c-.20632.32293-.29815.72257-.51978,1.03153-.45941.64056-.59378,1.43639-1.04743,2.07383a1.30034,1.30034,0,0,0-.22749.73278,2.84282,2.84282,0,0,1-.49317,1.451c-.34737.54556-.473,1.204-.85241,1.73825a1.51861,1.51861,0,0,0-.21867.7354,2.3905,2.3905,0,0,1-.49551,1.44848,2.56866,2.56866,0,0,0-.31165,1.10942,1.86564,1.86564,0,0,1-.20265.741,5.358,5.358,0,0,0-.65334,1.4034,7.62511,7.62511,0,0,0-.87234,1.72747c-.47663.62476-.63877,1.41184-1.07232,2.062-.359.53836-.47787,1.20142-.86133,1.73334a1.561,1.561,0,0,0-.21676.73523,2.94562,2.94562,0,0,1-.516,1.44059c-.30262.57-.50572,1.18426-.85389,1.73823-.27122.43152-.38685.95223-.67709,1.38966-.35764.53905-.48314,1.19882-.86528,1.73131a1.47531,1.47531,0,0,0-.21028.73669c-.07274.71611.02043.56677-.51044,1.44154a1.393,1.393,0,0,0-.1861.33864,2.94744,2.94744,0,0,1-.779,1.32408c-.90839.92792-1.8234,1.84939-2.7234,2.78534a4.89447,4.89447,0,0,0-.446.635c-.11792.65758-.64781,1.1221-.8284,1.74409-.18365.63245-.70095,1.08872-.85811,1.736a2.50033,2.50033,0,0,1-.36644.67935,5.345,5.345,0,0,0-.46656,1.06333,3.205,3.205,0,0,1-.3884.67315,1.386,1.386,0,0,0-.24237.72866,2.65171,2.65171,0,0,1-.446,1.46474,2.17638,2.17638,0,0,0-.36915,1.08793c-.03762.38749-.04887.77755-.07169,1.16645,1.42943.00481,2.85884.01209,4.28825.01283a2.01727,2.01727,0,0,0,1.10782-.2994,2.59574,2.59574,0,0,1,1.46334-.45145c.12984.00219.26-.0042.3897-.011a2.20981,2.20981,0,0,0,1.46463-.43054,1.78254,1.78254,0,0,1,.71215-.28753,4.20068,4.20068,0,0,0,1.82365-.59323c.55087-.32846,1.18489-.50908,1.73643-.855a1.72862,1.72862,0,0,1,.74656-.17933,2.76731,2.76731,0,0,0,1.10441-.32806,2.01806,2.01806,0,0,1,1.46031-.43915c.51925-.0004,1.03851.02875,1.55779.02952a1.48978,1.48978,0,0,1,.73475.2241,2.46354,2.46354,0,0,0,1.83705.50693c.90948.01111,1.81964-.01893,2.72886.0001a2.07685,2.07685,0,0,0,1.08784-.3677,2.51381,2.51381,0,0,1,.69373-.34066c.65124-.13812,1.08755-.711,1.73986-.84684a1.36145,1.36145,0,0,0,.35085-.15892,1.42688,1.42688,0,0,0,.32836-.20849c.649-.637,1.30224-1.27032,1.929-1.92874a2.46174,2.46174,0,0,0,.56031-1.01154,4.76064,4.76064,0,0,1,.34731-.68944,2.43171,2.43171,0,0,0,.3394-1.0978q-.01708-5.45839-.00329-10.91689a2.46654,2.46654,0,0,0-.33587-1.09952c-.05674-.11649-.14414-.219-.19394-.33776a2.01946,2.01946,0,0,1,.03011-1.859,7.973,7.973,0,0,0,.53015-1.03486,14.88713,14.88713,0,0,1,.71683-1.37179c.57065-1.126.71861-1.29661,1.49869-1.68508.52469-.11146.89876-.52348,1.37777-.70562.48822-.1856.93624-.43539,1.39985-.66385a1.80114,1.80114,0,0,1,1.845.08463c.44234.28171.95628.40454,1.39753.66288a3.76479,3.76479,0,0,0,1.80963.62339,1.08857,1.08857,0,0,1,.7061.28922c.85551.7964,1.69166,1.61374,2.55274,2.404a1.71769,1.71769,0,0,0,.67218.37314,2.67411,2.67411,0,0,1,.99271.59168,6.71043,6.71043,0,0,0,1.95668,1.21878,3.27622,3.27622,0,0,0,1.80894.621,1.76259,1.76259,0,0,1,.71613.27889,2.21811,2.21811,0,0,0,1.46551.427c1.03932.01335,2.07852.03292,3.11775.05128a1.35647,1.35647,0,0,1,.72832.23955,3.06627,3.06627,0,0,0,1.8441.49358c.3888-.01463.78.033,1.16875.01722a1.92906,1.92906,0,0,1,1.08072.38624,2.84434,2.84434,0,0,0,.69507.3395,2.3208,2.3208,0,0,1,.99486.58656c.93374.90376,1.85887,1.8164,2.78529,2.72772a2.7811,2.7811,0,0,0,.96936.63426,2.76628,2.76628,0,0,1,.71011.30476,2.89572,2.89572,0,0,0,1.8365.49273c2.989-.02032,5.97821-.0232,8.96733-.03329a1.3522,1.3522,0,0,0,.73366-.222,9.15285,9.15285,0,0,1,1.39878-.66385c.47357-.2.87-.54825,1.3771-.71206a10.43935,10.43935,0,0,0,1.02092-.5543,11.71845,11.71845,0,0,0,1.4009-.65949,1.92746,1.92746,0,0,1,1.85411-.05974,3.60094,3.60094,0,0,1,.34126.1881,2.26134,2.26134,0,0,0,1.09878.33656c.2597.00017.52021.008.77891.02969a2.29729,2.29729,0,0,1,1.10348.324,2.581,2.581,0,0,0,1.46186.44864c1.55932-.014,3.11871-.01757,4.67808-.0292a1.60659,1.60659,0,0,0,.73173-.23059,3.04053,3.04053,0,0,1,1.44521-.51423,1.75955,1.75955,0,0,0,.74432-.18658c.6526-.43066,1.43186-.60608,2.07714-1.04545a2.2121,2.2121,0,0,1,1.09817-.33718,1.55449,1.55449,0,0,0,.74517-.18236c.65084-.4347,1.42445-.61992,2.07691-1.0465a2.09271,2.09271,0,0,1,1.1004-.3236c.64941-.02207,1.299-.038,1.94853-.05657.02446-.25376.05085-.50739.07281-.76136a.61252.61252,0,0,1,.44539-.57424,1.75286,1.75286,0,0,1,.349-.13951,18.16725,18.16725,0,0,1,2.69649-.01979,1.47144,1.47144,0,0,1,.73445.20207c.65474.40985,1.42912.57445,2.07409,1.00266a2.53988,2.53988,0,0,0,1.09173.33363,3.45485,3.45485,0,0,1,1.0813.37573,2.46769,2.46769,0,0,0,1.46417.39462,3.80045,3.80045,0,0,1,1.84046.47587,1.7205,1.7205,0,0,0,.34789.16517,1.5258,1.5258,0,0,0,.37282.07634c.51275.0369,1.02583.07231,1.53939.09357a3.14815,3.14815,0,0,1,1.47657.36722,2.86765,2.86765,0,0,0,1.47773.34947q2.1213-.00922,4.2427-.0043c.38512.00053.77025.01669,1.15538.02568.77528-.01192,1.55055-.03359,2.32583-.03407,2.973-.0019,5.94592.0057,8.91889.0032.64576-.00055,1.29144-.031,1.93727-.04215a1.627,1.627,0,0,0,.73924-.2031,4.25322,4.25322,0,0,1,1.85559-.4783c1.293-.04413,2.58453-.03874,3.876.035.00613.644.018,1.28793.0166,1.93188-.00112.51518-.02051,1.03026-.02776,1.54547-.0036.25753-.00572.51551.00451.77275a7.23073,7.23073,0,0,0,.58453,3.00638,2.90778,2.90778,0,0,1-.03006,1.89378,5.32039,5.32039,0,0,0-.367,2.26451,1.71964,1.71964,0,0,0,.16684.74613,5.85806,5.85806,0,0,1,.45789,1.05938,1.76694,1.76694,0,0,1,1.02075.45936,12.59027,12.59027,0,0,1,1.03108,1.11989,10.306,10.306,0,0,0,1.0021,1.14558,4.01939,4.01939,0,0,0,1.97008,1.09151,5.441,5.441,0,0,1,1.43361.497,2.85255,2.85255,0,0,0,1.09644.27846,18.39763,18.39763,0,0,0,3.42374.022c.75406-.09,1.52129-.06976,2.2826-.09889.00565.12976.00911.25965.01731.38925a1.90714,1.90714,0,0,0,.48543,1.4311c.16529.20015.33761.39462.51.58878a2.01189,2.01189,0,0,1,.5265,1.41768c-.00436.25963.00267.51947.00422.77922s.00207.51952.00417.77929a3.97081,3.97081,0,0,0,.60027,2.2061,1.93731,1.93731,0,0,1,.04282,1.50951c-.14286.35862-.40635.672-.52975,1.03485a3.68048,3.68048,0,0,1-.80275,1.31538c-.43808.478-.89.94348-1.32429,1.4248a1.24052,1.24052,0,0,0-.27618.71094,1.8556,1.8556,0,0,0,.37245,1.45671c.2448.30271.5358.57028.76167.88545a1.93527,1.93527,0,0,1,.395,1.07209c.04582,1.16651-.0566,2.33586.07207,3.49933a.80988.80988,0,0,0,.177.344,2.03434,2.03434,0,0,0,.59872.45634c.43147.27634.46771.37156.17881.94088a1.201,1.201,0,0,0,.17411,1.4225A12.20788,12.20788,0,0,1,165.28731,188a5.10422,5.10422,0,0,0,1.59393,2.1599c.265.28445.55629.54469.8404.81081a1.59566,1.59566,0,0,0,1.03761.47031c1.42783.03619,2.85691.02293,4.28475.0592a1.60325,1.60325,0,0,1,1.03653.47517c.3796.35413.74317.72572,1.12837,1.07346a3.66729,3.66729,0,0,0,1.30153.82552c.36157.12.66967.39219,1.02209.55109a7.18738,7.18738,0,0,1,1.39112.6766,1.24682,1.24682,0,0,0,.724.25644c.12906.004.25753.05.38589.04837a1.71183,1.71183,0,0,1,1.0533.44173,6.616,6.616,0,0,0,1.21022.96994,15.23056,15.23056,0,0,1,1.38714.68543.865.865,0,0,0,1.0839-.0745,3.625,3.625,0,0,1,2.6207-.415,1.024,1.024,0,0,1,.34431.17237,2.21979,2.21979,0,0,1,.84345.78733c.26086.44363.46823.91852.7239,1.36551a3.18206,3.18206,0,0,1,.33509.69719,1.41981,1.41981,0,0,0,.14021.35928,2.12636,2.12636,0,0,0,1.82364,1.25594c.12951.00019.259.01891.38847.029a3.27227,3.27227,0,0,1,.30037-.70588,2.49317,2.49317,0,0,0,.51838-1.42889,1.1137,1.1137,0,0,1,.06556-.38155.91849.91849,0,0,1,.48752-.56124,4.87241,4.87241,0,0,0,2.0966-1.67044,1.53123,1.53123,0,0,0,.44356-1.04555c-.007-.25832.01326-.51766.02673-.77626a2.25589,2.25589,0,0,1,.46123-1.45118,1.38882,1.38882,0,0,0,.186-.33935,2.05241,2.05241,0,0,0-.2957-1.837c-.24365-.30242-.53165-.572-.7523-.88929a1.798,1.798,0,0,1-.39063-1.069c.0175-1.42455.0035-2.84945.006-4.27424a7.38225,7.38225,0,0,1,.03846-.77567,1.40139,1.40139,0,0,1,.11994-.362,14.829,14.829,0,0,0,.69625-1.3844,1.19034,1.19034,0,0,1,.9222-.59507c.51768-.00975,1.03512-.04082,1.55276-.04375a2.76825,2.76825,0,0,0,1.46181-.44213,2.06745,2.06745,0,0,1,1.1004-.31244c2.33137.00308,4.66278.0088,6.99409-.00226a2.16092,2.16092,0,0,1,1.08992.35132c.67451.3816,1.42187.61159,2.0821,1.02142a.82844.82844,0,0,0,.35883.12492,23.723,23.723,0,0,0,3.10577.00735.97419.97419,0,0,0,.35692-.13785,6.9831,6.9831,0,0,1,.68467-.36389,1.09065,1.09065,0,0,1,1.09632.04928,2.43586,2.43586,0,0,0,1.44315.4768,1.14168,1.14168,0,0,0,1.13983-.84283c.51409-.01778,1.02805-.04275,1.54228-.05026a5.074,5.074,0,0,1,.76939.04227,2.102,2.102,0,0,1,1.04712.43861,9.37319,9.37319,0,0,1,.78456.84437,1.86175,1.86175,0,0,0,1.01527.48734,1.04787,1.04787,0,0,1,1.03625.28759c.35883-.1105.72322-.206,1.07449-.33682a2.76131,2.76131,0,0,0,.66383-.34267,15.76475,15.76475,0,0,0,1.98233-1.72215,9.73316,9.73316,0,0,0,1.12265-1.49708,1.48613,1.48613,0,0,1,.95159-.54178,1.60713,1.60713,0,0,1,.74155-.01636,20.45513,20.45513,0,0,1,.3718-2.68,2.57648,2.57648,0,0,1,.57042-.99551,3.735,3.735,0,0,1,.5743-.51766c.413-.30788.84791-.58648,1.25954-.89608,1.13395-.85268,2.36949-1.55992,3.483-2.44125a5.06033,5.06033,0,0,0,1.608-1.05215,5.52131,5.52131,0,0,1,1.95489-1.22192,7.947,7.947,0,0,0,2.01063-1.13607,3.18923,3.18923,0,0,1,.98742-.5975,1.97885,1.97885,0,0,0,.95071-.62826,22.33564,22.33564,0,0,1,3.26833-3.28965c1.09369-.90591,2.15335-1.84966,3.16487-2.847a1.65719,1.65719,0,0,1,1.40855-.46652,4.42968,4.42968,0,0,1,1.15667-.1456,3.14319,3.14319,0,0,0,1.13323-.2437,1.35156,1.35156,0,0,0,.63227-.43667c.54259-.72984,1.09866-1.45077,1.61217-2.20076a8.88207,8.88207,0,0,1,2.18927-2.19757c.60552-.25879,1.00192-.82754,1.60829-1.0851A1.56776,1.56776,0,0,0,261.39664,152.85627Z"
        />
        <text class="cls-3" transform="translate(49.78917 120.15096)">
          Addis Ketema
        </text>
        <g id="addis_ketema_woreda_texts">
          <text class="cls-4" transform="translate(93.0597 69.97561)">
            AD-W13
          </text>
          <text class="cls-4" transform="translate(55.01709 55.16708)">
            AD-W14
          </text>
          <text class="cls-4" transform="translate(106.51121 102.28188)">
            AD-W12
          </text>
          <text class="cls-4" transform="translate(139.77001 91.66824)">
            AD-W10
          </text>
          <text class="cls-4" transform="translate(170.53091 100.13155)">
            AD-W5
          </text>
          <text class="cls-4" transform="translate(181.95681 130.91177)">
            AD-W9
          </text>
          <text class="cls-4" transform="translate(158.83114 153.59012)">
            AD-W4
          </text>
          <text class="cls-4" transform="translate(212.85171 129.68227)">
            AD-W6
          </text>
          <text class="cls-4" transform="translate(220.50121 170.98147)">
            AD-W1
          </text>
          <text class="cls-4" transform="translate(198.01211 157.46096)">
            AD-W8
          </text>
          <text class="cls-4" transform="translate(178.0234 177.40334)">
            AD-W3
          </text>
          <text class="cls-4" transform="translate(59.0492 132.96139)">
            AD-W11
          </text>
        </g>
      </g>
    </g>
  </g>
</svg>
