<svg  xmlns="http://www.w3.org/2000/svg" id='svgCanvas2' viewBox="-23.41865643920896 -22.790134337402208 218.10379999999995 167.77216000000004">
  <defs>
    <style>
       #svgCanvas2{
        
            border: 0.1px #ccb8b8;
            background-color: #f6f4f4;
            display: block;
            margin-left: auto;
            margin-right: auto;
    }
      .cls-1 {
      
        stroke: #fff;
        stroke-width: 0.58592px;
      }

      .cls-1,
      .cls-2 {
        stroke-miterlimit: 10;
      }

      .cls-2 {
        fill: none;
        stroke: #784c9e;
      }

      .cls-3,
      .cls-4 {
        isolation: isolate;
        fill: #a9529f;
        font-family: MyriadPro-Regular, Myriad Pro;
      }

      .cls-3 {
        font-size: 18px;
      }

      .cls-4 {
        font-size: 7.5px;
      }
    </style>
  </defs>
  <g id="Layer_2" data-name="Layer 2">
    <g id="kifle_ketema">
      <g id="arada_kk">
        <g id="arada_all">
          <path
            id="Arada-Woreda-4"
        class="cls-1 pathHovered NaN-ri subcity Arada-Woreda-4-path"
         data-html="true"            d="M51.36388.5068a1.92414,1.92414,0,0,1,.33359.19848c.384.34647.75752.70465,1.13568,1.05766A2.24028,2.24028,0,0,1,53.627,3.46382c-.00553,1.16646.00225,2.333-.00152,3.49948a1.51614,1.51614,0,0,1-.737,1.27665,2.73691,2.73691,0,0,0-.5605.52839,18.57092,18.57092,0,0,0-1.00953,1.65228,1.37013,1.37013,0,0,0-.129.75269,4.03085,4.03085,0,0,0,.38713,1.49654,6.03447,6.03447,0,0,1,.64829,1.8189,2.45057,2.45057,0,0,0,.27674.71874c.3714.68593.62259,1.42332.941,2.13161a1.76864,1.76864,0,0,1,.13627.75731c-.004.38878.02051.778.01269,1.16654a3.30462,3.30462,0,0,0,.51253,1.84286,2.138,2.138,0,0,1,.28476,1.11326c.02856,1.296.01258,2.59321.053,3.88871a.98058.98058,0,0,0,.5739.92134,6.99184,6.99184,0,0,1,2.928,2.48078,2.54348,2.54348,0,0,1,.48044,1.4451c-.77774.06214-1.55681.04834-2.33575.04119a2.79911,2.79911,0,0,0-.71275.27819,6.47,6.47,0,0,1-1.93651,1.27611,1.09688,1.09688,0,0,0-.33229.20067c-.30731.2388-.62006.47266-.90872.73282-.39171.353-.89614.52335-1.30811.8315-.51888.3881-1.00175.82551-1.48816,1.25522a6.43226,6.43226,0,0,1-1.6326,1.03891c-.35244.15928-.66.42062-1.01544.57013-.71852.30221-1.33643.8028-2.08759,1.03475-.76634.49207-1.65363.75015-2.41657,1.24884-.759.20756-1.36525.73928-2.10818.98749a2.83152,2.83152,0,0,0-.94516.6753,1.24165,1.24165,0,0,0-.377.66161c-.25822.01225-.51637.0278-.77471.03595a1.7615,1.7615,0,0,1-1.09943-.30078,27.40879,27.40879,0,0,1-2.6986-2.212,4.56582,4.56582,0,0,1-.54367-.55254c-.71066-.92334-1.47824-1.79659-2.27362-2.64675a2.762,2.762,0,0,1-.39865-.66128,16.92122,16.92122,0,0,0-1.11359-1.58439c-.42849-.64384-.68419-1.38545-1.13323-2.02377-.22258-.31638-.43858-.63817-.66934-.94966-.23063-.31135-.47317-.61649-.67384-.94665-.19948-.32828-.3187-.70844-.53692-1.02137a8.55358,8.55358,0,0,0-.78067-.85848,2.732,2.732,0,0,1-.59-.98788,3.20353,3.20353,0,0,0-.32679-.69878,11.51745,11.51745,0,0,0-.6886-.93722,12.65644,12.65644,0,0,1-.73914-1.3581,4.37832,4.37832,0,0,0-1.98595-1.786c-.355-.1552-.70968-.31153-1.06736-.46048a3.2436,3.2436,0,0,0-1.14089-.18771,2.55864,2.55864,0,0,0-1.8193.50743,4.41455,4.41455,0,0,1-1.00631.576,1.40624,1.40624,0,0,1-1.12308.00111,5.2134,5.2134,0,0,1-1.37407-.70555c-.41014-.31495-.81286-.64173-1.24171-.92919a2.26,2.26,0,0,0-.71044-.29534,8.152,8.152,0,0,0-1.91965-.24038,8.09059,8.09059,0,0,1-.31883-1.10707A8.34931,8.34931,0,0,0,9.48211,17.231a3.23941,3.23941,0,0,1-.18973-.74082,5.63526,5.63526,0,0,1-.0868-.76527q-.05622-1.34587-.09081-2.69259a1.19052,1.19052,0,0,1,.0585-.37813c.1142-.36713.2412-.7303.36322-1.095a1.56533,1.56533,0,0,0,.56584-.49978,14.31771,14.31771,0,0,1,2.1096-2.213,2.27257,2.27257,0,0,1,1.3592-.61318,1.6258,1.6258,0,0,0,.73516-.16829c.54843-.32745,1.14916-.55166,1.701-.86674A5.02369,5.02369,0,0,1,17.81289,6.613a3.234,3.234,0,0,0,.72942-.21819,4.755,4.755,0,0,1,1.48276-.34832c.76451-.04935,1.52892-.10447,2.29167-.17545a2.82809,2.82809,0,0,0,.74465-.16307,18.76446,18.76446,0,0,1,2.96589-.73511,3.19434,3.19434,0,0,0,.68712-.32305c1.80591-.21969,3.62307-.21956,5.4372-.27736a2.60365,2.60365,0,0,0,1.12267-.26572,3.6012,3.6012,0,0,1,1.477-.43525c.25862-.01314.51558-.0571.77414-.07431a1.88885,1.88885,0,0,0,.74469-.2039,3.18278,3.18278,0,0,1,1.85862-.47979c.38742-.03462.77586-.05764,1.164-.08434a2.804,2.804,0,0,0,1.11068-.32137,3.304,3.304,0,0,1,1.48691-.38747c.3889-.00779.77748-.03184,1.16609-.05074a3.54156,3.54156,0,0,0,1.48055-.4281,1.84194,1.84194,0,0,1,.73237-.23627c.90565-.06037,1.81122-.123,2.71749-.17237A2.60925,2.60925,0,0,0,49.08464.87393,2.87406,2.87406,0,0,1,50.19839.56954C50.58524.53185,50.97527.52638,51.36388.5068Z"
          />
          <path
            id="Arada-Woreda-6"
        class="cls-1 pathHovered NaN-ri subcity Arada-Woreda-6-path"
         data-html="true"            d="M73.24381,30.18856a1.31971,1.31971,0,0,1,.68614.33726q1.94184,1.90878,3.87678,3.82452c.2768.27343.54877.55164.82633.82425a9.05705,9.05705,0,0,0,1.15777,1.03352c.42947.29746.96408.35713,1.39465.66532a1.81108,1.81108,0,0,0,1.08943.34286c1.16688-.013,2.334-.00017,3.501.00067.12941.00007.259-.01817.38828-.01669a2.0442,2.0442,0,0,0,1.09258-.34489,2.73222,2.73222,0,0,1,1.47128-.41318c1.167.00679,2.33417.00364,3.50124-.00124a2.74071,2.74071,0,0,1,1.45973.45326,2.09449,2.09449,0,0,0,1.10241.31086c1.55586.00582,3.11182-.00188,4.66759.01014a1.95273,1.95273,0,0,0,1.06717-.40106,2.09627,2.09627,0,0,0,.30168-.245,3.58142,3.58142,0,0,1,1.62925-1.00439,5.564,5.564,0,0,1,.99874-.595,3.5116,3.5116,0,0,0,1.32413-.77382,3.70681,3.70681,0,0,1,1.63368-1.002,2.30538,2.30538,0,0,0,.66588-.3951,1.30574,1.30574,0,0,1,.72706-.24036,2.61668,2.61668,0,0,0,1.45864-.45337,2.179,2.179,0,0,1,1.09115-.351,2.62811,2.62811,0,0,0,1.09735-.33784,2.4196,2.4196,0,0,1,1.45445-.46273,1.63862,1.63862,0,0,0,.72967-.236,3.85878,3.85878,0,0,1,1.0297-.53393,1.88007,1.88007,0,0,0,.36443-.12886,3.7585,3.7585,0,0,1,2.17816-.64834,2.10988,2.10988,0,0,0,1.44753-.46279,1.41677,1.41677,0,0,1,.72281-.25065c.25844-.00221.51692-.007.77536-.01071-.01126,1.04021-.00043,2.08127-.04149,3.1203a2.26278,2.26278,0,0,0,.66884,1.75689c.909.92987,1.82746,1.85063,2.7265,2.78995a2.54606,2.54606,0,0,1,.5976.99232.88242.88242,0,0,0,.50905.55335,3.42615,3.42615,0,0,1,1.29724.835q1.52115,1.51317,3.02351,3.04514a5.54974,5.54974,0,0,1,.464.62387,3.88165,3.88165,0,0,0,1.30662,1.88914c.09074.09317.18282.185.27341.27832.3456.35585.34341.35785.99923,1.634a22.78554,22.78554,0,0,1,1.08838,2.05271,2.15044,2.15044,0,0,1,.3355,1.09826,1.48592,1.48592,0,0,0,.17618.74643c.36262.54344.51764,1.19243.86877,1.72976.42928.65685.59311,1.43947,1.05763,2.07188a1.20339,1.20339,0,0,1,.22115.73366c.00024.12917.03957.25817.04086.38746a1.147,1.147,0,0,0,.24728.72548,2.62722,2.62722,0,0,1,.50042,1.833c-.25738-.00556-.515-.02136-.77206-.01464a2.96637,2.96637,0,0,1-1.81092-.54443,1.327,1.327,0,0,0-.72414-.2336,2.72784,2.72784,0,0,1-1.44529-.46618c-.533-.36146-1.20345-.45015-1.72032-.84719a1.21741,1.21741,0,0,0-.72052-.24256,3.04082,3.04082,0,0,1-1.44772-.46235c-.65868-.3924-1.39861-.63622-2.03807-1.07a3.10857,3.10857,0,0,1-1.31884-.76425c-.19349-.16912-.39595-.32807-.59545-.49036a1.10193,1.10193,0,0,0-1.40257-.01759c-.83133.80525-1.66066,1.61263-2.4981,2.41151a1.62322,1.62322,0,0,1-.67318.36277,1.91892,1.91892,0,0,0-.67575.35881c-.39857.32466-.79781.64873-1.2033.96465a.87334.87334,0,0,1-.33735.17671c-.64738.13456-1.08343.685-1.71822.85324a1.96662,1.96662,0,0,0-.66445.37521,2.28537,2.28537,0,0,0-.90948,1.204,35.01458,35.01458,0,0,0-3.50358.00076,2.39339,2.39339,0,0,0-1.107.31807,3.07593,3.07593,0,0,1-1.48625.38188c-2.07684.03457-4.15339.08468-6.23.132a1.71062,1.71062,0,0,0-.73654.22036,3.38019,3.38019,0,0,1-1.47562.43494c-1.298.02582-2.59576.06327-3.89371.091a1.38255,1.38255,0,0,0-.73969.20292c-.54791.35232-1.21017.47467-1.74292.84587-.53728.37435-1.1951.50391-1.71941.89228-.42418.3142-.97944.34478-1.40209.655-.52994.38889-1.18575.517-1.74006.856a2.48761,2.48761,0,0,1-1.09425.35885,2.21068,2.21068,0,0,0-1.09063.36236,2.74643,2.74643,0,0,1-1.03751.51237c-.78661.44895-1.62782.79428-2.40842,1.25193a1.27971,1.27971,0,0,1-1.11089.02869,3.43639,3.43639,0,0,0-2.2144-.5755c-.64848.02536-1.29671.05557-1.94509.08363q-.008-2.13024-.015-4.2605a1.98115,1.98115,0,0,0-.29548-1.1,2.686,2.686,0,0,1-.48288-1.44327,1.84622,1.84622,0,0,0-.42465-1.05293c-.14882-.20945-.33621-.39147-.50576-.58623-.08478-.09732-.1759-.19013-.25134-.29427a1.93925,1.93925,0,0,1-.21914-1.83158,2.97532,2.97532,0,0,1,.376-.67516,1.54517,1.54517,0,0,0,.22887-.72822,2.39241,2.39241,0,0,1,.46252-1.44774,2.02507,2.02507,0,0,0-.004-2.18439,2.97045,2.97045,0,0,1-.36448-.67486,3.1239,3.1239,0,0,0-.801-1.30089c-.43662-.47422-.882-.94079-1.30606-1.426a1.21394,1.21394,0,0,1-.273-.70787,7.49946,7.49946,0,0,1-.03295-.77352,2.38382,2.38382,0,0,0-.40687-1.45971c-.37059-.53084-.4813-1.1874-.8537-1.72392-.32614-.46993-.27465-.71833.091-1.41892a2.23306,2.23306,0,0,0,.37636-1.46684c.00028-.12912.00491-.25855-.00258-.38727a2.35824,2.35824,0,0,0-.29539-1.10215A2.38874,2.38874,0,0,1,71.676,36.7a1.474,1.474,0,0,0-.21728-.73017c-.44993-.63509-.59064-1.42906-1.0543-2.05463a1.93264,1.93264,0,0,1-.25276-1.10764,1.06967,1.06967,0,0,1,.53971-.94246,5.336,5.336,0,0,0,1.86684-1.34334A1.55036,1.55036,0,0,1,73.24381,30.18856Z"
          />
          <path
            id="Arada-Woreda-5"
        class="cls-1 pathHovered NaN-ri subcity Arada-Woreda-5-path"
         data-html="true"            d="M73.24381,30.18856a1.55036,1.55036,0,0,0-.68558.33324,5.336,5.336,0,0,1-1.86684,1.34334,1.06967,1.06967,0,0,0-.53971.94246,1.93264,1.93264,0,0,0,.25276,1.10764c.46366.62557.60437,1.41954,1.0543,2.05463A1.474,1.474,0,0,1,71.676,36.7a2.38874,2.38874,0,0,0,.48726,1.44013,2.35824,2.35824,0,0,1,.29539,1.10215c.00749.12872.00286.25815.00258.38727a2.23306,2.23306,0,0,1-.37636,1.46684c-.36567.70059-.41716.949-.091,1.41892.3724.53652.48311,1.19308.8537,1.72392a2.38382,2.38382,0,0,1,.40687,1.45971,7.49946,7.49946,0,0,0,.03295.77352,1.21394,1.21394,0,0,0,.273.70787c.42409.48518.86944.95175,1.30606,1.426a3.1239,3.1239,0,0,1,.801,1.30089,2.97045,2.97045,0,0,0,.36448.67486,2.02507,2.02507,0,0,1,.004,2.18439,2.39241,2.39241,0,0,0-.46252,1.44774,1.54517,1.54517,0,0,1-.22887.72822,2.97532,2.97532,0,0,0-.376.67516,1.93925,1.93925,0,0,0,.21914,1.83158c.07544.10414.16656.197.25134.29427.16955.19476.35694.37678.50576.58623a1.84622,1.84622,0,0,1,.42465,1.05293,2.686,2.686,0,0,0,.48288,1.44327,1.98115,1.98115,0,0,1,.29548,1.1q.004,2.13024.015,4.2605c-.00877.51695-.04038,1.0348-.02064,1.55064a3.51845,3.51845,0,0,1-.52732,1.82491,1.78377,1.78377,0,0,0,.02766,1.83876,2.8764,2.8764,0,0,1,.52288,1.433,1.852,1.852,0,0,0,.41622,1.05792,5.98772,5.98772,0,0,0,.511.58263c.26577.28223.53022.56665.81116.83341a1.83535,1.83535,0,0,1,.61662,1.36141,1.95114,1.95114,0,0,0,.5854,1.38307c.71914.74238,1.44285,1.48074,2.14349,2.24029a2.13962,2.13962,0,0,1,.37245.6694,2.5605,2.5605,0,0,0,.36705.67513,12.178,12.178,0,0,1,.98182,1.19453,2.05659,2.05659,0,0,1,.12087,1.49719.80415.80415,0,0,1-.19444.33213c-.24437.2999-.50629.58561-.74708.88817-.16026.20132-.29606.422-.44278.63408-.1048.65343-.599,1.13194-.78408,1.74819a1.3313,1.3313,0,0,0-.04744.384,1.15147,1.15147,0,0,0,.7353,1.21086,2.68665,2.68665,0,0,1,.95054.64973,1.74471,1.74471,0,0,1,.60532,1.36693c.01211.12826.00525.25834.00711.38758-.39009-.005-.78041-.00539-1.17036-.01635a1.59656,1.59656,0,0,1-1.07537-.38136c-1.04142-.98025-2.05538-1.98968-3.09036-2.97686a2.57719,2.57719,0,0,0-.99026-.5997,2.59183,2.59183,0,0,1-.95951-.64776,4.26739,4.26739,0,0,0-1.63721-1.01529,1.06472,1.06472,0,0,1-.322-.21738,2.85386,2.85386,0,0,1-.91592-1.22989,3.00759,3.00759,0,0,0-1.257-1.43983,3.70954,3.70954,0,0,1-1.60545-1.05844c-.46652-.453-.93977-.89914-1.40266-1.35581-.3703-.36532-.73-.74129-1.0933-1.11369A4.97817,4.97817,0,0,1,67.62606,78.255a9.5041,9.5041,0,0,1-.697-1.38728c-.16173-.48972-.56784-.86724-.71566-1.3751a1.93546,1.93546,0,0,0-.36438-.68238c-.164-.20165-.319-.41321-.50166-.59676-.6613-.66443-.81594-1.61468-1.3402-2.35642a.83534.83534,0,0,1-.09107-.37225,3.24379,3.24379,0,0,0-.45556-1.46911,2.49256,2.49256,0,0,1-.347-.69234,2.60848,2.60848,0,0,0-.604-.98611,1.90529,1.90529,0,0,0-1.352-.66748c-2.0806.004-4.16125.01218-6.24186.00477a1.99747,1.99747,0,0,0-1.08.38765,5.7958,5.7958,0,0,0-.61267.48178,2.01911,2.01911,0,0,1-1.75608.64829c-.04539-.25565-.09517-.51063-.13494-.76714a1.82121,1.82121,0,0,0-.30807-.70822,2.473,2.473,0,0,1-.43429-1.06841,2.66152,2.66152,0,0,0-.50218-1.44674,12.18863,12.18863,0,0,0-.65649-1.40514c-.38351-.52669-.48965-1.19889-.88793-1.72294-.31671-.41669-.37185-.96422-.68238-1.3915-.383-.527-.47544-1.20578-.87258-1.72986a1.3153,1.3153,0,0,1-.27861-.71515,4.03259,4.03259,0,0,0-.5975-1.82332c-.26051-.44172-.3748-.9657-.67351-1.39574a1.46444,1.46444,0,0,1-.26256-.72277,2.97131,2.97131,0,0,0-.4463-1.4706,6.47782,6.47782,0,0,1-.47279-1.0605,11.79583,11.79583,0,0,1-.74029-1.36344,1.77523,1.77523,0,0,0-.40534-.65553c-.7103-.75893-1.447-1.49307-2.16128-2.2484a2.98054,2.98054,0,0,1-.58532-.998c-.13916-.35811-.3904-.67105-.55238-1.02227a7.80925,7.80925,0,0,0-.63242-1.4106,1.34607,1.34607,0,0,1-.25925-.72262c-.03212-.51862-.06723-1.03709-.10114-1.5556a1.24165,1.24165,0,0,1,.377-.66161,2.83152,2.83152,0,0,1,.94516-.6753c.74293-.24821,1.34918-.77993,2.10818-.98749.76294-.49869,1.65023-.75677,2.41657-1.24884.75116-.23195,1.36907-.73254,2.08759-1.03475.35547-.14951.663-.41085,1.01544-.57013a6.43226,6.43226,0,0,0,1.6326-1.03891c.48641-.42971.96928-.86712,1.48816-1.25522.412-.30815.9164-.4785,1.30811-.8315.28866-.26016.60141-.494.90872-.73282a1.09688,1.09688,0,0,1,.33229-.20067,6.47,6.47,0,0,0,1.93651-1.27611,2.79911,2.79911,0,0,1,.71275-.27819c.77894.00715,1.558.021,2.33575-.04119.90272.0085,1.80558.00929,2.708.02914a2.0464,2.0464,0,0,1,1.09278.32324A2.53012,2.53012,0,0,0,63.68,31.7392c.7736-.01322,1.54776.00025,2.32107-.02043a1.7153,1.7153,0,0,0,1.02812-.46815,1.98551,1.98551,0,0,0,.68161-.91446,2.76429,2.76429,0,0,1,.57466-.99221,1.825,1.825,0,0,1,1.31359-.713c.38632-.01786.77336-.02,1.16011-.02921a1.37484,1.37484,0,0,0,1.4244.81756c.11658.00946.23459.00178.35151.00855.234.01354.46781.0316.70169.04781Q73.24791,29.832,73.24381,30.18856Z"
          />
          <path
            id="Arada-Woreda-2"
        class="cls-1 pathHovered NaN-ri subcity Arada-Woreda-2-path"
         data-html="true"            d="M38.81937,41.78773c.03391.51851.069,1.037.10114,1.5556a1.34607,1.34607,0,0,0,.25925.72262,7.80925,7.80925,0,0,1,.63242,1.4106c.162.35122.41322.66416.55238,1.02227a2.98054,2.98054,0,0,0,.58532.998c.71423.75533,1.451,1.48947,2.16128,2.2484a1.77523,1.77523,0,0,1,.40534.65553,11.79583,11.79583,0,0,0,.74029,1.36344,6.47782,6.47782,0,0,0,.47279,1.0605,2.97131,2.97131,0,0,1,.4463,1.4706,1.46444,1.46444,0,0,0,.26256.72277c.29871.43.413.954.67351,1.39574a4.03259,4.03259,0,0,1,.5975,1.82332,1.3153,1.3153,0,0,0,.27861.71515c.39714.52408.48955,1.20285.87258,1.72986.31053.42728.36567.97481.68238,1.3915.39828.52405.50442,1.19625.88793,1.72294a12.18863,12.18863,0,0,1,.65649,1.40514,2.66152,2.66152,0,0,1,.50218,1.44674,2.473,2.473,0,0,0,.43429,1.06841,1.82121,1.82121,0,0,1,.30807.70822c.03977.25651.08955.51149.13494.76714a3.38643,3.38643,0,0,0-1.01572.532c-.41426.31439-.96213.34946-1.3853.65136a2.36083,2.36083,0,0,1-1.44522.4304c-.38515-.00522-.77071.02537-1.15593.02167a2.66551,2.66551,0,0,0-1.45332.42638,2.09139,2.09139,0,0,1-1.08934.321c-.64223.00675-1.28456.01032-1.92662.02477q-.77005.01731-1.53934.061a1.07775,1.07775,0,0,0-.36269.10535,6.7703,6.7703,0,0,0-.6912.3404,1.44789,1.44789,0,0,1-.728.215c-2.183.03774-4.366.07327-6.54869.12452a1.30758,1.30758,0,0,0-1.18147.82669c-.05612.11558-.11081.23185-.16614.34782a3.27692,3.27692,0,0,0-1.02674-.3363c-.23851-.033-.48075-.03777-.7209-.06a1.38362,1.38362,0,0,1-1.13038-.78189,2.44041,2.44041,0,0,0-.45507-1.84072,2.25834,2.25834,0,0,1-.34048-.69906,1.24078,1.24078,0,0,0-.179-.34069A2.32436,2.32436,0,0,0,25.003,68.41525c-.78017.00336-1.56032.03876-2.34016.06785a.88557.88557,0,0,0-.37127.08166,1.0172,1.0172,0,0,0-.51053.54793,6.79352,6.79352,0,0,0-.17089.76048,1.16146,1.16146,0,0,1-1.43313.93562,1.365,1.365,0,0,1-.69769-.30607,2.14084,2.14084,0,0,1-.87367-1.65793c-.00258-.2601-.016-.52014-.026-.78015a2.15929,2.15929,0,0,0-.607-1.394,7.21638,7.21638,0,0,0-1.13309-1.067,1.61688,1.61688,0,0,0-.716-.28147,13.81492,13.81492,0,0,0-1.94833.00816,1.88649,1.88649,0,0,1-1.34113-.68452c-.08389-.0983-.1553-.20716-.23691-.30748a1.7962,1.7962,0,0,1-.1963-1.49016,8.08173,8.08173,0,0,0,.52717-1.04028,1.85459,1.85459,0,0,0-.2397-1.84248,6.01306,6.01306,0,0,0-2.05852-1.76113,1.10775,1.10775,0,0,1-.62655-.90784,12.19191,12.19191,0,0,1,.021-2.727,1.51359,1.51359,0,0,1,.26919-.72078c.225-.31814.46845-.62309.70109-.93583a1.9499,1.9499,0,0,0,.51823-1.42891c.01276-.25975.00644-.5204.01941-.78013a1.03232,1.03232,0,0,0-.21808-.73058A4.84841,4.84841,0,0,0,8.9403,48.04527,10.9869,10.9869,0,0,0,7.56706,47.315c-.482-.179-.91442-.48757-1.38795-.69517a4.59822,4.59822,0,0,1-.69351-.34224,2.08829,2.08829,0,0,1-.92923-1.621c-.02157-.52-.03307-1.04073-.0669-1.56a2.38716,2.38716,0,0,0-.33208-1.10622,2.87278,2.87278,0,0,1-.43278-1.47547c-.01309-.78058-.04342-1.5609-.0695-2.34121a1.80968,1.80968,0,0,0-.22456-.73712,3.05373,3.05373,0,0,1-.43588-1.07569,4.37879,4.37879,0,0,0-.632-1.82322,1.56457,1.56457,0,0,1-.1976-.74561q-.03279-.975-.08523-1.94923a1.59607,1.59607,0,0,0-.238-.73254,3.00054,3.00054,0,0,1-.43708-1.476c-.01054-.38839-.04694-.777-.09367-1.16291a1.11773,1.11773,0,0,0-.15377-.357,3.52843,3.52843,0,0,1-.594-1.82009,2.88967,2.88967,0,0,0,1.8133-.51939,1.16185,1.16185,0,0,1,.71857-.24223c.12769-.00175.25509-.04326.3825-.04257a1.62532,1.62532,0,0,0,1.035-.44767c.29806-.242.5594-.529.83789-.7952a2.50643,2.50643,0,0,0,.7725-1.703c.04255-.56314.37184-.858,1.00263-.92823A3.10869,3.10869,0,0,0,8.56025,21.119a1.85842,1.85842,0,0,1,.705-.29033c.12629-.02364.25462-.03836.37917-.06883.2495-.061.497-.13012.74536-.19588a8.152,8.152,0,0,1,1.91968.24038,2.26,2.26,0,0,1,.71044.29534c.42885.28746.83157.61424,1.24171.92919a5.2134,5.2134,0,0,0,1.37407.70555,1.40624,1.40624,0,0,0,1.12308-.00111,4.41455,4.41455,0,0,0,1.00631-.576,2.55864,2.55864,0,0,1,1.8193-.50743,3.2436,3.2436,0,0,1,1.14089.18771c.35768.14895.71232.30528,1.06736.46048a4.37832,4.37832,0,0,1,1.98595,1.786,12.65644,12.65644,0,0,0,.73914,1.3581,11.51745,11.51745,0,0,1,.6886.93722,3.20353,3.20353,0,0,1,.32679.69878,2.732,2.732,0,0,0,.59.98788,8.55358,8.55358,0,0,1,.78067.85848c.21822.31293.33744.69309.53692,1.02137.20067.33016.44321.6353.67384.94665.23076.31149.44676.63328.66934.94966.449.63832.70474,1.37993,1.13323,2.02377a16.92122,16.92122,0,0,1,1.11359,1.58439,2.762,2.762,0,0,0,.39865.66128c.79538.85016,1.563,1.72341,2.27362,2.64675a4.56582,4.56582,0,0,0,.54367.55254,27.40879,27.40879,0,0,0,2.6986,2.212,1.7615,1.7615,0,0,0,1.09943.30078C38.303,41.81553,38.56115,41.8,38.81937,41.78773Z"
          />
          <path
            id="Arada-Woreda-7"
        class="cls-1 pathHovered NaN-ri subcity Arada-Woreda-7-path"
         data-html="true"            d="M162.28908,73.9908c.0072,2.96191.01865,5.92384.01769,8.88575a2.00046,2.00046,0,0,0,.59078,1.37593c.43128.47766.893.92882,1.30763,1.42007a1.54944,1.54944,0,0,1,.43009,1.0424c-.011.51465.00034,1.03.01111,1.54484a2.38423,2.38423,0,0,1-.47152,1.43735c-.30069.42909-.241.72072.08349,1.4286a2.22491,2.22491,0,0,1,.37468,1.07611c-.01607.25594.013.51447.01426.77186.00248.5151-.01626,1.03088.00458,1.54513a1.85688,1.85688,0,0,1-.29911,1.09387,4.57448,4.57448,0,0,0-.5226,1.02421c-.25581-.01154-.51153-.02444-.76739-.03433a2.21824,2.21824,0,0,0-1.45878.34834c-.52269.38227-1.17594.48848-1.71856.83458a1.99523,1.99523,0,0,1-1.07608.35265c-1.02412.00389-2.048.03879-3.07215.04666a2.12907,2.12907,0,0,0-1.38865.548c-.29381.24566-.60961.46488-.9092.70388a1.22377,1.22377,0,0,1-.71246.25122,3.20235,3.20235,0,0,0-1.44929.4427,2.08726,2.08726,0,0,1-1.0811.33826c-1.28026.00388-2.56047.033-3.84078.04131-.38341.00251-.767-.031-1.15047-.04809l-.63484-.39742a3.97054,3.97054,0,0,1-.1872-.74017,1.2902,1.2902,0,0,0-.80477-1.18354c-.00654-.12953-.00615-.25987-.02089-.38847a2.12475,2.12475,0,0,0-.33091-1.09573c-.46357-.62549-.60265-1.42838-1.087-2.04651-.13866-.78491-.78794-1.33483-.96685-2.10122a10.282,10.282,0,0,1-.57175-1.01205,6.93743,6.93743,0,0,0-.67408-1.38869,1.28478,1.28478,0,0,1-.247-.72477,2.73945,2.73945,0,0,0-.44859-1.46226,2.30285,2.30285,0,0,1-.35261-1.09218,2.64144,2.64144,0,0,0-.337-1.09869,2.11783,2.11783,0,0,1-.43657-1.45854c-.0062-.12951-.01388-.25946-.01016-.3889a2.38344,2.38344,0,0,0-.44382-1.45916,3.93607,3.93607,0,0,1-.40854-1.48141.99339.99339,0,0,0-.80807-.70951c-.2581-.01971-.51682-.0318-.77431-.05762a2.10813,2.10813,0,0,0-1.74707.66936,3.39347,3.39347,0,0,1-1.62805,1.00363,9.07941,9.07941,0,0,1-.99741.60347,8.71,8.71,0,0,0-1.058.4694,1.96442,1.96442,0,0,1-1.082.37476c-1.03709-.01776-2.07484-.01271-3.11211.00076a1.9717,1.9717,0,0,1-1.38588-.59228c-.47939-.43643-.93724-.897-1.4265-1.32177a1.87532,1.87532,0,0,0-.66674-.37838,2.39669,2.39669,0,0,1-.99135-.58668c-.93209-.90157-1.83757-1.83094-2.77829-2.72323-.53323-.50581-.52579-.59317-1.75608-.63034-.25772-.02751-.51673-.04661-.77259-.08625a1.82481,1.82481,0,0,1-.35752-.118.83865.83865,0,0,1-.26268-1.01484c.49227-.77557,1.276-1.29364,1.78941-2.04549a1.75547,1.75547,0,0,0,.30545-.70161,10.74113,10.74113,0,0,0,.03338-1.165,3.42022,3.42022,0,0,0-.55616-2.21621,1.36473,1.36473,0,0,1-.20742-.73833,2.7777,2.7777,0,0,0-.5051-1.4471,2.35719,2.35719,0,0,1-.31-1.10968,2.05146,2.05146,0,0,0-.19745-.74265c-.06118-.11448-.12045-.23018-.1863-.34195A2.63663,2.63663,0,0,1,115.431,64.247a2.62533,2.62533,0,0,0-.31518-1.1072,2.38185,2.38185,0,0,1-.48278-1.45161,1.40326,1.40326,0,0,0-.227-.7333,2.97768,2.97768,0,0,1-.56512-1.82193,2.28537,2.28537,0,0,1,.90948-1.204,1.96662,1.96662,0,0,1,.66445-.37521c.63479-.16822,1.07084-.71868,1.71822-.85324a.87334.87334,0,0,0,.33735-.17671c.40549-.31592.80473-.64,1.2033-.96465a1.91892,1.91892,0,0,1,.67575-.35881,1.62322,1.62322,0,0,0,.67318-.36277c.83744-.79888,1.66677-1.60626,2.4981-2.41151a1.10193,1.10193,0,0,1,1.40257.01759c.1995.16229.402.32124.59545.49036a3.10857,3.10857,0,0,0,1.31884.76425c.63946.43374,1.37939.67756,2.03807,1.07a3.04082,3.04082,0,0,0,1.44772.46235,1.21741,1.21741,0,0,1,.72052.24256c.51687.397,1.18733.48573,1.72032.84719a2.72784,2.72784,0,0,0,1.44529.46618,1.327,1.327,0,0,1,.72414.2336,2.96637,2.96637,0,0,0,1.81092.54443c.257-.00672.51468.00908.77206.01464a.9928.9928,0,0,1,.61172.42935c.2642.4397.42165.93678.72433,1.35722a1.30687,1.30687,0,0,1,.23012.7282,2.76319,2.76319,0,0,0,.47271,1.44805,2.33386,2.33386,0,0,1,.33073,1.09633,1.74136,1.74136,0,0,0,.17842.74253c.40592.66094.5956,1.42619,1.0152,2.0776a2.42942,2.42942,0,0,1,.34846,1.08977,2.72335,2.72335,0,0,0,.37187,1.08333,3.25681,3.25681,0,0,1,.352.68326,3.151,3.151,0,0,0,.82075,1.29082,7.0215,7.0215,0,0,0,.8577.7792,1.91424,1.91424,0,0,0,1.05563.428,3.06563,3.06563,0,0,1,1.44477.49651,1.47142,1.47142,0,0,0,.72677.23205q2.12751.0522,4.25561.08473a1.768,1.768,0,0,1,.74088.19034,3.57,3.57,0,0,0,2.21617.51688c.258.0019.51654-.01495.77388-.0031a2.02472,2.02472,0,0,0,1.10126-.29632,7.96876,7.96876,0,0,1,1.04724-.48889c.29939-.11629.42236-.301.68957-.87639a5.69416,5.69416,0,0,1,.68839.33334,3.39489,3.39489,0,0,0,1.40833.57052,2.035,2.035,0,0,1,1.04214.44644,15.09424,15.09424,0,0,0,1.85965,1.34719A1.00871,1.00871,0,0,1,162.28908,73.9908Z"
          />
          <path
            id="Arada-Woreda-9"
        class="cls-1 pathHovered NaN-ri subcity Arada-Woreda-9-path"
         data-html="true"            d="M113.84086,59.133a2.97768,2.97768,0,0,0,.56512,1.82193,1.40326,1.40326,0,0,1,.227.7333,2.38185,2.38185,0,0,0,.48278,1.45161,2.62533,2.62533,0,0,1,.31518,1.1072,2.63663,2.63663,0,0,0,.37282,1.08979c.06585.11177.12512.22747.1863.34195a2.05146,2.05146,0,0,1,.19745.74265,2.35719,2.35719,0,0,0,.31,1.10968,2.7777,2.7777,0,0,1,.5051,1.4471,1.36473,1.36473,0,0,0,.20742.73833,3.42022,3.42022,0,0,1,.55616,2.21621,10.74113,10.74113,0,0,1-.03338,1.165,1.75547,1.75547,0,0,1-.30545.70161c-.51344.75185-1.29714,1.26992-1.78941,2.04549a.83865.83865,0,0,0,.26268,1.01484,1.82481,1.82481,0,0,0,.35752.118c.25586.03964.51487.05874.77259.08625-.00443,1.68621-.0935,3.37207-.00715,5.05878a2.39929,2.39929,0,0,0,.328,1.102,2.86221,2.86221,0,0,1,.40753,1.47585c-.00019.12967.00964.25934.011.389a2.861,2.861,0,0,0,.45169,1.46548,2.14131,2.14131,0,0,1,.29539,1.1086c.00634.77825-.00758,1.557.01616,2.33463a2.00881,2.00881,0,0,1-.349,1.09235c-.19817.33766-.32262.70445-.4936,1.05079a2.93951,2.93951,0,0,1-.73493.8953,1.14892,1.14892,0,0,1-1.418.104c-.63884-.44446-1.43079-.59235-2.0744-1.03837a1.62382,1.62382,0,0,0-.73941-.20121,2.48521,2.48521,0,0,1-1.10474-.32779,2.66226,2.66226,0,0,0-1.46279-.44574c-.77788-.00991-1.55553-.04293-2.33337-.0596a1.392,1.392,0,0,1-.73091-.23121,3.24042,3.24042,0,0,0-1.84072-.5157c-.12945.00319-.26-.01862-.38875-.00971a3.60585,3.60585,0,0,1-2.23018-.51284.77433.77433,0,0,0-.74293-.0236.95051.95051,0,0,0-.42251.61886,3.48568,3.48568,0,0,0-.08159.77267,3.6144,3.6144,0,0,1-.55344,1.83392,1.48055,1.48055,0,0,0-.19569.742c-.01211.51849-.04325,1.03656-.06065,1.555a2.03161,2.03161,0,0,1-.302,1.10555c-.29567.43343-.40157.95137-.66254,1.39711a11.73925,11.73925,0,0,1-.98268,1.20263,2.10286,2.10286,0,0,0-.36715.679,1.89219,1.89219,0,0,1-.36186.68161q-.25075.29711-.50757.58909c-.59407.67393-1.37024,1.21381-1.58948,2.16316-.32729.40158-.65954.79925-.98025,1.206a3.27992,3.27992,0,0,0-.55482,1.01641,5.24952,5.24952,0,0,1-.34908.68846,2.33333,2.33333,0,0,0-.35566,1.09278c.012.77783.00634,1.556.00434,2.334a1.36538,1.36538,0,0,0,.16979.74705c.48579.76885.69678,1.67009,1.19811,2.43417a1.81722,1.81722,0,0,1,.2129,1.12563c-.03286.51723-.0865,1.03312-.13122,1.54959-1.16335.02129-2.32669.05591-3.49.05679a2.2868,2.2868,0,0,0-1.08419.36746,14.67491,14.67491,0,0,0-2.05371,1.06586,3.66865,3.66865,0,0,0-1.62739,1.00261c-.1912.1722-.40687.31723-.61137.47462a5.18839,5.18839,0,0,0-1.9285,1.24939,3.17557,3.17557,0,0,1-1.00514.55886c-.35623.13515-.65024.43741-1.00761.566A4.41294,4.41294,0,0,0,80.5844,121.663c-.64686.63228-1.3031,1.25506-1.959,1.87805a1.75248,1.75248,0,0,1-1.06926.38217c-.12827.01549-.25777.02029-.38671.03-.25776-.03-.51515-.0643-.7734-.0889a.68.68,0,0,1-.62377-.40435,6.78769,6.78769,0,0,0-1.31769-1.902,1.60808,1.60808,0,0,1-.41365-1.06171c.00716-.65-.00481-1.30021-.00867-1.95033.63674-.41114.73292-.55569.76505-1.21022.01264-.25772.02079-.51568.03863-.773a2.14284,2.14284,0,0,1,.05536-.3826.98011.98011,0,0,1,.40062-.62988.78491.78491,0,0,1,.734.00615c1.33666.63625,1.19843.71123,2.05433.01395a1.84651,1.84651,0,0,0,.58238-.97462,1.90961,1.90961,0,0,0,.04907-.38336,2.11422,2.11422,0,0,1,.61147-1.376c.18019-.18432.35466-.37581.51611-.5766a1.51318,1.51318,0,0,0,.41178-1.42852,1.19765,1.19765,0,0,0-.06008-.38079c-.1007-.23651-.23135-.46016-.34855-.68965a.98485.98485,0,0,1,.22983-1.3489,1.58717,1.58717,0,0,0,1.0346-1.83855c-.009-.1279.01025-.25762.01168-.38653A1.84,1.84,0,0,1,81.541,105.134a17.38718,17.38718,0,0,1,1.33572-1.39608,2.58367,2.58367,0,0,0,.578-.98961,2.86047,2.86047,0,0,1,.3291-.69316,3.31513,3.31513,0,0,0,.4362-1.46388,1.76749,1.76749,0,0,1,.26759-.71642,2.46217,2.46217,0,0,0,.50147-1.43776,2.89,2.89,0,0,1,.37726-1.08247,1.38085,1.38085,0,0,0,.05436-1.44877,2.26858,2.26858,0,0,1-.4248-1.45955c-.007-.12876-.00916-.25786-.01063-.38684a2.42945,2.42945,0,0,0-.47969-1.43628,4.12825,4.12825,0,0,1-.33162-.69277c-.00186-.12924.005-.25932-.00711-.38758a1.74471,1.74471,0,0,0-.60532-1.36693,2.68665,2.68665,0,0,0-.95054-.64973,1.15147,1.15147,0,0,1-.7353-1.21086,1.3313,1.3313,0,0,1,.04744-.384c.18505-.61625.67928-1.09476.78408-1.74819.14672-.212.28252-.43276.44278-.63408.24079-.30256.50271-.58827.74708-.88817a.80415.80415,0,0,0,.19444-.33213,2.05659,2.05659,0,0,0-.12087-1.49719,12.178,12.178,0,0,0-.98182-1.19453,2.5605,2.5605,0,0,1-.36705-.67513,2.13962,2.13962,0,0,0-.37245-.6694c-.70064-.75955-1.42435-1.49791-2.14349-2.24029a1.95114,1.95114,0,0,1-.5854-1.38307,1.83535,1.83535,0,0,0-.61662-1.36141c-.28094-.26676-.54539-.55118-.81116-.83341a5.98772,5.98772,0,0,1-.511-.58263,1.852,1.852,0,0,1-.41622-1.05792,2.8764,2.8764,0,0,0-.52288-1.433,1.78377,1.78377,0,0,1-.02766-1.83876,3.51845,3.51845,0,0,0,.52732-1.82491c-.01974-.51584.01187-1.03369.02064-1.55064.64834-.02806,1.29657-.05827,1.945-.08363a3.43639,3.43639,0,0,1,2.2144.5755,1.27971,1.27971,0,0,0,1.11089-.02869c.7806-.45765,1.62181-.803,2.40842-1.25193a2.74643,2.74643,0,0,0,1.03751-.51237,2.21068,2.21068,0,0,1,1.09063-.36236,2.48761,2.48761,0,0,0,1.09425-.35885c.55431-.339,1.21012-.46712,1.74006-.856.42265-.31018.97791-.34076,1.40209-.655.52431-.38837,1.18213-.51793,1.71941-.89228.53275-.3712,1.195-.49355,1.74292-.84587a1.38255,1.38255,0,0,1,.73969-.20292c1.298-.02777,2.59571-.06522,3.89371-.091a3.38019,3.38019,0,0,0,1.47562-.43494,1.71062,1.71062,0,0,1,.73654-.22036c2.07664-.04735,4.15319-.09746,6.23-.132a3.07593,3.07593,0,0,0,1.48625-.38188,2.39339,2.39339,0,0,1,1.107-.31807A35.01458,35.01458,0,0,1,113.84086,59.133Z"
          />
          <path
            id="Arada-Woreda-1"
        class="cls-1 pathHovered NaN-ri subcity Arada-Woreda-1-path"
         data-html="true"            d="M84.17394,91.9304a4.125,4.125,0,0,0,.33158.69277,2.42945,2.42945,0,0,1,.47969,1.43628c.00147.129.00362.25808.01063.38684a2.26858,2.26858,0,0,0,.4248,1.45955,1.38085,1.38085,0,0,1-.05436,1.44877,2.89,2.89,0,0,0-.37726,1.08247,2.46217,2.46217,0,0,1-.50147,1.43776,1.76749,1.76749,0,0,0-.26759.71642,3.31513,3.31513,0,0,1-.4362,1.46388,2.86047,2.86047,0,0,0-.3291.69316,2.58367,2.58367,0,0,1-.578.98961A17.38718,17.38718,0,0,0,81.541,105.134a1.84,1.84,0,0,0-.42246,1.05282c-.00143.12891-.02069.25863-.01168.38653a1.58717,1.58717,0,0,1-1.0346,1.83855.98485.98485,0,0,0-.22983,1.3489c.1172.22949.24785.45314.34855.68965a1.19765,1.19765,0,0,1,.06008.38079,1.51318,1.51318,0,0,1-.41178,1.42852c-.16145.20079-.33592.39228-.51611.5766a2.11422,2.11422,0,0,0-.61147,1.376,1.90961,1.90961,0,0,1-.04907.38336,1.84651,1.84651,0,0,1-.58238.97462c-.8559.69728-.71767.6223-2.05433-.01395a.78491.78491,0,0,0-.734-.00615.98011.98011,0,0,0-.40062.62988,2.14284,2.14284,0,0,0-.05536.3826c-.01784.25734-.026.5153-.03863.773-.03213.65453-.12831.79908-.76505,1.21022a2.14238,2.14238,0,0,0-1.20583-1.43411.73628.73628,0,0,0-.74336-.02766,3.74633,3.74633,0,0,1-2.20754.59968c-.90867-.02873-1.8203.032-2.73055.05626a1.51133,1.51133,0,0,0-.73054.24108,6.25447,6.25447,0,0,1-.69954.34612,1.17927,1.17927,0,0,1-.3743.08452,26.71707,26.71707,0,0,1-3.896.00391.88847.88847,0,0,1-.35295-.16116,5.26338,5.26338,0,0,1-1.64965-1.62482,1.31775,1.31775,0,0,1-.2354-.73q-.01459-.975-.03472-1.94982a1.24792,1.24792,0,0,0-.25133-.72412,8.14683,8.14683,0,0,1-.6881-1.38823,11.09286,11.09286,0,0,1-.66259-1.40271c-.156-.48893-.57919-.8542-.7424-1.361a2.03708,2.03708,0,0,0-.37474-.67406c-.33544-.39671-.69868-.7713-1.06731-1.13812a2.21093,2.21093,0,0,1-.8959-2.05738c-.01711-.52-.02522-1.0402-.03743-1.56032a4.35421,4.35421,0,0,0-.33949-.6911,4.19693,4.19693,0,0,0-.55135-.54713,2.75961,2.75961,0,0,0-.66664-.39457c-.51234-.26749-.65143-.46719-.69449-.85057a1.76413,1.76413,0,0,1,.17814-1.12646c.06547-.11246.12827-.22654.18963-.34129a1.24437,1.24437,0,0,0-.24327-1.73608c-.44125-.478-.91006-.93108-1.339-1.41956a1.59173,1.59173,0,0,1-.40315-1.065c-.00038-.12925-.04067-.25815-.0431-.38761a2.18064,2.18064,0,0,0-1.54676-1.57279c-.12941-.01223-.2571-.04725-.38651-.05391a1.84638,1.84638,0,0,1-1.07447-.39778,5.51833,5.51833,0,0,0-1.93078-1.28486,1.46336,1.46336,0,0,1-.42161-.63246,1.48889,1.48889,0,0,1-.06608-.38412,2.18291,2.18291,0,0,0-.90036-1.647,1.052,1.052,0,0,0-1.07618-.16677c-.22985.12176-.44692.26762-.67663.38963a.76145.76145,0,0,1-1.01091-.24987.882.882,0,0,1-.04255-.73035c.097-.23979.24337-.45932.36319-.69027a.75448.75448,0,0,0,.01805-.74033.93954.93954,0,0,0-.60926-.42671,3.104,3.104,0,0,0-.77574-.06818,3.26253,3.26253,0,0,1-1.83809-.53962,1.61436,1.61436,0,0,0-.74138-.20739A8.54786,8.54786,0,0,1,36.283,85.44a1.56777,1.56777,0,0,0-.66376-1.678c-.31134-.23183-.60475-.4882-.92105-.71266a1.81065,1.81065,0,0,0-1.07036-.40692,4.04128,4.04128,0,0,1-2.53249-.82366,1.5537,1.5537,0,0,1-.81681-1.22557,4.06914,4.06914,0,0,1,.00942-1.9221,1.15913,1.15913,0,0,1,.65-.90367,5.09051,5.09051,0,0,0,.66665-.39765c.11038-.0678.22055-.13615.32778-.20872a.78743.78743,0,0,0,.111-1.30942c-.28521-.25889-.68414-.40494-.87723-.74191a4.00789,4.00789,0,0,1-.38822-1.4892c.05533-.116.11-.23224.16614-.34782a1.30758,1.30758,0,0,1,1.18147-.82669c2.18269-.05125,4.36571-.08678,6.54869-.12452a1.44789,1.44789,0,0,0,.728-.215,6.7703,6.7703,0,0,1,.6912-.3404,1.07775,1.07775,0,0,1,.36269-.10535q.76891-.04436,1.53934-.061c.64206-.01445,1.28439-.018,1.92662-.02477a2.09139,2.09139,0,0,0,1.08934-.321,2.66551,2.66551,0,0,1,1.45332-.42638c.38522.0037.77078-.02689,1.15593-.02167a2.36083,2.36083,0,0,0,1.44522-.4304c.42317-.3019.971-.337,1.3853-.65136a3.38643,3.38643,0,0,1,1.01572-.532,2.01911,2.01911,0,0,0,1.75608-.64829,5.7958,5.7958,0,0,1,.61267-.48178,1.99747,1.99747,0,0,1,1.08-.38765c2.08061.00741,4.16126-.00076,6.24186-.00477a1.90529,1.90529,0,0,1,1.352.66748,2.60848,2.60848,0,0,1,.604.98611,2.49256,2.49256,0,0,0,.347.69234,3.24379,3.24379,0,0,1,.45556,1.46911.83534.83534,0,0,0,.09107.37225c.52426.74174.6789,1.692,1.3402,2.35642.18267.18355.33763.39511.50166.59676a1.93546,1.93546,0,0,1,.36438.68238c.14782.50786.55393.88538.71566,1.3751a9.5041,9.5041,0,0,0,.697,1.38728A4.97817,4.97817,0,0,0,68.65442,79.878c.36328.3724.723.74837,1.0933,1.11369.46289.45667.93614.90281,1.40266,1.35581A3.70954,3.70954,0,0,0,72.75583,83.406a3.00759,3.00759,0,0,1,1.257,1.43983,2.85386,2.85386,0,0,0,.91592,1.22989,1.06472,1.06472,0,0,0,.322.21738A4.26739,4.26739,0,0,1,76.888,87.30837a2.59183,2.59183,0,0,0,.95951.64776,2.57719,2.57719,0,0,1,.99026.5997c1.035.98718,2.04894,1.99661,3.09036,2.97686a1.59656,1.59656,0,0,0,1.07537.38136C83.39349,91.925,83.78381,91.92537,84.17394,91.9304Z"
          />
          <path
            id="Arada-Woreda-8"
        class="cls-1 pathHovered NaN-ri subcity Arada-Woreda-8-path"
         data-html="true"            d="M100.31177,116.14691a1.51313,1.51313,0,0,1,1.05467.431,11.83087,11.83087,0,0,1,1.02132.995l7.97342-1.84987.9624-.231c-.10024-.11895-.19671-.24177-.28714-.37087-.28208-.40275-.05264-1.195.38561-1.27318a3.0091,3.0091,0,0,1,.38608-.04983,2.61378,2.61378,0,0,0,1.44452-.50624,1.33784,1.33784,0,0,1,.72081-.26006,2.67772,2.67772,0,0,0,1.46417-.44058,7.532,7.532,0,0,1,1.0501-.48443,2.536,2.536,0,0,0,1.27893-1.398,2.58225,2.58225,0,0,1,1.56826-1.608,2.07962,2.07962,0,0,0,.67846-.36612c.57772-.52131,1.13736-1.06355,1.73072-1.56624a1.6071,1.6071,0,0,1,1.05806-.41738c1.03832.00291,2.07665-.02174,3.11492-.01671a2.11927,2.11927,0,0,0,1.102-.31461,5.93417,5.93417,0,0,1,1.05229-.48683,2.04934,2.04934,0,0,0,.65286-.412c.48455-.43109.945-.88922,1.41869-1.33278a2.90066,2.90066,0,0,1,.97566-.62506,1.052,1.052,0,0,0,.67814-.85358c.01406-.129.02746-.25822.03538-.38771a5.5659,5.5659,0,0,1,.08392-1.16072,5.75212,5.75212,0,0,1,.53652-1.03169.94243.94243,0,0,0-.322-1.02807,5.72371,5.72371,0,0,1-2.35892-1.96078.90478.90478,0,0,1-.20394-.32782,6.774,6.774,0,0,0-.67179-1.39376.7589.7589,0,0,1,.053-.72081.639.639,0,0,1,.65524-.31311,1.57837,1.57837,0,0,1,.7098.27055,2.07157,2.07157,0,0,0,1.08605.37009,2.67744,2.67744,0,0,1,1.44529.50459,1.35441,1.35441,0,0,0,.72719.23874c.51883.01324,1.03761.03016,1.55639.0448a2.1204,2.1204,0,0,1,1.461.43617,1.764,1.764,0,0,0,.71366.28116,3.565,3.565,0,0,1,1.821.59106,1.47613,1.47613,0,0,0,.73206.227,2.2557,2.2557,0,0,1,1.45215.47227,2.22186,2.22186,0,0,0,1.10188.31537c.38828.02038.77856.00419,1.16793.004-.00654-.12951-.00615-.25985-.02089-.38845a2.12475,2.12475,0,0,0-.33091-1.09573c-.46357-.62549-.60265-1.42838-1.087-2.04651-.13866-.78491-.78794-1.33483-.96685-2.10122a10.282,10.282,0,0,1-.57175-1.01205,6.93743,6.93743,0,0,0-.67408-1.38869,1.28478,1.28478,0,0,1-.247-.72477,2.73945,2.73945,0,0,0-.44859-1.46226,2.30285,2.30285,0,0,1-.35261-1.09218,2.64144,2.64144,0,0,0-.337-1.09869,2.11783,2.11783,0,0,1-.43657-1.45854c-.0062-.12951-.01388-.25946-.01016-.3889a2.38344,2.38344,0,0,0-.44382-1.45916,3.93607,3.93607,0,0,1-.40854-1.48141.99339.99339,0,0,0-.80807-.70951c-.2581-.01971-.51682-.0318-.77431-.05762a2.10813,2.10813,0,0,0-1.74707.66936,3.39347,3.39347,0,0,1-1.62805,1.00363,9.07941,9.07941,0,0,1-.99741.60347,8.71,8.71,0,0,0-1.058.4694,1.96442,1.96442,0,0,1-1.082.37476c-1.03709-.01776-2.07484-.01271-3.11211.00076a1.9717,1.9717,0,0,1-1.38588-.59228c-.47939-.43643-.93724-.897-1.4265-1.32177a1.87532,1.87532,0,0,0-.66674-.37838,2.39669,2.39669,0,0,1-.99135-.58668c-.93209-.90157-1.83757-1.83094-2.77829-2.72323-.53323-.50581-.52579-.59317-1.75608-.63034-.00443,1.68621-.0935,3.37207-.00715,5.05878a2.39929,2.39929,0,0,0,.328,1.102,2.86221,2.86221,0,0,1,.40753,1.47585c-.00019.12967.00964.25934.011.389a2.861,2.861,0,0,0,.45169,1.46548,2.14131,2.14131,0,0,1,.29539,1.1086c.00634.77825-.00758,1.557.01616,2.33463a2.00881,2.00881,0,0,1-.349,1.09235c-.19817.33766-.32262.70445-.4936,1.05079a2.93951,2.93951,0,0,1-.73493.8953,1.14892,1.14892,0,0,1-1.418.104c-.63884-.44446-1.43079-.59235-2.0744-1.03837a1.62382,1.62382,0,0,0-.73941-.20121,2.48521,2.48521,0,0,1-1.10474-.32779,2.66226,2.66226,0,0,0-1.46279-.44574c-.77788-.00991-1.55553-.04293-2.33337-.0596a1.392,1.392,0,0,1-.73091-.23121,3.24042,3.24042,0,0,0-1.84072-.5157c-.12945.00319-.26-.01862-.38875-.00971a3.60585,3.60585,0,0,1-2.23018-.51284.77433.77433,0,0,0-.74293-.0236.95051.95051,0,0,0-.42251.61886,3.48568,3.48568,0,0,0-.08159.77267,3.6144,3.6144,0,0,1-.55344,1.83392,1.48055,1.48055,0,0,0-.19569.742c-.01211.51849-.04325,1.03656-.06065,1.555a2.03161,2.03161,0,0,1-.302,1.10555c-.29567.43343-.40157.95137-.66254,1.39711a11.73925,11.73925,0,0,1-.98268,1.20263,2.10286,2.10286,0,0,0-.36715.679,1.89219,1.89219,0,0,1-.36186.68161q-.25075.29711-.50757.58909c-.59407.67393-1.37024,1.21381-1.58948,2.16316-.32729.40158-.65954.79925-.98025,1.206a3.27992,3.27992,0,0,0-.55482,1.01641,5.24952,5.24952,0,0,1-.34908.68846,2.33333,2.33333,0,0,0-.35566,1.09278c.012.77783.00634,1.556.00434,2.334a1.36538,1.36538,0,0,0,.16979.74705c.48579.76885.69678,1.67009,1.19811,2.43417a1.81722,1.81722,0,0,1,.2129,1.12563c-.03286.51723-.0865,1.03312-.13122,1.54959q1.16883.0432,2.3377.08587a1.54765,1.54765,0,0,1,.72491.25093,2.21174,2.21174,0,0,0,1.45325.475A7.562,7.562,0,0,0,100.31177,116.14691Z"
          />
        </g>
        <path
          id="arada_bound"
          class="cls-2"
          d="M164.65187,94.51884c-.02084-.51425-.0021-1.03-.00458-1.54513-.00124-.25739-.03033-.51592-.01426-.77186a2.22491,2.22491,0,0,0-.37468-1.07611c-.32453-.70788-.38418-.99951-.08349-1.4286a2.38423,2.38423,0,0,0,.47152-1.43735c-.01077-.51487-.02212-1.03019-.01111-1.54484a1.54944,1.54944,0,0,0-.43009-1.0424c-.41464-.49125-.87635-.94241-1.30763-1.42007a2.00046,2.00046,0,0,1-.59078-1.37593c.001-2.96191-.01049-5.92384-.01769-8.88575a1.00871,1.00871,0,0,0-.4082-.62473,15.09424,15.09424,0,0,1-1.85965-1.34719,2.035,2.035,0,0,0-1.04214-.44644,3.39489,3.39489,0,0,1-1.40833-.57052,5.69416,5.69416,0,0,0-.68839-.33334c-.26721.57538-.39018.7601-.68957.87639a7.96876,7.96876,0,0,0-1.04724.48889,2.02472,2.02472,0,0,1-1.10126.29632c-.25734-.01185-.51592.005-.77388.0031a3.57,3.57,0,0,1-2.21617-.51688,1.768,1.768,0,0,0-.74088-.19034q-2.12794-.0324-4.25561-.08473a1.47142,1.47142,0,0,1-.72677-.23205,3.06563,3.06563,0,0,0-1.44477-.49651,1.91424,1.91424,0,0,1-1.05563-.428,7.0215,7.0215,0,0,1-.8577-.7792,3.151,3.151,0,0,1-.82075-1.29082,3.25681,3.25681,0,0,0-.352-.68326,2.72335,2.72335,0,0,1-.37187-1.08333,2.42942,2.42942,0,0,0-.34846-1.08977c-.4196-.65141-.60928-1.41666-1.0152-2.0776a1.74136,1.74136,0,0,1-.17842-.74253,2.33386,2.33386,0,0,0-.33073-1.09633,2.76319,2.76319,0,0,1-.47271-1.44805,1.30687,1.30687,0,0,0-.23012-.7282c-.30268-.42044-.46013-.91752-.72433-1.35722a.9928.9928,0,0,0-.61172-.42935,2.62722,2.62722,0,0,0-.50042-1.833,1.147,1.147,0,0,1-.24728-.72548c-.00129-.12929-.04062-.25829-.04086-.38746a1.20339,1.20339,0,0,0-.22115-.73366c-.46452-.63241-.62835-1.415-1.05763-2.07188-.35113-.53733-.50615-1.18632-.86877-1.72976a1.48592,1.48592,0,0,1-.17618-.74643,2.15044,2.15044,0,0,0-.3355-1.09826,22.78554,22.78554,0,0,0-1.08838-2.05271c-.65582-1.27616-.65363-1.27816-.99923-1.634-.09059-.09329-.18267-.18515-.27341-.27832a3.88165,3.88165,0,0,1-1.30662-1.88914,5.54974,5.54974,0,0,0-.464-.62387q-1.501-1.53313-3.02351-3.04514a3.42615,3.42615,0,0,0-1.29724-.835.88242.88242,0,0,1-.50905-.55335,2.54617,2.54617,0,0,0-.5976-.99233c-.899-.93931-1.81754-1.86007-2.7265-2.78994a2.26278,2.26278,0,0,1-.66884-1.75689c.04106-1.039.03023-2.0801.04149-3.12029-.25844.00367-.51692.00849-.77536.01068a1.41707,1.41707,0,0,0-.72281.25067,2.10989,2.10989,0,0,1-1.44753.4628,3.75848,3.75848,0,0,0-2.17816.64833,1.88007,1.88007,0,0,1-.36443.12886,3.85875,3.85875,0,0,0-1.0297.53392,1.63866,1.63866,0,0,1-.72967.236,2.41944,2.41944,0,0,0-1.45445.4627,2.628,2.628,0,0,1-1.09735.33785,2.17908,2.17908,0,0,0-1.09115.351,2.61661,2.61661,0,0,1-1.45864.45338,1.30528,1.30528,0,0,0-.72706.24037,2.30557,2.30557,0,0,1-.66588.39509A3.70656,3.70656,0,0,0,104.78,34.196a3.51169,3.51169,0,0,1-1.32413.7738,5.56509,5.56509,0,0,0-.99874.595,3.58144,3.58144,0,0,0-1.62925,1.0044,2.09627,2.09627,0,0,1-.30168.245,1.95273,1.95273,0,0,1-1.06717.40106c-1.55577-.012-3.11173-.00432-4.66759-.01014a2.09449,2.09449,0,0,1-1.10241-.31086,2.74071,2.74071,0,0,0-1.45973-.45326c-1.16707.00488-2.33423.008-3.50124.00124a2.73222,2.73222,0,0,0-1.47128.41318,2.0442,2.0442,0,0,1-1.09258.34489c-.12932-.00148-.25887.01676-.38828.01669-1.167-.00084-2.33417-.01369-3.501-.00067a1.81108,1.81108,0,0,1-1.08943-.34286c-.43057-.30819-.96518-.36786-1.39465-.66531a9.05637,9.05637,0,0,1-1.15777-1.03353c-.27756-.27262-.54953-.55082-.82633-.82425q-1.937-1.9136-3.87678-3.82452a1.31964,1.31964,0,0,0-.68614-.33726q.00407-.35654-.00706-.71294c-.23388-.01621-.46767-.03428-.70169-.04782-.11692-.00677-.23493.0009-.35151-.00854a1.37484,1.37484,0,0,1-1.4244-.81755c-.38675.00915-.77379.01134-1.16011.02918a1.82511,1.82511,0,0,0-1.31359.71306,2.76446,2.76446,0,0,0-.57466.99221,1.98543,1.98543,0,0,1-.68161.91447,1.71528,1.71528,0,0,1-1.02812.46814c-.77331.0207-1.54747.0072-2.32107.02043a2.53,2.53,0,0,1-1.45506-.43183,2.04648,2.04648,0,0,0-1.09278-.32323c-.90242-.01984-1.80528-.02065-2.708-.02914a2.54348,2.54348,0,0,0-.48044-1.4451,6.992,6.992,0,0,0-2.928-2.48079.98054.98054,0,0,1-.5739-.92131c-.04044-1.29552-.02446-2.59271-.053-3.88873a2.138,2.138,0,0,0-.28476-1.11326,3.30462,3.30462,0,0,1-.51253-1.84286c.00782-.38861-.01664-.77776-.01269-1.16654a1.76864,1.76864,0,0,0-.13627-.75731c-.31842-.70829-.56961-1.44569-.941-2.13159a2.45026,2.45026,0,0,1-.27674-.71876,6.03494,6.03494,0,0,0-.64829-1.81893,4.03045,4.03045,0,0,1-.38713-1.4965,1.37012,1.37012,0,0,1,.129-.7527,18.57092,18.57092,0,0,1,1.00953-1.65228,2.73542,2.73542,0,0,1,.5605-.52836,1.51623,1.51623,0,0,0,.737-1.27669c.00377-1.16649-.004-2.333.00152-3.49947A2.24024,2.24024,0,0,0,52.83315,1.763c-.37816-.353-.75165-.71122-1.13568-1.05768a1.92213,1.92213,0,0,0-.33359-.19845c-.38861.01955-.77864.025-1.16549.06275a2.87383,2.87383,0,0,0-1.11375.30435,2.60881,2.60881,0,0,1-1.09781.3589c-.90627.0494-1.81184.112-2.71749.17237a1.8421,1.8421,0,0,0-.73237.23627,3.54146,3.54146,0,0,1-1.48055.42814c-.38861.01888-.77719.043-1.16609.05073a3.30332,3.30332,0,0,0-1.48691.38746,2.80434,2.80434,0,0,1-1.11068.32138c-.38811.0267-.77655.04973-1.164.08435a3.18261,3.18261,0,0,0-1.85862.47977,1.88817,1.88817,0,0,1-.74469.20389c-.25856.01722-.51552.06118-.77414.07429a3.6014,3.6014,0,0,0-1.477.43529,2.60423,2.60423,0,0,1-1.12267.26573c-1.81413.05779-3.63129.05765-5.4372.27732a3.195,3.195,0,0,1-.68712.32309,18.76216,18.76216,0,0,0-2.96589.73507,2.82531,2.82531,0,0,1-.74465.16307c-.76275.071-1.52716.12612-2.29167.17547a4.75555,4.75555,0,0,0-1.48276.34832,3.234,3.234,0,0,1-.72942.21819,5.0239,5.0239,0,0,0-1.80562.5852c-.55182.31508-1.15255.53928-1.701.86672a1.62529,1.62529,0,0,1-.73516.16831,2.27259,2.27259,0,0,0-1.3592.61315,14.31868,14.31868,0,0,0-2.1096,2.213,1.56529,1.56529,0,0,1-.56584.4998c-.122.36468-.249.72787-.36322,1.095a1.19085,1.19085,0,0,0-.0585.37817q.03666,1.34657.09081,2.69255a5.635,5.635,0,0,0,.0868.7653,3.23976,3.23976,0,0,0,.18973.74083,8.34914,8.34914,0,0,1,.58887,2.22582,8.08964,8.08964,0,0,0,.31883,1.10706,7.97249,7.97249,0,0,1,.96763.06313,7.97272,7.97272,0,0,0-.96766-.06313c-.24835.06577-.49586.13487-.74536.19588-.12455.03046-.25288.0452-.37917.06885a1.85858,1.85858,0,0,0-.705.29033,3.109,3.109,0,0,1-1.43463.49709c-.63079.07026-.96008.36508-1.00263.92822a2.50639,2.50639,0,0,1-.7725,1.703c-.27849.26621-.53983.55326-.83789.79522a1.62536,1.62536,0,0,1-1.035.44766c-.12741-.00066-.25481.04082-.3825.04258a1.16185,1.16185,0,0,0-.71857.24223,2.88981,2.88981,0,0,1-1.8133.5194,3.52836,3.52836,0,0,0,.59405,1.82007,1.11816,1.11816,0,0,1,.15377.35694c.04673.38589.08313.77455.09367,1.16292a3.00047,3.00047,0,0,0,.43708,1.476,1.59614,1.59614,0,0,1,.238.73254q.051.97422.08523,1.94924a1.56447,1.56447,0,0,0,.1976.7456,4.37893,4.37893,0,0,1,.632,1.82322,3.0537,3.0537,0,0,0,.43588,1.0757,1.80968,1.80968,0,0,1,.22456.73712c.02608.78031.05641,1.56063.0695,2.34121a2.87278,2.87278,0,0,0,.43278,1.47547,2.38716,2.38716,0,0,1,.33208,1.10622c.03383.51926.04533,1.03994.0669,1.56a2.08829,2.08829,0,0,0,.92923,1.621,4.59822,4.59822,0,0,0,.69351.34224c.47353.2076.90593.51613,1.388.69517a10.9869,10.9869,0,0,1,1.37324.73023,4.84841,4.84841,0,0,1,2.37382,1.92795,1.03232,1.03232,0,0,1,.21808.73058c-.013.25973-.00665.52038-.01941.78013a1.9499,1.9499,0,0,1-.51823,1.42891c-.23264.31274-.47613.61769-.70109.93583a1.51359,1.51359,0,0,0-.26919.72078,12.19191,12.19191,0,0,0-.021,2.727,1.10775,1.10775,0,0,0,.62655.90784,6.01306,6.01306,0,0,1,2.05852,1.76113,1.85459,1.85459,0,0,1,.2397,1.84248,8.08173,8.08173,0,0,1-.52717,1.04028,1.7962,1.7962,0,0,0,.1963,1.49016c.08161.10032.153.20918.23691.30748a1.88649,1.88649,0,0,0,1.34113.68452,13.81492,13.81492,0,0,1,1.94833-.00816,1.61688,1.61688,0,0,1,.716.28147,7.21638,7.21638,0,0,1,1.13309,1.067,2.15929,2.15929,0,0,1,.607,1.394c.01006.26.02343.52.026.78015a2.14084,2.14084,0,0,0,.87367,1.65793,1.365,1.365,0,0,0,.69769.30607,1.16146,1.16146,0,0,0,1.43313-.93562,6.79352,6.79352,0,0,1,.17089-.76048,1.0172,1.0172,0,0,1,.51053-.54793.88557.88557,0,0,1,.37127-.08166c.77984-.02909,1.56-.06449,2.34016-.06785a2.32436,2.32436,0,0,1,1.92242,1.14668,1.24078,1.24078,0,0,1,.179.34069,2.25834,2.25834,0,0,0,.34048.69906,2.44041,2.44041,0,0,1,.45507,1.84072,1.38362,1.38362,0,0,0,1.13038.78189c.24015.02219.48239.027.7209.06a3.27692,3.27692,0,0,1,1.02674.3363,4.00789,4.00789,0,0,0,.38822,1.4892c.19309.337.592.483.87723.74191a.78743.78743,0,0,1-.111,1.30942c-.10723.07257-.2174.14092-.32778.20872a5.09051,5.09051,0,0,1-.66665.39765,1.15913,1.15913,0,0,0-.65.90367,4.06914,4.06914,0,0,0-.00942,1.9221,1.5537,1.5537,0,0,0,.81681,1.22557,4.04128,4.04128,0,0,0,2.53249.82366,1.81065,1.81065,0,0,1,1.07036.40692c.3163.22446.60971.48083.92105.71266A1.56777,1.56777,0,0,1,36.283,85.44a8.54786,8.54786,0,0,0,1.54032.24175,1.61436,1.61436,0,0,1,.74138.20739,3.26253,3.26253,0,0,0,1.83809.53962,3.104,3.104,0,0,1,.77574.06818.93954.93954,0,0,1,.60926.42671.75448.75448,0,0,1-.01805.74033c-.11982.231-.26623.45048-.36319.69027a.882.882,0,0,0,.04255.73035.76145.76145,0,0,0,1.01091.24987c.22971-.122.44678-.26787.67663-.38963a1.052,1.052,0,0,1,1.07618.16677,2.18291,2.18291,0,0,1,.90036,1.647,1.48889,1.48889,0,0,0,.06608.38412,1.46336,1.46336,0,0,0,.42161.63246,5.51833,5.51833,0,0,1,1.93078,1.28486,1.84638,1.84638,0,0,0,1.07447.39778c.12941.00666.2571.04168.38651.05391a2.18064,2.18064,0,0,1,1.54676,1.57279c.00243.12946.04272.25836.0431.38761a1.59173,1.59173,0,0,0,.40315,1.065c.4289.48848.89771.94158,1.339,1.41956a1.24437,1.24437,0,0,1,.24327,1.73608c-.06136.11475-.12416.22883-.18963.34129a1.76413,1.76413,0,0,0-.17814,1.12646c.04306.38338.18215.58308.69449.85057a2.75961,2.75961,0,0,1,.66664.39457,4.19693,4.19693,0,0,1,.55135.54713,4.35421,4.35421,0,0,1,.33949.6911c.01221.52012.02032,1.04037.03743,1.56032a2.21093,2.21093,0,0,0,.8959,2.05738c.36863.36682.73187.74141,1.06731,1.13812a2.03708,2.03708,0,0,1,.37474.67406c.16321.50679.58644.87206.7424,1.361a11.09286,11.09286,0,0,0,.66259,1.40271,8.14683,8.14683,0,0,0,.6881,1.38823,1.24792,1.24792,0,0,1,.25133.72412q.02139.97483.03472,1.94982a1.31775,1.31775,0,0,0,.2354.73,5.26338,5.26338,0,0,0,1.64965,1.62482.88847.88847,0,0,0,.35295.16116,26.71707,26.71707,0,0,0,3.896-.00391,1.17927,1.17927,0,0,0,.3743-.08452,6.25447,6.25447,0,0,0,.69954-.34612,1.51133,1.51133,0,0,1,.73054-.24108c.91025-.02425,1.82188-.085,2.73055-.05626a3.74633,3.74633,0,0,0,2.20754-.59968.73628.73628,0,0,1,.74336.02766,2.14238,2.14238,0,0,1,1.20583,1.43411c.00386.65012.01583,1.30033.00867,1.95033a1.60808,1.60808,0,0,0,.41365,1.06171,6.78769,6.78769,0,0,1,1.31769,1.902.68.68,0,0,0,.62377.40435c.25825.0246.51564.05886.7734.0889.12894-.0097.25844-.0145.38671-.03a1.75248,1.75248,0,0,0,1.06926-.38217c.65592-.623,1.31216-1.24577,1.959-1.87805a4.41294,4.41294,0,0,1,1.62424-1.01174c.35737-.1286.65138-.43086,1.00761-.566a3.17557,3.17557,0,0,0,1.00514-.55886,5.18839,5.18839,0,0,1,1.9285-1.24939c.2045-.15739.42017-.30242.61137-.47462a3.66865,3.66865,0,0,1,1.62739-1.00261,14.67491,14.67491,0,0,1,2.05371-1.06586,2.2868,2.2868,0,0,1,1.08419-.36746c1.16335-.00088,2.32669-.0355,3.49-.05679q1.16883.0432,2.3377.08587a1.54765,1.54765,0,0,1,.72491.25093,2.21174,2.21174,0,0,0,1.45325.475,7.562,7.562,0,0,0,.77932.02542,1.51313,1.51313,0,0,1,1.05467.431,11.83087,11.83087,0,0,1,1.02132.995l7.97342-1.84987.9624-.231c-.10024-.11895-.19671-.24177-.28714-.37087-.28208-.40275-.05264-1.195.38561-1.27318a3.0091,3.0091,0,0,1,.38608-.04983,2.61378,2.61378,0,0,0,1.44452-.50624,1.33784,1.33784,0,0,1,.72081-.26006,2.67772,2.67772,0,0,0,1.46417-.44058,7.532,7.532,0,0,1,1.0501-.48443,2.536,2.536,0,0,0,1.27893-1.398,2.58225,2.58225,0,0,1,1.56826-1.608,2.07962,2.07962,0,0,0,.67846-.36612c.57772-.52131,1.13736-1.06355,1.73072-1.56624a1.6071,1.6071,0,0,1,1.05806-.41738c1.03832.00291,2.07665-.02174,3.11492-.01671a2.11927,2.11927,0,0,0,1.102-.31461,5.93417,5.93417,0,0,1,1.05229-.48683,2.04934,2.04934,0,0,0,.65286-.412c.48455-.43109.945-.88922,1.41869-1.33278a2.90066,2.90066,0,0,1,.97566-.62506,1.052,1.052,0,0,0,.67814-.85358c.01406-.129.02746-.25822.03538-.38771a5.5659,5.5659,0,0,1,.08392-1.16072,5.75212,5.75212,0,0,1,.53652-1.03169.94243.94243,0,0,0-.322-1.02807,5.72371,5.72371,0,0,1-2.35892-1.96078.90478.90478,0,0,1-.20394-.32782,6.774,6.774,0,0,0-.67179-1.39376.7589.7589,0,0,1,.053-.72081.639.639,0,0,1,.65524-.31311,1.57837,1.57837,0,0,1,.7098.27055,2.07157,2.07157,0,0,0,1.08605.37009,2.67744,2.67744,0,0,1,1.44529.50459,1.35441,1.35441,0,0,0,.72719.23874c.51883.01324,1.03761.03016,1.55639.0448a2.1204,2.1204,0,0,1,1.461.43617,1.764,1.764,0,0,0,.71366.28116,3.565,3.565,0,0,1,1.821.59106,1.47613,1.47613,0,0,0,.73206.227,2.2557,2.2557,0,0,1,1.45215.47227,2.22186,2.22186,0,0,0,1.10188.31537c.38828.02038.77856.00419,1.16793.004v0a1.2902,1.2902,0,0,1,.80477,1.18354,3.97054,3.97054,0,0,0,.1872.74017l.63484.39742c.38351.01705.76706.0506,1.15047.04809,1.28031-.00834,2.56052-.03743,3.84078-.04131a2.08726,2.08726,0,0,0,1.0811-.33826,3.20235,3.20235,0,0,1,1.44929-.4427,1.22377,1.22377,0,0,0,.71246-.25122c.29959-.239.61539-.45822.9092-.70388a2.12907,2.12907,0,0,1,1.38865-.548c1.02411-.00787,2.048-.04277,3.07215-.04666a1.99523,1.99523,0,0,0,1.07608-.35265c.54262-.3461,1.19587-.45231,1.71856-.83458a2.21824,2.21824,0,0,1,1.45878-.34834c.25586.00989.51158.02279.76739.03433a4.57448,4.57448,0,0,1,.5226-1.02421A1.85688,1.85688,0,0,0,164.65187,94.51884Z"
        />
        <text class="cls-3" transform="translate(76.35367 69.50081)">
          Arada
        </text>
        <g id="arada_woreda_texts">
          <text class="cls-4" transform="translate(13.77399 54.9988)">
            AR-W2
          </text>
          <text class="cls-4" transform="translate(51.70859 57.29702)">
            AR-W5
          </text>
          <text class="cls-4" transform="translate(29.49567 28.27126)">
            AR-W4
          </text>
          <text class="cls-4" transform="translate(89.10169 52.4999)">
            AR-W6
          </text>
          <text class="cls-4" transform="translate(140.68416 88.36696)">
            AR-W7
          </text>
          <text class="cls-4" transform="translate(97.69097 108.30935)">
            AR-W8
          </text>
          <text class="cls-4" transform="translate(87.70859 80.27913)">
            AR-W9
          </text>
          <text class="cls-4" transform="translate(58.55509 98.82192)">
            AR-W1
          </text>
        </g>
      </g>
    </g>
  </g>
</svg>
