<svg  xmlns="http://www.w3.org/2000/svg" id='svgCanvas1' viewBox="-22.10928268432616 -94.8085906982422 425.983984375 327.68">
  <defs>
    <style>
       #svgCanvas1{
        
            border: 0.1px #ccb8b8;
            background-color: #f6f4f4;
            display: block;
            margin-left: auto;
            margin-right: auto;
    }
      .cls-1 {
           stroke: #fff;
        stroke-width: 0.58592px;
      }

      .cls-1,
      .cls-2 {
        stroke-miterlimit: 10;
      }

      .cls-2 {
        fill: none;
        stroke: #784c9e;
      }

      .cls-3 {
        font-size: 18px;
      }

      .cls-3,
      .cls-4 {
        fill: #6b682b;
        font-family: MyriadPro-Regular, Myriad Pro;
      }

      .cls-4 {
        isolation: isolate;
        font-size: 7.5px;
      }
    </style>
  </defs>
  <g id="Layer_2" data-name="Layer 2">
    <g id="kifle_ketema">
      <g id="gulele_kk">
        <g id="gulele_all">
          <path
            id="Gullele-Woreda-2"
        class="cls-1 pathHovered NaN-ri subcity Gullele-Woreda-2-path"
         data-html="true"            d="M284.18687,127.89462a3.41143,3.41143,0,0,0,.58983,1.8154,1.6074,1.6074,0,0,1,.21347.73807,2.85743,2.85743,0,0,0,.49694,1.44851c.23212.36923,1.2384,1.9533,1.45159,2.27018a1.80946,1.80946,0,0,1,.33143.68842,4.37131,4.37131,0,0,0,.61448,1.81752,7.60869,7.60869,0,0,0,.75033,1.3443,3.4823,3.4823,0,0,0,1.26638.87749,1.37547,1.37547,0,0,1,.55821.96487,2.8978,2.8978,0,0,0,.486,1.45649,1.47081,1.47081,0,0,1,.24542.72633c.03209.64725.05946,1.29473.08826,1.94215a1.06173,1.06173,0,0,0,.59855.91989,4.1216,4.1216,0,0,1,.98525.61233,1.84356,1.84356,0,0,1,.75462,1.30323c.0081.25886.01554.51776.02007.77671a2.00359,2.00359,0,0,0,.40649,1.45887,1.14558,1.14558,0,0,1,.09317,1.09066,6.97764,6.97764,0,0,0-.36963.6819,3.52249,3.52249,0,0,1-.93667,1.65975,7.1429,7.1429,0,0,0-.50819.58556,1.61482,1.61482,0,0,0-.27875,1.09973,1.49265,1.49265,0,0,0,.47491,1.02928,4.09651,4.09651,0,0,0,1.25757.89545,1.09,1.09,0,0,1,.58477.93521c.00434.1292.03209.25813.03037.38694-.00515.389-.01254.77816-.03213,1.16661a2.14727,2.14727,0,0,1-.312,1.10466c-.28809.43627-.389.96713-.6622,1.3975a3.82888,3.82888,0,0,0-.601,2.20783,2.0713,2.0713,0,0,1-.29243,1.10953c-.13146.2227-.25958.44884-.36806.68323a5.21491,5.21491,0,0,1-.29067.71517c-.36128.54345-.52054,1.1906-.88064,1.72287a3.51624,3.51624,0,0,0-.51668,2.22263,1.43,1.43,0,0,0,.21843.73353,11.703,11.703,0,0,0,.991,1.19407,2.52128,2.52128,0,0,1,.38289.66972,2.51555,2.51555,0,0,0,.3682.677c.41793.49476.86672.96362,1.30711,1.43919a2.52113,2.52113,0,0,1,.63979.96186c.184.634.67895,1.09432.87525,1.72713.18973.61172.679,1.10012.81947,1.74665a5.07861,5.07861,0,0,0,1.90513,1.89721,1.37713,1.37713,0,0,0,.3631.11827,2.38355,2.38355,0,0,0,.38465.05646c.38842.02443.77726.04132,1.166.06117q.01008.765.02012,1.53c-.01164.90523-.02823,1.81044-.03262,2.71571a2.05352,2.05352,0,0,1-.36038,1.08481,8.53858,8.53858,0,0,0-.48254,1.05,4.51118,4.51118,0,0,1-.93352,1.23076,9.64209,9.64209,0,0,0-.818,1.29773c-.07338.1042-.16455.23809-.27284.26869a5.56174,5.56174,0,0,0-1.88391,1.32892,1.332,1.332,0,0,1-.69439.3154c-.25663.02989-.51244.06769-.76859.102-.25844.00368-.51692.0085-.77536.01071a1.4168,1.4168,0,0,0-.72281.25065,2.10981,2.10981,0,0,1-1.44753.46279,3.75857,3.75857,0,0,0-2.17816.64834,1.8801,1.8801,0,0,1-.36443.12887,3.85843,3.85843,0,0,0-1.02969.53393,1.639,1.639,0,0,1-.72968.236,2.41948,2.41948,0,0,0-1.45444.46273,2.62849,2.62849,0,0,1-1.09736.33784,2.1789,2.1789,0,0,0-1.09115.351,2.61652,2.61652,0,0,1-1.45864.45337,1.30572,1.30572,0,0,0-.72705.24037,2.30548,2.30548,0,0,1-.66588.39509,3.70672,3.70672,0,0,0-1.63368,1.002,3.51181,3.51181,0,0,1-1.32413.77382,5.56347,5.56347,0,0,0-.99875.595,3.58145,3.58145,0,0,0-1.62924,1.00438,2.09709,2.09709,0,0,1-.30169.245,1.95269,1.95269,0,0,1-1.06717.401c-1.55577-.012-3.11172-.00432-4.66759-.01013a2.09456,2.09456,0,0,1-1.1024-.31087,2.74086,2.74086,0,0,0-1.45974-.45326c-1.16706.00489-2.33422.008-3.50124.00124a2.73219,2.73219,0,0,0-1.47127.41319,2.04433,2.04433,0,0,1-1.09259.34488c-.12931-.00148-.25886.01676-.38827.01669-1.167-.00083-2.33418-.01368-3.50105-.00067a1.81119,1.81119,0,0,1-1.08944-.34285c-.43057-.3082-.96518-.36787-1.39465-.66532a9.05773,9.05773,0,0,1-1.15777-1.03352c-.27755-.27261-.54953-.55082-.82632-.82426q-1.937-1.91361-3.87679-3.82452a1.31955,1.31955,0,0,0-.68614-.33725q.00408-.35656-.00706-.713c1.172-.24735,1.18147.022,1.72928-1.24171a10.86332,10.86332,0,0,1,.572-1.01809c.02351-.38894.06376-.77774.06652-1.16681a2.498,2.498,0,0,1,.46814-1.45458,2.70118,2.70118,0,0,0,.30593-.71065,2.7768,2.7768,0,0,1,1.27611-1.41405,3.75066,3.75066,0,0,0,1.63316-1.014,3.66233,3.66233,0,0,1,.62134-.46735,6.12665,6.12665,0,0,0,1.04061-.50744c.4001-.33091.79686-.66594,1.20192-.99068a.8794.8794,0,0,1,.33864-.1812,2.128,2.128,0,0,0,.999-.579q.848-.8051,1.65218-1.6559a1.96766,1.96766,0,0,0,.61361-1.38226c-.00057-1.82.01841-3.64009.02814-5.46013a1.09515,1.09515,0,0,1,.52283-.96286c.60966-.23831,1.08786-.71461,1.7124-.91518a2.57406,2.57406,0,0,0,.9874-.60221c.66064-.62578,1.30882-1.26475,1.97094-1.889a2.29078,2.29078,0,0,1,.615-.47155,4.97977,4.97977,0,0,0,1.63534-1.01634,2.95888,2.95888,0,0,1,.94358-.67577,4.97963,4.97963,0,0,0,.713-.30206,4.17892,4.17892,0,0,1,1.02535-.5481,2.35763,2.35763,0,0,0,.98182-.60767c.28176-.26856.55035-.55177.81289-.83934a2.06835,2.06835,0,0,0,.56546-1.40658c.00162-.13.0103-.25992.00968-.38987a2.80694,2.80694,0,0,1,.37773-1.48413,2.07974,2.07974,0,0,0,.359-1.09368c-.00543-.38946.02852-.77933.03271-1.16915.00835-.78005.029-1.56083.00539-2.34011a3.68966,3.68966,0,0,1,.49289-1.84889,1.92007,1.92007,0,0,0,.00238-1.86015,3.58607,3.58607,0,0,1-.515-1.45036,2.6167,2.6167,0,0,0-.34455-1.10059,2.12744,2.12744,0,0,1-.4207-1.46917c-.01693-.77963-.03586-1.55923-.06122-2.3386a1.33091,1.33091,0,0,0-.07424-.37645,1.53549,1.53549,0,0,0-.17032-.35006,3.1592,3.1592,0,0,1-.49-1.84934,2.561,2.561,0,0,0-.39453-1.479,2.45348,2.45348,0,0,1-.3702-1.09092,2.297,2.297,0,0,0-.32114-1.10654,2.686,2.686,0,0,1-.49255-1.45319,1.30324,1.30324,0,0,0-.22463-.73385c-.38417-.53231-.509-1.19355-.8588-1.73773a3.24233,3.24233,0,0,1-.47644-1.84868c.00868-1.16953-.00782-2.33922-.013-3.50884a1.33444,1.33444,0,0,0-.22954-.7324,3.10493,3.10493,0,0,1-.514-1.83971c.01845-.51924-.00472-1.03993-.00939-1.56a1.1531,1.1531,0,0,1,1.18714-.76926c.25672.00588.514-.01876.77111-.02455a1.90582,1.90582,0,0,0,1.07165-.36775c.20913-.14785.39161-.33309.58878-.49829.96608-.80929,1.28269-.78421,2.25669.16653.36787.359.7252.73173,1.119,1.06018a1.70815,1.70815,0,0,0,1.04657.4311,2.73731,2.73731,0,0,1,1.44405.47147,1.731,1.731,0,0,0,.35246.15562,1.237,1.237,0,0,0,.36229.113c.51387.02156,1.02841.02825,1.5428.03343C280.58627,127.84742,282.38783,127.766,284.18687,127.89462Z"
          />
          <path
            id="Gullele-Woreda-1"
        class="cls-1 pathHovered NaN-ri subcity Gullele-Woreda-1-path"
         data-html="true"            d="M295.15912.5c.39418.65174.55063.75451,1.20635.77149.51973.01346,1.0398.0215,1.55915.04375a2.56866,2.56866,0,0,1,1.10518.32625,2.31159,2.31159,0,0,0,1.08948.37759c.77955.00131,1.55906.04118,2.33876.054a2.87426,2.87426,0,0,1,1.46092.46974,2.24452,2.24452,0,0,0,1.11276.2978c.77912.028,1.5591.03712,2.3388.04116a1.44,1.44,0,0,1,.74393.19259,3.39869,3.39869,0,0,0,1.83538.55039A3.17173,3.17173,0,0,1,311.7925,4.14a1.39389,1.39389,0,0,0,.73425.22771c.51954.01367,1.03866.05277,1.55806.05454A2.7658,2.7658,0,0,1,315.561,4.839a2.25624,2.25624,0,0,0,1.10594.31885c.5193.02286,1.0388.04917,1.55849.05554a2.26806,2.26806,0,0,1,1.09563.35174,2.5113,2.5113,0,0,0,1.08672.38625,2.76036,2.76036,0,0,1,1.4472.50615,2.93762,2.93762,0,0,0,.70879.3121,2.1814,2.1814,0,0,1,.67289.37961,28.79732,28.79732,0,0,1,2.761,2.74971,1.89232,1.89232,0,0,1,.38027.6702,2.54406,2.54406,0,0,0,.59955.98895c.97882,1.04185,1.97322,2.06914,2.95576,3.1076a1.67628,1.67628,0,0,1,.37364.67582,1.95069,1.95069,0,0,0,.3608.68365c.32949.40124.65959.80207.98111,1.20962a.909.909,0,0,1,.18195.33911c.14853.648.68267,1.10411.852,1.73971a2.15251,2.15251,0,0,0,.33968.69595,2.77445,2.77445,0,0,1,.45741,1.4647,1.48244,1.48244,0,0,0,.24.73163,3.20167,3.20167,0,0,1,.48845,1.84651c-.00677.90948.03581,1.81925.04711,2.729a1.34247,1.34247,0,0,0,.20875.73894c.42475.65628.57977,1.44391,1.01606,2.09508a2.1058,2.1058,0,0,1,.29973,1.10968c.025.519.03833,1.03882.04434,1.55843a1.41328,1.41328,0,0,0,.206.74011,3.26184,3.26184,0,0,1,.53929,1.836c-.0135.38909.0134.77952.01993,1.16938a2.15331,2.15331,0,0,0,.3168,1.10535,2.7811,2.7811,0,0,1,.42785,1.473c.00038.12986.01793.25971.0174.38953a2.7069,2.7069,0,0,0,.43958,1.47027,2.21331,2.21331,0,0,1,.3055,1.10879c.0216.51935.04234,1.03885.05359,1.55849a2.21913,2.21913,0,0,0,.35075,1.09673,2.93206,2.93206,0,0,1,.39514,1.48181c.01107.51948.04254,1.03865.07253,1.55752a1.54119,1.54119,0,0,0,.2529.72565,2.73754,2.73754,0,0,1,.45317,1.46607c-.00009.12983.01059.25978.01917.38948a2.27785,2.27785,0,0,0,.43062,1.468,2.61556,2.61556,0,0,1,.32576,1.10581,2.13283,2.13283,0,0,0,.64013,1.37515c.09188.09181.174.19382.269.28205.28528.2648.57571.524.86219.78751.29591.27227.71771.29693,1.03279.5219.31632.22589.61457.47824.91144.72993a2.76993,2.76993,0,0,0,.98034.61462c.62859.18553,1.08276.72319,1.73849.84948a5.35293,5.35293,0,0,1,.64246.43413c.96528.87084,1.90647,1.7674,2.7852,2.72694a1.37825,1.37825,0,0,1,.3302.69173,1.66411,1.66411,0,0,1-.135.36527,3.17671,3.17671,0,0,0-.67141,2.17422,2.04589,2.04589,0,0,1-.43762,1.4594,1.98261,1.98261,0,0,0-.32333,1.1038,2.09692,2.09692,0,0,1-.64209,1.37351c-.27121.28051-.541.56425-.83257.82256a6.46752,6.46752,0,0,1-.63594.44563A3.24571,3.24571,0,0,0,345.36,70.23066c-.27837.27362-.55907.54526-.84769.808a2.37849,2.37849,0,0,1-.99536.58712,2.79211,2.79211,0,0,0-.69549.33974,2.76044,2.76044,0,0,1-1.46465.4413,1.55426,1.55426,0,0,0-.71943.268c-.63212.46244-1.4408.58862-2.061,1.07839a.892.892,0,0,1-.35332.152,2.12807,2.12807,0,0,0-.99546.58495c-.37726.35717-.7364.735-1.08434,1.12106a1.35087,1.35087,0,0,0-.31155.69976c-.04124.25674-.04954.51911-.09646.77458a2.10243,2.10243,0,0,1-1.606,1.50345,2.58629,2.58629,0,0,1-.38742.04529,1.56743,1.56743,0,0,0-1.05854.42377c-.588.512-1.1467,1.05738-1.72046,1.58581a1.849,1.849,0,0,1-.69063.345,1.92642,1.92642,0,0,0-.67818.36453c-1.24083,1.15022-2.4405,2.34337-3.58072,3.59384a1.97908,1.97908,0,0,0-.36668.67775,2.18705,2.18705,0,0,1-.35022.68843,10.823,10.823,0,0,1-1.08686,1.11721,2.00245,2.00245,0,0,1-1.40157.57051c-.13012-.00014-.26034.011-.39032.0078a2.455,2.455,0,0,0-1.47791.38779,2.06739,2.06739,0,0,1-1.08715.37413,2.62164,2.62164,0,0,0-1.44032.523c-.4289.304-.969.35672-1.40443.66035a1.8272,1.8272,0,0,1-1.08085.38659c-1.04066-.01222-2.08189.00787-3.1227.02471a2.12826,2.12826,0,0,0-1.108.30621,2.7299,2.7299,0,0,1-1.46489.452q-2.92828-.00954-5.85658-.0019A2.69865,2.69865,0,0,1,302.9011,90.7a2.09893,2.09893,0,0,0-1.10184-.32753q-.77988-.00989-1.56006.00766c-.7169.01594-1.11442.45013-1.148,1.25229-.02184.52-.02608,1.04062-.04434,1.56075a.97541.97541,0,0,1-.57509.92549,4.4539,4.4539,0,0,0-1.28689.86395,7.93309,7.93309,0,0,0-.8013.85171,1.72636,1.72636,0,0,0-.42227,1.06042,3.83809,3.83809,0,0,1-.70507,2.56044,2.67752,2.67752,0,0,1-.77946,1.32452c-.82824.82791-1.65852,1.65423-2.50774,2.46038a1.82573,1.82573,0,0,1-.67565.36955,2.7653,2.7653,0,0,0-.70388.32429,4.85687,4.85687,0,0,1-1.02521.55415c-.336.12532-.33068.20248-.69659.87043a4.14133,4.14133,0,0,0-.78232,2.16115.863.863,0,0,1-.124.35858,1.30716,1.30716,0,0,1-.19692.33586,2.47422,2.47422,0,0,1-1.2446.88984,1.05693,1.05693,0,0,0-.349.1625,6.32257,6.32257,0,0,0-1.88115,1.94711,3.48673,3.48673,0,0,1-1.03852,1.61471,1.88274,1.88274,0,0,0-.425.64831,1.01467,1.01467,0,0,0,.02222.75053,3.51441,3.51441,0,0,1,.60061,2.19948c-.00177.52055.00367,1.04139-.0124,1.56154a2.126,2.126,0,0,1-.29725,1.11106,2.62064,2.62064,0,0,0-.46519,1.45974c.0094.78062.0114,1.56137.0145,2.34205a1.76775,1.76775,0,0,0,.4516,1.04826,7.7519,7.7519,0,0,0,.50862.59213,1.99329,1.99329,0,0,1,.56937,1.40171c-.00615.65056-.02055,1.30105-.03133,1.95156-1.79909-.12867-3.60065-.0472-5.401-.06536-.51439-.00518-1.02893-.01187-1.5428-.03343a1.237,1.237,0,0,1-.36229-.113,1.731,1.731,0,0,1-.35246-.15562,2.73731,2.73731,0,0,0-1.44405-.47147,1.70815,1.70815,0,0,1-1.04657-.4311c-.39385-.32845-.75118-.70114-1.119-1.06018-.974-.95074-1.29061-.97582-2.25669-.16653-.19717.1652-.37965.35044-.58878.49829a1.90582,1.90582,0,0,1-1.07165.36775c-.2571.00579-.51439.03043-.77111.02455a1.1531,1.1531,0,0,0-1.18714.76926q-4.44894-.005-8.89789-.01008a2.32459,2.32459,0,0,1-.38613-.00757,1.91025,1.91025,0,0,1-.36476-.12209,8.51844,8.51844,0,0,0-1.3937-.64367,3.85626,3.85626,0,0,1,.59645-1.8285.95508.95508,0,0,0,.00458-1.09579c-.05631-.11688-.12445-.22816-.18934-.34077a2.00661,2.00661,0,0,1-.09594-1.86456,3.98,3.98,0,0,0,.58148-2.21524c.007-2.21011.04811-4.42076-.06136-6.62944-.03882-.78249.07033-1.55769.07242-2.336a3.83266,3.83266,0,0,1,.47282-1.85789.95654.95654,0,0,0-.01268-1.101,4.29442,4.29442,0,0,1-.53094-2.24276,1.9678,1.9678,0,0,0-.383-1.0823,4.73886,4.73886,0,0,0-1.7175-1.551,9.68347,9.68347,0,0,1-1.39632-.67208c-.60532-.24426-1.14589-.6061-1.73615-.86134a5.27475,5.27475,0,0,1-1.31983-.8028c-.2984-.25014-.61162-.48254-.91826-.72285a4.83159,4.83159,0,0,1-1.897-1.32117q-.4297-.3963-.86953-.78167a2.21969,2.21969,0,0,0-.67265-.38373,4.57494,4.57494,0,0,1-1.52344-1.18687,3.28732,3.28732,0,0,1-.86395-1.27482c-.12011-.36321-.39719-.67238-.53609-1.032a9.65425,9.65425,0,0,0-.89914-1.718,6.62738,6.62738,0,0,0-1.26557-1.94306,2.19653,2.19653,0,0,1-.29954-.70709,3.60748,3.60748,0,0,1-.06609-.77531,3.10929,3.10929,0,0,0-.35585-1.49309c-.31374-.56586-.581-1.15741-.88912-1.72655a2.4241,2.4241,0,0,1-.2696-1.11886c-.00691-.25964.02084-.52089.00348-.77943a1.613,1.613,0,0,1,.38961-1.07475,4.22921,4.22921,0,0,1,1.76185-1.49561,5.49028,5.49028,0,0,0,2.0971-1.68852,2.04861,2.04861,0,0,0,.34484-.68817,1.69642,1.69642,0,0,1,.34054-.6908c.631-.65457,1.27321-1.29818,1.90371-1.95319a2.29058,2.29058,0,0,0,.92665-2.04021,1.3635,1.3635,0,0,1,.27775-.71423,2.54587,2.54587,0,0,0,.53055-1.43761,1.25209,1.25209,0,0,1,.24623-.72658c.23684-.30886.45565-.63334.71123-.92573a2.51963,2.51963,0,0,0,.59688-1.79756,2.463,2.463,0,0,1,.38446-1.47919,2.95675,2.95675,0,0,0,.205-.33162,5.26408,5.26408,0,0,1,.98854-1.65506c.34522-.38887.70288-.7667,1.04667-1.15683a1.85332,1.85332,0,0,0,.52483-1.42231,3.77048,3.77048,0,0,0,.00105-.38993,2.62579,2.62579,0,0,1,.43481-1.46891,1.63483,1.63483,0,0,0,.23-.73357c.066-.90767-.07458-1.81822.0483-2.7267a1.45821,1.45821,0,0,1,.25281-.72561,3.00462,3.00462,0,0,0,.60852-1.80508,1.40974,1.40974,0,0,1,.24585-.72813,3.10435,3.10435,0,0,0,.46785-1.46654,1.06233,1.06233,0,0,1,.61934-.91184,4.93362,4.93362,0,0,0,1.28-.87484c.7517-.71866,1.48453-1.457,2.23094-2.18123a3.92448,3.92448,0,0,1,1.61613-1.05008,2.58822,2.58822,0,0,0,1.30282-1.83492,2.46046,2.46046,0,0,1,.34164-1.10437,2.59417,2.59417,0,0,0,.4391-1.46851c-.00291-.6499-.00577-1.29992.00324-1.94972a2.03755,2.03755,0,0,1,.279-1.11609c.35881-.54741.47058-1.21335.84435-1.74717.30274-.43242.37107-.97336.67489-1.39532.30259-.42029.64009-.81584.96876-1.217a1.63993,1.63993,0,0,0,.30965-1.09223,1.10048,1.10048,0,0,0-.24881-.72181c-.3291-.40106-.67065-.792-.99436-1.1973a1.58685,1.58685,0,0,1-.30516-.7045,5.31792,5.31792,0,0,0-.534-1.84764,1.837,1.837,0,0,1-.19707-.74579c-.02542-1.03944-.06657-2.07859-.08192-3.11814a6.13339,6.13339,0,0,1,.07858-1.16485,1.6577,1.6577,0,0,1,.31537-.70025,3.143,3.143,0,0,1,1.18432-.98112,5.24466,5.24466,0,0,0,2.03707-1.7658,1.44853,1.44853,0,0,0,.28381-.7137,3.56118,3.56118,0,0,1,.46742-1.46674c.2623-.44364.45083-.93019.69106-1.38776a7.55528,7.55528,0,0,0,.51162-1.04582c.16851-.49014.55474-.87685.71447-1.37658a2.80251,2.80251,0,0,1,.60156-.99013,25.06417,25.06417,0,0,1,2.48194-2.47757,2.002,2.002,0,0,1,.64814-.42269c.50452-.15973.91764-.48843,1.39036-.68719.60175-.253,1.13984-.61489,1.72466-.88574a5.26652,5.26652,0,0,0,1.01033-.56913c.4125-.31532.82118-.63555,1.23148-.95368a14.60106,14.60106,0,0,0,1.7393-.85332,2.53212,2.53212,0,0,0,.68733-.35509,2.99975,2.99975,0,0,0,.7931-.8481,2.58533,2.58533,0,0,0,.22553-1.13188c.64552-.02078,1.29123-.03675,1.93646-.06415a2.33971,2.33971,0,0,0,1.096-.32653,2.67379,2.67379,0,0,1,1.07108-.40934A2.53537,2.53537,0,0,0,287.45,3.18324a1.724,1.724,0,0,1,.71361-.27214,3.593,3.593,0,0,0,1.80476-.61525,1.37783,1.37783,0,0,1,.73092-.21908,2.62743,2.62743,0,0,0,1.44447-.47968,4.89159,4.89159,0,0,1,.70584-.29891c.41545-.20632.56246-.16593.747-.79818Z"
          />
          <path
            id="Gullele-Woreda-10"
        class="cls-1 pathHovered NaN-ri subcity Gullele-Woreda-10-path"
         data-html="true"            d="M86.74977,47.98752c.25469-.29353.50569-.59038.76615-.87872a1.54866,1.54866,0,0,1,.295-.247,20.00475,20.00475,0,0,1,2.11448-.95723,4.06622,4.06622,0,0,0,1.75458-.78644c.10244-.07909.21469-.14529.31947-.22149a2.40966,2.40966,0,0,1,1.44116-.48987q1.7496-.00324,3.49917-.00379,1.94378.00039,3.88753.0061a3.12622,3.12622,0,0,1,1.12039.27875,7.86435,7.86435,0,0,1,2.31674,1.39326,2.25394,2.25394,0,0,0,1.4302.52095,1.798,1.798,0,0,0,1.41587-.49766c.45775-.45779.89358-.942,1.3849-1.36073a14.9242,14.9242,0,0,0,2.35725-2.57422,2.71824,2.71824,0,0,1,.69246-.31871,5.08192,5.08192,0,0,1,1.16206-.02726,1.79727,1.79727,0,0,1,1.33345.68946,3.904,3.904,0,0,1,.61787.97907c.23323.60375.48459,1.20074.74126,1.795a1.04488,1.04488,0,0,0,.23958.29264,1.00048,1.00048,0,0,0,.29684.24287,19.05884,19.05884,0,0,1,2.33124,1.3926c.33552.19247.70751.32032,1.04965.50244a4.45613,4.45613,0,0,0,1.47748.4488,1.82051,1.82051,0,0,1,1.01.53249c.55838.541,1.10751,1.09167,1.65309,1.64561a9.53933,9.53933,0,0,1,1.58345,2.19456,2.18912,2.18912,0,0,0,1.50765,1.12664c.12672.02707.25143.06752.37936.08415a1.96118,1.96118,0,0,1,.73392.24218,4.64653,4.64653,0,0,0,1.8612.50225,1.19763,1.19763,0,0,0,.32254.65841,2.91157,2.91157,0,0,0,2.00953.90064.74883.74883,0,0,1,.74885.68924c.03833.24858.07827.49692.11751.74538a16.637,16.637,0,0,1-.53559,1.87342,1.31754,1.31754,0,0,0,.05777,1.12964,5.33318,5.33318,0,0,0,1.203,1.97613c.77462.69674,1.33624,1.59182,2.0509,2.34834a2.66142,2.66142,0,0,1,.26589.72275c.121,2.07913.03155,4.16159.07146,6.24239a3.61743,3.61743,0,0,0,.37365,1.50026,3.12624,3.12624,0,0,1,.1646.35363,1.83074,1.83074,0,0,1-.00863,1.50974,4.52426,4.52426,0,0,0-.54476,2.62868c.00956.12959.006.2601.01018.39013a2.18013,2.18013,0,0,0,.01924.38926,1.9085,1.9085,0,0,0,.47817,1.0403,9.66641,9.66641,0,0,0,1.86287,1.40389,4.62114,4.62114,0,0,1,1.93572,2.37129c.0489.12048.0998.24062.14.3641a2.18334,2.18334,0,0,1-.26227,2.20652,1.51589,1.51589,0,0,0-.32062,1.09661,12.56692,12.56692,0,0,1,.03579,2.33186,61.19907,61.19907,0,0,0-.07446,8.5794,1.59528,1.59528,0,0,0,.43291,1.05815,9.30719,9.30719,0,0,1,1.884,2.93126,7.21292,7.21292,0,0,0,.6166,1.84073c.29386.57726.52757,1.18536.78148,1.78256a.9217.9217,0,0,1,.1007.37052,5.05323,5.05323,0,0,0,.76222,2.18072c-.16457,1.14762.72875,1.90964,1.0542,2.87905a4.8292,4.8292,0,0,0,.337.70322,2.74877,2.74877,0,0,1,.267,1.12866c.026.38891.03059.78038.02122,1.17018a3.34937,3.34937,0,0,1-.212,1.14393,3.23453,3.23453,0,0,1-.15742.35642,1.56236,1.56236,0,0,0,.52851,2.05419c.28623.26533.56787.53562.84983.8055a2.47592,2.47592,0,0,1,.634.96577c.08745.24491.18.48809.27489.73019a3.09636,3.09636,0,0,1,.3517,1.5062,14.45513,14.45513,0,0,1-.05345,2.33676,1.27064,1.27064,0,0,1-.1317.36633,4.73177,4.73177,0,0,1-.91876,1.24913,1.56683,1.56683,0,0,0-.37666.66951c-.24156.05384-.48078.126-.72525.1571a.9186.9186,0,0,0-.71348.76042,5.59077,5.59077,0,0,0-.20151,1.46877l.02563-.06338a3.87035,3.87035,0,0,0-1.86975.44131c-.56837.31972-1.1946.49809-1.76481.8038a4.4195,4.4195,0,0,1-1.46543.48873c-.90515.13071-1.69369.6296-2.59226.79769a14.07969,14.07969,0,0,0-1.75822.8043c-1.01949.56147-2.07679,1.05053-3.10164,1.59948-.80137.42926-1.64484.75506-2.462,1.143a3.67942,3.67942,0,0,1-1.12651.26828c-.25655.034-.51723.04806-.76913.1029a1.21347,1.21347,0,0,0-.88031.66948,3.27947,3.27947,0,0,1-1.00041,1.1636,10.40449,10.40449,0,0,0-.92766.692.79876.79876,0,0,0-.09639,1.05844c.203.32968.42266.64923.64011.9698.41533.61227.42916.90289.06652,1.39428q-.80714,1.09358-1.61006,2.19027a11.84661,11.84661,0,0,1-1.51805,2.24468,2.005,2.005,0,0,0-.37962,1.08258c-.028.5166-.01795,1.03526-.02424,1.553-.011.90662-.02067,1.81326-.03357,2.71985a4.20617,4.20617,0,0,1-.30681,1.51339,7.93808,7.93808,0,0,0-.33249,1.51381,2.67874,2.67874,0,0,1-.53253,1.44166c-.5828.8583-1.05716,1.77921-1.59549,2.66271a3.88864,3.88864,0,0,0-.39946,1.08744,1.60917,1.60917,0,0,0,.09272,1.13356c.4079.80736.84266,1.60146,1.25289,2.40833a4.42484,4.42484,0,0,1,.43713,2.63864,11.48162,11.48162,0,0,1-.404,2.2912c-.12264.03929-.24342.08639-.36828.11651a1.68028,1.68028,0,0,1-1.46383-.21185,7.94956,7.94956,0,0,0-1.92426-1.27127c-.30623-.23426-.63262-.44663-.91542-.70641q-2.5612-2.35266-4.98853-4.84392c-.72022-.73661-1.44114-1.47261-2.1708-2.19982-.18064-.18-.39953-.32111-.5954-.48652a.8045.8045,0,0,0-1.2441.39308,7.14378,7.14378,0,0,0-.15234.75169c-.38358.05825-.766.12694-1.15109.17185a1.8552,1.8552,0,0,0-1.05315.43582c-1.05788.95176-1.99092,2.03416-3.07675,2.95758a1.69854,1.69854,0,0,1-1.05723.418c-.64609.02177-1.29338.01387-1.94013.00918a2.10672,2.10672,0,0,1-1.39775-.58364,16.45017,16.45017,0,0,1-2.11208-2.27018,2.90772,2.90772,0,0,1-.63228-1.39341,13.61879,13.61879,0,0,0-.802-2.17343,6.88681,6.88681,0,0,0-.81937-1.311c.01691-.64252.03789-1.285.04919-1.9276a2.45682,2.45682,0,0,0-.2617-1.1141c-.16711-.347-.36017-.68141-.54155-1.02152-.24218-.45411-.67787-.77427-.87282-1.26105a10.484,10.484,0,0,0,.16364-1.9367c-.01664-.64849-.03333-1.29748-.0745-1.94468a2.7662,2.7662,0,0,1,.51339-1.82739,1.09828,1.09828,0,0,0-.09291-1.41717c-.16581-.19862-.357-.376-.52462-.5732a2.08493,2.08493,0,0,1-.57671-1.40079c.00317-1.038.007-2.07611.00145-3.11412a2.60206,2.60206,0,0,1,.29482-1.11333c.05438-.1177.118-.23115.17736-.34654a1.893,1.893,0,0,0,.2036-.74292,2.8738,2.8738,0,0,1,.48294-1.45832,1.26272,1.26272,0,0,0,.1286-1.10069,3.739,3.739,0,0,1-.59259-1.82374,1.40235,1.40235,0,0,0-.27434-.7168,2.631,2.631,0,0,1-.39523-.66773c-.19185-.62494-.56332-1.16683-.775-1.7797-.01211-.51836-.03354-1.0367-.03466-1.55509-.005-2.336.0067-4.672-.01264-7.00784a3.60768,3.60768,0,0,1,.4655-1.852,1.03477,1.03477,0,0,0,.02613-1.10337,6.78188,6.78188,0,0,1-.32844-.705,1.09235,1.09235,0,0,1,.01123-.755,4.41921,4.41921,0,0,0,.61736-2.59751c-.02191-1.42708-.05848-2.854-.09331-4.28083a2.39822,2.39822,0,0,0-.28376-1.11587,3.1209,3.1209,0,0,1-.40858-1.48023c-.00792-.51841-.05431-1.03609-.073-1.5545a1.3835,1.3835,0,0,0-.222-.736c-.36024-.54438-.516-1.18406-.81987-1.75612a3.24388,3.24388,0,0,1-.51709-1.44527,1.84443,1.84443,0,0,0-.23926-.73127,4.0701,4.0701,0,0,1-.5904-1.82816,1.61655,1.61655,0,0,0-.30307-.7015c-.29811-.42361-.65219-.80763-.95454-1.22853a11.26552,11.26552,0,0,0-.54858-1.0198c-.34262-.389-.68646-.77774-1.04522-1.15175-.8983-.93644-1.80688-1.863-2.70788-2.79688a2.70617,2.70617,0,0,1-.62981-.971,6.59618,6.59618,0,0,0-.55542-1.02206,2.04448,2.04448,0,0,1-.0844-1.51119,2.59985,2.59985,0,0,1,.3338-.69867,2.48907,2.48907,0,0,0,.29389-1.11434,2.90135,2.90135,0,0,0-.37977-1.86609c-.35976-.54062-.48738-1.1939-.85043-1.74087-.3564-.53693-.49119-1.19753-.89175-1.71742a8.34792,8.34792,0,0,0-.89847-1.71432,3.133,3.133,0,0,0-.78825-1.32082c-.62-.66373-1.24789-1.3201-1.87114-1.98081-.267-.283-.54055-.56078-.79307-.85634a1.87636,1.87636,0,0,1-.48972-1.03238c-.05264-.51525-.11114-1.0299-.16715-1.54481A13.37037,13.37037,0,0,1,73.14,69.63468a5.521,5.521,0,0,0-.38935-.672,2.53372,2.53372,0,0,0-1.25005-1.41149,1.43713,1.43713,0,0,1-.55454-.96991,16.27579,16.27579,0,0,1,.02246-2.72048,1.61744,1.61744,0,0,1,.30833-.701,3.37739,3.37739,0,0,1,.84726-.79375c.75555-.20552,1.35358-.75564,2.11558-.9587a1.73249,1.73249,0,0,0,.66016-.39553,23.12833,23.12833,0,0,0,2.68457-2.81249,2.15766,2.15766,0,0,0,.37294-.6758,2.49685,2.49685,0,0,1,.93545-1.2083,1.42568,1.42568,0,0,1,.70941-.28159c.64521-.05531,1.29538-.06329,1.94371-.06761a1.766,1.766,0,0,0,1.06445-.41825,10.60913,10.60913,0,0,0,1.931-1.913,1.87243,1.87243,0,0,0,.45939-1.04939,2.30831,2.30831,0,0,1,.564-1.41518c.17-.19594.33256-.39894.48841-.60633a2.05982,2.05982,0,0,0,.55149-1.41815C86.65428,48.75982,86.70146,48.37359,86.74977,47.98752Z"
          />
          <path
            id="Gullele-Woreda-5"
        class="cls-1 pathHovered NaN-ri subcity Gullele-Woreda-5-path"
         data-html="true"            d="M86.74977,47.98752c-.04831.38607-.09549.7723-.1451,1.15821a2.05982,2.05982,0,0,1-.55149,1.41815c-.15585.20739-.31842.41039-.48841.60633a2.30831,2.30831,0,0,0-.564,1.41518,1.87243,1.87243,0,0,1-.45939,1.04939,10.60913,10.60913,0,0,1-1.931,1.913,1.766,1.766,0,0,1-1.06445.41825c-.64833.00432-1.2985.0123-1.94371.06761a1.42568,1.42568,0,0,0-.70941.28159,2.49685,2.49685,0,0,0-.93545,1.2083,2.15766,2.15766,0,0,1-.37294.6758,23.12833,23.12833,0,0,1-2.68457,2.81249,1.73249,1.73249,0,0,1-.66016.39553c-.762.20306-1.36.75318-2.11558.9587a3.37739,3.37739,0,0,0-.84726.79375,1.61744,1.61744,0,0,0-.30833.701,16.27579,16.27579,0,0,0-.02246,2.72048,1.43713,1.43713,0,0,0,.55454.96991,2.53372,2.53372,0,0,1,1.25005,1.41149,5.521,5.521,0,0,1,.38935.672,13.37037,13.37037,0,0,0,.80928,1.76233c.056.51491.11451,1.02956.16715,1.54481a1.87636,1.87636,0,0,0,.48972,1.03238c.25252.29556.52608.5733.79307.85634.62325.66071,1.25113,1.31708,1.87114,1.98081a3.133,3.133,0,0,1,.78825,1.32082,8.34792,8.34792,0,0,1,.89847,1.71432c.40056.51989.53535,1.18049.89175,1.71742.36305.547.49067,1.20025.85043,1.74087a2.90135,2.90135,0,0,1,.37977,1.86609,2.48907,2.48907,0,0,1-.29389,1.11434,2.59985,2.59985,0,0,0-.3338.69867,2.04448,2.04448,0,0,0,.0844,1.51119,6.59618,6.59618,0,0,1,.55542,1.02206,2.70617,2.70617,0,0,0,.62981.971c.901.93389,1.80958,1.86044,2.70788,2.79688.35876.374.7026.7627,1.04522,1.15175a11.26552,11.26552,0,0,1,.54858,1.0198c.30235.4209.65643.80492.95454,1.22853a1.61655,1.61655,0,0,1,.30307.7015,4.0701,4.0701,0,0,0,.5904,1.82816,1.84443,1.84443,0,0,1,.23926.73127,3.24388,3.24388,0,0,0,.51709,1.44527c.30386.57206.45963,1.21174.81987,1.75612a1.3835,1.3835,0,0,1,.222.736c.01865.51841.065,1.03609.073,1.5545a3.1209,3.1209,0,0,0,.40858,1.48023,2.39822,2.39822,0,0,1,.28376,1.11587c.03483,1.42686.0714,2.85375.09331,4.28083a4.41921,4.41921,0,0,1-.61736,2.59751,1.09235,1.09235,0,0,0-.01123.755,6.78188,6.78188,0,0,0,.32844.705,1.03477,1.03477,0,0,1-.02613,1.10337,3.60768,3.60768,0,0,0-.4655,1.852c.01934,2.33581.00761,4.67188.01264,7.00784.00112.51839.02255,1.03673.03466,1.55509.21166.61287.58313,1.15476.775,1.7797a2.631,2.631,0,0,0,.39523.66773,1.40235,1.40235,0,0,1,.27434.7168,3.739,3.739,0,0,0,.59259,1.82374,1.26272,1.26272,0,0,1-.1286,1.10069,2.8738,2.8738,0,0,0-.48294,1.45832,1.893,1.893,0,0,1-.2036.74292c-.05939.11539-.123.22884-.17736.34654a2.60206,2.60206,0,0,0-.29482,1.11333c.00558,1.038.00172,2.07607-.00145,3.11412a2.08493,2.08493,0,0,0,.57671,1.40079c.16765.1972.35881.37458.52462.5732a1.09828,1.09828,0,0,1,.09291,1.41717,2.7662,2.7662,0,0,0-.51339,1.82739c.04117.6472.05786,1.29619.0745,1.94468a10.484,10.484,0,0,1-.16364,1.9367c-.12972-.0044-.26037-.00052-.389-.01455a2.41533,2.41533,0,0,0-2.11786.73443c-.63255.65175-1.28749,1.28246-1.9491,1.90487a2.618,2.618,0,0,1-.64728.42314c-.93312.45486-1.93668.73955-2.879,1.17336a3.83264,3.83264,0,0,1-1.11871.31293c-.64345.08327-1.288.16075-1.93394.22126a12.59893,12.59893,0,0,1-3.4882-.188,2.92043,2.92043,0,0,1-.74095-.2271c-1.51393-.73735-2.984-1.56052-4.49236-2.30963a14.18992,14.18992,0,0,1-1.3575-.76078,3.12751,3.12751,0,0,1-1.1099-1.07327c-.43512-.79484-.89146-1.57823-1.28114-2.39938a4.10723,4.10723,0,0,1-.40711-1.87642,2.56167,2.56167,0,0,0-.643-1.7827c-.16827-.19457-.28488-.433-.44022-.64a2.17335,2.17335,0,0,0-.28235-.2643,1.19756,1.19756,0,0,0-1.08679-.24042,1.51077,1.51077,0,0,0-.36889.10553c-.44826.26113-.8933.52892-1.32821.81165a3.64869,3.64869,0,0,1-1.83964.55464c-1.94512.10255-3.89123.09306-5.83654.00461-.388-.01764-.773-.09288-1.16065-.1278a4.0067,4.0067,0,0,1-1.11132-.33553,7.33556,7.33556,0,0,1-2.799-2.05438,3.08123,3.08123,0,0,1-.44189-.63533c-.23393-.46279-.43551-.94192-.65043-1.41432a13.76093,13.76093,0,0,0-.81422-2.59017,15.6998,15.6998,0,0,0-1.86723-4.25419,6.02525,6.02525,0,0,0-.97929-1.2068,2.01215,2.01215,0,0,0-1.34337-.69147,3.11373,3.11373,0,0,1-1.13967-.21651,11.94626,11.94626,0,0,0-1.80793-.70611,2.41175,2.41175,0,0,1-.6958-.33783c-.646-.43368-1.28684-.87626-1.91043-1.34123a2.55377,2.55377,0,0,1-.51322-.579,8.54361,8.54361,0,0,1-.9859-1.66981,10.08514,10.08514,0,0,1-.65627-1.82224,4.623,4.623,0,0,0-1.65936-2.56174,11.69453,11.69453,0,0,0-2.31252-1.42832,2.1967,2.1967,0,0,0-1.13012-.23193c-.51794.02708-1.03558.05919-1.55335.08914-.08314-.09911-.17164-.19421-.24848-.298a1.32554,1.32554,0,0,0-1.32653-.59126,9.72868,9.72868,0,0,0-1.14907.17391,11.41,11.41,0,0,1-2.684.342c-.64492.01649-1.28813.10849-1.93152.17269a5.39294,5.39294,0,0,0-1.50216.36417,7.08035,7.08035,0,0,1-.71857.28909A11.929,11.929,0,0,0,16.506,122.5736c-1.1481.83794-2.32362,1.64-3.4201,2.54949a1.65617,1.65617,0,0,1-1.08657.34432,4.66564,4.66564,0,0,1-.76246-.07158.79867.79867,0,0,1-.34223-.177,2.16926,2.16926,0,0,1-.68765-2.42836c.05493-.1171.11006-.23412.16685-.35034a5.40746,5.40746,0,0,0,.50884-1.8596,24.02833,24.02833,0,0,0,.05531-4.26072,1.73683,1.73683,0,0,0-.46184-1.04033c-.43588-.47744-.88769-.94031-1.32522-1.41628a4.38585,4.38585,0,0,1-.48921-.60111,13.08447,13.08447,0,0,1-1.61943-3.50054,1.4912,1.4912,0,0,1-.00936-.76988,3.879,3.879,0,0,1,.2275-.73448,5.05843,5.05843,0,0,0,.46345-2.25878c-.00185-.38759-.0161-.776-.04554-1.1624a5.60778,5.60778,0,0,0-.43186-1.87939c-.15707-.35324-.25716-.73141-.40446-1.08949a4.33354,4.33354,0,0,0-1.11812-1.56272,2.10316,2.10316,0,0,0-.65672-.40351,10.50529,10.50529,0,0,1-1.4575-.50568c-.44788-.255-.92938-.45378-1.36421-.72788a1.71026,1.71026,0,0,1-.68443-.90888,7.02444,7.02444,0,0,1-.29454-1.51835,2.46209,2.46209,0,0,0-.62343-1.38592C.594,94.46786.518,94.0826.50231,93.69489a1.63569,1.63569,0,0,1,.53519-1.39433,1.41919,1.41919,0,0,1,.29531-.24721,1.9837,1.9837,0,0,0,1.071-1.51449,1.18173,1.18173,0,0,1,.69221-.88509c.45684-.24568.90331-.51583,1.377-.7236.475-.20834.9652-.38161,1.41934-.63679A25.13193,25.13193,0,0,0,11.1325,85.765a7.77728,7.77728,0,0,1,2.13-.93184c.752-.19089,1.42088-.62349,2.18918-.79766a5.31741,5.31741,0,0,0,1.07072-.45264c2.22156-1.06142,4.45419-2.09963,6.66809-3.17711.69954-.34045,1.40151-.67582,2.10063-1.01708a23.89493,23.89493,0,0,0,4.19973-2.79931,4.36742,4.36742,0,0,0,.78687-.85845c.38441-.522.72157-1.07843,1.09464-1.60911a10.28916,10.28916,0,0,1,3.11578-2.89721,9.98676,9.98676,0,0,1,2.455-1.15509,17.74424,17.74424,0,0,0,1.82568-.66738c1.1754-.12794,2.206-.74776,3.35471-.98253.6294-.12864,1.22323-.42231,1.845-.60007a12.9475,12.9475,0,0,0,1.48956-.44532,2.946,2.946,0,0,1,.73149-.25573c1.29988-.16744,2.468-.78521,3.73562-1.06612.75788-.168,1.43835-.57983,2.19256-.78984a10.888,10.888,0,0,0,1.42367-.61839c.35554-.15707.71587-.3037,1.06834-.46733.82256-.38189,1.642-.77047,2.4621-1.15776q1.40646-.66428,2.81183-1.33094a17.99605,17.99605,0,0,0,2.521-1.01965c.83262-.36041,1.67654-.70189,2.48053-1.1191.69683-.36162,1.46834-.50546,2.16729-.85788.80883-.40781,1.64386-.76792,2.48392-1.10828a14.66225,14.66225,0,0,1,2.15394-.89115A39.66452,39.66452,0,0,0,75.853,54.594c1.22286-.73382,2.469-1.43265,3.65814-2.21767,1.08141-.71388,2.05049-1.59016,3.14215-2.29559a14.8933,14.8933,0,0,1,2.61447-1.67807A3.30542,3.30542,0,0,1,86.74977,47.98752Z"
          />
          <path
            id="Gullele-Woreda-7"
        class="cls-1 pathHovered NaN-ri subcity Gullele-Woreda-7-path"
         data-html="true"            d="M132.72165,57.48789c-.03924-.24846-.07918-.4968-.11751-.74538a.74883.74883,0,0,0-.74885-.68924,2.91157,2.91157,0,0,1-2.00953-.90064,1.19763,1.19763,0,0,1-.32254-.65841,8.49108,8.49108,0,0,1,.04694-1.55353,1.54217,1.54217,0,0,1,.28752-.70972,7.78511,7.78511,0,0,1,1.06059-1.13331,2.12042,2.12042,0,0,1,1.38879-.60074c1.03784-.01035,2.07559-.02747,3.11344-.03844a2.27685,2.27685,0,0,0,1.10457-.31951,2.97644,2.97644,0,0,1,1.482-.3929c2.46559-.01148,4.93111-.03587,7.39669-.0474a2.20243,2.20243,0,0,0,1.4221-.51613c.3018-.24448.60878-.48339.92386-.71034a1.29994,1.29994,0,0,1,.71721-.26488c1.03753-.02575,2.07547-.04631,3.11332-.04748q6.22916-.007,12.4583-.0022c.38906-.00015.778-.01944,1.16718-.02551a1.34747,1.34747,0,0,0,.73433-.21872c.65262-.42773,1.43437-.59826,2.07779-1.04171a1.39541,1.39541,0,0,1,.72612-.25178,3.16288,3.16288,0,0,0,1.46513-.4527,8.21808,8.21808,0,0,0,1.99229-1.17435,4.67938,4.67938,0,0,1,.61758-.467,1.09971,1.09971,0,0,1,.73-.22213c.3883.01361.7771.01727,1.16568.01721a1.37849,1.37849,0,0,1,.73369.225,2.794,2.794,0,0,0,1.46069.46242c.12967.00014.25929.01423.389.01467a2.72767,2.72767,0,0,1,1.477.40119,2.37787,2.37787,0,0,0,1.08688.37981,3.16187,3.16187,0,0,1,1.44148.53022,1.42053,1.42053,0,0,0,.73029.23414c.51854.01245,1.03718.02274,1.55572.03523a2.43807,2.43807,0,0,0,1.46222-.43562,1.49039,1.49039,0,0,1,.331-.203,3.9111,3.9111,0,0,0,1.34875-.74581c1.23871-1.08619,1.29011-.97628,2.81012-1.00339a3.489,3.489,0,0,0,1.86708-.419,1.72542,1.72542,0,0,1,.35468-.15907,1.42051,1.42051,0,0,1,.37187-.08928c1.68458-.09487,3.37136-.11892,5.058-.12584a2.23825,2.23825,0,0,0,1.09284-.357,2.79437,2.79437,0,0,1,1.48344-.37278c.12957.00432.25934.00416.389.00591.60757.0082.83382.15114,1.21017.76465a1.47441,1.47441,0,0,0,.82724.767c-.00465.64871.00312,1.29783-.01867,1.946a2.02341,2.02341,0,0,1-.31506,1.10174,2.45618,2.45618,0,0,0-.4432,1.45958c.00779.389-.01474.77853-.00854,1.16757A2.577,2.577,0,0,1,200.979,51.37a2.03245,2.03245,0,0,0-.331,1.09617c-.0041.51884.00367,1.03832-.01989,1.55633a3.35051,3.35051,0,0,0,.551,2.21226,1.32729,1.32729,0,0,1,.2072.73667,2.14688,2.14688,0,0,0,.53063,1.41961c.17418.19228.33919.39282.51229.58607a2.00557,2.00557,0,0,1,.54022,1.40814c-.00477.38911.0021.77841.00667,1.16759.00456.3891.02544.77848.01593,1.16717a2.19268,2.19268,0,0,0,.39745,1.07545l1.44217,2.268c.075.105.14562.21353.226.31429a1.17314,1.17314,0,0,1,.24785.72241,2.68751,2.68751,0,0,0,.45112,1.45975,1.93988,1.93988,0,0,1,.33435,1.09394c.00114.12968.00858.25928.01135.389a2.627,2.627,0,0,0,.54085,1.82378,1.934,1.934,0,0,1-.03271,1.84907,3.23185,3.23185,0,0,0-.51124,1.83382c.028.64758.02513,1.29686.02131,1.94532a1.93317,1.93317,0,0,0,.35833,1.08776,3.00293,3.00293,0,0,1,.391,1.8633,2.03343,2.03343,0,0,1-.27213,1.113,2.41032,2.41032,0,0,0-.4868,1.445,3.65426,3.65426,0,0,1-.57355,2.21133,1.8933,1.8933,0,0,0,.08583,1.84708,2.54119,2.54119,0,0,1,.47486,1.84107c.01109,1.68661.00968,3.37329.01777,5.05993a1.67391,1.67391,0,0,0,.434,1.051,4.82886,4.82886,0,0,1,1.25089,1.93056c.15552.20678.29715.426.46921.61792a3.52262,3.52262,0,0,1,1.03008,1.61321,2.65181,2.65181,0,0,0,1.3993,1.28074,3.81924,3.81924,0,0,1,1.02585.53807c.32512.23045.72288.27184,1.05647.47074a3.21215,3.21215,0,0,1,1.05372,1.1196,3.23162,3.23162,0,0,0,1.03944,1.60327q1.09648,1.10534,2.1904,2.21323a2.31674,2.31674,0,0,1,.75833,1.71662c-.02117,1.42688-.00784,2.85433-.00327,4.28153.007,2.20549.00725,4.41114.03905,6.6163a.97794.97794,0,0,0,.61188.89716,3.75477,3.75477,0,0,1,.97634.62574,1.81527,1.81527,0,0,1,.69854,1.32986,2.51259,2.51259,0,0,0,.52488,1.42816,3.62581,3.62581,0,0,1,.31585.70231c-.05438,1.68407-.09694,3.36808-.0298,5.053.01545.38823.00369.77746.00851,1.16617a2.6239,2.6239,0,0,1-.36994,1.48218,2.78592,2.78592,0,0,0-.41917,1.46926c-.0031.12951-.01834.2589-.01793.38831a2.85411,2.85411,0,0,1-.44993,1.46238,2.031,2.031,0,0,0-.09551,1.86067,4.07477,4.07477,0,0,1,.53092,2.22162c.00188.648.00129,1.296.00775,1.94393.00648.64785.02117,1.29558.03075,1.94339a2.57134,2.57134,0,0,0,.29561,1.10987,2.85338,2.85338,0,0,1,.44978,1.46063c.01061.129.01495.25893.01547.38843a2.69006,2.69006,0,0,0,.428,1.46611,2.22727,2.22727,0,0,1,.35692,1.09028c.02065.3878.04835.77528.077,1.1626a1.6345,1.6345,0,0,0,.25848.72142,2.82882,2.82882,0,0,1,.43849,1.46482c.00519,1.68467.02484,3.36931.02632,5.05395a2.66873,2.66873,0,0,0,.42809,1.46425,1.59943,1.59943,0,0,1,.2756.71672,3.67412,3.67412,0,0,0,.62239,1.80842c.22091.31737.2325.74155.47029,1.05681a2.70853,2.70853,0,0,1,.51349,1.82632c-.38861.01958-.77865.02506-1.16549.06275a2.874,2.874,0,0,0-1.11376.30439,2.60937,2.60937,0,0,1-1.09781.3589c-.90626.04939-1.81184.112-2.71749.17237a1.842,1.842,0,0,0-.73237.23628,3.54181,3.54181,0,0,1-1.48055.4281c-.38861.01889-.77719.04295-1.16608.05073a3.30389,3.30389,0,0,0-1.48692.38748,2.804,2.804,0,0,1-1.11068.32136c-.38811.0267-.77655.04972-1.164.08434a3.18279,3.18279,0,0,0-1.85862.4798,1.88906,1.88906,0,0,1-.7447.2039c-.25856.0172-.51551.06116-.77414.0743a3.6014,3.6014,0,0,0-1.477.43525,2.60351,2.60351,0,0,1-1.12267.26572c-1.81413.0578-3.63129.05767-5.4372.27736-.06909-.25037-.1435-.49944-.20508-.75163a2.20336,2.20336,0,0,1-.05426-.38608,2.6747,2.6747,0,0,0-.4694-1.46249c-.311-.42366-.36816-.97832-.71442-1.37575-.34107-.39151-.71147-.75732-1.0645-1.13855a6.09991,6.09991,0,0,1-.5096-.58947,2.36063,2.36063,0,0,1-.37767-.67378,2.78767,2.78767,0,0,0-.56062-1.01264,10.76236,10.76236,0,0,1-.98249-1.20741,4.062,4.062,0,0,0-1.08286-1.59443,6.37359,6.37359,0,0,1-1.22931-1.504,15.052,15.052,0,0,0-.72565-1.37192c-.2015-.33221-.25643-.73018-.48464-1.05732a3.78027,3.78027,0,0,1-.53308-1.03475,1.8626,1.8626,0,0,0-.39278-.66341,4.80262,4.80262,0,0,0-2.09443-1.68458,10.48117,10.48117,0,0,0-1.73062-.87463c-.3614-.12936-.66724-.414-1.02867-.54313a2.62675,2.62675,0,0,1-1.00055-.58q-2.48589-2.47989-4.94415-4.98746a1.87616,1.87616,0,0,1-.41722-.64974,3.60582,3.60582,0,0,0-.89019-1.26448c-3.63354-3.72387-7.28281-7.43217-11.01683-11.056-.37292-.36193-.73378-.73658-1.09139-1.11376a1.03976,1.03976,0,0,1-.20592-.32972,4.07369,4.07369,0,0,0-.7174-1.36276,5.597,5.597,0,0,1-.7333-.90623c-.26272-.44289-.45019-.92993-.67935-1.39338a2.556,2.556,0,0,1-.29233-1.11566c-.00584-.51962-.01488-1.03924-.02342-1.55884a1.51324,1.51324,0,0,1,.45353-1.04544c1.13724-1.25082,2.26854-2.50777,3.48012-3.689.37232-.363.7405-.73235,1.08278-1.1231a2.25322,2.25322,0,0,0,.39584-.66257,3.05255,3.05255,0,0,1,.61631-.98281c.70636-.76371,1.43165-1.51006,2.131-2.28a2.22139,2.22139,0,0,0,.39431-.66385,3.44775,3.44775,0,0,1,.62985-.97548,4.58293,4.58293,0,0,0,1.0445-1.62324,1.73562,1.73562,0,0,1,.44106-.63577c.54307-.55947,1.11848-1.08768,1.65876-1.64973.45-.46817.88038-.95687,1.29433-1.45727a2.46113,2.46113,0,0,0,.37232-.67676,2.01645,2.01645,0,0,1,.362-.68318c.4431-.47508.89527-.94167,1.34088-1.41446a5.49349,5.49349,0,0,0,1.58483-2.18212c.3266-.40416.6634-.80064.97644-1.21505a1.68831,1.68831,0,0,0,.42456-1.0596c-.0052-.25951.01452-.52008.03347-.77942a3.11279,3.11279,0,0,1,.46943-1.46458,2.55345,2.55345,0,0,0,.27918-1.11786c.01745-1.30016.027-2.60043.0492-3.90049a1.74128,1.74128,0,0,0-.4416-1.04969,7.45508,7.45508,0,0,0-.5072-.5925,2.15222,2.15222,0,0,1-.60291-1.39486q-.0388-1.36455-.07891-2.72906a3.28655,3.28655,0,0,0-.33392-.6956,2.11157,2.11157,0,0,0-1.66794-.85539c-.78024-.0089-1.56044-.0228-2.34071-.02547a1.44489,1.44489,0,0,1-.74615-.18793,4.14955,4.14955,0,0,0-.67782-.38022,4.16092,4.16092,0,0,1-1.61626-1.05218c-.09078-.09308-.187-.18088-.27817-.2736-.36482-.37086-.73733-.73466-1.09-1.11678a3.34279,3.34279,0,0,1-.61636-.9812c-.20117-.47436-.50445-.90475-.71749-1.375a4.12789,4.12789,0,0,0-.32055-.706,2.55149,2.55149,0,0,1-.47312-1.45942,1.83839,1.83839,0,0,0-.44068-1.05456,1.796,1.796,0,0,0-.59194-.49932.93841.93841,0,0,0-1.08444.02279,2.23793,2.23793,0,0,0-.97376,1.17185,4.55551,4.55551,0,0,1-.51236,1.04537c-.21534.33177-.275.7259-.47568,1.06053a4.97733,4.97733,0,0,1-.75786.88723c-.27257.27918-.55351.55016-.82728.8282-.27372.278-.54963.55429-.8125.84238a3.98764,3.98764,0,0,0-.6254.97868c-.211.43714-.25729.43752-.837.74631-.34377.18311-.67339.39533-1.02609.55821a.90183.90183,0,0,1-.7504.03219,7.27994,7.27994,0,0,1-2.87055-1.946c-.07739-.10388-.18448-.18646-.25677-.29316a1.91178,1.91178,0,0,1-.43078-1.05966,3.327,3.327,0,0,1,.342-1.88281,5.80681,5.80681,0,0,0,.49215-1.0549c.17986-.48549.55986-.87456.71675-1.37724a2.1391,2.1391,0,0,1,.35729-.6875,12.28469,12.28469,0,0,0,.9517-1.23287c.32913-.55423.5462-1.17354.93076-1.70066a4.17144,4.17144,0,0,1,1.01031-1.6429,2.49852,2.49852,0,0,0,.42189-.65179.7692.7692,0,0,0,.0051-.73932.88473.88473,0,0,0-.62085-.40312,6.35981,6.35981,0,0,0-1.16789.00008,22.57822,22.57822,0,0,1-2.7293.022,3.033,3.033,0,0,1-1.47609-.42938,2.792,2.792,0,0,0-1.48231-.4012q-1.56063-.0128-3.12129-.02792a2.79522,2.79522,0,0,1-.71132-.29472,22.67277,22.67277,0,0,1-2.79581-2.71246,1.1719,1.1719,0,0,1-.21654-1.42853c.05385-.11777.13243-.224.19261-.33914a2.6884,2.6884,0,0,0,.32459-1.109,10.09917,10.09917,0,0,0-.01885-1.55753,1.666,1.666,0,0,0-.241-.72934,2.14244,2.14244,0,0,0-1.88244-1.16916c-.39013-.00218-.78024-.0101-1.17037-.00978-3.3817.00276-6.76367-.02853-10.14456.0797a3.72929,3.72929,0,0,1-.38977-.01546,1.65852,1.65852,0,0,1-.73083-.23645A3.02816,3.02816,0,0,0,132.72165,57.48789Z"
          />
          <path
            id="Gullele-Woreda-6"
        class="cls-1 pathHovered NaN-ri subcity Gullele-Woreda-6-path"
         data-html="true"            d="M220.98666,123.99934a3.62581,3.62581,0,0,0-.31585-.70231,2.51259,2.51259,0,0,1-.52488-1.42816,1.81527,1.81527,0,0,0-.69854-1.32986,3.75477,3.75477,0,0,0-.97634-.62574.97794.97794,0,0,1-.61188-.89716c-.0318-2.20516-.032-4.41081-.03905-6.6163-.00457-1.4272-.0179-2.85465.00327-4.28153a2.31674,2.31674,0,0,0-.75833-1.71662q-1.09162-1.11012-2.1904-2.21323a3.23162,3.23162,0,0,1-1.03944-1.60327,3.21215,3.21215,0,0,0-1.05372-1.1196c-.33359-.1989-.73135-.24029-1.05647-.47074a3.81924,3.81924,0,0,0-1.02585-.53807,2.65181,2.65181,0,0,1-1.3993-1.28074,3.52262,3.52262,0,0,0-1.03008-1.61321c-.17206-.19193-.31369-.41114-.46921-.61792a4.82886,4.82886,0,0,0-1.25089-1.93056,1.67391,1.67391,0,0,1-.434-1.051c-.00809-1.68664-.00668-3.37332-.01777-5.05993a2.54119,2.54119,0,0,0-.47486-1.84107,1.8933,1.8933,0,0,1-.08583-1.84708,3.65426,3.65426,0,0,0,.57355-2.21133,2.41032,2.41032,0,0,1,.4868-1.445,2.03343,2.03343,0,0,0,.27213-1.113,3.00293,3.00293,0,0,0-.391-1.8633,1.93317,1.93317,0,0,1-.35833-1.08776c.00382-.64846.0067-1.29774-.02131-1.94532a3.23185,3.23185,0,0,1,.51124-1.83382,1.934,1.934,0,0,0,.03271-1.84907,2.627,2.627,0,0,1-.54085-1.82378c-.00277-.12968-.01021-.25928-.01135-.389a1.93988,1.93988,0,0,0-.33435-1.09394,2.68751,2.68751,0,0,1-.45112-1.45975,1.17314,1.17314,0,0,0-.24785-.72241c-.08034-.10076-.151-.20928-.226-.31429l-1.44217-2.268a2.19268,2.19268,0,0,1-.39745-1.07545c.00951-.38869-.01137-.77807-.01593-1.16717-.00457-.38918-.01144-.77848-.00667-1.16759a2.00557,2.00557,0,0,0-.54022-1.40814c-.1731-.19325-.33811-.39379-.51229-.58607a2.14688,2.14688,0,0,1-.53063-1.41961,1.32729,1.32729,0,0,0-.2072-.73667,3.35051,3.35051,0,0,1-.551-2.21226c.02356-.518.01579-1.03749.01989-1.55633a2.03245,2.03245,0,0,1,.331-1.09617,2.577,2.577,0,0,0,.43133-1.46472c-.0062-.389.01633-.77859.00854-1.16757a2.45618,2.45618,0,0,1,.4432-1.45958,2.02341,2.02341,0,0,0,.31506-1.10174c.02179-.64813.014-1.29725.01867-1.946.64914.01142,1.2984.01931,1.94742.03557a1.88012,1.88012,0,0,1,1.07728.38411,10.31433,10.31433,0,0,0,1.24436.92911,1.2741,1.2741,0,0,0,.35225.16257,4.7124,4.7124,0,0,0,.772.06927c2.208-.00049,4.416-.01258,6.62407-.0104a1.99946,1.99946,0,0,0,1.10548-.30745c.442-.28709.95381-.39981,1.40853-.64622a5.39465,5.39465,0,0,1,1.023-.55162,2.35123,2.35123,0,0,0,.99357-.58922q1.66931-1.63664,3.32076-3.29142c1.00943-1.0112,2.00856-2.03261,3.01212-3.04966a3.29987,3.29987,0,0,1,1.62224-1.01892,7.018,7.018,0,0,1,1.3669-.73233,2.53073,2.53073,0,0,0,.96732-.63323,4.76259,4.76259,0,0,1,1.63745-1.011c.47963-.17235.88025-.52453,1.37805-.705a14.28114,14.28114,0,0,0,1.36976-.72183,1.5271,1.5271,0,0,0,.797-.78956,2.46691,2.46691,0,0,1,.3878-.66872,36.46849,36.46849,0,0,1,3.57672-3.57844,1.53568,1.53568,0,0,1,1.06674-.3996c.51873.016,1.03866-.011,1.5581-.01469a1.85328,1.85328,0,0,0,1.1-.31848c.42575-.311.95511-.40915,1.37433-.71151.41994-.30287.81007-.64716,1.21055-.97661a1.90448,1.90448,0,0,1,.68143-.3631,1.93916,1.93916,0,0,0,.68042-.36568,14.494,14.494,0,0,1,1.2136-.97263,8.26429,8.26429,0,0,0,1.34463-.75291c.28314-.2661.59445-.50232.89418-.75071a1.77691,1.77691,0,0,1,.69659-.33386,1.31222,1.31222,0,0,0,.33859-.18308,2.28409,2.28409,0,0,0,.31584-.22683,5.12452,5.12452,0,0,1,1.92373-1.27772,1.02417,1.02417,0,0,0,.32166-.21663,4.73769,4.73769,0,0,1,1.9235-1.27311c.30692-.239.621-.46963.91887-.71948a5.71462,5.71462,0,0,1,.94673-.67639c.65434-.12727,1.11447-.6561,1.7402-.84179a1.90514,1.90514,0,0,0,.6851-.35647c.29972-.24868.60432-.49232.89275-.75363a8.36233,8.36233,0,0,1,1.37023-.71245,4.39839,4.39839,0,0,1,1.0245-.54959,1.92478,1.92478,0,0,0,.66974-.37929c.58992-.50835,1.15519-1.04527,1.73433-1.56626a1.76535,1.76535,0,0,1,.677-.37086,1.96318,1.96318,0,0,0,.67957-.3669c.40115-.32885.80148-.65884,1.2094-.97917a.8779.8779,0,0,1,.34217-.17437c.65124-.13755,1.09673-.68538,1.7402-.84835a2.337,2.337,0,0,0,.9771-.61469,4.92641,4.92641,0,0,1,.90062-.74056,1.44226,1.44226,0,0,1,.348-.16464c.64318-.15582,1.09244-.69665,1.73743-.85734a3.52864,3.52864,0,0,0,.69564-.3357,2.34347,2.34347,0,0,1,1.481-.37613c.38947-.01157.77893-.02493,1.16845-.03166a2.31066,2.31066,0,0,0,1.105-.31751,2.467,2.467,0,0,1,1.07918-.40353,2.61,2.61,0,0,0,1.45034-.49125,1.21978,1.21978,0,0,1,.72077-.26131c.259-.00446.51787-.019.77678-.02918a2.58533,2.58533,0,0,1-.22553,1.13188,2.99975,2.99975,0,0,1-.7931.8481,2.53212,2.53212,0,0,1-.68733.35509,14.60106,14.60106,0,0,1-1.7393.85332c-.4103.31813-.819.63836-1.23148.95368a5.26652,5.26652,0,0,1-1.01033.56913c-.58482.27085-1.12291.63271-1.72466.88574-.47272.19876-.88584.52746-1.39036.68719a2.002,2.002,0,0,0-.64814.42269,25.06417,25.06417,0,0,0-2.48194,2.47757,2.80251,2.80251,0,0,0-.60156.99013c-.15973.49973-.546.88644-.71447,1.37658a7.55528,7.55528,0,0,1-.51162,1.04582c-.24023.45757-.42876.94412-.69106,1.38776a3.56118,3.56118,0,0,0-.46742,1.46674,1.44853,1.44853,0,0,1-.28381.7137,5.24466,5.24466,0,0,1-2.03707,1.7658,3.143,3.143,0,0,0-1.18432.98112,1.6577,1.6577,0,0,0-.31537.70025,6.13339,6.13339,0,0,0-.07858,1.16485c.01535,1.03955.0565,2.0787.08192,3.11814a1.837,1.837,0,0,0,.19707.74579,5.31792,5.31792,0,0,1,.534,1.84764,1.58685,1.58685,0,0,0,.30516.7045c.32371.40527.66526.79624.99436,1.1973a1.10048,1.10048,0,0,1,.24881.72181A1.63993,1.63993,0,0,1,265.129,34.655c-.32867.40113-.66617.79668-.96876,1.217-.30382.422-.37215.9629-.67489,1.39532-.37377.53382-.48554,1.19976-.84435,1.74717a2.03755,2.03755,0,0,0-.279,1.11609c-.009.6498-.00615,1.29982-.00324,1.94972a2.59417,2.59417,0,0,1-.4391,1.46851,2.46046,2.46046,0,0,0-.34164,1.10437,2.58822,2.58822,0,0,1-1.30282,1.83492,3.92448,3.92448,0,0,0-1.61613,1.05008c-.74641.72426-1.47924,1.46257-2.23094,2.18123a4.93362,4.93362,0,0,1-1.28.87484,1.06233,1.06233,0,0,0-.61934.91184,3.10435,3.10435,0,0,1-.46785,1.46654,1.40974,1.40974,0,0,0-.24585.72813,3.00462,3.00462,0,0,1-.60852,1.80508,1.45821,1.45821,0,0,0-.25281.72561c-.12288.90848.01769,1.819-.0483,2.7267a1.63483,1.63483,0,0,1-.23.73357,2.62579,2.62579,0,0,0-.43481,1.46891,3.77048,3.77048,0,0,1-.00105.38993,1.85332,1.85332,0,0,1-.52483,1.42231c-.34379.39013-.70145.768-1.04667,1.15683a5.26408,5.26408,0,0,0-.98854,1.65506,2.95675,2.95675,0,0,1-.205.33162,2.463,2.463,0,0,0-.38446,1.47919,2.51963,2.51963,0,0,1-.59688,1.79756c-.25558.29239-.47439.61687-.71123.92573a1.25209,1.25209,0,0,0-.24623.72658,2.54587,2.54587,0,0,1-.53055,1.43761,1.3635,1.3635,0,0,0-.27775.71423,2.29058,2.29058,0,0,1-.92665,2.04021c-.6305.655-1.27273,1.29862-1.90371,1.95319a1.69642,1.69642,0,0,0-.34054.6908,2.04861,2.04861,0,0,1-.34484.68817,5.49028,5.49028,0,0,1-2.0971,1.68852,4.22921,4.22921,0,0,0-1.76185,1.49561,1.613,1.613,0,0,0-.38961,1.07475c.01736.25854-.01039.51979-.00348.77943a2.4241,2.4241,0,0,0,.2696,1.11886c.30817.56914.57538,1.16069.88912,1.72655a3.10929,3.10929,0,0,1,.35585,1.49309,3.60748,3.60748,0,0,0,.06609.77531,2.19653,2.19653,0,0,0,.29954.70709,6.62738,6.62738,0,0,1,1.26557,1.94306,9.65425,9.65425,0,0,1,.89914,1.718c.1389.3596.416.66877.53609,1.032a3.28732,3.28732,0,0,0,.86395,1.27482,4.57494,4.57494,0,0,0,1.52344,1.18687,2.21969,2.21969,0,0,1,.67265.38373q.43972.38518.86953.78167a4.83159,4.83159,0,0,0,1.897,1.32117c.30664.24031.61986.47271.91826.72285a5.27475,5.27475,0,0,0,1.31983.8028c.59026.25524,1.13083.61708,1.73615.86134a9.68347,9.68347,0,0,0,1.39632.67208,4.73886,4.73886,0,0,1,1.7175,1.551,1.9678,1.9678,0,0,1,.383,1.0823,4.29442,4.29442,0,0,0,.53094,2.24276.95654.95654,0,0,1,.01268,1.101,3.83266,3.83266,0,0,0-.47282,1.85789c-.00209.77833-.11124,1.55353-.07242,2.336.10947,2.20868.06837,4.41933.06136,6.62944a3.98,3.98,0,0,1-.58148,2.21524,2.00661,2.00661,0,0,0,.09594,1.86456c.06489.11261.133.22389.18934.34077a.95508.95508,0,0,1-.00458,1.09579,3.85626,3.85626,0,0,0-.59645,1.82848,4.58727,4.58727,0,0,0-.69082.34926,1.85542,1.85542,0,0,1-1.07036.40278c-.90925.01318-1.819-.00208-2.72855-.00581a2.81832,2.81832,0,0,1-.70508-.30487c-.50433-.40806-.97714-.85583-1.45268-1.29838a3.07648,3.07648,0,0,0-1.315-.79809c-.742-.53569-1.63611-.77668-2.41209-1.24575a1.39033,1.39033,0,0,0-.74131-.2027c-.25953,0-.519-.03324-.77869-.03932a2.21609,2.21609,0,0,1-1.41763-.54578c-.29754-.25051-.61129-.4822-.92332-.71492a.89277.89277,0,0,0-1.07971.018,2.60579,2.60579,0,0,1-1.44629.4958,1.25872,1.25872,0,0,0-1.2096.79573c-.51806-.00483-1.03622-.00737-1.55424-.01525-.38827-.00591-.7765-.02806-1.16468-.02587a2.20892,2.20892,0,0,1-1.08433-.37479,1.3098,1.3098,0,0,0-1.44534-.069,2.68223,2.68223,0,0,1-1.45344.463c-1.16568-.0025-2.33141.01685-3.49709.01344a2.80718,2.80718,0,0,0-1.4749.40007,2.2183,2.2183,0,0,1-1.09678.333Q223.12269,123.94915,220.98666,123.99934Z"
          />
          <path
            id="Gullele-Woreda-3"
        class="cls-1 pathHovered NaN-ri subcity Gullele-Woreda-3-path"
         data-html="true"            d="M267.0433,127.05777c.00467.52006.02784,1.04075.00939,1.56a3.10493,3.10493,0,0,0,.514,1.83971,1.33444,1.33444,0,0,1,.22954.7324c.0052,1.16962.0217,2.33931.013,3.50884a3.24233,3.24233,0,0,0,.47644,1.84868c.34979.54418.47463,1.20542.8588,1.73773a1.30324,1.30324,0,0,1,.22463.73385,2.686,2.686,0,0,0,.49255,1.45319,2.297,2.297,0,0,1,.32114,1.10654,2.45348,2.45348,0,0,0,.3702,1.09092,2.561,2.561,0,0,1,.39453,1.479,3.1592,3.1592,0,0,0,.49,1.84934,1.53549,1.53549,0,0,1,.17032.35006,1.33091,1.33091,0,0,1,.07424.37645c.02536.77937.04429,1.559.06122,2.3386a2.12744,2.12744,0,0,0,.4207,1.46917,2.6167,2.6167,0,0,1,.34455,1.10059,3.58607,3.58607,0,0,0,.515,1.45036,1.92007,1.92007,0,0,1-.00238,1.86015,3.68966,3.68966,0,0,0-.49289,1.84889c.02356.77928.003,1.56006-.00539,2.34011-.00419.38982-.03814.77969-.03271,1.16915a2.07974,2.07974,0,0,1-.359,1.09368,2.80694,2.80694,0,0,0-.37773,1.48413c.00062.12995-.00806.25989-.00968.38987a2.06835,2.06835,0,0,1-.56546,1.40658c-.26254.28757-.53113.57078-.81289.83934a2.35763,2.35763,0,0,1-.98182.60767,4.17892,4.17892,0,0,0-1.02535.5481,4.97963,4.97963,0,0,1-.713.30206,2.95888,2.95888,0,0,0-.94358.67577,4.97977,4.97977,0,0,1-1.63534,1.01634,2.29078,2.29078,0,0,0-.615.47155c-.66212.62421-1.3103,1.26318-1.97094,1.889a2.57406,2.57406,0,0,1-.9874.60221c-.62454.20057-1.10274.67687-1.7124.91518a1.09515,1.09515,0,0,0-.52283.96286c-.00973,1.82-.02871,3.64009-.02814,5.46013a1.96766,1.96766,0,0,1-.61361,1.38226q-.80271.85034-1.65218,1.6559a2.128,2.128,0,0,1-.999.579.8794.8794,0,0,0-.33864.1812c-.40506.32474-.80182.65977-1.20192.99068a6.12665,6.12665,0,0,1-1.04061.50744,3.66233,3.66233,0,0,0-.62134.46735,3.75066,3.75066,0,0,1-1.63316,1.014,2.7768,2.7768,0,0,0-1.27611,1.41405,2.70118,2.70118,0,0,1-.30593.71065,2.498,2.498,0,0,0-.46814,1.45458c-.00276.38907-.043.77787-.06652,1.16681a10.86332,10.86332,0,0,0-.572,1.01809c-.54781,1.26366-.55726.99436-1.72928,1.24171-.23388-.01621-.46766-.03427-.70169-.04781-.11691-.00677-.23493.00092-.35151-.00855a1.37482,1.37482,0,0,1-1.4244-.81755c.04368-.38786.08254-.77632.13222-1.16341a1.28389,1.28389,0,0,1,.841-1.186,1.31709,1.31709,0,0,0,.31041-.22233.7817.7817,0,0,0,.188-1.028,10.93154,10.93154,0,0,0-.98115-1.20829,1.79162,1.79162,0,0,1,.04739-2.16264c.8228-.83325,1.65624-1.656,2.47179-2.49629a9.05766,9.05766,0,0,0,.7437-.90049,1.26334,1.26334,0,0,0,.25667-.72264c.01387-.6496.00329-1.29971.00529-1.94962a1.36551,1.36551,0,0,0-.2139-.73965c-.06828-.1101-.10485-.24085-.17838-.34649a.9473.9473,0,0,1,.22487-1.36205,1.59079,1.59079,0,0,0,1.01553-1.86451c-.024-.25857-.01178-.52029-.02422-.78017a2.06459,2.06459,0,0,0-.49017-1.4489,1.22249,1.22249,0,0,1,.05788-1.43684,2.45148,2.45148,0,0,0,.42275-1.46927c-.00424-.12988.00587-.26015.00634-.39027a2.05077,2.05077,0,0,1,.54019-1.41457c.25982-.28932.49818-.5985.73669-.90613a.98172.98172,0,0,0,.0379-1.093c-.11653-.23251-.25385-.45465-.36886-.68786a1.16475,1.16475,0,0,1,.23583-1.08008,3.32341,3.32341,0,0,1,1.26281-.88208,2.34788,2.34788,0,0,0,.92928-.68914,1.061,1.061,0,0,0,.2129-1.39823,7.5278,7.5278,0,0,1-.64481-1.41339,3.39811,3.39811,0,0,1-.58992-2.2109,1.74061,1.74061,0,0,0-.36143-1.08712c-.15582-.20733-.3342-.39806-.50657-.59257a3.474,3.474,0,0,1-.79991-1.32022,4.819,4.819,0,0,0-.351-.69062,2.44742,2.44742,0,0,1-.31866-1.1073c.00982-.9106-.00939-1.82151-.01349-2.73231a3.04363,3.04363,0,0,0-.55569-1.83315,1.55483,1.55483,0,0,1-.21271-.74037c-.00067-1.56029-.0103-3.12057-.01187-4.68086a1.89292,1.89292,0,0,0-.29506-1.109c-.37773-.53749-.51406-1.19167-.88512-1.72815-.3723-.53827-.46323-1.21262-.84354-1.74779a2.21681,2.21681,0,0,1-.32362-1.10633,1.94263,1.94263,0,0,0-.20246-.74405,11.00594,11.00594,0,0,1-.68151-1.396c-.17938-.48146-.54177-.87485-.72258-1.37495-.17437-.48239-.51749-.90382-.69177-1.38625a9.99914,9.99914,0,0,0-.72638-1.37474,15.09375,15.09375,0,0,0-.8229-1.753,11.29347,11.29347,0,0,0-.72653-1.37248c-.50629-1.01246-.43371-.94359-1.41158-1.07885a1.25058,1.25058,0,0,1-.94262-.583,6.45008,6.45008,0,0,0-.36086-.6878,3.38013,3.38013,0,0,1-.624-1.81531,1.25872,1.25872,0,0,1,1.2096-.79573,2.60579,2.60579,0,0,0,1.44629-.4958.89277.89277,0,0,1,1.07971-.018c.312.23272.62578.46441.92332.71492a2.21609,2.21609,0,0,0,1.41763.54578c.25972.00608.51916.03928.77869.03932a1.39033,1.39033,0,0,1,.74131.2027c.776.46907,1.67011.71006,2.41209,1.24575a3.07648,3.07648,0,0,1,1.315.79809c.47554.44255.94835.89032,1.45268,1.29838a2.81832,2.81832,0,0,0,.70508.30487c.90953.00373,1.8193.019,2.72855.00581a1.85542,1.85542,0,0,0,1.07036-.40278,4.58727,4.58727,0,0,1,.69082-.34926,8.5202,8.5202,0,0,1,1.3937.64369,1.91025,1.91025,0,0,0,.36476.12209,2.32459,2.32459,0,0,0,.38613.00757Q262.59435,127.05291,267.0433,127.05777Z"
          />
          <path
            id="Gullele-Woreda-8"
        class="cls-1 pathHovered NaN-ri subcity Gullele-Woreda-8-path"
         data-html="true"            d="M132.72163,57.48789a3.02817,3.02817,0,0,1,1.793.62489,1.65852,1.65852,0,0,0,.73083.23645,3.72929,3.72929,0,0,0,.38977.01546c3.38089-.10823,6.76286-.07694,10.14456-.0797.39013-.00032.78024.0076,1.17037.00978a2.14244,2.14244,0,0,1,1.88244,1.16916,1.666,1.666,0,0,1,.241.72934,10.09917,10.09917,0,0,1,.01885,1.55753,2.6884,2.6884,0,0,1-.32459,1.109c-.06018.11519-.13876.22137-.19261.33914a1.1719,1.1719,0,0,0,.21654,1.42853A22.67277,22.67277,0,0,0,151.58764,67.34a2.79522,2.79522,0,0,0,.71132.29472q1.56063.01408,3.12129.02792a2.792,2.792,0,0,1,1.48231.4012,3.033,3.033,0,0,0,1.47609.42938,22.57822,22.57822,0,0,0,2.7293-.022,6.35981,6.35981,0,0,1,1.16789-.00008.88473.88473,0,0,1,.62085.40312.7692.7692,0,0,1-.0051.73932,2.49852,2.49852,0,0,1-.42189.65179,4.17144,4.17144,0,0,0-1.01031,1.6429c-.38456.52712-.60163,1.14643-.93076,1.70066a12.28469,12.28469,0,0,1-.9517,1.23287,2.1391,2.1391,0,0,0-.35729.6875c-.15689.50268-.53689.89175-.71675,1.37724a5.80681,5.80681,0,0,1-.49215,1.0549,3.327,3.327,0,0,0-.342,1.88281,1.91178,1.91178,0,0,0,.43078,1.05966c.07229.1067.17938.18928.25677.29316a7.27994,7.27994,0,0,0,2.87055,1.946.90183.90183,0,0,0,.7504-.03219c.3527-.16288.68232-.3751,1.02609-.55821.57969-.30879.626-.30917.837-.74631a3.98764,3.98764,0,0,1,.6254-.97868c.26287-.28809.53878-.5644.8125-.84238.27377-.278.55471-.549.82728-.8282a4.97733,4.97733,0,0,0,.75786-.88723c.20065-.33463.26034-.72876.47568-1.06053a4.55551,4.55551,0,0,0,.51236-1.04537,2.23793,2.23793,0,0,1,.97376-1.17185.93841.93841,0,0,1,1.08444-.02279,1.796,1.796,0,0,1,.59194.49932,1.83839,1.83839,0,0,1,.44068,1.05456,2.55149,2.55149,0,0,0,.47312,1.45942,4.12789,4.12789,0,0,1,.32055.706c.213.47027.51632.90066.71749,1.375a3.34279,3.34279,0,0,0,.61636.9812c.35266.38212.72517.74592,1.09,1.11678.09119.09272.18739.18052.27817.2736a4.16092,4.16092,0,0,0,1.61626,1.05218,4.14955,4.14955,0,0,1,.67782.38022,1.44489,1.44489,0,0,0,.74615.18793c.78027.00267,1.56047.01657,2.34071.02547a2.11157,2.11157,0,0,1,1.66794.85539,3.28655,3.28655,0,0,1,.33392.6956q.03951,1.36452.07891,2.72906a2.15222,2.15222,0,0,0,.60291,1.39486,7.45508,7.45508,0,0,1,.5072.5925,1.74128,1.74128,0,0,1,.4416,1.04969c-.02224,1.30006-.03175,2.60033-.0492,3.90049a2.55345,2.55345,0,0,1-.27918,1.11786,3.11279,3.11279,0,0,0-.46943,1.46458c-.019.25934-.03867.51991-.03347.77942a1.68831,1.68831,0,0,1-.42456,1.0596c-.313.41441-.64984.81089-.97644,1.21505a5.49349,5.49349,0,0,1-1.58483,2.18212c-.44561.47279-.89778.93938-1.34088,1.41446a2.01645,2.01645,0,0,0-.362.68318,2.46113,2.46113,0,0,1-.37232.67676c-.41395.5004-.84431.9891-1.29433,1.45727-.54028.562-1.11569,1.09026-1.65876,1.64973a1.73562,1.73562,0,0,0-.44106.63577,4.58293,4.58293,0,0,1-1.0445,1.62324,3.44775,3.44775,0,0,0-.62985.97548,2.22139,2.22139,0,0,1-.39431.66385c-.69935.77-1.42464,1.51632-2.131,2.28a3.05255,3.05255,0,0,0-.61631.98281,2.25322,2.25322,0,0,1-.39584.66257c-.34228.39075-.71046.76011-1.08278,1.1231-1.21158,1.18125-2.34288,2.4382-3.48012,3.689a1.51324,1.51324,0,0,0-.45353,1.04544c.00854.5196.01758,1.03922.02342,1.55884a2.556,2.556,0,0,0,.29233,1.11566c.22916.46345.41663.95049.67935,1.39338a5.597,5.597,0,0,0,.7333.90623,4.07369,4.07369,0,0,1,.7174,1.36276,1.03976,1.03976,0,0,0,.20592.32972c.35761.37718.71847.75183,1.09139,1.11376,3.734,3.62381,7.38329,7.33211,11.01683,11.056a3.60582,3.60582,0,0,1,.89019,1.26448,1.87616,1.87616,0,0,0,.41722.64974q2.45964,2.506,4.94415,4.98746a2.62675,2.62675,0,0,0,1.00055.58c.36143.12913.66727.41377,1.02867.54313a10.48117,10.48117,0,0,1,1.73062.87463,4.80262,4.80262,0,0,1,2.09443,1.68458,1.8626,1.8626,0,0,1,.39278.66341,3.78027,3.78027,0,0,0,.53308,1.03475c.22821.32714.28314.72511.48464,1.05732a15.052,15.052,0,0,1,.72565,1.37192,6.37359,6.37359,0,0,0,1.22931,1.504,4.062,4.062,0,0,1,1.08286,1.59443,10.76236,10.76236,0,0,0,.98249,1.20741,2.78767,2.78767,0,0,1,.56062,1.01264,2.36063,2.36063,0,0,0,.37767.67378,6.09991,6.09991,0,0,0,.5096.58947c.353.38123.72343.747,1.0645,1.13855.34626.39743.40341.95209.71442,1.37575a2.6747,2.6747,0,0,1,.4694,1.46249,2.20336,2.20336,0,0,0,.05426.38608c.06158.25219.136.50126.20508.75164a3.19407,3.19407,0,0,1-.68712.323,18.76449,18.76449,0,0,0-2.96589.73512,2.82809,2.82809,0,0,1-.74465.16307c-.76274.071-1.52716.12609-2.29166.17544a4.7554,4.7554,0,0,0-1.48277.34832,3.23381,3.23381,0,0,1-.72942.21819,5.02369,5.02369,0,0,0-1.80562.58519c-.55182.31509-1.15254.5393-1.701.86674a1.62574,1.62574,0,0,1-.73516.1683,2.27255,2.27255,0,0,0-1.3592.61317,14.31724,14.31724,0,0,0-2.10959,2.213,1.5655,1.5655,0,0,1-.56584.49978,2.32692,2.32692,0,0,1-1.05037-.47722c-.29715-.253-.56977-.536-.87663-.77589a1.95752,1.95752,0,0,0-1.06135-.42541,2.6028,2.6028,0,0,1-1.44186-.50657,9.81479,9.81479,0,0,1-1.72137-.887,5.31326,5.31326,0,0,1-1.9243-1.263,6.51971,6.51971,0,0,0-1.167-1.031,5.94846,5.94846,0,0,1-1.35412-.73572c-.46154-.45853-.93767-.90246-1.41165-1.34825a2.29009,2.29009,0,0,0-.312-.2326,1.11342,1.11342,0,0,0-.33513-.19063,2.74826,2.74826,0,0,1-1.30961-.80448c-.9334-.907-1.85347-1.82778-2.79495-2.7262a1.84583,1.84583,0,0,0-.6623-.393,1.83493,1.83493,0,0,1-.69661-.33424c-.574-.52816-1.13875-1.06667-1.723-1.58316a1.85251,1.85251,0,0,0-.6526-.40967,2.61572,2.61572,0,0,1-1.01143-.55954c-.38825-.34623-.77113-.702-1.12379-1.08376a6.01905,6.01905,0,0,0-1.64279-1.00125,9.12866,9.12866,0,0,1-1.45-1.29757c-.29029-.25843-.608-.48606-.91335-.72753a3.82434,3.82434,0,0,1-1.88894-1.3098c-.46881-.45129-.92517-.91576-1.40168-1.35866a6.43142,6.43142,0,0,0-.62755-.46066,3.77267,3.77267,0,0,1-1.88446-1.31623c-1.02066-1.00407-2.0292-2.02046-3.04638-3.02809-.27724-.27466-.55561-.55049-.85551-.79921a5.03149,5.03149,0,0,0-.65565-.41832c-.69823-.41511-.81615-.57785-.82707-1.16206a3.053,3.053,0,0,1,.52181-2.222,1.58177,1.58177,0,0,0,.20923-.73973c.01051-.65017.04232-1.3.06571-1.95a1.40019,1.40019,0,0,1,.24594-.727,2.4185,2.4185,0,0,0,.46943-1.45331,1.75784,1.75784,0,0,0-.17125-.74827,3.31746,3.31746,0,0,1-.57159-1.428,2.7902,2.7902,0,0,0-.49065-1.45611,2.0071,2.0071,0,0,1-.289-1.11148q-.00508-2.14758-.00754-4.29516a11.45616,11.45616,0,0,0-.09324-1.55745l-.02563.06338c.60673-.12863.73726-.19528.96773-.422a1.87255,1.87255,0,0,0,.68491-1.60092c-.014-.12-.00878-.2422-.0124-.36339a1.56683,1.56683,0,0,1,.37666-.66951,4.73177,4.73177,0,0,0,.91876-1.24913,1.27064,1.27064,0,0,0,.1317-.36633,14.45513,14.45513,0,0,0,.05345-2.33676,3.09636,3.09636,0,0,0-.3517-1.5062c-.09494-.2421-.18744-.48528-.27489-.73019a2.47592,2.47592,0,0,0-.634-.96577c-.282-.26988-.5636-.54017-.84983-.8055a1.56236,1.56236,0,0,1-.52851-2.05419,3.23453,3.23453,0,0,0,.15742-.35642,3.34937,3.34937,0,0,0,.212-1.14393c.00937-.3898.00474-.78127-.02122-1.17018a2.74877,2.74877,0,0,0-.267-1.12866,4.8292,4.8292,0,0,1-.337-.70322c-.32545-.96941-1.21877-1.73143-1.0542-2.87905a5.05323,5.05323,0,0,1-.76222-2.18072.9217.9217,0,0,0-.1007-.37052c-.25391-.5972-.48762-1.2053-.78148-1.78256a7.21292,7.21292,0,0,1-.6166-1.84073,9.30719,9.30719,0,0,0-1.884-2.93126,1.59528,1.59528,0,0,1-.43291-1.05815,61.19907,61.19907,0,0,1,.07446-8.5794,12.56692,12.56692,0,0,0-.03579-2.33186,1.51589,1.51589,0,0,1,.32062-1.09661,2.18334,2.18334,0,0,0,.26227-2.20652c-.04019-.12348-.09109-.24362-.14-.3641a4.62114,4.62114,0,0,0-1.93572-2.37129,9.66641,9.66641,0,0,1-1.86287-1.40389,1.9085,1.9085,0,0,1-.47817-1.0403,2.18013,2.18013,0,0,1-.01924-.38926c-.0042-.13-.00062-.26054-.01018-.39013a4.52426,4.52426,0,0,1,.54476-2.62868,1.83074,1.83074,0,0,0,.00863-1.50974,3.12624,3.12624,0,0,0-.1646-.35363,3.61743,3.61743,0,0,1-.37365-1.50026c-.03991-2.0808.04956-4.16326-.07146-6.24239a2.66142,2.66142,0,0,0-.26589-.72275c-.71466-.75652-1.27628-1.6516-2.0509-2.34834a5.33318,5.33318,0,0,1-1.203-1.97613,1.31754,1.31754,0,0,1-.05777-1.12964A16.63271,16.63271,0,0,0,132.72163,57.48789Z"
          />
          <path
            id="Gullele-Woreda-9"
        class="cls-1 pathHovered NaN-ri subcity Gullele-Woreda-9-path"
         data-html="true"            d="M145.07624,128.49812a11.45616,11.45616,0,0,1,.09324,1.55745q.00026,2.14758.00754,4.29516a2.0071,2.0071,0,0,0,.289,1.11148,2.7902,2.7902,0,0,1,.49065,1.45611,3.31746,3.31746,0,0,0,.57159,1.428,1.75784,1.75784,0,0,1,.17125.74827,2.4185,2.4185,0,0,1-.46943,1.45331,1.40019,1.40019,0,0,0-.24594.727c-.02339.65-.0552,1.29978-.06571,1.95a1.58177,1.58177,0,0,1-.20923.73973,3.053,3.053,0,0,0-.52181,2.222c.01092.58421.12884.74695.82707,1.16206a5.03149,5.03149,0,0,1,.65565.41832c.2999.24872.57827.52455.85551.79921,1.01718,1.00763,2.02572,2.024,3.04638,3.02809a3.77267,3.77267,0,0,0,1.88446,1.31623,6.43142,6.43142,0,0,1,.62755.46066c.47651.4429.93287.90737,1.40168,1.35866a3.82434,3.82434,0,0,0,1.88894,1.3098c.30538.24147.62306.4691.91335.72753a9.12866,9.12866,0,0,0,1.45,1.29757,6.01905,6.01905,0,0,1,1.64279,1.00125c.35266.38175.73554.73753,1.12379,1.08376a2.61572,2.61572,0,0,0,1.01143.55954,1.85251,1.85251,0,0,1,.6526.40967c.58427.51649,1.149,1.055,1.723,1.58316a1.83493,1.83493,0,0,0,.69661.33424,1.84583,1.84583,0,0,1,.6623.393c.94148.89842,1.86155,1.81923,2.795,2.7262a2.74826,2.74826,0,0,0,1.30961.80448,1.11342,1.11342,0,0,1,.33513.19063,2.29009,2.29009,0,0,1,.312.2326c.474.44579.95011.88972,1.41165,1.34825a5.94846,5.94846,0,0,0,1.35412.73572,6.51971,6.51971,0,0,1,1.167,1.031,5.31326,5.31326,0,0,0,1.9243,1.263,9.81479,9.81479,0,0,0,1.72137.887,2.6028,2.6028,0,0,0,1.44186.50657,1.95752,1.95752,0,0,1,1.06135.42541c.30686.23988.57948.52293.87663.77589a2.32692,2.32692,0,0,0,1.05037.47722c-.122.3647-.249.72787-.36322,1.095a1.19029,1.19029,0,0,0-.05851.37813q.03666,1.34655.09081,2.69259a5.6335,5.6335,0,0,0,.08681.76527,3.23934,3.23934,0,0,0,.18972.74083,8.34923,8.34923,0,0,1,.58888,2.22583,8.09081,8.09081,0,0,0,.31882,1.10706c-.24837.06577-.49589.13486-.74539.19588-.12454.03047-.25288.04519-.37916.06883a1.85842,1.85842,0,0,0-.705.29034,3.10879,3.10879,0,0,1-1.43463.49708c-.63078.07027-.96007.36509-1.00263.92824a2.50643,2.50643,0,0,1-.7725,1.703c-.27848.26619-.53983.55324-.83789.7952a1.62539,1.62539,0,0,1-1.035.44768c-.1274-.00069-.25481.04081-.3825.04257a1.16184,1.16184,0,0,0-.71857.24222,2.88967,2.88967,0,0,1-1.8133.51939l-.00112.00575a.80728.80728,0,0,0-.72054-.79819c-.50588-.14495-.869-.56371-1.35438-.72966a10.32268,10.32268,0,0,1-1.39692-.64434,1.81214,1.81214,0,0,0-1.49469-.05419c-.35857.13218-.66459.407-1.02325.53868a3.53845,3.53845,0,0,0-1.29576.81461,3.38342,3.38342,0,0,1-1.62605.99277,3.68508,3.68508,0,0,1-2.17375.65758,2.604,2.604,0,0,0-1.45564.42307,4.22367,4.22367,0,0,1-.69887.32128c-2.4725-.00128-4.94469.08355-7.41765.01546a2.3081,2.3081,0,0,1-1.0979-.34877,13.96446,13.96446,0,0,1-2.06742-1.07116,3.5503,3.5503,0,0,1-1.63163-1.01487c-.36784-.36779-.74343-.73014-1.14041-1.06553a2.36058,2.36058,0,0,0-.67181-.37986,1.82851,1.82851,0,0,1-.68173-.36427c-.97083-.97469-1.19723-.8015-2.595-1.67913a1.27911,1.27911,0,0,0-.33229-.20152,4.014,4.014,0,0,1-1.88511-1.32471,3.24363,3.24363,0,0,1-.85255-1.28454,1.72742,1.72742,0,0,0-.41753-.64907c-1.268-1.308-2.55449-2.59806-3.8239-3.90469a5.46083,5.46083,0,0,0-1.64506-1.001,6.98506,6.98506,0,0,0-1.40509-.6524,12.33967,12.33967,0,0,0-1.72287-.89025c-.46542-.22308-.90443-.49278-1.39167-.685-.47706-.18822-.8731-.54267-1.37536-.7192a15.04,15.04,0,0,0-1.74616-.8343,6.48826,6.48826,0,0,0-1.37739-.71766,1.7351,1.7351,0,0,1-.663-.39429c-1.25167-1.1391-2.4385-2.34523-3.59326-3.58137a6.91267,6.91267,0,0,1-.647-.97131,11.48162,11.48162,0,0,0,.404-2.2912,4.42484,4.42484,0,0,0-.43713-2.63864c-.41023-.80687-.845-1.601-1.25289-2.40833a1.60917,1.60917,0,0,1-.09272-1.13356,3.88864,3.88864,0,0,1,.39946-1.08744c.53833-.8835,1.01269-1.80441,1.59549-2.66271a2.67874,2.67874,0,0,0,.53253-1.44166,7.93808,7.93808,0,0,1,.33249-1.51381,4.20617,4.20617,0,0,0,.30681-1.51339c.0129-.90659.02253-1.81323.03357-2.71985.00629-.51777-.00372-1.03643.02424-1.553a2.005,2.005,0,0,1,.37962-1.08258,11.84661,11.84661,0,0,0,1.51805-2.24468q.80483-1.09528,1.61006-2.19027c.36264-.49139.34881-.782-.06652-1.39428-.21745-.32057-.43712-.64012-.64011-.9698a.79876.79876,0,0,1,.09639-1.05844,10.40449,10.40449,0,0,1,.92766-.692,3.27947,3.27947,0,0,0,1.00041-1.1636,1.21347,1.21347,0,0,1,.88031-.66948c.2519-.05484.51258-.06893.76913-.1029a3.67942,3.67942,0,0,0,1.12651-.26828c.81715-.38792,1.66062-.71372,2.462-1.143,1.02485-.54895,2.08215-1.038,3.10164-1.59948a14.07969,14.07969,0,0,1,1.75822-.8043c.89857-.16809,1.68711-.667,2.59226-.79769a4.4195,4.4195,0,0,0,1.46543-.48873c.57021-.30571,1.19644-.48408,1.76481-.8038A3.87035,3.87035,0,0,1,145.07624,128.49812Z"
          />
          <path
            id="Gullele-Woreda-4"
        class="cls-1 pathHovered NaN-ri subcity Gullele-Woreda-4-path"
         data-html="true"            d="M238.02967,123.1803a3.38013,3.38013,0,0,0,.624,1.81531,6.45008,6.45008,0,0,1,.36086.6878,1.25058,1.25058,0,0,0,.94262.583c.97787.13526.90529.06639,1.41158,1.07885a11.29347,11.29347,0,0,1,.72653,1.37248,15.09375,15.09375,0,0,1,.8229,1.753,9.99914,9.99914,0,0,1,.72638,1.37474c.17428.48243.5174.90386.69177,1.38625.18081.5001.5432.89349.72258,1.37495a11.00594,11.00594,0,0,0,.68151,1.396,1.94263,1.94263,0,0,1,.20246.74405,2.21681,2.21681,0,0,0,.32362,1.10633c.38031.53517.47124,1.20952.84354,1.74779.37106.53648.50739,1.19066.88512,1.72815a1.89292,1.89292,0,0,1,.29506,1.109c.00157,1.56029.0112,3.12057.01187,4.68086a1.55483,1.55483,0,0,0,.21271.74037,3.04363,3.04363,0,0,1,.55569,1.83315c.0041.9108.02331,1.82171.01349,2.73231a2.44742,2.44742,0,0,0,.31866,1.1073,4.819,4.819,0,0,1,.351.69062,3.474,3.474,0,0,0,.79991,1.32022c.17237.19451.35075.38524.50657.59257a1.74061,1.74061,0,0,1,.36143,1.08712,3.39811,3.39811,0,0,0,.58992,2.2109,7.5278,7.5278,0,0,0,.64481,1.41339,1.061,1.061,0,0,1-.2129,1.39823,2.34788,2.34788,0,0,1-.92928.68914,3.32341,3.32341,0,0,0-1.26281.88208,1.16475,1.16475,0,0,0-.23583,1.08008c.115.23321.25233.45535.36886.68786a.98172.98172,0,0,1-.0379,1.093c-.23851.30763-.47687.61681-.73669.90613a2.05077,2.05077,0,0,0-.54019,1.41457c-.00047.13012-.01058.26039-.00634.39027a2.45148,2.45148,0,0,1-.42275,1.46927,1.22249,1.22249,0,0,0-.05788,1.43684,2.06459,2.06459,0,0,1,.49017,1.4489c.01244.25988.00024.5216.02422.78017a1.59079,1.59079,0,0,1-1.01553,1.86451.9473.9473,0,0,0-.22487,1.36205c.07353.10564.1101.23639.17838.34649a1.36551,1.36551,0,0,1,.2139.73965c-.002.64991.00858,1.3-.00529,1.94962a1.26334,1.26334,0,0,1-.25667.72264,9.05766,9.05766,0,0,1-.7437.90049c-.81555.84024-1.649,1.663-2.47179,2.49629a1.79162,1.79162,0,0,0-.04739,2.16264,10.93154,10.93154,0,0,1,.98115,1.20829.7817.7817,0,0,1-.188,1.028,1.31709,1.31709,0,0,1-.31041.22233,1.28389,1.28389,0,0,0-.841,1.186c-.04968.38709-.08854.77555-.13222,1.16341-.38675.00918-.77378.01135-1.1601.0292a1.82508,1.82508,0,0,0-1.31359.71305,2.76436,2.76436,0,0,0-.57467.99222,1.98536,1.98536,0,0,1-.68161.91445,1.71537,1.71537,0,0,1-1.02812.46816c-.77331.02068-1.54747.00721-2.32106.02043a2.53015,2.53015,0,0,1-1.45507-.43182,2.04631,2.04631,0,0,0-1.09277-.32325c-.90243-.01985-1.80529-.02063-2.708-.02913a2.54351,2.54351,0,0,0-.48045-1.4451,6.99174,6.99174,0,0,0-2.928-2.48079.98059.98059,0,0,1-.5739-.92133c-.04043-1.29551-.02446-2.59269-.053-3.88872a2.138,2.138,0,0,0-.28476-1.11325,3.30472,3.30472,0,0,1-.51253-1.84286c.00782-.3886-.01664-.77777-.01268-1.16654a1.76846,1.76846,0,0,0-.13628-.75731c-.31842-.70829-.56961-1.44568-.941-2.13161a2.45027,2.45027,0,0,1-.27675-.71875,6.03455,6.03455,0,0,0-.64828-1.8189,4.03047,4.03047,0,0,1-.38713-1.49653,1.37006,1.37006,0,0,1,.129-.7527,18.57317,18.57317,0,0,1,1.00952-1.65228,2.73712,2.73712,0,0,1,.5605-.52838,1.51616,1.51616,0,0,0,.737-1.27665c.00377-1.16649-.004-2.333.00153-3.49949a2.24028,2.24028,0,0,0-.79381-1.70088c-.37817-.353-.75166-.71118-1.13569-1.05765a1.92346,1.92346,0,0,0-.33358-.19849,2.70853,2.70853,0,0,0-.51349-1.82632c-.23779-.31526-.24938-.73944-.47029-1.05681a3.67412,3.67412,0,0,1-.62239-1.80842,1.59943,1.59943,0,0,0-.2756-.71672,2.66873,2.66873,0,0,1-.42809-1.46425c-.00148-1.68464-.02113-3.36928-.02632-5.05395a2.82882,2.82882,0,0,0-.43849-1.46482,1.6345,1.6345,0,0,1-.25848-.72142c-.02866-.38732-.05636-.7748-.077-1.1626a2.22727,2.22727,0,0,0-.35692-1.09028,2.69006,2.69006,0,0,1-.428-1.46611c-.00052-.1295-.00486-.25939-.01547-.38843a2.85338,2.85338,0,0,0-.44978-1.46063,2.57134,2.57134,0,0,1-.29561-1.10987c-.00958-.64781-.02427-1.29554-.03075-1.94339-.00646-.64793-.00587-1.29594-.00775-1.94393a4.07477,4.07477,0,0,0-.53092-2.22162,2.031,2.031,0,0,1,.09551-1.86067,2.85411,2.85411,0,0,0,.44993-1.46238c-.00041-.12941.01483-.2588.01793-.38831a2.78592,2.78592,0,0,1,.41917-1.46926,2.6239,2.6239,0,0,0,.36994-1.48218c-.00482-.38871.00694-.77794-.00851-1.16617-.06714-1.68493-.02458-3.36894.0298-5.053q2.13611-.04766,4.27221-.09442a2.2183,2.2183,0,0,0,1.09678-.333,2.80718,2.80718,0,0,1,1.4749-.40007c1.16568.00341,2.33141-.01594,3.49709-.01344a2.68223,2.68223,0,0,0,1.45344-.463,1.3098,1.3098,0,0,1,1.44534.069,2.20892,2.20892,0,0,0,1.08433.37479c.38818-.00219.77641.02,1.16468.02587C236.99345,123.17293,237.51161,123.17547,238.02967,123.1803Z"
          />
        </g>
        <path
          id="gulele_bound"
          class="cls-2"
          d="M350.64253,61.439a1.37821,1.37821,0,0,0-.3302-.69173c-.87873-.95955-1.81992-1.85611-2.7852-2.72693a5.35536,5.35536,0,0,0-.64246-.43414c-.65573-.12631-1.1099-.664-1.73849-.84951a2.76923,2.76923,0,0,1-.98034-.61462c-.29687-.25166-.59512-.504-.91144-.72991-.31508-.225-.73688-.24962-1.03279-.52188-.28648-.26359-.57691-.52274-.86219-.78752-.095-.08826-.17714-.19025-.269-.28208a2.13276,2.13276,0,0,1-.64013-1.37515,2.61556,2.61556,0,0,0-.32576-1.10579,2.27793,2.27793,0,0,1-.43062-1.468c-.00858-.12974-.01926-.25967-.01917-.38951a2.73743,2.73743,0,0,0-.45317-1.466,1.54122,1.54122,0,0,1-.2529-.72567c-.03-.51888-.06146-1.038-.07253-1.55753a2.93207,2.93207,0,0,0-.39514-1.48182,2.219,2.219,0,0,1-.35075-1.09673c-.01125-.51964-.032-1.03913-.05359-1.55848a2.21348,2.21348,0,0,0-.3055-1.1088,2.70678,2.70678,0,0,1-.43958-1.47028c.00053-.12979-.017-.25967-.0174-.38951a2.78092,2.78092,0,0,0-.42785-1.47294,2.15333,2.15333,0,0,1-.3168-1.10537c-.00653-.38984-.03343-.78026-.01993-1.16935a3.262,3.262,0,0,0-.53929-1.836,1.41324,1.41324,0,0,1-.206-.74007c-.006-.51964-.01936-1.03942-.04434-1.55844a2.10577,2.10577,0,0,0-.29973-1.1097c-.43629-.65115-.59131-1.43876-1.01606-2.095a1.34264,1.34264,0,0,1-.20875-.739c-.0113-.90977-.05388-1.81954-.04711-2.729a3.20166,3.20166,0,0,0-.48845-1.84648,1.48234,1.48234,0,0,1-.24-.73164,2.77438,2.77438,0,0,0-.45741-1.46469,2.15241,2.15241,0,0,1-.33968-.696c-.16932-.63555-.70346-1.09177-.852-1.73967a.90869.90869,0,0,0-.18195-.33912c-.32152-.40758-.65162-.8084-.98111-1.20964a1.95073,1.95073,0,0,1-.3608-.68362,1.67629,1.67629,0,0,0-.37364-.67584c-.98254-1.03847-1.97694-2.06573-2.95576-3.10763a2.54373,2.54373,0,0,1-.59955-.98892,1.8924,1.8924,0,0,0-.38027-.67022,28.80047,28.80047,0,0,0-2.761-2.74968,2.18168,2.18168,0,0,0-.67289-.37964,2.9364,2.9364,0,0,1-.70879-.31208,2.76044,2.76044,0,0,0-1.4472-.50614,2.51146,2.51146,0,0,1-1.08672-.38627,2.26792,2.26792,0,0,0-1.09563-.35171c-.51969-.00639-1.03919-.03271-1.55849-.05555A2.25634,2.25634,0,0,1,315.561,4.839a2.76553,2.76553,0,0,0-1.47618-.41664c-.5194-.00181-1.03852-.04091-1.55806-.05455A1.39409,1.39409,0,0,1,311.7925,4.14a3.1717,3.1717,0,0,0-1.84267-.51525,3.39882,3.39882,0,0,1-1.83538-.55044,1.43992,1.43992,0,0,0-.74393-.19254c-.7797-.00405-1.55968-.01316-2.3388-.0412a2.24469,2.24469,0,0,1-1.11276-.29777,2.87438,2.87438,0,0,0-1.46092-.46976c-.7797-.01283-1.55921-.05269-2.33876-.054a2.31213,2.31213,0,0,1-1.08948-.37759,2.568,2.568,0,0,0-1.10518-.32624c-.51935-.02227-1.03942-.03033-1.55915-.04378-.65572-.017-.81217-.11977-1.20635-.77149h-1.56245c-.18457.63226-.33158.59188-.747.7982a4.89026,4.89026,0,0,0-.70584.29887,2.62679,2.62679,0,0,1-1.44447.47968,1.37811,1.37811,0,0,0-.73092.2191,3.59306,3.59306,0,0,1-1.80476.61524,1.7239,1.7239,0,0,0-.71361.27217,2.53566,2.53566,0,0,1-1.45173.46714,2.67337,2.67337,0,0,0-1.07108.40935,2.33992,2.33992,0,0,1-1.096.32652c-.64523.02737-1.29094.04334-1.93646.06413-.25891.01016-.51778.02475-.77678.02919a1.22009,1.22009,0,0,0-.72077.26129,2.60989,2.60989,0,0,1-1.45034.49127,2.46666,2.46666,0,0,0-1.07918.40353,2.31078,2.31078,0,0,1-1.105.31752c-.38952.00672-.779.02007-1.16845.03166a2.34351,2.34351,0,0,0-1.481.37611,3.52631,3.52631,0,0,1-.69564.33568c-.645.16069-1.09425.70155-1.73743.85737a1.44192,1.44192,0,0,0-.348.16465,4.92472,4.92472,0,0,0-.90062.74055,2.337,2.337,0,0,1-.9771.61467c-.64347.163-1.089.71084-1.7402.84835a.87779.87779,0,0,0-.34217.17438c-.40792.32032-.80825.65033-1.2094.97919a1.96294,1.96294,0,0,1-.67957.36687,1.76617,1.76617,0,0,0-.677.37087c-.57914.521-1.14441,1.05792-1.73433,1.56626a1.92452,1.92452,0,0,1-.66974.37931,4.398,4.398,0,0,0-1.0245.54958,8.36394,8.36394,0,0,0-1.37023.71246c-.28843.2613-.593.505-.89275.75362a1.90514,1.90514,0,0,1-.6851.35647c-.62573.18572-1.08586.71451-1.7402.84182a5.71276,5.71276,0,0,0-.94673.67637c-.29786.24986-.612.4804-.91887.71948a4.73757,4.73757,0,0,0-1.9235,1.2731,1.0238,1.0238,0,0,1-.32166.21662,5.12445,5.12445,0,0,0-1.92373,1.27774,2.28486,2.28486,0,0,1-.31584.22682,1.31121,1.31121,0,0,1-.33859.18305,1.7772,1.7772,0,0,0-.69659.33387c-.29973.24842-.611.48464-.89418.75071a8.263,8.263,0,0,1-1.34463.75294,14.4858,14.4858,0,0,0-1.2136.97262,1.93865,1.93865,0,0,1-.68042.36567,1.90511,1.90511,0,0,0-.68143.3631c-.40048.32943-.79061.67375-1.21055.97662-.41922.30235-.94858.40053-1.37433.71151a1.85313,1.85313,0,0,1-1.1.31847c-.51944.00372-1.03937.03071-1.5581.01469a1.5356,1.5356,0,0,0-1.06674.39962,36.46629,36.46629,0,0,0-3.57672,3.57844,2.46657,2.46657,0,0,0-.3878.66874,1.52694,1.52694,0,0,1-.797.78951,14.27469,14.27469,0,0,1-1.36976.72186c-.4978.18048-.89842.53266-1.37805.705a4.76267,4.76267,0,0,0-1.63745,1.011,2.53138,2.53138,0,0,1-.96732.63321,7.01893,7.01893,0,0,0-1.3669.7323,3.3,3.3,0,0,0-1.62224,1.019c-1.00356,1.017-2.00269,2.03845-3.01212,3.04964q-1.6516,1.65455-3.32076,3.29139a2.3511,2.3511,0,0,1-.99357.58926,5.393,5.393,0,0,0-1.023.55163c-.45472.24637-.96656.35909-1.40853.64619a1.99913,1.99913,0,0,1-1.10548.30745c-2.208-.00215-4.416.00992-6.62407.01039a4.71131,4.71131,0,0,1-.772-.06928,1.27375,1.27375,0,0,1-.35225-.16255,10.30987,10.30987,0,0,1-1.24436-.92908,1.88021,1.88021,0,0,0-1.07728-.38413c-.649-.01626-1.29828-.02412-1.94742-.03557a1.47447,1.47447,0,0,1-.82724-.767c-.37635-.61352-.6026-.75647-1.21017-.76467-.12967-.00177-.25944-.00158-.389-.00592a2.79464,2.79464,0,0,0-1.48344.37278,2.23848,2.23848,0,0,1-1.09284.357c-1.68663.00691-3.37341.03094-5.058.12583a1.42126,1.42126,0,0,0-.37187.08926,1.72555,1.72555,0,0,0-.35468.15911,3.48955,3.48955,0,0,1-1.86708.419c-1.52.02709-1.57141-.08282-2.81012,1.00337a3.9114,3.9114,0,0,1-1.34875.7458,1.48942,1.48942,0,0,0-.331.203,2.43821,2.43821,0,0,1-1.46222.43562c-.51854-.01249-1.03718-.02279-1.55572-.03524a1.42056,1.42056,0,0,1-.73029-.23416,3.16222,3.16222,0,0,0-1.44148-.53023,2.37737,2.37737,0,0,1-1.08688-.37978,2.72733,2.72733,0,0,0-1.477-.4012c-.12969-.00043-.25931-.01454-.389-.01468a2.794,2.794,0,0,1-1.46069-.46242,1.37856,1.37856,0,0,0-.73369-.225c-.38858,0-.77738-.00362-1.16568-.01721a1.0993,1.0993,0,0,0-.73.22215,4.67652,4.67652,0,0,0-.61758.46695,8.21844,8.21844,0,0,1-1.99229,1.17436,3.1631,3.1631,0,0,1-1.46513.45269,1.39583,1.39583,0,0,0-.72612.25176c-.64342.44345-1.42517.614-2.07779,1.04176a1.34823,1.34823,0,0,1-.73433.21872c-.38913.006-.77812.02532-1.16718.02551q-6.22916.00236-12.4583.00219c-1.03785.00114-2.07579.02174-3.11332.04749a1.29947,1.29947,0,0,0-.71721.26487c-.31508.22692-.62206.46586-.92386.71032a2.20214,2.20214,0,0,1-1.4221.51611c-2.46558.01154-4.9311.03595-7.39669.04745a2.9766,2.9766,0,0,0-1.482.39285,2.27679,2.27679,0,0,1-1.10457.31956c-1.03785.011-2.0756.028-3.11344.03843a2.12061,2.12061,0,0,0-1.38879.6007,7.78745,7.78745,0,0,0-1.06059,1.13335,1.5421,1.5421,0,0,0-.28752.7097,8.49116,8.49116,0,0,0-.04694,1.55353,4.64651,4.64651,0,0,1-1.8612-.50223,1.96047,1.96047,0,0,0-.73392-.24218c-.12793-.01664-.25264-.05712-.37936-.08416a2.18919,2.18919,0,0,1-1.50765-1.12663,9.53911,9.53911,0,0,0-1.58345-2.19456c-.54558-.554-1.09471-1.10465-1.65309-1.6456a1.82055,1.82055,0,0,0-1.01-.53252,4.45516,4.45516,0,0,1-1.47748-.44878c-.34214-.18214-.71413-.31-1.04965-.50247a19.06389,19.06389,0,0,0-2.33124-1.3926.99991.99991,0,0,1-.29684-.24284,1.04568,1.04568,0,0,1-.23958-.29263c-.25667-.59426-.508-1.19124-.74126-1.795a3.90315,3.90315,0,0,0-.61787-.979,1.79726,1.79726,0,0,0-1.33345-.68948,5.07852,5.07852,0,0,0-1.16206.02727,2.71687,2.71687,0,0,0-.69246.31871,14.92481,14.92481,0,0,1-2.35725,2.5742c-.49132.41875-.92715.903-1.3849,1.36071a1.79814,1.79814,0,0,1-1.41587.4977,2.25418,2.25418,0,0,1-1.4302-.521,7.86438,7.86438,0,0,0-2.31674-1.39327,3.12684,3.12684,0,0,0-1.12039-.27875q-1.94378-.00829-3.88753-.0061-1.7496-.00029-3.49917.00381a2.40915,2.40915,0,0,0-1.44116.48989c-.10478.07619-.217.14237-.31947.22148a4.06689,4.06689,0,0,1-1.75458.78642,20.00254,20.00254,0,0,0-2.11448.95721,1.5495,1.5495,0,0,0-.295.247c-.26046.28833-.51146.5852-.76615.87873a3.30478,3.30478,0,0,0-1.482.41516,14.8922,14.8922,0,0,0-2.61447,1.67808c-1.09166.7054-2.06074,1.5817-3.14215,2.2956-1.18914.785-2.43528,1.48381-3.65814,2.21764a39.66058,39.66058,0,0,1-4.16263,2.098,14.66126,14.66126,0,0,0-2.15394.89117c-.84006.34036-1.67509.70045-2.48392,1.10828-.69895.35241-1.47046.49622-2.16729.85784-.804.41722-1.64791.75872-2.48053,1.11915a18.002,18.002,0,0,1-2.521,1.01963q-1.40586.66552-2.81183,1.33094c-.82006.38728-1.63954.77588-2.4621,1.15777-.35247.1636-.7128.31027-1.06834.46733a10.89073,10.89073,0,0,1-1.42367.61839c-.75421.21-1.43468.62187-2.19256.78985-1.26758.28089-2.43574.89866-3.73562,1.06607a2.94573,2.94573,0,0,0-.73149.25577,12.94741,12.94741,0,0,1-1.48956.4453c-.62175.17776-1.21558.47143-1.845.60008-1.14875.23479-2.17931.8546-3.35471.98253a17.74646,17.74646,0,0,1-1.82568.66736,9.98825,9.98825,0,0,0-2.455,1.1551,10.2895,10.2895,0,0,0-3.11578,2.8972c-.37307.5307-.71023,1.08715-1.09464,1.60912a4.36725,4.36725,0,0,1-.78687.85847,23.8977,23.8977,0,0,1-4.19973,2.79931c-.69912.34126-1.40109.67661-2.10063,1.01706-2.2139,1.07747-4.44653,2.1157-6.66809,3.1771a5.31684,5.31684,0,0,1-1.07072.45264c-.7683.17419-1.43718.60676-2.18918.79768a7.77758,7.77758,0,0,0-2.13.93184,25.134,25.134,0,0,1-5.2402,2.52844c-.45415.25519-.94437.42842-1.41933.63679-.47367.20775-.92014.47792-1.377.72357a1.18192,1.18192,0,0,0-.69223.88512,1.98369,1.98369,0,0,1-1.07093,1.51448,1.41713,1.41713,0,0,0-.29535.24723A1.63574,1.63574,0,0,0,.5023,93.6949c.01574.3877.09165.773.14076,1.15934a2.46219,2.46219,0,0,1,.62342,1.38592A7.024,7.024,0,0,0,1.561,97.7585a1.71026,1.71026,0,0,0,.68443.90886c.43481.27408.9163.47291,1.3642.72787a10.50588,10.50588,0,0,0,1.4575.50571,2.10373,2.10373,0,0,1,.65672.40349A4.33359,4.33359,0,0,1,6.842,101.86716c.1473.35809.24739.73625.40446,1.08948a5.60772,5.60772,0,0,1,.43186,1.87939c.02944.38646.04369.77483.04554,1.16244a5.05823,5.05823,0,0,1-.46345,2.25874,3.87932,3.87932,0,0,0-.2275.73449,1.4912,1.4912,0,0,0,.00936.76988,13.08466,13.08466,0,0,0,1.61943,3.50057,4.3874,4.3874,0,0,0,.48921.60108c.43753.476.88934.93885,1.32522,1.41629a1.73675,1.73675,0,0,1,.46184,1.04033,24.02841,24.02841,0,0,1-.05531,4.26072,5.40728,5.40728,0,0,1-.50884,1.85959c-.05679.11621-.11192.23326-.16685.35032a2.16931,2.16931,0,0,0,.68765,2.4284.79917.79917,0,0,0,.34223.177,4.66012,4.66012,0,0,0,.76246.07157,1.65622,1.65622,0,0,0,1.08657-.34431c1.09648-.90954,2.272-1.71155,3.4201-2.54951a11.9298,11.9298,0,0,1,3.78712-1.91233,7.08468,7.08468,0,0,0,.71857-.289,5.393,5.393,0,0,1,1.50216-.3642c.64339-.06418,1.2866-.1562,1.93152-.1727a11.40791,11.40791,0,0,0,2.684-.342,9.73488,9.73488,0,0,1,1.14907-.17389,1.32558,1.32558,0,0,1,1.32653.59125c.07684.10381.16534.19888.24848.298.51777-.02995,1.03541-.062,1.55335-.08912a2.1967,2.1967,0,0,1,1.13012.23193,11.69308,11.69308,0,0,1,2.31252,1.42831,4.62306,4.62306,0,0,1,1.65936,2.56176,10.08549,10.08549,0,0,0,.65627,1.82222,8.54339,8.54339,0,0,0,.9859,1.66982,2.55276,2.55276,0,0,0,.51322.579c.62359.465,1.26446.90758,1.91043,1.34125a2.411,2.411,0,0,0,.6958.33783,11.9463,11.9463,0,0,1,1.80793.70612,3.11415,3.11415,0,0,0,1.13967.21652,2.01205,2.01205,0,0,1,1.34337.69149,6.02345,6.02345,0,0,1,.97929,1.20678,15.69987,15.69987,0,0,1,1.86723,4.25418,13.761,13.761,0,0,1,.81422,2.59018c.21492.47239.4165.9515.65043,1.4143a3.07922,3.07922,0,0,0,.44189.63531,7.33589,7.33589,0,0,0,2.799,2.05443,4.00662,4.00662,0,0,0,1.11132.33549c.38766.03495.77266.11019,1.16065.12784,1.94531.08845,3.89142.09793,5.83654-.00463a3.64879,3.64879,0,0,0,1.83964-.55464c.43491-.28275.88-.55053,1.32821-.81164a1.51215,1.51215,0,0,1,.36889-.10557,1.1976,1.1976,0,0,1,1.08679.24046,2.17061,2.17061,0,0,1,.28235.2643c.15534.207.27195.44545.44022.64a2.56174,2.56174,0,0,1,.643,1.78274,4.10715,4.10715,0,0,0,.40711,1.87638c.38968.82118.846,1.60454,1.28114,2.3994a3.12754,3.12754,0,0,0,1.1099,1.07328,14.19408,14.19408,0,0,0,1.3575.76076c1.50833.74913,2.97843,1.57227,4.49236,2.30962a2.92085,2.92085,0,0,0,.74095.22711,12.59739,12.59739,0,0,0,3.4882.188c.6459-.06051,1.29049-.138,1.93394-.22124a3.8339,3.8339,0,0,0,1.11871-.31294c.94229-.43381,1.94585-.71852,2.879-1.17336a2.61943,2.61943,0,0,0,.64728-.42313c.66161-.62244,1.31655-1.25313,1.9491-1.90489a2.41514,2.41514,0,0,1,2.11786-.7344c.12867.014.25932.01011.389.01449.195.48684.63064.807.87282,1.2611.18138.34006.37444.67451.54155,1.02149a2.45693,2.45693,0,0,1,.2617,1.11409c-.0113.64265-.03228,1.28512-.04919,1.92764a6.88612,6.88612,0,0,1,.81937,1.311,13.61783,13.61783,0,0,1,.802,2.17344,2.90751,2.90751,0,0,0,.63228,1.39336,16.45007,16.45007,0,0,0,2.11208,2.27024,2.10676,2.10676,0,0,0,1.39775.58363c.64675.00467,1.294.01258,1.94013-.00921a1.69841,1.69841,0,0,0,1.05723-.418c1.08583-.9234,2.01887-2.00583,3.07675-2.95756a1.8556,1.8556,0,0,1,1.05315-.43587c.38513-.04486.76751-.11357,1.15109-.17184a7.14426,7.14426,0,0,1,.15234-.75166.80452.80452,0,0,1,1.2441-.39309c.19587.16541.41476.3065.5954.48655.72966.72719,1.45058,1.46317,2.1708,2.1998q2.43135,2.48687,4.98853,4.84392c.2828.25977.60919.47215.91542.70641a7.9489,7.9489,0,0,1,1.92426,1.27125,1.68025,1.68025,0,0,0,1.46383.21185c.12486-.03014.24564-.0772.36828-.11649a6.91061,6.91061,0,0,0,.647.97128c1.15476,1.23616,2.34159,2.44227,3.59326,3.5814a1.73482,1.73482,0,0,0,.663.39428,6.48872,6.48872,0,0,1,1.37739.71766,15.03829,15.03829,0,0,1,1.74616.83429c.50226.17652.8983.531,1.37536.71924.48724.1922.92625.46189,1.39167.685a12.33842,12.33842,0,0,1,1.72287.89022,6.98608,6.98608,0,0,1,1.40509.65238,5.46109,5.46109,0,0,1,1.64506,1.001c1.26941,1.30663,2.55589,2.59671,3.8239,3.90468a1.7275,1.7275,0,0,1,.41753.64909,3.2436,3.2436,0,0,0,.85255,1.28453,4.01415,4.01415,0,0,0,1.88511,1.32473,1.27765,1.27765,0,0,1,.33229.2015c1.39782.87763,1.62422.70445,2.595,1.67912a1.82855,1.82855,0,0,0,.68173.36429,2.36053,2.36053,0,0,1,.67181.37984c.397.33539.77257.69775,1.14041,1.06554a3.55046,3.55046,0,0,0,1.63163,1.01487,13.96642,13.96642,0,0,0,2.06742,1.07117,2.30808,2.30808,0,0,0,1.0979.34875c2.473.06809,4.94515-.01674,7.41765-.01545a4.22285,4.22285,0,0,0,.69887-.32128,2.60417,2.60417,0,0,1,1.45564-.42308,3.68488,3.68488,0,0,0,2.17375-.65759,3.38327,3.38327,0,0,0,1.62605-.99273,3.53837,3.53837,0,0,1,1.29576-.81463c.35866-.13172.66468-.40651,1.02325-.53868a1.8121,1.8121,0,0,1,1.49469.05419,10.32274,10.32274,0,0,0,1.39692.64435c.4854.16593.8485.5847,1.35438.72965a.80727.80727,0,0,1,.72054.79817l.00112-.00572a2.88981,2.88981,0,0,0,1.8133-.5194,1.16184,1.16184,0,0,1,.71857-.24222c.12769-.00177.2551-.04325.3825-.04258a1.62538,1.62538,0,0,0,1.035-.44767c.29806-.242.55941-.529.83789-.79521a2.50641,2.50641,0,0,0,.7725-1.703c.04256-.56315.37185-.858,1.00263-.92823a3.10913,3.10913,0,0,0,1.43463-.49708,1.85842,1.85842,0,0,1,.705-.29034c.12628-.02365.25462-.03838.37916-.06885.2495-.061.497-.1301.74539-.19588a8.08946,8.08946,0,0,1-.31882-1.107,8.34906,8.34906,0,0,0-.58888-2.22582,3.23982,3.23982,0,0,1-.18972-.74084,5.63325,5.63325,0,0,1-.08681-.76529q-.05622-1.34586-.09081-2.69256a1.19056,1.19056,0,0,1,.05851-.37816c.1142-.36711.2412-.7303.36322-1.095a1.56546,1.56546,0,0,0,.56584-.4998,14.31821,14.31821,0,0,1,2.10959-2.213,2.27263,2.27263,0,0,1,1.3592-.61314,1.62536,1.62536,0,0,0,.73516-.16832c.54844-.32743,1.14916-.55163,1.701-.86671a5.02391,5.02391,0,0,1,1.80562-.58521,3.23329,3.23329,0,0,0,.72942-.21819,4.756,4.756,0,0,1,1.48277-.34832c.7645-.04935,1.52892-.10447,2.29166-.17547a2.82491,2.82491,0,0,0,.74465-.16307,18.761,18.761,0,0,1,2.96589-.73506,3.19481,3.19481,0,0,0,.68712-.3231c-.03454-.12516-.07041-.25-.10535-.37511.03494.12507.07081.25.10535.37511,1.80591-.21967,3.62307-.21952,5.4372-.27731a2.60424,2.60424,0,0,0,1.12267-.26574,3.60159,3.60159,0,0,1,1.477-.43528c.25863-.01312.51558-.05708.77414-.07429a1.88855,1.88855,0,0,0,.7447-.20389,3.18262,3.18262,0,0,1,1.85862-.47978c.38741-.03461.77585-.05764,1.164-.08435a2.80449,2.80449,0,0,0,1.11068-.32137,3.30337,3.30337,0,0,1,1.48692-.38747c.38889-.00777.77747-.03185,1.16608-.05073a3.54127,3.54127,0,0,0,1.48055-.42814,1.84229,1.84229,0,0,1,.73237-.23626c.90565-.06037,1.81123-.123,2.71749-.17237a2.609,2.609,0,0,0,1.09781-.3589,2.87394,2.87394,0,0,1,1.11376-.30436c.38684-.03771.77688-.0432,1.16549-.06275a1.92271,1.92271,0,0,1,.33358.19846c.384.34645.75752.70464,1.13569,1.05768a2.2402,2.2402,0,0,1,.79381,1.70086c-.00553,1.16644.00224,2.333-.00153,3.49948a1.51622,1.51622,0,0,1-.737,1.27668,2.73568,2.73568,0,0,0-.5605.52836,18.57317,18.57317,0,0,0-1.00952,1.65228,1.37007,1.37007,0,0,0-.129.75271,4.03012,4.03012,0,0,0,.38713,1.4965,6.03486,6.03486,0,0,1,.64828,1.81892,2.45,2.45,0,0,0,.27675.71876c.37139.6859.62258,1.42331.941,2.1316a1.76846,1.76846,0,0,1,.13628.75731c-.004.38877.0205.77793.01268,1.16654a3.30472,3.30472,0,0,0,.51253,1.84286,2.138,2.138,0,0,1,.28476,1.11325c.02856,1.296.01259,2.59321.053,3.88873a.98054.98054,0,0,0,.5739.92131,6.99191,6.99191,0,0,1,2.928,2.4808,2.54351,2.54351,0,0,1,.48045,1.4451c.90271.00848,1.80557.00929,2.708.02913a2.04639,2.04639,0,0,1,1.09277.32324,2.53,2.53,0,0,0,1.45507.43183c.77359-.01323,1.54775.00026,2.32106-.02043a1.71535,1.71535,0,0,0,1.02812-.46815,1.98534,1.98534,0,0,0,.68161-.91446,2.76444,2.76444,0,0,1,.57467-.99222,1.82512,1.82512,0,0,1,1.31359-.71306c.38632-.01783.77335-.02,1.1601-.02918a1.37484,1.37484,0,0,0,1.4244.81755c.11658.00945.2346.00177.35151.00854.234.01354.46781.03161.70169.04782q.01116.3564.00706.713a1.31947,1.31947,0,0,1,.68614.33725q1.94186,1.90881,3.87679,3.82452c.27679.27344.54877.55164.82632.82426a9.05781,9.05781,0,0,0,1.15777,1.03353c.42947.29744.96408.35711,1.39465.66531a1.81119,1.81119,0,0,0,1.08944.34285c1.16687-.013,2.334-.00016,3.50105.00067.12941.00007.259-.01817.38827-.01669a2.04433,2.04433,0,0,0,1.09259-.34488,2.73219,2.73219,0,0,1,1.47127-.41319c1.167.00679,2.33418.00365,3.50124-.00124a2.74086,2.74086,0,0,1,1.45974.45326,2.09456,2.09456,0,0,0,1.1024.31087c1.55587.00581,3.11182-.00189,4.66759.01013a1.95269,1.95269,0,0,0,1.06717-.401,2.09709,2.09709,0,0,0,.30169-.245,3.58139,3.58139,0,0,1,1.62924-1.00439,5.56517,5.56517,0,0,1,.99875-.595,3.51179,3.51179,0,0,0,1.32413-.77381,3.70654,3.70654,0,0,1,1.63368-1.002,2.3057,2.3057,0,0,0,.66588-.39509,1.30524,1.30524,0,0,1,.72705-.24036,2.61662,2.61662,0,0,0,1.45864-.45339,2.179,2.179,0,0,1,1.09115-.351,2.62836,2.62836,0,0,0,1.09736-.33785,2.41939,2.41939,0,0,1,1.45444-.46271,1.63861,1.63861,0,0,0,.72968-.236,3.85866,3.85866,0,0,1,1.02969-.53391,1.8801,1.8801,0,0,0,.36443-.12887,3.75863,3.75863,0,0,1,2.17816-.64833,2.10983,2.10983,0,0,0,1.44753-.4628,1.417,1.417,0,0,1,.72281-.25066c.25844-.0022.51692-.007.77536-.01068.25615-.03436.512-.07215.76859-.102a1.332,1.332,0,0,0,.69439-.31542,5.56169,5.56169,0,0,1,1.88391-1.3289c.10829-.03061.19946-.1645.27284-.26868a9.6424,9.6424,0,0,1,.818-1.29776,4.51068,4.51068,0,0,0,.93352-1.23075,8.53789,8.53789,0,0,1,.48254-1.05,2.05349,2.05349,0,0,0,.36038-1.08481c.00439-.90527.021-1.81047.03262-2.71571q-.01009-.765-.02012-1.53c-.38871-.01986-.77755-.03676-1.166-.06117a2.38577,2.38577,0,0,1-.38465-.05646,1.37718,1.37718,0,0,1-.3631-.1183,5.0784,5.0784,0,0,1-1.90513-1.89721c-.14047-.64652-.62974-1.13493-.81947-1.74664-.1963-.63279-.69124-1.09311-.87525-1.72709a2.52093,2.52093,0,0,0-.63979-.96189c-.44039-.47558-.88918-.94444-1.30711-1.43919a2.51534,2.51534,0,0,1-.3682-.677,2.52124,2.52124,0,0,0-.38289-.66974,11.705,11.705,0,0,1-.991-1.19406,1.42993,1.42993,0,0,1-.21843-.73353,3.516,3.516,0,0,1,.51668-2.2226c.3601-.53233.51936-1.17947.88064-1.7229a5.214,5.214,0,0,0,.29067-.71518c.10848-.2344.2366-.46051.36806-.68323a2.0712,2.0712,0,0,0,.29243-1.10952,3.82878,3.82878,0,0,1,.601-2.20781c.27317-.43038.37411-.96123.6622-1.39752a2.14725,2.14725,0,0,0,.312-1.10464c.01959-.38847.027-.77765.03213-1.16664.00172-.12879-.026-.25772-.03037-.38694a1.09,1.09,0,0,0-.58477-.93518,4.09673,4.09673,0,0,1-1.25757-.89547,1.4927,1.4927,0,0,1-.47491-1.02926,1.61481,1.61481,0,0,1,.27875-1.09974,7.14152,7.14152,0,0,1,.50819-.58558,3.52241,3.52241,0,0,0,.93667-1.65977,6.98154,6.98154,0,0,1,.36963-.68185,1.14562,1.14562,0,0,0-.09317-1.09068,2.00364,2.00364,0,0,1-.40649-1.45887c-.00453-.259-.012-.51783-.02007-.7767a1.84346,1.84346,0,0,0-.75462-1.30324,4.12065,4.12065,0,0,0-.98525-.61233,1.06174,1.06174,0,0,1-.59855-.91988c-.0288-.64743-.05617-1.2949-.08826-1.94214a1.47091,1.47091,0,0,0-.24542-.72634,2.8978,2.8978,0,0,1-.486-1.45649,1.37551,1.37551,0,0,0-.55821-.96489,3.4817,3.4817,0,0,1-1.26638-.87749,7.60869,7.60869,0,0,1-.75033-1.3443,4.37114,4.37114,0,0,1-.61448-1.81749,1.8094,1.8094,0,0,0-.33143-.68844c-.21319-.31689-1.21947-1.90093-1.45159-2.27018a2.85741,2.85741,0,0,1-.49694-1.44853,1.60735,1.60735,0,0,0-.21347-.738,3.41156,3.41156,0,0,1-.58983-1.81544c-.89952-.06432-1.79966-.0761-2.7-.0741.90034-.002,1.80049.00978,2.7.0741.01078-.65048.02518-1.301.03133-1.95153a1.99324,1.99324,0,0,0-.56937-1.4017,7.75057,7.75057,0,0,1-.50862-.59217,1.76764,1.76764,0,0,1-.4516-1.04824c-.0031-.78069-.0051-1.56144-.0145-2.342a2.62064,2.62064,0,0,1,.46519-1.45974,2.126,2.126,0,0,0,.29725-1.11108c.01607-.52012.01063-1.041.0124-1.56154a3.51441,3.51441,0,0,0-.60061-2.19947,1.01465,1.01465,0,0,1-.02222-.75052,1.88254,1.88254,0,0,1,.425-.64833,3.48655,3.48655,0,0,0,1.03852-1.6147,6.32229,6.32229,0,0,1,1.88115-1.94709,1.05613,1.05613,0,0,1,.349-.1625,2.47436,2.47436,0,0,0,1.2446-.88985,1.30722,1.30722,0,0,0,.19692-.33587.86309.86309,0,0,0,.124-.35857,4.1414,4.1414,0,0,1,.78232-2.16118c.36591-.66793.36062-.74508.69659-.87039a4.856,4.856,0,0,0,1.02521-.55416,2.76356,2.76356,0,0,1,.70388-.32428,1.82581,1.82581,0,0,0,.67565-.36959c.84922-.80611,1.6795-1.63244,2.50774-2.46039a2.67736,2.67736,0,0,0,.77946-1.32451,3.838,3.838,0,0,0,.70507-2.56042,1.72656,1.72656,0,0,1,.42227-1.06045,7.93771,7.93771,0,0,1,.8013-.8517,4.45487,4.45487,0,0,1,1.28689-.86394.97537.97537,0,0,0,.57509-.92546c.01826-.52017.0225-1.04081.04434-1.56078.03362-.80215.43114-1.23634,1.148-1.25227q.77982-.01739,1.56006-.00768A2.099,2.099,0,0,1,302.9011,90.7a2.69876,2.69876,0,0,0,1.47361.42189q2.92829-.00987,5.85658.00186a2.72972,2.72972,0,0,0,1.46489-.452,2.12846,2.12846,0,0,1,1.108-.30622c1.04081-.01683,2.082-.0369,3.1227-.0247a1.82711,1.82711,0,0,0,1.08085-.38656c.43543-.30363.97553-.35637,1.40443-.66039a2.622,2.622,0,0,1,1.44032-.523,2.0678,2.0678,0,0,0,1.08715-.37411,2.45516,2.45516,0,0,1,1.47791-.38784c.13.00324.2602-.00792.39032-.00778a2.00241,2.00241,0,0,0,1.40157-.57051,10.81881,10.81881,0,0,0,1.08686-1.11719,2.1878,2.1878,0,0,0,.35022-.68843,1.97853,1.97853,0,0,1,.36668-.67775c1.14022-1.25046,2.33989-2.44361,3.58072-3.59384a1.9261,1.9261,0,0,1,.67818-.36453,1.84911,1.84911,0,0,0,.69063-.345c.57376-.52846,1.13249-1.07385,1.72046-1.58581a1.56745,1.56745,0,0,1,1.05854-.42379,2.59012,2.59012,0,0,0,.38742-.04525,2.10247,2.10247,0,0,0,1.606-1.50351c.04692-.25544.05522-.51783.09646-.77455a1.351,1.351,0,0,1,.31155-.69978c.34794-.386.70708-.76386,1.08434-1.121a2.12785,2.12785,0,0,1,.99546-.58492.89261.89261,0,0,0,.35332-.152c.62025-.48978,1.42893-.616,2.061-1.07837a1.55474,1.55474,0,0,1,.71943-.26807,2.76026,2.76026,0,0,0,1.46465-.4413,2.79346,2.79346,0,0,1,.69549-.33973,2.37826,2.37826,0,0,0,.99536-.58711c.28862-.26277.56932-.53437.84769-.808a3.24618,3.24618,0,0,1,1.60454-1.04733,6.45743,6.45743,0,0,0,.63594-.44564c.29162-.25829.56136-.542.83257-.82251a2.097,2.097,0,0,0,.64209-1.37353,1.98258,1.98258,0,0,1,.32333-1.10379,2.046,2.046,0,0,0,.43762-1.4594,3.17659,3.17659,0,0,1,.67141-2.1742A1.66541,1.66541,0,0,0,350.64253,61.439ZM133.6376,57.64561a1.72883,1.72883,0,0,0-.17273-.05064A1.72883,1.72883,0,0,1,133.6376,57.64561Zm-.26658-.07095c-.16277-.03176-.361-.0545-.64937-.08679h0C133.01007,57.52016,133.20826,57.5429,133.371,57.57466Zm122.65366,68.45481q-.01551.12117-.02386.2449h0Q256.00919,126.15064,256.02468,126.02947Z"
        />
        <text
          id="gulele"
          class="cls-3"
          transform="translate(120.34435 128.45215)"
        >
          Gulele
        </text>
        <g id="gulele_woreda_texts">
          <text class="cls-4" transform="translate(279.07935 62.01191)">
            GU-W1
          </text>
          <text class="cls-4" transform="translate(216.11596 67.2862)">
            GU-W6
          </text>
          <text class="cls-4" transform="translate(182.24368 124.00281)">
            GU-W7
          </text>
          <text class="cls-4" transform="translate(145.64886 103.06659)">
            GU-W8
          </text>
          <text class="cls-4" transform="translate(101.23586 94.9787)">
            GU-W10
          </text>
          <text class="cls-4" transform="translate(44.56417 110.46802)">
            GU-W5
          </text>
          <text class="cls-4" transform="translate(142.34786 175.12409)">
            GU-W9
          </text>
          <text class="cls-4" transform="translate(226.65316 165.33143)">
            GU-W4
          </text>
          <text class="cls-4" transform="translate(249.34667 156.67133)">
            GU-W3
          </text>
          <text class="cls-4" transform="translate(263.53565 184.13141)">
            GU-W2
          </text>
        </g>
      </g>
    </g>
  </g>
</svg>
