<svg  xmlns="http://www.w3.org/2000/svg" id='svgCanvas3' viewBox="-30.50654168701172 -5.165940719604478 218.103796875 167.77215625000002">

  <defs>

    <style>
       #svgCanvas3{
        
            border: 0.1px #ccb8b8;
            background-color: #f6f4f4;
            display: block;
            margin-left: auto;
            margin-right: auto;
    }
      .cls-1 {
    
        stroke: #fff;
        stroke-width: 0.58592px;
      }

      .cls-1,
      .cls-2 {
        stroke-miterlimit: 10;
      }

      .cls-2 {
        fill: none;
        stroke: #784c9e;
      }

      .cls-3,
      .cls-4 {
        isolation: isolate;
        fill: #026aaa;
        font-family: MyriadPro-Regular, Myriad Pro;
      }

      .cls-3 {
        font-size: 18px;
      }

      .cls-4 {
        font-size: 7.5px;
      }
    </style>
  </defs>
  <g id="Layer_2" data-name="Layer 2">
    <g id="kifle_ketema">
      <g id="kirkos_kk">
        <g id="kirkos_all">
          <path
            id="Kirkos-Woreda-8"
        class="cls-1 pathHovered NaN-ri subcity Kirkos-Woreda-8-path"
         data-html="true"            d="M148.84271,23.17505a1.95615,1.95615,0,0,1-1.09807-.32106,6.71437,6.71437,0,0,0-1.39618-.66231,3.18639,3.18639,0,0,0-2.203-.57716,1.11441,1.11441,0,0,1-.38622-.03307,2.09961,2.09961,0,0,1-.692-.32631q-1.00812-.91511-1.95958-1.89181a1.96827,1.96827,0,0,1-.56256-1.005,2.18681,2.18681,0,0,0-2.11264-1.41692c-.12979.00191-.25963-.00026-.38942.00048a1.86166,1.86166,0,0,0-1.42636.49444c-.30092.24635-.57862.52505-.898.74348a3.62736,3.62736,0,0,1-.70679.29517q-2.14112.00695-4.28227.01507a1.3529,1.3529,0,0,1-.73683-.20873,8.62753,8.62753,0,0,0-1.39494-.66692c-.478-.18794-.86872-.54935-1.3617-.74051a1.26656,1.26656,0,0,1-.72672-.84909,1.96575,1.96575,0,0,0-.41407-.65091,18.04207,18.04207,0,0,0-1.923-1.92828,1.84009,1.84009,0,0,0-.666-.3867,2.31773,2.31773,0,0,1-.98249-.5981,1.86194,1.86194,0,0,1-.65687-1.355c-.00228-.25944-.02584-.51866-.02837-.77813a2.09581,2.09581,0,0,0-.89689-1.637,1.717,1.717,0,0,0-.67857-.3647,4.5726,4.5726,0,0,1-1.03922-.519,1.58124,1.58124,0,0,0-.73559-.21514c-2.20663-.01127-4.41321-.0307-6.61984-.02648a3.24367,3.24367,0,0,1-1.8429-.473c-.54119-.34841-1.18843-.49105-1.73158-.86028-.42327-.28769-.96818-.35766-1.38683-.67747a1.898,1.898,0,0,0-1.09582-.33272,1.71083,1.71083,0,0,1-1.06779-.39786c-.58415-.514-1.14323-1.0578-1.69448-1.60748A4.39073,4.39073,0,0,0,101.145,1.93045a.893.893,0,0,1-.3239-.21231c-.11358-.10087-.93388-.93254-1.045-1.03556L90.84027,2.76345a1.83188,1.83188,0,0,1,.42617,1.92268,3.384,3.384,0,0,1-.34832.68943,2.37828,2.37828,0,0,0-.30163,1.10923c-.00334,1.95045-.02013,3.90093-.02313,5.85139a2.66048,2.66048,0,0,1-.38465,1.48145,2.66815,2.66815,0,0,0-.3817,1.48208c-.00386,1.17023-.01964,2.34044-.029,3.51066a2.07318,2.07318,0,0,1-.30549,1.10662,2.6379,2.6379,0,0,0-.44812,1.46553c.002.12991-.00939.26-.00873.39a2.70492,2.70492,0,0,1-.40811,1.475,2.0679,2.0679,0,0,0-.348,1.094c-.00467,1.30007-.02737,2.60007-.04091,3.9001a2.15625,2.15625,0,0,1-.32123,1.1031,2.80252,2.80252,0,0,0-.4288,1.471c-.00086,2.21063-.01679,4.42126-.017,6.6319a2.65954,2.65954,0,0,1-.44616,1.46369,2.09768,2.09768,0,0,0-.3107,1.10615c-.02374.90984-.02627,1.82019-.03738,2.73034a.966.966,0,0,0,.80788.739c2.07111.00584,4.14237.02737,6.21324.00856a3.45037,3.45037,0,0,1,1.825.5271.96431.96431,0,0,0,1.09063-.00484c.10466-.07427.23426-.11315.34-.18627a1.23962,1.23962,0,0,1,1.43247.03307c.80353.44744.82022.44306,1.76161-.07641a2.34761,2.34761,0,0,1,1.10741-.28421,2.87017,2.87017,0,0,1,1.8544.39662c.52722.38093,1.19477.47608,1.7309.85215a1.87776,1.87776,0,0,0,1.10055.3002c1.16492-.00048,2.33.02105,3.49476.01233a2.49428,2.49428,0,0,1,1.4706.39054c.53829.36474,1.19911.46819,1.73715.84225a1.88115,1.88115,0,0,0,1.0975.30974c2.84761-.00591,5.69523-.00987,8.54275.0026a2.43524,2.43524,0,0,0,1.0861-.36388,4.417,4.417,0,0,1,.68939-.34174,3.5336,3.5336,0,0,0,1.03036-.52858,2.07537,2.07537,0,0,1,1.09883-.316,1.94935,1.94935,0,0,0,1.06817-.39256c.2088-.15113.39237-.33709.58677-.50808.64113-.56393.64266-.56605,1.7433-.67987.017-.12621.0444-.252.04945-.37871a2.10559,2.10559,0,0,1,1.2588-1.77966c.43906-.24511.91993-.41357,1.35646-.679.54038-.32862,1.16878-.48781,1.701-.84373a1.53773,1.53773,0,0,1,.72762-.19025,2.39134,2.39134,0,0,0,1.08658-.30853,5.51633,5.51633,0,0,1,1.01672-.51449c.35161-.13062.6532-.38972.99522-.55387a6.72992,6.72992,0,0,0,1.37172-.64146,1.31548,1.31548,0,0,1,.69525-.29237c.25281-.02689.50385-.07045.75571-.10671.20888-.53938.22823-.558.78419-.72362.1749-.56494.22587-.61476.79116-.77319.01378-.25283.03219-.5055.03973-.7585a1.103,1.103,0,0,1,.27684-.70347c.42194-.49728.48093-1.18082.86581-1.69965a4.38607,4.38607,0,0,0,.47306-1.04109c.14085-.35344.40863-.656.55282-1.00862a.95739.95739,0,0,0-.07929-.737c-.10686-.23212-.24886-.44795-.37221-.67265a1.955,1.955,0,0,1-.03514-1.48739l.61-.43765c1.27912-.1286,2.56429.00784,3.84369-.09114a.99076.99076,0,0,0,.35419-.12619,2.03528,2.03528,0,0,0,1.26195-1.77325c.02894-.6403.02818-1.28191.04067-1.92294C149.62031,23.21525,149.231,23.20264,148.84271,23.17505Z"
          />
          <path
            id="Kirkos-Woreda-3"
        class="cls-1 pathHovered NaN-ri subcity Kirkos-Woreda-3-path"
         data-html="true"            d="M138.22613,108.41412a2.19157,2.19157,0,0,0,.52555.85322,1.4498,1.4498,0,0,1,.31331.59061,3.01218,3.01218,0,0,0,.47735,1.03692,1.85066,1.85066,0,0,1-.16489,2.14931,28.84682,28.84682,0,0,1-2.752,2.70917,1.64411,1.64411,0,0,1-1.062.38892,8.8985,8.8985,0,0,0-1.92564.09176.93669.93669,0,0,0-.34784.12645.96668.96668,0,0,0-.41431.61694c-.18228,1.27811.02184,2.57144-.13627,3.85056-.041.33153-.22754.4458-.48593.39728-.38007-.07138-.69964-.31186-1.08991-.3585a1.78818,1.78818,0,0,0-1.44291.37531,13.62453,13.62453,0,0,0-1.10035,1.08374,2.29659,2.29659,0,0,0-.57224.992,2.83207,2.83207,0,0,1-.3363.68953,2.20121,2.20121,0,0,0-.37335,1.07585c-.0215,1.41673.05961,2.83527-.05593,4.24975a.93777.93777,0,0,1-.36.65558,3.13779,3.13779,0,0,1-.69258.301c-.34856-.54239-.416-.6964-.41231-1.05883.00663-.65.02165-1.29881-.03028-1.94919a1.05374,1.05374,0,0,0-.62234-.8989,1.58718,1.58718,0,0,0-1.13727.02045,2.81272,2.81272,0,0,0-1.39531,1.79156,3.331,3.331,0,0,1-.91946,1.67812,6.08714,6.08714,0,0,1-.55578.54524,2.03725,2.03725,0,0,1-1.03331.50515,3.79544,3.79544,0,0,0-1.47047.48139c-.3343.199-.6993.34875-1.02416.56089a2.793,2.793,0,0,0-1.26772,1.42378,2.036,2.036,0,0,1-.38937.667c-.33983.39333-.72005.75142-1.07432,1.13269a9.0185,9.0185,0,0,0-2.17015,3.20585,1.92872,1.92872,0,0,0,.03628,1.87018,5.20948,5.20948,0,0,1,.60747,2.62761,1.29009,1.29009,0,0,1-.45574,1.03155c-.19578.16327-.43477.2737-.64762.41774A3.35257,3.35257,0,0,0,111.01879,145.8a3.56368,3.56368,0,0,1-.59521.9987,16.17506,16.17506,0,0,1-1.95611,1.90055,1.96274,1.96274,0,0,1-2.18026-.09422c-.37845-.35737-.74941-.72247-1.12486-1.083a5.149,5.149,0,0,0-.57152-.53018,1.85365,1.85365,0,0,0-.6881-.34016,7.81166,7.81166,0,0,1-1.86265-.54191.96306.96306,0,0,0-1.0901.1204,2.14364,2.14364,0,0,0-.7497.87186,1.23841,1.23841,0,0,0-.14057.35919c-.06947,1.16854-.12779,2.3378-.185,3.50706a1.73876,1.73876,0,0,1-.39533,1.06827c-.54281.56093-1.10122,1.1076-1.626,1.68484-.43695.48068-.841.99193-1.24874,1.4984a2.25547,2.25547,0,0,0-.56093,1.42851c-.03786.25719-.04344.51949-.08721.77545a1.24146,1.24146,0,0,1-.61314.92818,1.95249,1.95249,0,0,1-.70522-.29816,2.62275,2.62275,0,0,0-.65257-.40963,3.70733,3.70733,0,0,1-1.60116-1.03237c-1.36633-1.373-2.74034-2.73842-4.10714-4.111-.18138-.18214-.342-.3856-.50529-.58486a3.73685,3.73685,0,0,1-.36424-.67823c-.32376-.61767-.6787-.76153-1.2404-.44912a3.34369,3.34369,0,0,1-1.82221.53113,2.82958,2.82958,0,0,0-.387.01087,2.327,2.327,0,0,0-1.09645.32248,2.56551,2.56551,0,0,1-1.46.42456c-1.0326-.01545-2.06534-.02017-3.098-.02914a1.31461,1.31461,0,0,1-.726-.22982,3.094,3.094,0,0,0-1.82736-.51044c-.51592.01254-1.03279-.01426-1.54924-.02355a2.97277,2.97277,0,0,1-1.47923-1.18814,1.248,1.248,0,0,1-.10848-.3723,4.76342,4.76342,0,0,1,.50877-2.62437,1.75156,1.75156,0,0,0,.21948-.73655c.04353-.3846.12464-.76482.17246-1.149a2.34522,2.34522,0,0,1,.22263-.73759,3.779,3.779,0,0,0,.39781-1.48224q.09384-2.12688.21171-4.25266a1.10536,1.10536,0,0,1,.14076-.359,10.84787,10.84787,0,0,1,.8732-1.27163,2.70828,2.70828,0,0,0,.41488-1.07222,11.53481,11.53481,0,0,0,.087-1.93212,4.15306,4.15306,0,0,1,.39628-1.873,2.37345,2.37345,0,0,0,.18725-.74622,20.24693,20.24693,0,0,0-.01774-3.4816,2.078,2.078,0,0,0-.19674-.74259A3.78329,3.78329,0,0,1,75.87,125.7726c-.01188-.51526-.066-1.02941-.09508-1.54447a1.31218,1.31218,0,0,0-.24451-.72562,13.45129,13.45129,0,0,1-1.15181-2.43932,1.28758,1.28758,0,0,1-.05755-.37917,2.78605,2.78605,0,0,1,.26811-1.50136,7.50679,7.50679,0,0,0,.77469.08368q4.09334.03165,8.18671.04826c.12951.00064.259-.01955.38866-.0221a2.24331,2.24331,0,0,0,1.10012-.346,3.01292,3.01292,0,0,1,1.47556-.42291c.25939-.00773.51869-.03379.77707-.06042a.98819.98819,0,0,0,.37636-.07567c.67789-.38324,1.43365-.61273,2.09162-1.02309.43657-.27224.772-.70991,1.21369-.97006a8.09337,8.09337,0,0,0,1.62429-1.04538,6.924,6.924,0,0,1,.617-.47136,1.1085,1.1085,0,0,1,.73172-.22015,2.19892,2.19892,0,0,1,1.1263.21953,3.5133,3.5133,0,0,0,1.44844.53091,2.50251,2.50251,0,0,1,.37759.09522,1.06757,1.06757,0,0,1,.70121.82948,24.97275,24.97275,0,0,1-.08073,3.88451.90567.90567,0,0,1-.15458.35537,3.28494,3.28494,0,0,0-.54124,1.44055,2.44548,2.44548,0,0,1-.3424,1.10007c-.38556.67541-.62364,1.42473-1.04719,2.08074a.82676.82676,0,0,0,.17184.71523.63108.63108,0,0,0,.68.25024,1.27255,1.27255,0,0,0,.3457-.16365,7.07625,7.07625,0,0,0,1.17641-1.015,3.97381,3.97381,0,0,1,1.594-1.08c.31408-.22806.631-.45236.94158-.68524.31141-.23354.61638-.47572.92422-.71413a4.8051,4.8051,0,0,0,1.87981-1.3438c.38356-.35094.7621-.70738,1.14556-1.05842a5.45641,5.45641,0,0,1,1.634-1.02449c.62144-.48321,1.409-.65232,2.056-1.09161a1.94927,1.94927,0,0,1,1.10817-.30192c.64967-.00248,1.29943.00615,1.949.01394a2.32727,2.32727,0,0,1,1.44348.49008q.6148.4791,1.23272.95428c.62821.19054,1.1273.64774,1.735.8639a4.11193,4.11193,0,0,1,1.31278.81124,16.23922,16.23922,0,0,0,1.45906,1.28656.98748.98748,0,0,0,.33869.18824,2.29625,2.29625,0,0,0,1.15309-.041.9356.9356,0,0,0,.52017-.54934c.24284-.6039.70726-1.08236.90982-1.716a2.454,2.454,0,0,1,.97442-1.18218,1.49345,1.49345,0,0,1,.32-.21914,1.76546,1.76546,0,0,0,1.0459-1.05852c.24952-.59321.67928-1.1036.87373-1.73076a22.43539,22.43539,0,0,0,1.052-2.07581,2.98855,2.98855,0,0,0,.36963-1.09468,2.11536,2.11536,0,0,1,.1965-.74256c.40964-.66719.59088-1.44209,1.02006-2.09514a2.34593,2.34593,0,0,0,.33707-1.10329,2.11217,2.11217,0,0,1,.4247-1.06548,4.54562,4.54562,0,0,1,.50781-.59085,2.70417,2.70417,0,0,0,.71638-1.76082c.25905-.01176.5183-.0201.77712-.03607a1.89528,1.89528,0,0,1,1.43971.44377,4.40875,4.40875,0,0,0,1.94394,1.22979,16.33348,16.33348,0,0,0,2.04217,1.09964,2.79244,2.79244,0,0,0,1.48434.36549C137.18928,108.37185,137.70763,108.39738,138.22613,108.41412Z"
          />
          <path
            id="Kirkos-Woreda-4"
        class="cls-1 pathHovered NaN-ri subcity Kirkos-Woreda-4-path"
         data-html="true"            d="M72.61344,149.72421c-.1286.00562-.2572.01072-.38579.01687a2.92979,2.92979,0,0,1-1.49812-.27378c-.57343-.29048-1.15167-.57247-1.71455-.88231a5.13313,5.13313,0,0,0-1.44968-.50638,2.68669,2.68669,0,0,1-1.0294-.50348,7.63548,7.63548,0,0,0-2.3245-1.335c-.11863-.04949-.23331-.10852-.352-.15787a18.0192,18.0192,0,0,1-2.16557-.80134c-.55416-.31657-1.18785-.48469-1.76094-.78056a2.92366,2.92366,0,0,0-.72658-.25081,18.639,18.639,0,0,1-1.79866-.68623c-.61619-.198-1.17445-.52837-1.7803-.7355a10.82731,10.82731,0,0,1-1.78068-.72763,6.18478,6.18478,0,0,0-1.46308-.4812c-.0842-.09775-.14967-.23226-.25605-.28648-.34088-.1737-.70059-.31012-1.04586-.47577-.23183-.11124-.44492-.26215-.67846-.36891-.35061-.16021-.71409-.29215-1.06779-.446a4.14766,4.14766,0,0,0-.69945-.32581,7.579,7.579,0,0,1-2.16381-.80278,17.09767,17.09767,0,0,0-2.88752-1.07656c-.34431-.17652-.68619-.35785-1.03365-.52793a1.29162,1.29162,0,0,0-1.09964.14957c-.29005.25567-.57424.518-.861.77751-.86676-.09165-1.73472-.17357-2.59986-.27856a2.70489,2.70489,0,0,1-1.34323-.60447,1.48278,1.48278,0,0,1-.55363-.92841c-.00854-.24876-.019-.49833-.00949-.74675a5.43421,5.43421,0,0,0-.15914-1.4811,5.16148,5.16148,0,0,0,.082-.775q-.09531-2.33981-.22554-4.678a3.43148,3.43148,0,0,0-.18715-.75123,4.62238,4.62238,0,0,1-.30915-1.12153c-.07824-1.94957-.18136-3.89853-.23333-5.84879a5.70645,5.70645,0,0,0-.45083-2.27314,1.93488,1.93488,0,0,1-.16484-.75614c-.02-1.431-.10094-2.85861-.17947-4.287a3.88655,3.88655,0,0,1,.119-1.15887,5.33148,5.33148,0,0,0,.09267-1.93364c-.02849-.25868-.05807-.51726-.08537-.77608a4.11988,4.11988,0,0,0-.46626-1.47606,2.65637,2.65637,0,0,1-.31127-1.11471,21.41607,21.41607,0,0,0-.10742-2.33768,5.824,5.824,0,0,1,.15682-1.9332c.64507-.0571,1.28968-.155,1.93529-.16235a11.14466,11.14466,0,0,0,3.39165-.77655,3.93606,3.93606,0,0,0,.69353-.34033,20.28194,20.28194,0,0,1,2.5393-.95462,2.53476,2.53476,0,0,1,.76477-.12428c.64548-.04647,1.29185-.08566,1.93856-.1085.77631-.02744,1.55324-.03491,2.32994-.05109a2.0293,2.0293,0,0,0,.75428-.16832c.71518-.30247,1.43479-.59457,2.14678-.90424a3.22466,3.22466,0,0,1,1.11695-.30176,5.13042,5.13042,0,0,0,2.2246-.62084,3.89816,3.89816,0,0,1,1.86652-.45129c.38851-.00314.77821-.00665,1.16534.02a3.69185,3.69185,0,0,1,1.5047.34681,5.26344,5.26344,0,0,0,2.63362.52136,6.23652,6.23652,0,0,0,1.91262-.27761,3.77479,3.77479,0,0,1,.74785-.20188,31.20112,31.20112,0,0,1,5.02634-.41178c1.16382.05667,2.33108.03447,3.48961.19506a15.202,15.202,0,0,0,2.32678.10993c.51783-.00794,1.03613.00842,1.5542.0139.13255.4969.26973.99265.39576,1.49118a3.32123,3.32123,0,0,1,.15034.75612q.01623,1.54554-.0207,3.09137a3.56073,3.56073,0,0,1-.16745.75206,7.934,7.934,0,0,1-.7797,1.7608c-.30307.57071-.25815,1.26717-.64542,1.80569a7.974,7.974,0,0,0-.85628,1.723,3.5043,3.5043,0,0,0-.28447,1.116,27.12684,27.12684,0,0,0-.03414,3.09,4.0121,4.0121,0,0,0,.21233,1.13512,6.65321,6.65321,0,0,1,.38508,1.49159c.07457.63953.16174,1.27835.27107,1.91271a4.86221,4.86221,0,0,0,.24456.73009A2.7859,2.7859,0,0,0,74.321,120.684a1.28758,1.28758,0,0,0,.05755.37917,13.45129,13.45129,0,0,0,1.15181,2.43932,1.31218,1.31218,0,0,1,.24451.72562c.029.51506.0832,1.02921.09508,1.54447a3.78329,3.78329,0,0,0,.36123,1.49073,2.078,2.078,0,0,1,.19674.74259,20.24693,20.24693,0,0,1,.01774,3.4816,2.37345,2.37345,0,0,1-.18725.74622,4.15306,4.15306,0,0,0-.39628,1.873,11.53481,11.53481,0,0,1-.087,1.93212,2.70828,2.70828,0,0,1-.41488,1.07222,10.84787,10.84787,0,0,0-.8732,1.27163,1.10536,1.10536,0,0,0-.14076.359q-.11722,2.12574-.21171,4.25266a3.779,3.779,0,0,1-.39781,1.48224,2.34522,2.34522,0,0,0-.22263.73759c-.04782.38422-.12893.76444-.17246,1.149a1.75156,1.75156,0,0,1-.21948.73655A4.76342,4.76342,0,0,0,72.61344,149.72421Z"
          />
          <path
            id="Kirkos-Woreda-5"
        class="cls-1 pathHovered NaN-ri subcity Kirkos-Woreda-5-path"
         data-html="true"            d="M33.65493,102.97546a5.824,5.824,0,0,0-.15682,1.9332,21.41607,21.41607,0,0,1,.10742,2.33768,2.65637,2.65637,0,0,0,.31127,1.11471,4.11988,4.11988,0,0,1,.46626,1.47606c.0273.25882.05688.5174.08537.77608a5.33148,5.33148,0,0,1-.09267,1.93364,3.88655,3.88655,0,0,0-.119,1.15887c.07853,1.42838.15952,2.856.17947,4.287a1.93488,1.93488,0,0,0,.16484.75614,5.70645,5.70645,0,0,1,.45083,2.27314c.052,1.95026.15509,3.89922.23333,5.84879a4.62238,4.62238,0,0,0,.30915,1.12153,3.43148,3.43148,0,0,1,.18715.75123q.133,2.33795.22554,4.678a5.16148,5.16148,0,0,1-.082.775c-.37971-.0205-.76041-.03042-1.13891-.06442a2.15525,2.15525,0,0,1-1.073-.32771,2.79374,2.79374,0,0,0-.65656-.37669,5.25162,5.25162,0,0,1-1.029-.47568,2.90559,2.90559,0,0,0-.66994-.34531,2.94722,2.94722,0,0,1-.98451-.55378,3.58226,3.58226,0,0,1-.28674-.24957c-.36712-.3496-.7374-.69615-1.09644-1.054a5.03184,5.03184,0,0,0-1.31161-.73363,3.09405,3.09405,0,0,1-.60146-.45985c-.37419-.34183-.72353-.71131-1.103-1.04685-.48776-.43129-.43462-.55192-1.6903-.7437a2.354,2.354,0,0,0-.7698-1.71593c-.193-.17175-.36432-.36787-.54665-.55173s-.36207-.37068-.55-.54872a6.9257,6.9257,0,0,0-2.41545-1.90118,1.05752,1.05752,0,0,1-.31792-.22043c-.29506-.25219-.58589-.50925-.87571-.76744a4.87818,4.87818,0,0,0-1.8902-1.31583c-.41088-.3138-.81987-.63012-1.23325-.94058a4.00663,4.00663,0,0,0-1.0048-.57047c-.60175-.22582-1.11176-.64017-1.7269-.86454-.47875-.17466-.86936-.54911-1.37145-.71349a2.44706,2.44706,0,0,1-.66088-.39562c-.41478-.309-.81531-.63715-1.2217-.95738-.74413-.23114-1.305-.84214-2.08228-1.00459a4.34946,4.34946,0,0,1-.64375-.42537c-.56508-.53239-1.10839-1.08794-1.65869-1.63594a2.44187,2.44187,0,0,1-.62592-.96843c-.16224-.50287-.53976-.8896-.71513-1.37185a12.07485,12.07485,0,0,0-.66045-1.39918,1.65173,1.65173,0,0,1-.19-.74389c-.00723-.38808-.0381-.77567-.05016-1.16375-.01212-.38818-.02654-.77705-.01588-1.165a2.43656,2.43656,0,0,0-.30412-1.10677,4.62852,4.62852,0,0,1-.32679-.69878A3.17809,3.17809,0,0,0,1.8963,103.592c-.07564-.10462-.167-.19783-.24987-.29727a6.45788,6.45788,0,0,1-.73051-.90236,6.51607,6.51607,0,0,1-.39035-1.09435,8.54417,8.54417,0,0,0,.24794-1.89891A2.69283,2.69283,0,0,1,1.09539,98.309c.30164-.5611.5538-1.15052.87945-1.6966.32874-.55125.48373-1.1818.84456-1.71581a1.94584,1.94584,0,0,0,.30028-1.09483A3.91676,3.91676,0,0,1,3.67792,91.605a1.27522,1.27522,0,0,0-.1491-1.08683,2.88942,2.88942,0,0,0-1.16464-.95681c-.584-.2813-.63908-.37948-.72369-.80333-.05-.25071-.0833-.50476-.12412-.75731.02239-.9056.05086-1.8111.0644-2.71684a2.00813,2.00813,0,0,1,.36448-1.08322c.35666-.543.48063-1.19345.85332-1.73221.36615-.52942.52683-1.16859.85858-1.728.326-.54968.51237-1.18092.88221-1.71493a8.85806,8.85806,0,0,1,.85339-1.73012c.13292-.64893.64652-1.11795.82886-1.74032.18393-.62781.70235-1.08939.83987-1.7366.40625-.6589.6675-1.39716,1.07692-2.04892.34655-.55168.49232-1.19246.86455-1.72678.37106-.53273.45448-1.20871.83948-1.73763a1.38566,1.38566,0,0,0,.25565-.72221,2.94807,2.94807,0,0,1,.47236-1.45437c.36394-.536.49537-1.18521.85091-1.73336.34951-.53881.477-1.19591.84555-1.735a1.66734,1.66734,0,0,0,.21471-.73528,2.87394,2.87394,0,0,1,.16436-.75111c.15322-.35433.3759-.67794.54774-1.02514.11365-.22961.17452-.48528.28664-.71585a10.19633,10.19633,0,0,0,.53292-1.02855,5.61449,5.61449,0,0,1,.52412-1.03412,1.68778,1.68778,0,0,0,.26252-.72081,3.13882,3.13882,0,0,1,.46282-1.45888c.35294-.54169.45794-1.20478.84233-1.73717.30347-.4203.35341-.96738.66452-1.39184.38386-.52376.50624-1.18654.89315-1.712a2.17109,2.17109,0,0,0,.326-1.10067,2.81273,2.81273,0,0,1,.38546-1.08281,2.4061,2.4061,0,0,0,.32541-1.09993c.0252-.64645.06017-1.29254.091-1.93877a4.78645,4.78645,0,0,0,.62506-.3573,6.47828,6.47828,0,0,0,.80731-.72842,2.62584,2.62584,0,0,1,1.60941-.74293c.1001.07922.19966.15914.30039.23757s.20365.15392.30376.23307a2.77483,2.77483,0,0,0,1.39761.55607,17.038,17.038,0,0,0,2.29429.0375c.60027.00034.72.06151,1.2697.68257.00527.25867.01337.5173.015.776a1.348,1.348,0,0,0,.24733.72672,2.35777,2.35777,0,0,1-.02294,2.56973,1.25422,1.25422,0,0,0-.05915,1.11447,4.48561,4.48561,0,0,1,.56458,2.224c.01132.77831.02778,1.55681.01936,2.335a2.11154,2.11154,0,0,0,.29713,1.11075,1.66141,1.66141,0,0,1-.06828,1.82221,1.12944,1.12944,0,0,0-.15173.35709,2.38385,2.38385,0,0,0,.29713,1.86015c.14787.21285.31559.41183.47253.61846a2.038,2.038,0,0,1,.55707,1.40316c.06733,1.94566.00491,3.89142.01509,5.83708a2.70686,2.70686,0,0,0,.41026,1.47571,2.686,2.686,0,0,1,.37831,1.47886,18.298,18.298,0,0,1-.07954,2.3321c-.5501.49985-.656.72777-.59521,1.32074a2.03071,2.03071,0,0,0,.315,1.09452,2.20008,2.20008,0,0,1,.44974,1.44417c-.01452.38677-.029.77364-.0361,1.1606a3.113,3.113,0,0,1-.43471,1.46434,1.45233,1.45233,0,0,0-.17133.34593,1.971,1.971,0,0,0,.037,1.50067c.45948.77874.75845,1.63437,1.21329,2.4133a1.61956,1.61956,0,0,1,.18531.74177,34.33754,34.33754,0,0,1,.04215,3.86658,9.2487,9.2487,0,0,0,.02852,1.15986,1.21217,1.21217,0,0,0,.14548.35464,11.67037,11.67037,0,0,0,.88621,1.26054,2.07532,2.07532,0,0,1,.38463,1.07473c-.00119.77381.03252,1.54756.04132,2.32149q.03083,2.70918.04982,5.41853a2.17469,2.17469,0,0,0,.29365,1.1067A4.43493,4.43493,0,0,1,33.65493,102.97546Z"
          />
          <path
            id="Kirkos-Woreda-1"
        class="cls-1 pathHovered NaN-ri subcity Kirkos-Woreda-1-path"
         data-html="true"            d="M129.58715,43.47954q.06079.77094.12154,1.54189a1.62613,1.62613,0,0,0,.26884.713,2.31305,2.31305,0,0,1,.49026,1.43687,1.29193,1.29193,0,0,0,.23951.72155c.15988.20122.297.42342.47424.60737a3.81543,3.81543,0,0,1,.97486,1.63731c.56079.71711.69659,1.66336,1.27774,2.36948a3.86079,3.86079,0,0,0,.98959,1.63027,2.77779,2.77779,0,0,1,.77364,1.313,13.49355,13.49355,0,0,1,.877,1.70959c.18234.47253.52274.87348.69545,1.37033a3.63655,3.63655,0,0,0,.92812,1.22128,2.02527,2.02527,0,0,1,.56518,1.39162,1.737,1.737,0,0,0,.42017,1.05232,10.39065,10.39065,0,0,0,.79715.84254,2.746,2.746,0,0,0,1.281.82437.99416.99416,0,0,1,.33615.18077,4.15862,4.15862,0,0,1,.60361.48,2.64658,2.64658,0,0,0,2.05509.89487.833.833,0,0,1,.61906.40048,2.8248,2.8248,0,0,1,.18782.33787c-.01178.25966-.01812.51969-.03638.77889a2.82577,2.82577,0,0,0,.50018,1.83816,1.26521,1.26521,0,0,1,.22377.73349q.00108.58446.0267,1.16886a2.80751,2.80751,0,0,1-.46013,1.847,1.04691,1.04691,0,0,0-.18763.33823,3.58074,3.58074,0,0,1-1.02492,1.62574,2.91282,2.91282,0,0,0-.45036.63217.882.882,0,0,0,.29992,1.01427,7.20735,7.20735,0,0,1,.99165.59381,2.082,2.082,0,0,1,.82928,1.6717,3.35742,3.35742,0,0,1-.40158,1.86983,2.14065,2.14065,0,0,0-.33725,1.09957c-.02222.64883-.0637,1.297-.0997,1.9453a1.04361,1.04361,0,0,1-.7796.74334c-.38775.03178-.77589.09494-1.16306.08962a1.62392,1.62392,0,0,0-1.06155.41741,5.5227,5.5227,0,0,1-1.9284,1.2727,1.1376,1.1376,0,0,0-.40134.63877c-.04916.25481-.0637.51616-.10924.77183a1.40606,1.40606,0,0,1-.31427.69885c-.51878.58182-1.07261,1.13326-1.57579,1.72785a1.58907,1.58907,0,0,0-.39586,1.06987c.00572.25951-.00768.51942-.00758.77914a1.39254,1.39254,0,0,0,.166.74816c.34693.55044.53642,1.182.87258,1.72806.34369.55826.476,1.21136.84821,1.74154.37745.53757.50333,1.193.87683,1.7294a3.43707,3.43707,0,0,1,.34884,2.259c-.1071.23319-.20241.47289-.32629.69678a1.14146,1.14146,0,0,1-.26564.2833,3.78828,3.78828,0,0,1-.97247.62666c-.4084.17862-.46829.50014-.29677.89983a2.4837,2.4837,0,0,1,.3074,1.1114c-.07877,1.68834.09336,3.37879-.03256,5.06733-.5185-.01674-1.03685-.04227-1.55549-.0478a2.79244,2.79244,0,0,1-1.48434-.36549,16.33348,16.33348,0,0,1-2.04217-1.09964,4.40875,4.40875,0,0,1-1.94394-1.22979,1.89528,1.89528,0,0,0-1.43971-.44377c-.25882.016-.51807.02431-.77712.03607-.01922-.12786-.04592-.25515-.05632-.38372a2.11169,2.11169,0,0,0-.61333-1.37982c-.54906-.548-1.08839-1.10561-1.63172-1.65931-.90553-.92286-1.81507-1.84186-2.71273-2.77233a5.83582,5.83582,0,0,1-.4618-.62053,4.81608,4.81608,0,0,0-1.285-1.90182.98922.98922,0,0,1-.20975-.324,5.05178,5.05178,0,0,0-1.26209-1.9192,1.86024,1.86024,0,0,1-.40239-.65248c-.148-.51-.53175-.89416-.70236-1.37131a4.4208,4.4208,0,0,0-.99951-1.62994,3.0672,3.0672,0,0,1-.77488-1.31817,2.457,2.457,0,0,0-.38517-.66619,2.15563,2.15563,0,0,1-.32061-1.09687,1.82246,1.82246,0,0,0-.18925-.741,9.72943,9.72943,0,0,1-.6728-1.38792c-.169-.48009-.56441-.85532-.72252-1.362a5.23711,5.23711,0,0,0-1.14127-1.54332,1.7593,1.7593,0,0,1-.40005-1.06329,2.03117,2.03117,0,0,0-.564-1.39517c-.2633-.28287-.49966-.59133-.74041-.89442-.24542-.30893-.26177-.72462-.47524-1.04941a7.59793,7.59793,0,0,1-.683-1.38037c-.189-.47348-.55492-.85982-.70927-1.36845-.14924-.492-.56927-.8624-.71113-1.3648-.1439-.50981-.55125-.8803-.71656-1.36322a3.40946,3.40946,0,0,0-.783-1.31464,5.56884,5.56884,0,0,1-1.02083-1.61828,2.09447,2.09447,0,0,0-1.41682-1.21861,3.0984,3.0984,0,0,0-.51678-1.82879c-.21442-.31311-.28161-.727-.49608-1.04009-.36954-.53948-.51725-1.18273-.8702-1.72256-.42465-.64964-.61886-1.42047-1.09082-2.04353a4.35717,4.35717,0,0,0-1.24292-1.92869q-1.22941-1.23911-2.44256-2.49427a1.68469,1.68469,0,0,1-.36739-.67453,2.46353,2.46353,0,0,0-.61872-.9689q-2.86378-2.89872-5.72794-5.797c-.36305-.3682-.72548-.73886-1.06069-1.13183a2.47342,2.47342,0,0,1-.38808-.66275,3.03876,3.03876,0,0,0-.638-.96041c-.98678-1.02469-1.98157-2.04165-2.96782-3.06689a1.224,1.224,0,0,1-.30612-.69608c2.07111.00584,4.14237.02737,6.21324.00856a3.45037,3.45037,0,0,1,1.825.5271.96431.96431,0,0,0,1.09063-.00484c.10466-.07427.23426-.11315.34-.18627a1.23962,1.23962,0,0,1,1.43247.03307c.80353.44744.82022.44306,1.76161-.07641a2.34761,2.34761,0,0,1,1.10741-.28421,2.87017,2.87017,0,0,1,1.8544.39662c.52722.38093,1.19477.47608,1.7309.85215a1.87776,1.87776,0,0,0,1.10055.3002c1.16492-.00048,2.33.02105,3.49476.01233a2.49428,2.49428,0,0,1,1.4706.39054c.53829.36474,1.19911.46819,1.73715.84225a1.88115,1.88115,0,0,0,1.0975.30974c2.84761-.00591,5.69523-.00987,8.54275.0026a2.43524,2.43524,0,0,0,1.0861-.36388,4.417,4.417,0,0,1,.68939-.34174,3.5336,3.5336,0,0,0,1.03036-.52858,2.07537,2.07537,0,0,1,1.09883-.316,1.94935,1.94935,0,0,0,1.06817-.39256c.2088-.15113.39237-.33709.58677-.50808C128.485,43.59548,128.48651,43.59336,129.58715,43.47954Z"
          />
          <path
            id="Kirkos-Woreda-2"
        class="cls-1 pathHovered NaN-ri subcity Kirkos-Woreda-2-path"
         data-html="true"            d="M106.21941,68.50316a2.09447,2.09447,0,0,1,1.41682,1.21861,5.56884,5.56884,0,0,0,1.02083,1.61828,3.40946,3.40946,0,0,1,.783,1.31464c.16531.48292.57266.85341.71656,1.36322.14186.5024.56189.87277.71113,1.3648.15435.50863.52031.895.70927,1.36845a7.59793,7.59793,0,0,0,.683,1.38037c.21347.32479.22982.74048.47524,1.04941.24075.30309.47711.61155.74041.89442a2.03117,2.03117,0,0,1,.564,1.39517,1.7593,1.7593,0,0,0,.40005,1.06329,5.23711,5.23711,0,0,1,1.14127,1.54332c.15811.50665.55349.88188.72252,1.362a9.72943,9.72943,0,0,0,.6728,1.38792,1.82246,1.82246,0,0,1,.18925.741,2.15563,2.15563,0,0,0,.32061,1.09687,2.457,2.457,0,0,1,.38517.66619,3.0672,3.0672,0,0,0,.77488,1.31817,4.4208,4.4208,0,0,1,.99951,1.62994c.17061.47715.55435.86128.70236,1.37131a1.86024,1.86024,0,0,0,.40239.65248,5.05178,5.05178,0,0,1,1.26209,1.9192.98922.98922,0,0,0,.20975.324,4.81608,4.81608,0,0,1,1.285,1.90182,5.83582,5.83582,0,0,0,.4618.62053c.89766.93047,1.8072,1.84947,2.71273,2.77233.54333.5537,1.08266,1.11134,1.63172,1.65931A2.11169,2.11169,0,0,1,128.927,104.88c.0104.12857.0371.25586.05632.38372a2.70417,2.70417,0,0,1-.71638,1.76082,4.54562,4.54562,0,0,0-.50781.59085,2.11217,2.11217,0,0,0-.4247,1.06548,2.34593,2.34593,0,0,1-.33707,1.10329c-.42918.65305-.61042,1.428-1.02006,2.09514a2.11536,2.11536,0,0,0-.1965.74256,2.98855,2.98855,0,0,1-.36963,1.09468,22.43539,22.43539,0,0,1-1.052,2.07581c-.19445.62716-.62421,1.13755-.87373,1.73076a1.76546,1.76546,0,0,1-1.0459,1.05852,1.49345,1.49345,0,0,0-.32.21914,2.454,2.454,0,0,0-.97442,1.18218c-.20256.6336-.667,1.11206-.90982,1.716a.9356.9356,0,0,1-.52017.54934,2.29625,2.29625,0,0,1-1.15309.041.98748.98748,0,0,1-.33869-.18824,16.23922,16.23922,0,0,1-1.45906-1.28656,4.11193,4.11193,0,0,0-1.31278-.81124c-.60766-.21616-1.10675-.67336-1.735-.8639q-.61645-.477-1.23272-.95428a2.32727,2.32727,0,0,0-1.44348-.49008c-.64962-.00779-1.29938-.01642-1.949-.01394a1.94927,1.94927,0,0,0-1.10817.30192c-.64691.43929-1.43452.6084-2.056,1.09161a5.45641,5.45641,0,0,0-1.634,1.02449c-.38346.351-.762.70748-1.14556,1.05842a4.8051,4.8051,0,0,1-1.87981,1.3438c-.30784.23841-.61281.48059-.92422.71413-.31055.23288-.6275.45718-.94158.68524a3.97381,3.97381,0,0,0-1.594,1.08,7.07625,7.07625,0,0,1-1.17641,1.015,1.27255,1.27255,0,0,1-.3457.16365.63108.63108,0,0,1-.68-.25024.82676.82676,0,0,1-.17184-.71523c.42355-.656.66163-1.40533,1.04719-2.08074a2.44548,2.44548,0,0,0,.3424-1.10007,3.28494,3.28494,0,0,1,.54124-1.44055.90567.90567,0,0,0,.15458-.35537,24.97275,24.97275,0,0,0,.08073-3.88451,1.06757,1.06757,0,0,0-.70121-.82948,2.50251,2.50251,0,0,0-.37759-.09522,3.5133,3.5133,0,0,1-1.44844-.53091,2.19892,2.19892,0,0,0-1.1263-.21953,1.1085,1.1085,0,0,0-.73172.22015,6.924,6.924,0,0,0-.617.47136,8.09337,8.09337,0,0,1-1.62429,1.04538c-.44168.26015-.77712.69782-1.21369.97006-.658.41036-1.41373.63985-2.09162,1.02309a.98819.98819,0,0,1-.37636.07567c-.25838.02663-.51768.05269-.77707.06042a3.01292,3.01292,0,0,0-1.47556.42291,2.24331,2.24331,0,0,1-1.10012.346c-.12965.00255-.25915.02274-.38866.0221q-4.09339-.02071-8.18671-.04826a7.50679,7.50679,0,0,1-.77469-.08368,4.86073,4.86073,0,0,1-.24456-.73006c-.10933-.63436-.1965-1.27318-.27107-1.91271a6.65321,6.65321,0,0,0-.38508-1.49159,4.0121,4.0121,0,0,1-.21233-1.13512,27.12684,27.12684,0,0,1,.03414-3.09,3.5043,3.5043,0,0,1,.28447-1.116,7.974,7.974,0,0,1,.85628-1.723c.38727-.53852.34235-1.235.64542-1.80569a7.934,7.934,0,0,0,.7797-1.7608,3.56073,3.56073,0,0,0,.16745-.75206q.03792-1.54515.0207-3.09137a3.32123,3.32123,0,0,0-.15034-.75612c-.126-.49853-.26321-.99428-.39576-1.49118a2.70138,2.70138,0,0,0-.40969-1.84441,1.86573,1.86573,0,0,1-.31875-1.09475c-.00148-.51735-.02494-1.03472-.02117-1.55195a1.2424,1.2424,0,0,0-.18238-.73981c-.36778-.53595-.50014-1.1921-.85819-1.72473-.43581-.64833-.59378-1.43065-1.05262-2.0612a1.25748,1.25748,0,0,1-.22506-.73,2.81,2.81,0,0,0-.46018-1.45437,1.98282,1.98282,0,0,1-.32152-1.09528c.004-1.682-.00272-3.36391-.00553-5.04587q2.5269.01884,5.05376.03707a2.14966,2.14966,0,0,1,1.10112.31814,2.72658,2.72658,0,0,0,1.47128.4133c.77722-.01263,1.55472-.01132,2.332-.02055a1.44771,1.44771,0,0,0,.73106-.22591c.11091-.06635.23607-.10972.34426-.17977a1.28144,1.28144,0,0,1,1.44338.05689,2.13905,2.13905,0,0,0,1.0821.381c.90672-.00589,1.81454.00531,2.71992.0502a1.43909,1.43909,0,0,1,.7117.27027,7.00836,7.00836,0,0,1,1.385,1.35233,1.36591,1.36591,0,0,1,.31585.69463,2.33817,2.33817,0,0,0,.96,2.033c.61958.66211,1.25456,1.31025,1.86164,1.98354a2.06836,2.06836,0,0,1,.38275.669.95678.95678,0,0,0,.46852.5903,1.55873,1.55873,0,0,0,1.12158.097,1.07922,1.07922,0,0,0,.60327-.444c.133-.21771.17194-.495.31289-.70555a3.44431,3.44431,0,0,0,.62768-1.80331,1.47265,1.47265,0,0,1,.265-.718,3.09212,3.09212,0,0,0,.50309-1.04175,2.65243,2.65243,0,0,1,1.67521-1.50036,1.08049,1.08049,0,0,0,.33611-.18661,15.7588,15.7588,0,0,0,2.25226-2.13417,1.18423,1.18423,0,0,0,.21018-.32469c.25458-.59235.5658-1.15791.83162-1.743a4.49626,4.49626,0,0,0,.15712-1.53066,1.86975,1.86975,0,0,1,.19468-.74141c.06089-.11441.12979-.22458.189-.33978a2.37442,2.37442,0,0,0,.3578-1.08963c.00072-.77727.0339-1.55455.03228-2.33179a1.84789,1.84789,0,0,1,.32019-1.09583c.30721-.43028.35947-.97517.67317-1.3891.31217-.41185.6603-.79633.98769-1.19686a1.704,1.704,0,0,0,.208-.32059A3.34168,3.34168,0,0,0,106.21941,68.50316Z"
          />
          <path
            id="Kirkos-Woreda-7"
        class="cls-1 pathHovered NaN-ri subcity Kirkos-Woreda-7-path"
         data-html="true"            d="M83.4691.50018q1.16883.0432,2.3377.08587A1.54754,1.54754,0,0,1,86.53171.837a2.21181,2.21181,0,0,0,1.45325.475,7.55921,7.55921,0,0,0,.77932.02541,1.5132,1.5132,0,0,1,1.05468.431,12.62731,12.62731,0,0,1,1.11137,1.09079,1.85229,1.85229,0,0,1,.33611,1.82689,3.384,3.384,0,0,1-.34832.68943,2.37828,2.37828,0,0,0-.30163,1.10923c-.00334,1.95045-.02013,3.90093-.02313,5.85139a2.66048,2.66048,0,0,1-.38465,1.48145,2.66815,2.66815,0,0,0-.3817,1.48208c-.00386,1.17023-.01964,2.34044-.029,3.51066a2.07318,2.07318,0,0,1-.30549,1.10662,2.6379,2.6379,0,0,0-.44812,1.46553c.002.12991-.00939.26-.00873.39a2.70492,2.70492,0,0,1-.40811,1.475,2.0679,2.0679,0,0,0-.348,1.094c-.00467,1.30007-.02737,2.60007-.04091,3.9001a2.15625,2.15625,0,0,1-.32123,1.1031,2.80252,2.80252,0,0,0-.4288,1.471c-.00086,2.21063-.01679,4.42126-.017,6.6319a2.65954,2.65954,0,0,1-.44616,1.46369,2.09768,2.09768,0,0,0-.3107,1.10615c-.02374.90984-.02627,1.82019-.03738,2.73036-.513.002-1.026.01059-1.53884.00465-1.41034-.01633-2.82058-.04169-4.23092-.05693a2.48121,2.48121,0,0,1-1.09611-.29255,2.85451,2.85451,0,0,0-1.4419-.4537c-.256-.01549-.51277-.02887-.76887-.02431a1.45455,1.45455,0,0,1-.73359-.19138,3.07746,3.07746,0,0,0-1.80257-.5327,4.53685,4.53685,0,0,1-1.03436-.5198,1.95556,1.95556,0,0,0-1.09965-.31041c-.7774.01118-1.55538-.02229-2.33312-.02494a2.08812,2.08812,0,0,1-1.0861-.36613,2.77295,2.77295,0,0,0-1.47829-.3809c-.77779-.00315-1.55557-.01862-2.33312-.03984a.96657.96657,0,0,1-.36615-.10154,6.427,6.427,0,0,1-.68925-.35926,1.12559,1.12559,0,0,0-1.09911-.05188c-1.15467.51082-1.2.5359-1.82422.53886q-2.91742.0138-5.83484.0266a2.14929,2.14929,0,0,0-1.1016.315,2.80119,2.80119,0,0,1-1.46427.4385c-1.03737-.005-2.07478.00353-3.1122.00534-2.46382.00437-4.92765.01259-7.39147.00859a2.65539,2.65539,0,0,0-1.47084.40863,2.149,2.149,0,0,1-1.09311.34458c-.51816.01826-1.03694.03669-1.55506.02849a1.78241,1.78241,0,0,0-1.08352.35091,9.67982,9.67982,0,0,0-.87983.76518c-.39228.3599-.9504.40184-1.36184.71423-.41219.313-.7878.67532-1.20872.97495a1.43536,1.43536,0,0,1-.711.27233c-.90579.04733-1.81411.05949-2.72143.0583a1.95071,1.95071,0,0,0-1.073.4,2.22586,2.22586,0,0,1-1.09368.34133c-.38732.02571-.77764.0067-1.16663.0073-.54966-.62106-.66943-.68223-1.2697-.68257a17.038,17.038,0,0,1-2.29429-.0375,2.77483,2.77483,0,0,1-1.39761-.55607c-.10011-.07915-.20305-.15468-.30376-.23307s-.20029-.15835-.30039-.23757q.0076-.26889.01452-.53783c.12933-.01235.25939-.01957.38786-.03791a1.82547,1.82547,0,0,0,1.37975-.621c.2962-.252.58864-.51013.901-.74081s.74022-.23612,1.04045-.50181c.29131-.25781.58651-.51141.87344-.774.28745-.26311.55594-.54789.85343-.79863a1.91243,1.91243,0,0,1,.64795-.41531,3.12546,3.12546,0,0,0,1.30043-.81936c.6577-.62795,1.30055-1.27159,1.96548-1.89167a1.71852,1.71852,0,0,1,.64742-.41638,3.48641,3.48641,0,0,0,1.3083-.80833c.294-.25369.61054-.48125.91707-.72042.653-.12856,1.12968-.63007,1.74127-.8316a2.733,2.733,0,0,0,.99658-.58167c.48144-.43579.93724-.9,1.42173-1.33217a1.88462,1.88462,0,0,1,.64924-.41354A2.97368,2.97368,0,0,0,39.89,30.49884c.30082-.2468.59278-.50469.8845-.76234.30106-.2659.71361-.29465,1.04252-.49918a2.37139,2.37139,0,0,0,.32132-.21972c.19493-.17151.38351-.35085.56666-.535a3.65079,3.65079,0,0,0,1.09139-1.57827,2.01957,2.01957,0,0,1,.415-.64893c.24146-.30493.50967-.58859.76014-.8866.33969-.40406.37111-.9622.69254-1.38125a4.15485,4.15485,0,0,0,.49846-1.046,10.87109,10.87109,0,0,1,.58172-1.00933c.11921-.22654.15268-.50331.29134-.71351a2.18727,2.18727,0,0,1,1.88782-1.16645c1.429.00685,2.85825-.00331,4.28723-.0154a3.73628,3.73628,0,0,0,.76783-.08342c.11539-.02544.212-.14433.31284-.22615a.86.86,0,0,0,.31823-.66793,1.75941,1.75941,0,0,0-.20847-1.11891,2.50287,2.50287,0,0,1-.4956-1.44259,1.34769,1.34769,0,0,1,.48745-.99667,3.4841,3.4841,0,0,0,1.31774-.80347,3.59392,3.59392,0,0,1,1.63654-1.00413,1.3506,1.3506,0,0,0,.33124-.20167,2.31871,2.31871,0,0,1,1.44968-.47911,1.52074,1.52074,0,0,0,.7333-.22532,5.2081,5.2081,0,0,1,1.39518-.6671,15.41781,15.41781,0,0,1,1.71679-.88924c.453-.25243.92407-.456,1.3843-.68627A2.31639,2.31639,0,0,0,65.62193,9.1437c.12893-.00968.25843-.01447.3867-.03a1.75236,1.75236,0,0,0,1.06927-.38217c.65591-.623,1.31216-1.24576,1.959-1.878a4.41329,4.41329,0,0,1,1.62424-1.01174c.35738-.12859.65138-.43085,1.00762-.566a3.17563,3.17563,0,0,0,1.00513-.55886,5.18855,5.18855,0,0,1,1.9285-1.24939c.20451-.1574.42017-.30242.61138-.47462a3.66856,3.66856,0,0,1,1.62738-1.00261A14.67385,14.67385,0,0,1,78.89487.92443,2.28669,2.28669,0,0,1,79.97907.557C81.14241.55608,82.30576.52147,83.4691.50018Z"
          />
          <path
            id="Kirkos-Woreda-11"
        class="cls-1 pathHovered NaN-ri subcity Kirkos-Woreda-11-path"
         data-html="true"            d="M71.86307,80.98468c.00281,1.682.00954,3.36391.00553,5.04587a1.98282,1.98282,0,0,0,.32152,1.09528,2.81,2.81,0,0,1,.46018,1.45437,1.25748,1.25748,0,0,0,.22506.73c.45884.63055.61681,1.41287,1.05262,2.0612.358.53263.49041,1.18878.85819,1.72473a1.2424,1.2424,0,0,1,.18238.73981c-.00377.51723.01969,1.0346.02117,1.55195a1.86573,1.86573,0,0,0,.31875,1.09475,2.70138,2.70138,0,0,1,.40969,1.84441c-.51807-.00548-1.03637-.02184-1.5542-.0139a15.202,15.202,0,0,1-2.32678-.10993c-1.15853-.16059-2.32579-.13839-3.48961-.19506a31.20112,31.20112,0,0,0-5.02634.41178,3.77479,3.77479,0,0,0-.74785.20188,6.23652,6.23652,0,0,1-1.91262.27761,5.26344,5.26344,0,0,1-2.63362-.52136,3.69185,3.69185,0,0,0-1.5047-.34681c-.38713-.02661-.77683-.0231-1.16534-.02a3.89816,3.89816,0,0,0-1.86652.45129,5.13042,5.13042,0,0,1-2.2246.62084,3.22466,3.22466,0,0,0-1.11695.30176c-.712.30967-1.4316.60177-2.14678.90424a2.0293,2.0293,0,0,1-.75428.16832c-.7767.01618-1.55363.02365-2.32994.05109-.64671.02284-1.29308.062-1.93856.1085a2.53476,2.53476,0,0,0-.76477.12428,20.28194,20.28194,0,0,0-2.5393.95462,3.93606,3.93606,0,0,1-.69353.34033,11.14466,11.14466,0,0,1-3.39165.77655c-.64561.00731-1.29022.10525-1.93529.16235a4.43493,4.43493,0,0,0-.52982-1.83945,2.17469,2.17469,0,0,1-.29365-1.1067q-.01863-2.70931-.04982-5.41853c-.0088-.77393-.04251-1.54768-.04132-2.32149a2.07532,2.07532,0,0,0-.38463-1.07473,11.67037,11.67037,0,0,1-.88621-1.26054,1.21217,1.21217,0,0,1-.14548-.35464,9.2487,9.2487,0,0,1-.02852-1.15986,34.33754,34.33754,0,0,0-.04215-3.86658,1.61956,1.61956,0,0,0-.18531-.74177c-.45484-.77893-.75381-1.63456-1.21329-2.4133a1.971,1.971,0,0,1-.037-1.50067,1.45233,1.45233,0,0,1,.17133-.34593,3.113,3.113,0,0,0,.43471-1.46434c.00706-.387.02158-.77383.0361-1.1606a2.20008,2.20008,0,0,0-.44974-1.44417,2.03071,2.03071,0,0,1-.315-1.09452c-.06079-.593.04511-.82089.59521-1.32074a1.26929,1.26929,0,0,0,.74539-.16274,3.66189,3.66189,0,0,1,1.82458-.59683,1.99317,1.99317,0,0,0,.71477-.29013,1.94839,1.94839,0,0,1,1.47753-.38755c2.99347-.0335,5.98718-.04185,8.9808-.06235a2.24554,2.24554,0,0,0,1.116-.28735,2.97492,2.97492,0,0,1,1.47385-.4382c.91111-.00522,1.82212-.02916,2.73318-.03209a2.79651,2.79651,0,0,0,1.47761-.4201,2.27162,2.27162,0,0,1,1.10513-.3271c.51992-.02174,1.04037-.03245,1.56025-.05562a2.26121,2.26121,0,0,0,1.10069-.33871,2.71864,2.71864,0,0,1,1.47847-.41274c.78094.00694,1.56207.00284,2.343-.00467q1.56135-.015,3.12255-.04484a1.497,1.497,0,0,0,.73-.2423,2.84277,2.84277,0,0,1,1.4636-.47057,3.52674,3.52674,0,0,0,2.21607-.5951,2.14,2.14,0,0,1,1.51443-.047,5.569,5.569,0,0,1,.69472.35461,1.015,1.015,0,0,0,1.101.01509,3.237,3.237,0,0,1,1.84367-.507c.51935.02977,1.04066.02667,1.56106.03821q-.01416,3.24762-.02971,6.49524c-.00386.63646-.01921,1.273-.04005,1.90916a1.3839,1.3839,0,0,1-.24642.70966,3.07617,3.07617,0,0,0-.4876,1.80643C71.88248,79.456,71.86521,80.2205,71.86307,80.98468Z"
          />
          <path
            id="Kirkos-Woreda-10"
        class="cls-1 pathHovered NaN-ri subcity Kirkos-Woreda-10-path"
         data-html="true"            d="M72.66861,67.77181c-.5204-.01154-1.04171-.00844-1.56106-.03821a3.237,3.237,0,0,0-1.84367.507,1.015,1.015,0,0,1-1.101-.01509,5.569,5.569,0,0,0-.69472-.35461,2.14,2.14,0,0,0-1.51443.047,3.52674,3.52674,0,0,1-2.21607.5951,2.84277,2.84277,0,0,0-1.4636.47057,1.497,1.497,0,0,1-.73.2423q-1.56106.03114-3.12255.04484c-.78093.00751-1.56206.01161-2.343.00467a2.71864,2.71864,0,0,0-1.47847.41274,2.26121,2.26121,0,0,1-1.10069.33871c-.51988.02317-1.04033.03388-1.56025.05562a2.27162,2.27162,0,0,0-1.10513.3271,2.79651,2.79651,0,0,1-1.47761.4201c-.91106.00293-1.82207.02687-2.73318.03209a2.97492,2.97492,0,0,0-1.47385.4382,2.24554,2.24554,0,0,1-1.116.28735c-2.99362.0205-5.98733.02885-8.9808.06235a1.94839,1.94839,0,0,0-1.47753.38755,1.99317,1.99317,0,0,1-.71477.29013,3.66189,3.66189,0,0,0-1.82458.59683,1.26929,1.26929,0,0,1-.74539.16274,18.298,18.298,0,0,0,.07954-2.3321,2.686,2.686,0,0,0-.37831-1.47886,2.70686,2.70686,0,0,1-.41026-1.47571c-.01018-1.94566.05224-3.89142-.01509-5.83708A2.038,2.038,0,0,0,29.00913,60.56c-.15694-.20663-.32466-.40561-.47253-.61846a2.38385,2.38385,0,0,1-.29713-1.86015,1.12944,1.12944,0,0,1,.15173-.35709,1.66141,1.66141,0,0,0,.06828-1.82221,2.11154,2.11154,0,0,1-.29713-1.11075c.00842-.7782-.008-1.5567-.01936-2.335a4.48561,4.48561,0,0,0-.56458-2.224,1.25422,1.25422,0,0,1,.05915-1.11447,2.35777,2.35777,0,0,0,.02294-2.56973,1.348,1.348,0,0,1-.24733-.72672c-.00167-.2587-.00977-.51733-.015-.776.389-.0006.77931.01841,1.16663-.0073a2.22586,2.22586,0,0,0,1.09368-.34133,1.95071,1.95071,0,0,1,1.073-.4c.90732.00119,1.81564-.011,2.72143-.0583a1.43536,1.43536,0,0,0,.711-.27233c.42092-.29963.79653-.662,1.20872-.97495.41144-.31239.96956-.35433,1.36184-.71423a9.67982,9.67982,0,0,1,.87983-.76518,1.78241,1.78241,0,0,1,1.08352-.35091c.51812.0082,1.0369-.01023,1.55506-.02849a2.149,2.149,0,0,0,1.09311-.34458,2.65539,2.65539,0,0,1,1.47084-.40863c2.46382.004,4.92765-.00422,7.39147-.00859,1.03742-.00181,2.07483-.01034,3.1122-.00534a2.80119,2.80119,0,0,0,1.46427-.4385,2.14929,2.14929,0,0,1,1.1016-.315q2.91741-.01351,5.83484-.0266c.6242-.003.66955-.028,1.82422-.53886a1.12559,1.12559,0,0,1,1.09911.05188,6.427,6.427,0,0,0,.68925.35926.96657.96657,0,0,0,.36615.10154c.77755.02122,1.55533.03669,2.33312.03984a2.77295,2.77295,0,0,1,1.47829.3809,2.08812,2.08812,0,0,0,1.0861.36613c.77774.00265,1.55572.03612,2.33312.02494a1.95556,1.95556,0,0,1,1.09965.31041,4.53685,4.53685,0,0,0,1.03436.5198c-.05169.51141-.10809,1.02242-.15311,1.53441a1.81258,1.81258,0,0,1-.25958.71549A2.27889,2.27889,0,0,0,74.23,44.9032c-.01878,1.41428-.04629,2.82845-.057,4.24277a3.00428,3.00428,0,0,1-.39161,1.46794,2.294,2.294,0,0,0-.32872,1.09139c-.00834.64254-.02741,1.285-.02765,1.92752-.00072,2.44311.01187,4.88621.00386,7.32929q-.00566,1.73539-.07572,3.4703a2.14611,2.14611,0,0,1-.22344.72636,3.29233,3.29233,0,0,0-.43066,1.45618C72.68263,67.0003,72.67829,67.38619,72.66861,67.77181Z"
          />
          <path
            id="Kirkos-Woreda-9"
        class="cls-1 pathHovered NaN-ri subcity Kirkos-Woreda-9-path"
         data-html="true"            d="M72.66861,67.77181c.00968-.38562.014-.77151.03042-1.15686a3.29233,3.29233,0,0,1,.43066-1.45618,2.14611,2.14611,0,0,0,.22344-.72636q.06746-1.734.07572-3.4703c.008-2.44308-.00458-4.88618-.00386-7.32929.00024-.64251.01931-1.285.02765-1.92752a2.294,2.294,0,0,1,.32872-1.09139A3.00428,3.00428,0,0,0,74.173,49.146c.01069-1.41432.0382-2.82849.057-4.24277a2.27889,2.27889,0,0,1,.42194-1.45234,1.81258,1.81258,0,0,0,.25958-.71549c.045-.512.10142-1.023.15311-1.53441a3.07746,3.07746,0,0,1,1.80257.5327,1.45455,1.45455,0,0,0,.73359.19138c.2561-.00456.51291.00882.76887.02431a2.85451,2.85451,0,0,1,1.4419.4537,2.48121,2.48121,0,0,0,1.09611.29255c1.41034.01524,2.82058.0406,4.23092.05693.51287.00594,1.02588-.00267,1.53884-.00465a.966.966,0,0,0,.80788.739,1.224,1.224,0,0,0,.30612.69608c.98625,1.02524,1.981,2.0422,2.96782,3.06689a3.03876,3.03876,0,0,1,.638.96041,2.47342,2.47342,0,0,0,.38808.66275c.33521.393.69764.76363,1.06069,1.13183q2.86105,2.90133,5.72794,5.797a2.46353,2.46353,0,0,1,.61872.9689,1.68469,1.68469,0,0,0,.36739.67453q1.21482,1.25344,2.44256,2.49427a4.35717,4.35717,0,0,1,1.24292,1.92869c.472.62306.66617,1.39389,1.09082,2.04353.353.53983.50066,1.18308.8702,1.72256.21447.313.28166.727.49608,1.04009a3.0984,3.0984,0,0,1,.51678,1.82879,3.34168,3.34168,0,0,1-.13313.36491,1.704,1.704,0,0,1-.208.32059c-.32739.40053-.67552.785-.98769,1.19686-.3137.41393-.366.95882-.67317,1.3891a1.84789,1.84789,0,0,0-.32019,1.09583c.00162.77724-.03156,1.55452-.03228,2.33179a2.37442,2.37442,0,0,1-.3578,1.08963c-.05918.1152-.12808.22537-.189.33978a1.86975,1.86975,0,0,0-.19468.74141,4.49626,4.49626,0,0,1-.15712,1.53066c-.26582.58508-.577,1.15064-.83162,1.743a1.18423,1.18423,0,0,1-.21018.32469,15.7588,15.7588,0,0,1-2.25226,2.13417,1.08049,1.08049,0,0,1-.33611.18661A2.65243,2.65243,0,0,0,97.661,84.79254a3.09212,3.09212,0,0,1-.50309,1.04175,1.47265,1.47265,0,0,0-.265.718,3.44431,3.44431,0,0,1-.62768,1.80331c-.141.21052-.17986.48784-.31289.70555a1.07922,1.07922,0,0,1-.60327.444,1.55873,1.55873,0,0,1-1.12158-.097.95678.95678,0,0,1-.46852-.5903,2.06836,2.06836,0,0,0-.38275-.669c-.60708-.67329-1.24206-1.32143-1.86164-1.98354a2.33817,2.33817,0,0,1-.96-2.033,1.36591,1.36591,0,0,0-.31585-.69463,7.00836,7.00836,0,0,0-1.385-1.35233,1.43909,1.43909,0,0,0-.7117-.27027c-.90538-.04489-1.8132-.05609-2.71992-.0502a2.13905,2.13905,0,0,1-1.0821-.381,1.28144,1.28144,0,0,0-1.44338-.05689c-.10819.07-.23335.11342-.34426.17977a1.44771,1.44771,0,0,1-.73106.22591c-.77731.00923-1.55481.00792-2.332.02055a2.72658,2.72658,0,0,1-1.47128-.4133,2.14966,2.14966,0,0,0-1.10112-.31814q-2.5269-.01648-5.05376-.03707c.00214-.76418.01941-1.52868.00176-2.29238a3.07617,3.07617,0,0,1,.4876-1.80643,1.3839,1.3839,0,0,0,.24642-.70966c.02084-.63614.03619-1.2727.04005-1.90916Q72.65858,71.01948,72.66861,67.77181Z"
          />
        </g>
        <path
          id="kirkos_bound"
          class="cls-2"
          d="M148.8427,23.175a1.95656,1.95656,0,0,1-1.09808-.321,6.71128,6.71128,0,0,0-1.39618-.66229,3.18627,3.18627,0,0,0-2.203-.57721,1.11349,1.11349,0,0,1-.38624-.03308,2.09858,2.09858,0,0,1-.692-.3263q-1.00809-.91506-1.9596-1.89178a1.96836,1.96836,0,0,1-.56256-1.005,2.18687,2.18687,0,0,0-2.11261-1.41693c-.12982.00189-.25964-.00024-.38946.00049a1.86155,1.86155,0,0,0-1.42633.49445c-.30091.24633-.57862.525-.898.74347a3.62523,3.62523,0,0,1-.70679.29516q-2.14115.007-4.28229.01508a1.35237,1.35237,0,0,1-.73681-.20874,8.6322,8.6322,0,0,0-1.3949-.66693c-.478-.18793-.86878-.54932-1.36176-.74048a1.2665,1.2665,0,0,1-.72668-.84912,1.9656,1.9656,0,0,0-.41406-.65088,18.04513,18.04513,0,0,0-1.923-1.92829,1.84034,1.84034,0,0,0-.666-.38671,2.31713,2.31713,0,0,1-.98249-.59809,1.86171,1.86171,0,0,1-.65686-1.355c-.00232-.25946-.02588-.51868-.02838-.77814a2.09611,2.09611,0,0,0-.89691-1.637,1.71693,1.71693,0,0,0-.67859-.36469,4.57235,4.57235,0,0,1-1.03918-.519,1.58132,1.58132,0,0,0-.7356-.21508c-2.20666-.0113-4.41321-.03077-6.61987-.02649a3.24445,3.24445,0,0,1-1.8429-.473c-.5412-.34845-1.18841-.49108-1.73157-.86029-.42327-.28772-.9682-.35766-1.38684-.67749a1.89819,1.89819,0,0,0-1.09582-.3327,1.71061,1.71061,0,0,1-1.06775-.39789c-.58417-.51391-1.14325-1.0578-1.69452-1.60748a4.391,4.391,0,0,0-1.904-1.28619.89244.89244,0,0,1-.32392-.21228c-.11358-.1009-.93389-.93256-1.045-1.03559L90.84026,2.76341c.00806.00776.01312.01593.02093.02369A11.99392,11.99392,0,0,0,89.819,1.76842a1.51333,1.51333,0,0,0-1.05469-.431A7.54756,7.54756,0,0,1,87.985,1.312,2.21183,2.21183,0,0,1,86.53173.837a1.54748,1.54748,0,0,0-.72492-.25091Q84.63788.545,83.4691.50017c-1.16333.0213-2.32672.05591-3.49.05676a2.28614,2.28614,0,0,0-1.08416.36749,14.67017,14.67017,0,0,0-2.05372,1.06586,3.6681,3.6681,0,0,0-1.62738,1.00263c-.19122.17218-.40686.3172-.61138.47461a5.18837,5.18837,0,0,0-1.92853,1.24939,3.17521,3.17521,0,0,1-1.00513.55883c-.3562.13513-.65021.43744-1.00763.566A4.41263,4.41263,0,0,0,69.03691,6.8535c-.64685.63226-1.3031,1.25507-1.959,1.87805a1.75219,1.75219,0,0,1-1.06921.38214c-.1283.01551-.25782.02033-.38672.03a2.31645,2.31645,0,0,1-1.26422,1.40125c-.46027.23028-.93128.43384-1.38434.68628a15.42042,15.42042,0,0,0-1.7168.88922,5.20821,5.20821,0,0,0-1.39514.66711,1.52118,1.52118,0,0,1-.73334.22534,2.31847,2.31847,0,0,0-1.44964.47907,1.353,1.353,0,0,1-.33124.20172,3.59369,3.59369,0,0,0-1.63654,1.00409,3.48409,3.48409,0,0,1-1.31775.80347,1.34793,1.34793,0,0,0-.48749.9967,2.50353,2.50353,0,0,0,.49561,1.44257,1.75927,1.75927,0,0,1,.2085,1.11889.86.86,0,0,1-.31824.668c-.10083.08179-.19745.20069-.31287.22614a3.738,3.738,0,0,1-.76782.08343c-1.429.01209-2.85815.02222-4.28723.01538a2.18736,2.18736,0,0,0-1.88782,1.16645c-.13861.2102-.17212.487-.29132.7135a10.88646,10.88646,0,0,0-.58172,1.00934,4.15374,4.15374,0,0,1-.49848,1.046c-.32141.41907-.35284.97724-.6925,1.38129-.25049.298-.51868.58167-.76014.8866a2.019,2.019,0,0,0-.415.64892A3.65083,3.65083,0,0,1,42.705,28.48259c-.18311.18414-.37171.36347-.56665.535a2.3684,2.3684,0,0,1-.32129.21973c-.32892.20453-.74146.23328-1.04255.49921-.29174.25763-.58367.5155-.88452.76233a2.9727,2.9727,0,0,1-1.01172.55737,1.88421,1.88421,0,0,0-.64923.41357c-.48449.43219-.9403.89637-1.42175,1.33216a2.73306,2.73306,0,0,1-.99652.58166c-.61163.20154-1.08832.70307-1.74127.83161-.30658.23913-.62311.46673-.91712.72039a3.48649,3.48649,0,0,1-1.30829.80835,1.71844,1.71844,0,0,0-.6474.41639c-.66491.62-1.3078,1.26373-1.96551,1.89166a3.125,3.125,0,0,1-1.30042.81933,1.91288,1.91288,0,0,0-.64794.41535c-.29749.25073-.566.53552-.85346.79864-.28693.26258-.58209.51618-.87341.774-.30023.26569-.72809.27118-1.04047.50183-.31232.23071-.6048.48889-.901.74078a1.82518,1.82518,0,0,1-1.3797.621c-.12848.01837-.25854.02557-.38788.0379q-.007.269-.01452.53784a2.626,2.626,0,0,0-1.60944.74292,6.474,6.474,0,0,1-.80731.72846,4.794,4.794,0,0,1-.62506.3573c-.03083.64624-.0658,1.29229-.091,1.93878a2.4065,2.4065,0,0,1-.32538,1.09991,2.8123,2.8123,0,0,0-.38549,1.08283,2.17055,2.17055,0,0,1-.326,1.10064c-.3869.52546-.50928,1.18824-.89313,1.712-.3111.42444-.361.97156-.66455,1.39185-.38434.53234-.48938,1.19543-.84229,1.73712a3.13874,3.13874,0,0,0-.46282,1.45892,1.68836,1.68836,0,0,1-.26252.72076,5.61313,5.61313,0,0,0-.52411,1.03418,10.18779,10.18779,0,0,1-.53295,1.02851c-.11213.23059-.173.48626-.28663.71588-.17187.34717-.39453.67078-.54773,1.02515a2.87214,2.87214,0,0,0-.16436.75109,1.66775,1.66775,0,0,1-.21472.73529c-.36854.53907-.496,1.19617-.84552,1.735-.3556.5481-.487,1.19733-.851,1.73334a2.94839,2.94839,0,0,0-.47235,1.45434,1.38588,1.38588,0,0,1-.25561.72223c-.385.52893-.46845,1.2049-.83954,1.73761-.37219.53436-.51795,1.17511-.8645,1.72681-.40943.65173-.67072,1.39-1.077,2.04889-.13751.64721-.65588,1.10882-.83984,1.73663-.18231.62238-.69593,1.09137-.82886,1.7403a8.85783,8.85783,0,0,0-.85339,1.73016c-.36982.534-.55616,1.16522-.88221,1.7149-.33172.55939-.49243,1.19855-.85858,1.728-.37268.53876-.49664,1.18921-.85333,1.73224a2.00788,2.00788,0,0,0-.36444,1.08319c-.01355.90576-.042,1.81122-.06445,2.71686.04083.25256.07409.50659.12414.75732.0846.42383.13971.522.7237.80329a2.88979,2.88979,0,0,1,1.16461.95684,1.275,1.275,0,0,1,.14911,1.0868,3.91668,3.91668,0,0,0-.55823,2.19677,1.946,1.946,0,0,1-.30029,1.09485c-.36084.534-.51581,1.16455-.84455,1.71582-.32562.54608-.57782,1.1355-.87945,1.6966a2.69283,2.69283,0,0,0-.3219,1.09015A8.54232,8.54232,0,0,1,.52556,101.298a6.51507,6.51507,0,0,0,.39038,1.09436,6.45277,6.45277,0,0,0,.73047.90234c.083.09949.17426.19269.24988.29731a3.17751,3.17751,0,0,1,.52942,1.02643,4.62973,4.62973,0,0,0,.32678.69879,2.43612,2.43612,0,0,1,.30408,1.10675c-.01062.38794.00378.77679.01593,1.165.012.38806.04291.77563.05011,1.16375a1.653,1.653,0,0,0,.19.7439,12.07564,12.07564,0,0,1,.66046,1.39917c.17536.48224.55286.869.71509,1.37183a2.4427,2.4427,0,0,0,.62592.96844c.55029.548,1.09362,1.10352,1.65869,1.63593a4.34986,4.34986,0,0,0,.6438.42535c.77722.16247,1.33813.7735,2.08227,1.00464.40637.32019.80689.64837,1.22168.95733a2.44532,2.44532,0,0,0,.66089.39563c.50207.16437.8927.53882,1.37146.71351.61511.22436,1.12512.63873,1.72687.86456a4.00676,4.00676,0,0,1,1.00482.57043c.41339.31049.82239.62677,1.23321.94062a4.87836,4.87836,0,0,1,1.89026,1.31579c.2898.25818.58063.51526.87567.76746a1.05771,1.05771,0,0,0,.31794.22046,6.92584,6.92584,0,0,1,2.41546,1.90112c.18793.178.36762.36481.55.54877.18231.18383.35364.37994.54663.55169a2.35407,2.35407,0,0,1,.76984,1.716c1.25567.19177,1.20251.31243,1.69031.74371.37945.33551.72882.705,1.103,1.04681a3.09644,3.09644,0,0,0,.6015.4599,5.031,5.031,0,0,1,1.31159.73358c.35907.35785.72931.70441,1.09643,1.054a3.57536,3.57536,0,0,0,.28675.24957,2.94611,2.94611,0,0,0,.98449.55378,2.906,2.906,0,0,1,.66993.34533,5.25217,5.25217,0,0,0,1.029.47565,2.79441,2.79441,0,0,1,.65655.37671,2.15531,2.15531,0,0,0,1.07306.3277c.37848.034.75916.04394,1.13892.06445a5.43479,5.43479,0,0,1,.15912,1.48108c-.00946.24841.001.498.00952.74676a1.48253,1.48253,0,0,0,.55359.92841,2.70524,2.70524,0,0,0,1.34326.60449c.86511.105,1.73309.18689,2.59985.2785.28668-.25946.57086-.52178.861-.77746a1.2916,1.2916,0,0,1,1.09961-.1496c.34748.17011.68933.35144,1.03363.528a17.09323,17.09323,0,0,1,2.88758,1.07653,7.57937,7.57937,0,0,0,2.16375.8028,4.1467,4.1467,0,0,1,.69947.32581c.3537.1538.71722.28576,1.06781.446.23352.10675.44665.25763.67846.3689.34528.16564.705.30206,1.04584.47576.10639.0542.17188.18873.256.2865a6.18207,6.18207,0,0,1,1.46308.4812,10.82794,10.82794,0,0,0,1.7807.7276c.60583.20716,1.16412.53748,1.78027.73554a18.64087,18.64087,0,0,0,1.79871.68622,2.92563,2.92563,0,0,1,.72656.25079c.57306.2959,1.20679.464,1.76093.78058a18.02036,18.02036,0,0,0,2.16558.80133c.11872.04932.2334.1084.352.1579a7.63521,7.63521,0,0,1,2.32447,1.335,2.68678,2.68678,0,0,0,1.02942.50348,5.13415,5.13415,0,0,1,1.4497.50635c.56287.30987,1.14112.59185,1.71454.88232a2.92967,2.92967,0,0,0,1.49811.2738c.1286-.00616.2572-.01123.3858-.0169a1.2465,1.2465,0,0,0,.10846.37231,2.97307,2.97307,0,0,0,1.47925,1.18817c.51642.00928,1.03333.03608,1.54926.02356a3.09366,3.09366,0,0,1,1.82733.51044,1.31474,1.31474,0,0,0,.726.2298c1.03272.009,2.06543.01367,3.098.02911a2.56489,2.56489,0,0,0,1.46-.42456,2.32726,2.32726,0,0,1,1.09644-.32245,2.826,2.826,0,0,1,.387-.01086,3.344,3.344,0,0,0,1.82221-.53113c.5617-.31244.91662-.16858,1.24042.4491a3.73249,3.73249,0,0,0,.36425.67822c.16327.19928.32392.40271.50525.5849,1.36682,1.3725,2.74085,2.73785,4.10718,4.1109a3.707,3.707,0,0,0,1.60114,1.03241,2.62185,2.62185,0,0,1,.65258.40961,1.95251,1.95251,0,0,0,.7052.29815,1.2415,1.2415,0,0,0,.61316-.92816c.04376-.256.04932-.51825.08722-.77545a2.25538,2.25538,0,0,1,.56091-1.42853c.40778-.50647.81177-1.0177,1.24872-1.49841.52478-.57721,1.08319-1.1239,1.626-1.68481a1.739,1.739,0,0,0,.39532-1.0683c.05719-1.16925.11548-2.3385.18494-3.507a1.23777,1.23777,0,0,1,.14063-.35919,2.143,2.143,0,0,1,.74969-.87189.963.963,0,0,1,1.09009-.12036,7.81224,7.81224,0,0,0,1.86267.54187,1.85334,1.85334,0,0,1,.68805.34015,5.15406,5.15406,0,0,1,.57153.53021c.37543.36053.7464.72565,1.12488,1.08307a1.96277,1.96277,0,0,0,2.18024.09417,16.17179,16.17179,0,0,0,1.95611-1.90051,3.56476,3.56476,0,0,0,.59522-.99872,3.3526,3.3526,0,0,1,1.2492-1.45813c.21289-.144.45185-.25445.64765-.41772a1.29033,1.29033,0,0,0,.45575-1.03156,5.20974,5.20974,0,0,0-.60749-2.62762,1.92883,1.92883,0,0,1-.03631-1.87018,9.02,9.02,0,0,1,2.17016-3.20587c.35431-.38123.7345-.73932,1.07435-1.13269a2.03628,2.03628,0,0,0,.38934-.667,2.793,2.793,0,0,1,1.26776-1.42377c.32483-.21216.68982-.36188,1.02417-.56091a3.79606,3.79606,0,0,1,1.47046-.48139,2.03745,2.03745,0,0,0,1.03326-.50512,6.084,6.084,0,0,0,.55579-.54529,3.33049,3.33049,0,0,0,.91949-1.6781,2.81263,2.81263,0,0,1,1.39533-1.79157,1.58717,1.58717,0,0,1,1.13727-.02044,1.05383,1.05383,0,0,1,.62231.89892c.05194.65039.03693,1.29913.03027,1.94916-.00366.36243.06379.51648.4123,1.05884a3.13673,3.13673,0,0,0,.69262-.301.93781.93781,0,0,0,.36005-.65558c.11548-1.41449.03442-2.833.05591-4.24975a2.20076,2.20076,0,0,1,.37335-1.07581,2.83235,2.83235,0,0,0,.3363-.68957,2.29667,2.29667,0,0,1,.57221-.992,13.62681,13.62681,0,0,1,1.1004-1.08374,1.788,1.788,0,0,1,1.44287-.3753c.39026.04663.70984.28711,1.08991.35852.25842.04852.445-.0658.486-.39728.15808-1.27918-.046-2.57245.13623-3.85059a.967.967,0,0,1,.41431-.61694.938.938,0,0,1,.34784-.12647,8.90063,8.90063,0,0,1,1.92566-.09173,1.64431,1.64431,0,0,0,1.06195-.38892,28.84679,28.84679,0,0,0,2.752-2.70916,1.85072,1.85072,0,0,0,.16492-2.14936,3.0121,3.0121,0,0,1-.47736-1.03686,1.45,1.45,0,0,0-.31329-.59064,2.19132,2.19132,0,0,1-.52558-.85321c.12592-1.68854-.0462-3.379.0326-5.06732a2.48427,2.48427,0,0,0-.30744-1.11139c-.17151-.39972-.11163-.72125.29676-.89984a3.787,3.787,0,0,0,.97247-.62665,1.14192,1.14192,0,0,0,.26568-.28333c.12384-.22387.21918-.46356.32624-.69677a3.43681,3.43681,0,0,0-.34882-2.259c-.37347-.53643-.49939-1.19183-.87683-1.72937-.37219-.53021-.50452-1.18329-.84821-1.74157-.33618-.546-.52563-1.17762-.87255-1.728a1.39255,1.39255,0,0,1-.16608-.74817c-.00006-.2597.01331-.51965.00763-.77917a1.589,1.589,0,0,1,.39581-1.06983c.50324-.5946,1.05707-1.14606,1.57581-1.7279a1.40593,1.40593,0,0,0,.31427-.6988c.04553-.25567.06012-.517.10925-.77185a1.13731,1.13731,0,0,1,.40137-.63879,5.52235,5.52235,0,0,0,1.92834-1.27271,1.62425,1.62425,0,0,1,1.06159-.41741c.38714.00537.77527-.05781,1.163-.0896a1.0436,1.0436,0,0,0,.7796-.74335c.036-.64832.07752-1.29645.09974-1.94531a2.14057,2.14057,0,0,1,.33721-1.09955,3.35736,3.35736,0,0,0,.40162-1.86981,2.082,2.082,0,0,0-.82929-1.6717,7.20585,7.20585,0,0,0-.99164-.59381.882.882,0,0,1-.29992-1.01428,2.9114,2.9114,0,0,1,.45037-.6322,3.58125,3.58125,0,0,0,1.02491-1.62573,1.04649,1.04649,0,0,1,.18762-.3382,2.80784,2.80784,0,0,0,.46014-1.847q-.02554-.58394-.02673-1.16889a1.26467,1.26467,0,0,0-.22376-.73346,2.82584,2.82584,0,0,1-.50018-1.83819c.01825-.25916.0246-.51923.03638-.77887a2.8233,2.8233,0,0,0-.18781-.33789.833.833,0,0,0-.61908-.40046,2.64649,2.64649,0,0,1-2.05505-.89489,4.16032,4.16032,0,0,0-.60364-.48.99409.99409,0,0,0-.33612-.18079,2.74574,2.74574,0,0,1-1.281-.82434,10.3916,10.3916,0,0,1-.79712-.84253,1.73713,1.73713,0,0,1-.42023-1.05231,2.02519,2.02519,0,0,0-.56512-1.39166,3.63587,3.63587,0,0,1-.92817-1.22125c-.17266-.49689-.51312-.89783-.69543-1.37036a13.49957,13.49957,0,0,0-.87695-1.7096,2.77794,2.77794,0,0,0-.77362-1.31293,3.86063,3.86063,0,0,1-.98963-1.63024c-.58111-.70612-.71692-1.65241-1.27771-2.36951a3.81609,3.81609,0,0,0-.97485-1.63733c-.17725-.1839-.31439-.40613-.47425-.60736a1.29185,1.29185,0,0,1-.23956-.72156,2.31258,2.31258,0,0,0-.49023-1.43683,1.6263,1.6263,0,0,1-.26886-.713q-.06071-.771-.12152-1.54187c.017-.12622.04437-.252.04944-.37872a2.10564,2.10564,0,0,1,1.25878-1.77967c.43909-.24511.92-.41357,1.35651-.679.54034-.32862,1.16876-.4878,1.701-.84375a1.538,1.538,0,0,1,.7276-.19025,2.39155,2.39155,0,0,0,1.08661-.30853,5.51748,5.51748,0,0,1,1.01672-.51447c.35163-.13061.6532-.38971.99524-.55389a6.73278,6.73278,0,0,0,1.37171-.64142,1.31556,1.31556,0,0,1,.69525-.29242c.2528-.02686.50384-.07043.75567-.10669.20893-.53937.22827-.558.78418-.72363.17493-.56494.22589-.61475.7912-.7732.0138-.2528.03217-.50549.03974-.75848a1.103,1.103,0,0,1,.27685-.70349c.42194-.49725.4809-1.18079.86578-1.69965a4.38238,4.38238,0,0,0,.473-1.04107c.14087-.35346.40869-.656.55285-1.00861a.95753.95753,0,0,0-.07928-.737c-.10687-.23212-.24884-.44794-.37219-.67261a1.95488,1.95488,0,0,1-.03516-1.48742l.61005-.43762c1.27911-.12861,2.56427.00781,3.84369-.09113a.99091.99091,0,0,0,.35418-.12622,2.03537,2.03537,0,0,0,1.262-1.77326c.02893-.64025.02813-1.28192.04064-1.92291C149.62029,23.21526,149.231,23.20262,148.8427,23.175ZM91.26647,4.68614a2.11664,2.11664,0,0,0-.04688-1.3891A2.0956,2.0956,0,0,1,91.26647,4.68614Zm-.0578-1.41668a1.59979,1.59979,0,0,0-.26129-.38507A1.68114,1.68114,0,0,1,91.20867,3.26946Z"
        />
        <text class="cls-3" transform="translate(61.73758 102.21849)">
          Kirkos
        </text>
        <g id="kirkos_woreda_texts">
          <text class="cls-4" transform="translate(55.2237 32.87023)">
            KI-W7
          </text>
          <text class="cls-4" transform="translate(98.97979 32.87047)">
            KI-W8
          </text>
          <text class="cls-4" transform="translate(110.82799 70.00774)">
            KI-W1
          </text>
          <text class="cls-4" transform="translate(77.81681 73.07164)">
            KI-W9
          </text>
          <text class="cls-4" transform="translate(36.19059 63.01244)">
            KI-W10
          </text>
          <text class="cls-4" transform="translate(37.49259 91.03832)">
            KI-W11
          </text>
          <text class="cls-4" transform="translate(9.38471 97.36595)">
            KI-W5
          </text>
          <text class="cls-4" transform="translate(41.63639 127.53029)">
            KI-W4
          </text>
          <text class="cls-4" transform="translate(81.72149 141.57277)">
            KI-W3
          </text>
          <text class="cls-4" transform="translate(91.82067 110.05077)">
            KI-W2
          </text>
        </g>
      </g>
    </g>
  </g>
</svg>
