<svg
  xmlns="http://www.w3.org/2000/svg"
   id='svgCanvas7'
viewBox="-47.2955598449707 -20.53223754882808 276.28416015625 247.9884765625"
>
  <defs>
    <style>
       #svgCanvas7{
        
            border: 0.1px #ccb8b8;
            background-color: #f6f4f4;
            display: block;
            margin-left: auto;
            margin-right: auto;
    }
      .cls-1 {

        stroke: #fff;
        stroke-width: 0.58592px;
      }

      .cls-1,
      .cls-2 {
        stroke-miterlimit: 10;
      }

      .cls-2 {
        fill: none;
        stroke: #784c9e;
      }

      .cls-3,
      .cls-4 {
        isolation: isolate;
        fill: #e72625;
        font-family: MyriadPro-Regular, Myriad Pro;
      }

      .cls-3 {
        font-size: 18px;
      }

      .cls-4 {
        font-size: 7.5px;
      }
    </style>
  </defs>
  <g id="Layer_2" data-name="Layer 2">
    <g id="kifle_ketema">
      <g id="lideta_kk">
        <g id="Lideta_all">
          <path
            id="Lideta-Woreda-1"
        class="cls-1 pathHovered NaN-ri subcity Lideta-Woreda-1-path"
         data-html="true"            d="M103.46762,132.04992c-.22134-.133-.45379-.2508-.66144-.40257a2.14735,2.14735,0,0,0-1.05778-.43906c-.25658-.02723-.50886-.09486-.76305-.14441a18.84316,18.84316,0,0,1-2.34972-1.35,3.89581,3.89581,0,0,0-.61238-.4783c-.44023-.26852-.91321-.48569-1.34115-.77133-.43-.287-.80221-.6614-1.23561-.9421a9.75777,9.75777,0,0,1-1.32384-.79822,5.98035,5.98035,0,0,0-1.24457-.92641c-.345-.17535-.70913-.31292-1.06419-.46862a2.6669,2.6669,0,0,0-1.10615-.322c-.90758.00942-1.81531-.00017-2.723.00038a3.127,3.127,0,0,0-1.49528.34732,3.02333,3.02333,0,0,1-1.5012.32295c-.51847-.00921-1.0371-.01426-1.55529-.03226a.97466.97466,0,0,1-.37373-.0838A8.448,8.448,0,0,1,80.372,124.0477a2.47391,2.47391,0,0,0-.97071-.628c-.61719-.21088-1.10455-.67163-1.72871-.87752a1.66774,1.66774,0,0,1-.64118-.42575,7.38982,7.38982,0,0,0-2.288-1.43029,2.69165,2.69165,0,0,0-1.47893-.40313,3.87616,3.87616,0,0,1-1.843-.52751,5.46911,5.46911,0,0,0-.71718-.28685,3.11293,3.11293,0,0,1-.9757-.62261,4.598,4.598,0,0,0-1.58878-1.08872c-.41724-.308-.8316-.61994-1.25239-.923a15.99567,15.99567,0,0,0-2.05951-1.07477,1.00582,1.00582,0,0,0-.368-.1091,26.803,26.803,0,0,0-5.05019-.012,1.91551,1.91551,0,0,0-.73309.23156,12.05012,12.05012,0,0,0-2.68039,1.5469,1.93207,1.93207,0,0,1-.32758.20554,1.71,1.71,0,0,1-.73208.23392,12.92061,12.92061,0,0,1-2.33082.02456,2.50484,2.50484,0,0,1-1.11816-.27937c-.55924-.33654-1.21449-.45455-1.76917-.7919a3.78911,3.78911,0,0,0-1.46355-.47863,2.00623,2.00623,0,0,1-.72968-.25489,3.17117,3.17117,0,0,0-1.46186-.47334c-.12943-.00538-.25812-.02779-.38756-.03385a3.2231,3.2231,0,0,1-1.48014-.41808,3.25978,3.25978,0,0,0-1.10243-.34955,4.92156,4.92156,0,0,1-.75547-.1688,8.58523,8.58523,0,0,0-2.60163-.6762,3.07838,3.07838,0,0,1-1.08357-.40463,2.29376,2.29376,0,0,0-.72782-.258,3.89223,3.89223,0,0,1-1.4737-.45438,2.45013,2.45013,0,0,0-1.48773-.33649c-.25839.02031-.51644.04527-.77464.06813a14.2643,14.2643,0,0,1-.08833-1.94113q-.01555-5.44636-.03111-10.89276A2.98739,2.98739,0,0,0,33.64,98.26772a2.51319,2.51319,0,0,1-.16706-.351,1.36005,1.36005,0,0,1-.09548-.36944c-.02589-.38777-.04821-.77667-.04847-1.16513-.00117-1.81535.01359-3.63072.00329-5.446a1.96532,1.96532,0,0,1,.38189-1.08c.3495-.54953.44275-1.2109.82778-1.74649.37678-.5241.47377-1.20316.88865-1.71412a13.0488,13.0488,0,0,1,.86521-1.72852c.20077-.32367.24063-.73492.47563-1.05406a2.56558,2.56558,0,0,0,.47272-1.45289,1.21479,1.21479,0,0,1,.24887-.72455c.40342-.51814.49184-1.19632.86643-1.72659.37676-.53328.47112-1.20566.87356-1.72351.32247-.415.35256-.973.67837-1.38724.40613-.5164.501-1.187.86-1.73148a1.97792,1.97792,0,0,0,.34491-1.09246c.005-1.16692.02541-2.3338.03977-3.50067,1.42983-.06241,2.85929.00422,4.28892.00708a2.01664,2.01664,0,0,1,1.09065.35945c.551.34932,1.20905.46009,1.7455.84474.52676.37776,1.20511.47241,1.72947.86988a1.24523,1.24523,0,0,0,.73173.2279,2.132,2.132,0,0,1,1.41622.55118c.19156.17552.39679.336.593.5065a2.05419,2.05419,0,0,0,1.42424.51327c.51976-.00713,1.03954-.01633,1.55932-.01647a1.48311,1.48311,0,0,0,.7374-.21331,4.83905,4.83905,0,0,1,1.0357-.53058,2.16456,2.16456,0,0,0,.68374-.35792c.61865-.46,1.10505-1.11443,1.91893-1.28255q.46362-.3534.92716-.70686.4627-.35418.92417-.71006c.81569-.16407,1.30734-.81412,1.91672-1.28551a1.3721,1.3721,0,0,1,.70135-.30909c.25813-.02878.51442-.074.77152-.112.51823.01927,1.03632.04862,1.55472.056q2.918.04134,5.8362.07a2.27028,2.27028,0,0,1,1.103.31828,3.017,3.017,0,0,0,1.47905.40165c1.55619.01721,3.1122.051,4.66832.07445a1.46925,1.46925,0,0,1,.736.215,3.59665,3.59665,0,0,0,1.84744.48834c2.07526.00691,4.15043.04477,6.22562.07064-.01845.38815-.0236.7775-.0591,1.1641a2.603,2.603,0,0,1-.323,1.10322,2.2253,2.2253,0,0,0-.37557,1.08539c-.013.64666-.07255,1.29227-.10728,1.93863a1.70015,1.70015,0,0,1-.2309.73242,3.29994,3.29994,0,0,0-.45258,1.46309c-.094,2.33165.00618,4.66182.0243,6.99264a2.41165,2.41165,0,0,0,.3641,1.0902,2.191,2.191,0,0,1,.0376,2.21289c-.38868.67353-.62054,1.42028-1.02121,2.08542a1.353,1.353,0,0,0-.17263.74506c.01058.77678-.00355,1.55388.0056,2.33072a2.22889,2.22889,0,0,0,.29932,1.10724,2.83522,2.83522,0,0,1,.41052,1.47438c-.01046.90657-.02641,1.81322-.02439,2.7198a1.32529,1.32529,0,0,0,.66762,1.28408c.22716.12271.4602.2365.67806.37413a2.08441,2.08441,0,0,1,1.11276,1.9039,1.14432,1.14432,0,0,0,.249.7198,20.12755,20.12755,0,0,0,1.54854,1.73787,5.29251,5.29251,0,0,1,.43958.63326,11.59532,11.59532,0,0,0,.79231,1.76035,2.48431,2.48431,0,0,0,1.632,1.5279,1.87729,1.87729,0,0,1,.6735.369,6.5778,6.5778,0,0,1,1.69159,2.09842,1.83589,1.83589,0,0,0,.81916.779c.50371.30233.581.43641.64911.89347a3.13567,3.13567,0,0,0,.51046,1.44448,1.11829,1.11829,0,0,1,.1049,1.09494c-.084.24234-.24818.45594-.34426.69532a.99412.99412,0,0,0,.06518,1.096,2.94166,2.94166,0,0,1,.4679,1.4579,1.77494,1.77494,0,0,0,.725,1.309c.59688.51342,1.40493.64273,2.03132,1.1072a.96933.96933,0,0,0,.36174.114,1.69286,1.69286,0,0,0,1.47068-.285c.50443-.4022.95212-.87547,1.42441-1.31791a12.14018,12.14018,0,0,1,1.4089-1.32329,1.81289,1.81289,0,0,1,.35948-.14529c.04081.25257.0741.50662.12411.75733.08462.42385.13969.522.7237.80332a2.88956,2.88956,0,0,1,1.16463.95682,1.27519,1.27519,0,0,1,.1491,1.08683,3.91684,3.91684,0,0,0-.55824,2.19678,1.94591,1.94591,0,0,1-.30027,1.09483c-.36084.534-.51583,1.16456-.84457,1.71581-.32564.54608-.57781,1.1355-.87945,1.6966a2.69266,2.69266,0,0,0-.32187,1.09013,8.54477,8.54477,0,0,1-.248,1.89891,2.51552,2.51552,0,0,0-1.61232.59493A2.61862,2.61862,0,0,1,103.46762,132.04992Z"
          />
          <path
            id="Lideta-Woreda-2"
        class="cls-1 pathHovered NaN-ri subcity Lideta-Woreda-2-path"
         data-html="true"            d="M65.35182,68.62927c-.2571.038-.51339.08321-.77152.112a1.3721,1.3721,0,0,0-.70135.30909c-.60938.47139-1.101,1.12144-1.91672,1.28551q-.462.35508-.92417.71006-.46295.35429-.92716.70686c-.81388.16812-1.30028.82251-1.91893,1.28255a2.16456,2.16456,0,0,1-.68374.35792,4.83905,4.83905,0,0,0-1.0357.53058,1.48311,1.48311,0,0,1-.7374.21331c-.51978.00014-1.03956.00934-1.55932.01647a2.05419,2.05419,0,0,1-1.42424-.51327c-.19623-.17046-.40146-.331-.593-.5065a2.132,2.132,0,0,0-1.41622-.55118,1.24523,1.24523,0,0,1-.73173-.2279c-.52436-.39747-1.20271-.49212-1.72947-.86988-.53645-.38465-1.19446-.49542-1.7455-.84474a2.01664,2.01664,0,0,0-1.09065-.35945c-1.42963-.00286-2.85909-.06949-4.28892-.00708-.01593-1.16675-.02814-2.33358-.04981-3.50021a2.10936,2.10936,0,0,0-.32-1.10015,2.69582,2.69582,0,0,1-.43335-1.46429c.00126-1.556.00226-3.11217-.02671-4.66773a1.59153,1.59153,0,0,0-.4745-1.034c-1.14714-1.23454-2.31906-2.4443-3.58392-3.56039a1.95556,1.95556,0,0,0-.69125-.339,1.92144,1.92144,0,0,1-.66709-.37852c-.75943-.70612-1.49088-1.44224-2.24456-2.1547a2.16905,2.16905,0,0,0-.99069-.58554.89566.89566,0,0,1-.34674-.16121,5.22064,5.22064,0,0,1-1.98069-2.32218,15.1141,15.1141,0,0,1-.83226-1.73641A8.16254,8.16254,0,0,1,27.791,45.903a14.18623,14.18623,0,0,1-.82873-1.73811,7.21756,7.21756,0,0,1-.878-1.71786,15.32837,15.32837,0,0,1-.881-1.71572,2.67947,2.67947,0,0,1-.49484-1.44326,1.5169,1.5169,0,0,0-.2-.73869,4.69769,4.69769,0,0,1-.5425-1.02485,2.58494,2.58494,0,0,0-.878-1.24855,1.40017,1.40017,0,0,0-.68929-.3256,2.5025,2.5025,0,0,0-.38608-.04441c-.38887-.00978-.77791-.01116-1.1669-.01579a3.26377,3.26377,0,0,0-.54941-1.81356c-.3512-.53206-.505-1.17617-.85287-1.72127a1.64955,1.64955,0,0,1-.17885-.74048,2.21749,2.21749,0,0,0-.33018-1.09344,2.738,2.738,0,0,1-.48106-1.44483,1.55169,1.55169,0,0,0-.21135-.73338,3.37423,3.37423,0,0,1-.52843-1.82c.009-3.352-.0074-6.704-.01743-10.05606-.00193-.64452-.02237-1.289-.0212-1.9335a2.95562,2.95562,0,0,0-.4478-1.4553,2.25891,2.25891,0,0,1-.27322-1.10808q-.02424-3.6741-.03908-7.3483a1.76692,1.76692,0,0,1,1.02076.45937,12.59155,12.59155,0,0,1,1.03107,1.11988,10.30521,10.30521,0,0,0,1.00211,1.14559,4.0193,4.0193,0,0,0,1.97008,1.09151,5.44138,5.44138,0,0,1,1.4336.497,2.85257,2.85257,0,0,0,1.09645.27847,18.39667,18.39667,0,0,0,3.42373.022c.75407-.09,1.52129-.06975,2.28261-.09889.00565.12977.00911.25965.01731.38925a1.90715,1.90715,0,0,0,.48542,1.43111c.16529.20014.33762.39461.51.58877a2.01186,2.01186,0,0,1,.5265,1.41768c-.00436.25963.00267.51948.00422.77922s.00208.51952.00418.77929a3.97062,3.97062,0,0,0,.60027,2.2061,1.93738,1.93738,0,0,1,.04281,1.50952c-.14285.35862-.40634.672-.52974,1.03484a3.68067,3.68067,0,0,1-.80275,1.31538c-.43808.478-.89.94348-1.3243,1.42481a1.24041,1.24041,0,0,0-.27617.71094,1.85557,1.85557,0,0,0,.37244,1.45671c.2448.30271.5358.57027.76167.88545a1.93514,1.93514,0,0,1,.395,1.07208c.04582,1.16652-.0566,2.33587.07207,3.49933a.80984.80984,0,0,0,.17705.344,2.03409,2.03409,0,0,0,.59871.45634c.43148.27634.46772.37156.17881.94089a1.201,1.201,0,0,0,.17411,1.42249,12.20636,12.20636,0,0,1,.99908,1.19208,5.10445,5.10445,0,0,0,1.59394,2.1599c.265.28444.55628.54469.84039.8108a1.59559,1.59559,0,0,0,1.03761.47031c1.42784.0362,2.85691.02294,4.28475.0592a1.60331,1.60331,0,0,1,1.03654.47518c.37959.35413.74317.72572,1.12837,1.07346a3.66739,3.66739,0,0,0,1.30152.82552c.36158.12.66967.39218,1.02209.55108a7.18742,7.18742,0,0,1,1.39112.67661,1.24677,1.24677,0,0,0,.724.25643c.129.004.25753.05.38589.04838a1.71177,1.71177,0,0,1,1.05329.44172,6.61643,6.61643,0,0,0,1.21022.96995,15.22539,15.22539,0,0,1,1.38714.68543.865.865,0,0,0,1.08391-.0745,3.62491,3.62491,0,0,1,2.62069-.415,1.024,1.024,0,0,1,.34432.17237,2.21981,2.21981,0,0,1,.84344.78732c.26087.44364.46824.91853.72391,1.36552a3.1824,3.1824,0,0,1,.33508.69718,1.42049,1.42049,0,0,0,.14021.35929A2.12641,2.12641,0,0,0,59.474,47.64513c.1295.00019.259.01891.38846.029a3.694,3.694,0,0,0,.55259,1.00308.95629.95629,0,0,1-.02685,1.07018,9.25091,9.25091,0,0,0-1.16923,1.52174.96216.96216,0,0,0,.48667.94151,5.7463,5.7463,0,0,0,.756.12607,1.02885,1.02885,0,0,1,.89292.61894c.16853.345.327.693.52331,1.0249a2.11285,2.11285,0,0,1,.32566,1.0876c.00072.77135.03188,1.54289.02146,2.314a1.70632,1.70632,0,0,0,.37061,1.06622,5.95305,5.95305,0,0,1,1.2944,1.89037l.54672.53056a1.36261,1.36261,0,0,1,.90231,1.5104c-.01156.38517.01733.77147.01137,1.157a2.797,2.797,0,0,0,.47856,1.43535.89753.89753,0,0,1,.055,1.07709,3.31929,3.31929,0,0,0-.53845,2.19449C65.35668,68.37139,65.35013,68.5007,65.35182,68.62927Z"
          />
          <path
            id="Lideta-Woreda-4"
        class="cls-1 pathHovered NaN-ri subcity Lideta-Woreda-4-path"
         data-html="true"            d="M103.46762,132.04992a2.61862,2.61862,0,0,0,.64509-.26024,2.51552,2.51552,0,0,1,1.61232-.59493,3.45343,3.45343,0,0,0,1.12086,1.9967c.08292.09945.17423.19266.24988.29728a3.17828,3.17828,0,0,1,.52939,1.02642,4.62755,4.62755,0,0,0,.32679.69878,2.43664,2.43664,0,0,1,.30411,1.10677c-.01066.38792.00377.77679.01588,1.165.01206.38808.04294.77567.05016,1.16375a1.65174,1.65174,0,0,0,.19.74389,12.07479,12.07479,0,0,1,.66044,1.39918c.17537.48225.55289.869.71513,1.37185a2.44187,2.44187,0,0,0,.62592.96842c.5503.548,1.09361,1.10356,1.65869,1.636a4.35009,4.35009,0,0,0,.64376.42537c.77726.16245,1.33814.77345,2.08227,1.00459.40639.32023.80692.64838,1.22171.95738a2.447,2.447,0,0,0,.66087.39562c.50209.16438.8927.53883,1.37145.71349.61515.22436,1.12515.63872,1.7269.86454a4.00633,4.00633,0,0,1,1.0048.57047c.41338.31046.82237.62678,1.23325.94057a4.87834,4.87834,0,0,1,1.89021,1.31584c.28981.25819.58064.51525.8757.76744a1.05752,1.05752,0,0,0,.31792.22043,6.9257,6.9257,0,0,1,2.41545,1.90118c.18794.178.36765.36481.55.54872s.35363.38.54665.55173a2.354,2.354,0,0,1,.7698,1.71593,9.9508,9.9508,0,0,1-.71022,1.37467,1.02345,1.02345,0,0,0-.13566.3601c-.01471,1.16773-.01263,2.33565-.02086,3.50352-.00364.51869-.02372,1.03728-.02946,1.556a1.05524,1.05524,0,0,1-.91,1.05311c-.2581.01735-.51585.04949-.77411.054a1.88346,1.88346,0,0,1-1.45936-.42175,2.40751,2.40751,0,0,0-1.10024-.31927,1.61221,1.61221,0,0,0-1.08648.33258c-.31019.23307-.57945.52-.88455.76072a1.691,1.691,0,0,1-1.05358.43037,2.11159,2.11159,0,0,0-1.66665.84669,1.16856,1.16856,0,0,0-.2205.31918,4.15828,4.15828,0,0,1-1.01093,1.62992c-.09377.08864-.1687.197-.25475.294a2.04013,2.04013,0,0,0-.48144,1.43018,2.98859,2.98859,0,0,0,.44671,1.85049,1.61833,1.61833,0,0,1,.177.346,1.08622,1.08622,0,0,1,.10855.36462c.01778.90753.01271,1.81559.03619,2.723a1.99264,1.99264,0,0,1-.35719,1.08811,7.09727,7.09727,0,0,0-.48406,1.054,1.99042,1.99042,0,0,1-.44685.62916,1.872,1.872,0,0,1-1.3331.69935c-.38841.00172-.7765.04583-1.16508.06242a1.242,1.242,0,0,0-.72162.25429,3.2226,3.2226,0,0,1-2.2278.45789,1.368,1.368,0,0,1-.96058-.55965,1.38573,1.38573,0,0,0-.41678-.64146.89737.89737,0,0,0-.69037-.29058,6.77906,6.77906,0,0,0-.76865.05389.79811.79811,0,0,0-.33821.18629c-.30247.24346-.60914.4845-.88875.75295a5.582,5.582,0,0,1-1.35066.73339,5.69182,5.69182,0,0,0-1.16306,1.0265,2.53463,2.53463,0,0,0-.79011,1.715c-.04127.58311-.34322.82118-1.01522.937-.25279.04363-.50791.07949-.75576.14314a.995.995,0,0,0-.34207.1821,7.74884,7.74884,0,0,0-1.12825,1.0676,1.36583,1.36583,0,0,0-.34808.68095c-.0154.10237.0996.2242.15492.33735a2.25686,2.25686,0,0,1,.36119,1.08958c-.02.51821-.00806,1.03775-.00465,1.55672a1.97834,1.97834,0,0,1-.58322,1.39026,3.75067,3.75067,0,0,0-1.04414,1.60822,2.15576,2.15576,0,0,1-.39329.66574,2.61577,2.61577,0,0,0-.32976.69835,1.839,1.839,0,0,1-.3642.67589c-.89888.935-1.81985,1.84882-2.73752,2.7656a1.59828,1.59828,0,0,1-.31691.22334,6.53373,6.53373,0,0,0-1.35529.72706,10.0614,10.0614,0,0,1-.8882.75547,1.23621,1.23621,0,0,1-.71671.26449c-1.42717.01521-2.85455.01292-4.28184.0166a4.68582,4.68582,0,0,1-.14824-.7612c-.02537-.777-.02279-1.555-.02573-2.3327s-.00622-1.55414-.06856-2.33093a23.3878,23.3878,0,0,1,.00329-3.49561,2.2195,2.2195,0,0,1,.16727-.75285c.25993-.59179.4853-1.20107.78093-1.7742a6.51906,6.51906,0,0,0,.64347-1.81874,2.44744,2.44744,0,0,1,.281-.71761,4.2675,4.2675,0,0,0,.49677-1.4615,4.17428,4.17428,0,0,1,.4-1.09044,1.866,1.866,0,0,0,.18591-.74732,2.32544,2.32544,0,0,0-.16248-1.13507c-.29357-.576-.54441-1.17646-.87177-1.73209-.33129-.56232-.49091-1.1951-.8119-1.76014a3.69835,3.69835,0,0,1-.36746-2.6319,2.62225,2.62225,0,0,1,1.57005-2.06491c.35711-.15173.70969-.3147,1.0603-.48107a1.864,1.864,0,0,1,.74932-.18367c.38847-.01282.77669-.03442,1.16487-.05512.2587-.01373.51766-.02684.77546-.0513a1.08464,1.08464,0,0,0,.37556-.079,10.99112,10.99112,0,0,0,2.37-1.3092c.19714-.16822.38661-.347.59481-.50028a4.07689,4.07689,0,0,1,.65377-.41292,5.84018,5.84018,0,0,0,1.7813-1.47705,3.6003,3.6003,0,0,0,.62874-.97305c.15585-.35523.32509-.70516.50173-1.05057a1.80978,1.80978,0,0,0,.2042-.74222,56.9825,56.9825,0,0,0,.02286-5.82917,5.352,5.352,0,0,0-.43858-1.87752,1.85755,1.85755,0,0,1-.16111-.75409q.00339-1.55506-.00382-3.11011a3.69714,3.69714,0,0,1,.32774-1.50522,2.42973,2.42973,0,0,0,.20177-.74627c.03633-.387.08828-.77264.12-1.15994a1.837,1.837,0,0,1,.20016-.74491c.37157-.68121.61832-1.42619,1.04929-2.076a2.49074,2.49074,0,0,0,.34718-1.09981,3.2233,3.2233,0,0,1,.3465-1.105,1.56944,1.56944,0,0,0,.02754-1.48034,2.10519,2.10519,0,0,1,.07035-1.86262,2.819,2.819,0,0,0,.18789-.74775,6.85454,6.85454,0,0,0,.044-.77593c.03385-1.03637.10621-2.07364.08487-3.10894a6.15009,6.15009,0,0,1,.55471-2.6257.8913.8913,0,0,0-.06513-.75242A6.01192,6.01192,0,0,1,103.46762,132.04992Z"
          />
          <path
            id="Lideta-Woreda-10"
        class="cls-1 pathHovered NaN-ri subcity Lideta-Woreda-10-path"
         data-html="true"            d="M123.99006,75.024c-.03085.64623-.06582,1.29232-.091,1.93877a2.4061,2.4061,0,0,1-.32541,1.09993,2.81273,2.81273,0,0,0-.38546,1.08281,2.171,2.171,0,0,1-.326,1.10067c-.38691.52548-.50929,1.18826-.89315,1.712-.3111.42446-.36105.97154-.66452,1.39184-.38439.53239-.48938,1.19548-.84233,1.73717a3.13893,3.13893,0,0,0-.46282,1.45888,1.68769,1.68769,0,0,1-.26252.7208,5.6149,5.6149,0,0,0-.52412,1.03413,10.19624,10.19624,0,0,1-.53291,1.02855c-.11213.23057-.173.48624-.28664.71585-.17185.3472-.39452.67081-.54775,1.02514a2.87394,2.87394,0,0,0-.16436.75111,1.66708,1.66708,0,0,1-.21471.73528c-.36851.53907-.496,1.19617-.84555,1.735-.35554.54815-.487,1.19736-.8509,1.73336a2.948,2.948,0,0,0-.47237,1.45437,1.38573,1.38573,0,0,1-.25564.72221c-.385.52892-.46843,1.2049-.83949,1.73763-.37223.53432-.518,1.1751-.86455,1.72678-.40942.65176-.67067,1.39-1.07692,2.04892-.13751.64721-.65594,1.10879-.83987,1.7366-.18233.62237-.69594,1.09139-.82885,1.74032a8.8575,8.8575,0,0,0-.85339,1.73012c-.36985.534-.55619,1.16525-.88221,1.71493-.33175.55938-.49244,1.19855-.85859,1.728-.37268.53876-.49666,1.18918-.85332,1.73221a2.00822,2.00822,0,0,0-.36448,1.08322c-.01354.90574-.042,1.81124-.06439,2.71682a1.81289,1.81289,0,0,0-.35948.14529,12.14018,12.14018,0,0,0-1.4089,1.32329c-.47229.44244-.92.91571-1.42441,1.31791a1.69286,1.69286,0,0,1-1.47068.285.96933.96933,0,0,1-.36174-.114c-.62639-.46447-1.43444-.59378-2.03132-1.1072a1.77494,1.77494,0,0,1-.725-1.309,2.94166,2.94166,0,0,0-.4679-1.4579.99412.99412,0,0,1-.06518-1.096c.09608-.23938.26025-.453.34426-.69532a1.11829,1.11829,0,0,0-.1049-1.09494,3.13567,3.13567,0,0,1-.51046-1.44448c-.06811-.45706-.1454-.59114-.64911-.89347a1.83589,1.83589,0,0,1-.81916-.779,6.5778,6.5778,0,0,0-1.69159-2.09842,1.87729,1.87729,0,0,0-.6735-.369,2.48431,2.48431,0,0,1-1.632-1.5279,11.59532,11.59532,0,0,1-.79231-1.76035,5.29251,5.29251,0,0,0-.43958-.63326,20.12755,20.12755,0,0,1-1.54854-1.73787,1.14432,1.14432,0,0,1-.249-.7198,2.08441,2.08441,0,0,0-1.11276-1.9039c-.21786-.13763-.4509-.25142-.67806-.37413a1.32529,1.32529,0,0,1-.66762-1.28408c-.002-.90658.01393-1.81323.02439-2.7198a2.83522,2.83522,0,0,0-.41052-1.47438,2.22889,2.22889,0,0,1-.29932-1.10724c-.00915-.77684.005-1.55394-.0056-2.33072a1.353,1.353,0,0,1,.17263-.74506c.40067-.66514.63253-1.41189,1.02121-2.08542a2.191,2.191,0,0,0-.0376-2.21289,2.41165,2.41165,0,0,1-.3641-1.0902c-.01812-2.33082-.11828-4.661-.0243-6.99264a3.29994,3.29994,0,0,1,.45258-1.46309,1.70015,1.70015,0,0,0,.2309-.73242c.03473-.64636.09431-1.292.10728-1.93863a2.2253,2.2253,0,0,1,.37557-1.08539,2.603,2.603,0,0,0,.323-1.10322c.0355-.3866.04065-.776.0591-1.1641l-.0133-.03c.25717.02143.51417.04534.77156.06363a1.48,1.48,0,0,1,.72124.25555,2.62682,2.62682,0,0,0,1.45907.42394c1.292.01314,2.58379.0541,3.87571.0796a1.49343,1.49343,0,0,1,.734.2146,3.56264,3.56264,0,0,0,1.84133.49088c1.03375-.006,2.06771.03128,3.1016.04928a2.98254,2.98254,0,0,1,1.83182.5168,1.74132,1.74132,0,0,0,.73955.19989c1.16229.02753,2.32428.067,3.48648.099a1.4903,1.4903,0,0,1,.73082.2247,3.51163,3.51163,0,0,0,1.84424.47932c1.0338-.00462,2.068.05124,3.10152.03951a3.61335,3.61335,0,0,1,1.83547.5127,1.55557,1.55557,0,0,0,.74024.19356c1.16256.03143,2.32479.07429,3.48708.11458a1.51658,1.51658,0,0,1,.73016.22633,3.4431,3.4431,0,0,0,1.84536.47565A17.73978,17.73978,0,0,1,123.99006,75.024Z"
          />
          <path
            id="Lideta-Woreda-3"
        class="cls-1 pathHovered NaN-ri subcity Lideta-Woreda-3-path"
         data-html="true"            d="M65.35182,68.62927c-.00169-.12857.00486-.25788-.00637-.38562a3.31929,3.31929,0,0,1,.53845-2.19449.89753.89753,0,0,0-.055-1.07709,2.797,2.797,0,0,1-.47856-1.43535c.006-.38553-.02293-.77183-.01137-1.157a1.36261,1.36261,0,0,0-.90231-1.5104l-.54672-.53056a5.95305,5.95305,0,0,0-1.2944-1.89037,1.70632,1.70632,0,0,1-.37061-1.06622c.01042-.77109-.02074-1.54263-.02146-2.314a2.11285,2.11285,0,0,0-.32566-1.0876c-.19631-.33185-.35478-.67993-.52331-1.0249a1.02885,1.02885,0,0,0-.89292-.61894,5.7463,5.7463,0,0,1-.756-.12607.96216.96216,0,0,1-.48667-.94151,9.25091,9.25091,0,0,1,1.16923-1.52174.95629.95629,0,0,0,.02685-1.07018,3.694,3.694,0,0,1-.55259-1.00308,3.27238,3.27238,0,0,1,.30038-.70589,2.49318,2.49318,0,0,0,.51837-1.42888,1.11418,1.11418,0,0,1,.06556-.38155.91848.91848,0,0,1,.48753-.56124,4.87242,4.87242,0,0,0,2.0966-1.67045,1.53121,1.53121,0,0,0,.44356-1.04554c-.00706-.25832.01325-.51766.02672-.77627a2.25588,2.25588,0,0,1,.46123-1.45117,1.38873,1.38873,0,0,0,.18606-.33936,2.05242,2.05242,0,0,0-.2957-1.837c-.24366-.30243-.53166-.572-.7523-.8893a1.79807,1.79807,0,0,1-.39064-1.069c.0175-1.42454.00351-2.84945.00606-4.27423a7.37954,7.37954,0,0,1,.03845-.77567,1.40149,1.40149,0,0,1,.11995-.362,14.8314,14.8314,0,0,0,.69625-1.3844,1.19035,1.19035,0,0,1,.92219-.59507c.51768-.00975,1.03513-.04081,1.55276-.04375a2.76822,2.76822,0,0,0,1.46182-.44213,2.0673,2.0673,0,0,1,1.1004-.31243c2.33136.00307,4.66277.00879,6.99409-.00227a2.161,2.161,0,0,1,1.08991.35132c.67451.3816,1.42188.6116,2.08211,1.02142a.82841.82841,0,0,0,.35883.12493,23.721,23.721,0,0,0,3.10576.00734.97406.97406,0,0,0,.35693-.13785,6.98613,6.98613,0,0,1,.68466-.36388,1.09067,1.09067,0,0,1,1.09633.04928,2.43584,2.43584,0,0,0,1.44314.47679,1.14168,1.14168,0,0,0,1.13984-.84282c.51408-.01779,1.028-.04275,1.54227-.05026a5.07292,5.07292,0,0,1,.7694.04227,2.10218,2.10218,0,0,1,1.04712.4386,9.37476,9.37476,0,0,1,.78456.84438,1.86174,1.86174,0,0,0,1.01527.48733,1.04788,1.04788,0,0,1,1.03625.2876q-.00423,2.71952-.00756,5.439a2.06816,2.06816,0,0,1-.33106,1.09451,2.71085,2.71085,0,0,0-.42237,1.46644c.00463.90653-.01556,1.81318-.012,2.71976a2.75513,2.75513,0,0,1-.42883,1.46507A2.11856,2.11856,0,0,0,91.93,43.3455c-.00494.77693-.01462,1.55382-.02222,2.33072s-.01846,1.55374-.02124,2.33065a2.10574,2.10574,0,0,1-.33254,1.09459,2.762,2.762,0,0,0-.42153,1.46684c.0026,1.42466-.01376,2.8493-.01183,4.274a2.75041,2.75041,0,0,1-.43383,1.46291,2.13319,2.13319,0,0,0-.3214,1.09795c-.01412,1.03572-.03126,2.07144-.04227,3.10722a2.10592,2.10592,0,0,1-.33306,1.09451,2.744,2.744,0,0,0-.42115,1.4671c-.0027,1.0358-.02577,2.07152-.04079,3.1073a1.32754,1.32754,0,0,1-.23276.72734,3.04885,3.04885,0,0,0-.50817,1.833c.01649.51749.00224,1.03594.00167,1.554l.0133.03c-2.07519-.02587-4.15036-.06373-6.22562-.07064a3.59665,3.59665,0,0,1-1.84744-.48834,1.46925,1.46925,0,0,0-.736-.215c-1.55612-.02348-3.11213-.05724-4.66832-.07445a3.017,3.017,0,0,1-1.47905-.40165,2.27028,2.27028,0,0,0-1.103-.31828q-2.91813-.03119-5.8362-.07C66.38814,68.67789,65.87005,68.64854,65.35182,68.62927Z"
          />
          <path
            id="Lideta-Woreda-7"
        class="cls-1 pathHovered NaN-ri subcity Lideta-Woreda-7-path"
         data-html="true"            d="M170.82139,39.04042a2.31638,2.31638,0,0,1-1.26424,1.4012c-.46023.23031-.93128.43384-1.3843.68627a15.41868,15.41868,0,0,0-1.71679.88924,5.20839,5.20839,0,0,0-1.39518.6671,1.52074,1.52074,0,0,1-.7333.22532,2.31876,2.31876,0,0,0-1.44967.4791,1.35057,1.35057,0,0,1-.33125.20168,3.594,3.594,0,0,0-1.63654,1.00413,3.4841,3.4841,0,0,1-1.31774.80347,1.34772,1.34772,0,0,0-.48745.99667,2.50281,2.50281,0,0,0,.49561,1.44259,1.75934,1.75934,0,0,1,.20846,1.11891.86.86,0,0,1-.31823.66793c-.1008.08182-.19745.20071-.31284.22615a3.73626,3.73626,0,0,1-.76782.08342c-1.429.01209-2.8582.02225-4.28723.0154a2.1873,2.1873,0,0,0-1.88783,1.16645c-.13866.2102-.17213.487-.29133.71351a10.87109,10.87109,0,0,0-.58172,1.00933,4.15488,4.15488,0,0,1-.49847,1.046c-.32143.419-.35285.97719-.69253,1.38125-.25048.298-.51869.58167-.76015.8866a2.01974,2.01974,0,0,0-.415.64893,3.65079,3.65079,0,0,1-1.09139,1.57827c-.18315.18412-.37173.36345-.56665.535a2.37212,2.37212,0,0,1-.32133.21972c-.32891.20453-.74146.23328-1.04252.49918-.29172.25765-.58367.51554-.8845.76234a2.97359,2.97359,0,0,1-1.01172.55738,1.88449,1.88449,0,0,0-.64923.41354c-.4845.43219-.94029.89638-1.42174,1.33216a2.733,2.733,0,0,1-.99657.58168c-.6116.20152-1.0883.703-1.74128.83159-.30652.23918-.62306.46674-.91707.72043a3.48637,3.48637,0,0,1-1.30829.80833,1.71835,1.71835,0,0,0-.64743.41638c-.66493.62008-1.30777,1.26372-1.96547,1.89167a3.12549,3.12549,0,0,1-1.30044.81936,1.91252,1.91252,0,0,0-.64795.41531c-.29748.25074-.566.53552-.85343.79863-.28693.26263-.58213.51623-.87344.774-.30023.26569-.72808.27112-1.04044.50181s-.6048.48886-.901.74081a1.8255,1.8255,0,0,1-1.37975.621c-.12848.01834-.25853.02556-.38787.03791q.00979-3.45445.01962-6.90888a4.94621,4.94621,0,0,1,.27317-.70581,5.25884,5.25884,0,0,1,.46528-.607,7.30194,7.30194,0,0,0,.69225-.9154,8.85917,8.85917,0,0,1,.48874-1.03241,2.61335,2.61335,0,0,0,.45951-1.43742,1.40661,1.40661,0,0,1,.22563-.72234,3.07387,3.07387,0,0,0,.51616-1.80965c-.00305-.1274.0159-.25521.02119-.383A2.52494,2.52494,0,0,1,130.548,57.055a2.338,2.338,0,0,0,.413-1.44808c.01305-.25553.022-.51125.03069-.767a1.25808,1.25808,0,0,1,.22928-.71856,2.72915,2.72915,0,0,0,.50686-1.80329c.044-.12163.08172-.24606.13372-.36419a1.50178,1.50178,0,0,1,.17979-.33876,1.98412,1.98412,0,0,0,.4817-1.42886,3.52332,3.52332,0,0,1,.60163-2.19685,1.40047,1.40047,0,0,0,.16648-.7442c.0046-.51725.024-1.03432.02883-1.55157a2.21626,2.21626,0,0,1,.32213-1.09645,2.31009,2.31009,0,0,0,.41481-1.06774,2.44007,2.44007,0,0,1,.46781-1.44863,5.84161,5.84161,0,0,0,.46936-1.05355,9.75931,9.75931,0,0,0,.71325-1.36831,10.5793,10.5793,0,0,1,.55383-1.01441,6.73627,6.73627,0,0,1,.67362-1.38363,1.37727,1.37727,0,0,0,.25417-.71965,3.9807,3.9807,0,0,1,.6295-1.79489.991.991,0,0,0,.01061-.74362,1.24964,1.24964,0,0,0-.191-.33659c-.45758-.61383-1.12308-1.08858-1.27089-1.90883a6.03633,6.03633,0,0,0-.69764-.92562c-.25307-.2921-.48027-.60669-.71885-.9114-.18525-.96491-.95476-1.50882-1.57327-2.15453a3.696,3.696,0,0,1-.98835-1.63139c-.49866-.60709-.63994-1.40719-1.09223-2.03581-.30681-.42644-.35144-.96685-.66251-1.39026a3.6123,3.6123,0,0,1-.50984-1.035c-.15929-.48836-.57433-.85694-.71137-1.36459a1.74115,1.74115,0,0,0-.34593-.68567c-.16687-.19728-.33225-.39609-.50565-.58753a3.58819,3.58819,0,0,1-.79507-1.30823c-.11744-.359-.42346-.65305-.5652-1.00809a11.63287,11.63287,0,0,0-.67272-1.38483,12.29931,12.29931,0,0,0-.89-1.70542,5.23918,5.23918,0,0,0-.99372-1.62712c-.60492-.65892-1.38559-1.19181-1.57188-2.15647a9.67172,9.67172,0,0,0-.97317-1.20447c-.44959-.53494-.44814-.53759-.49317-1.41622-.00663-.12908-.00267-.2587-.0036-.38806a4.42915,4.42915,0,0,1,1.15667-.1456,3.14319,3.14319,0,0,0,1.13323-.2437,1.35165,1.35165,0,0,0,.63226-.43667c.5426-.72985,1.09867-1.45078,1.61218-2.20077a8.88186,8.88186,0,0,1,2.18927-2.19756c.60551-.2588,1.00191-.82755,1.60829-1.0851A8.54775,8.54775,0,0,0,131.47527.769a1.6144,1.6144,0,0,1,.74139.20739,3.26253,3.26253,0,0,0,1.83809.53962,3.1036,3.1036,0,0,1,.77574.06818.93949.93949,0,0,1,.60925.42671.75445.75445,0,0,1-.018.74033c-.11983.231-.26623.45048-.3632.69027a.882.882,0,0,0,.04256.73034.76146.76146,0,0,0,1.01091.24988c.2297-.122.44678-.26788.67663-.38963a1.052,1.052,0,0,1,1.07618.16677,2.1829,2.1829,0,0,1,.90035,1.647,1.48933,1.48933,0,0,0,.06609.38413,1.46331,1.46331,0,0,0,.4216.63245,5.51853,5.51853,0,0,1,1.93079,1.28487,1.84635,1.84635,0,0,0,1.07447.39778c.12941.00665.2571.04168.38651.05391a2.18061,2.18061,0,0,1,1.54675,1.57279c.00243.12945.04273.25836.04311.3876a1.59169,1.59169,0,0,0,.40315,1.065c.4289.48848.89771.94157,1.339,1.41956a1.24437,1.24437,0,0,1,.24327,1.73608c-.06137.11475-.12417.22882-.18963.34128a1.76411,1.76411,0,0,0-.17814,1.12647c.043.38338.18214.58307.69449.85057a2.75961,2.75961,0,0,1,.66664.39457,4.19624,4.19624,0,0,1,.55134.54713,4.3534,4.3534,0,0,1,.3395.6911c.01221.52011.02031,1.04037.03743,1.56032a2.21094,2.21094,0,0,0,.8959,2.05738c.36863.36682.73187.74141,1.06731,1.13812a2.03688,2.03688,0,0,1,.37473.67406c.16322.50679.58644.872.74241,1.361a11.09083,11.09083,0,0,0,.66259,1.40271,8.14582,8.14582,0,0,0,.6881,1.38824,1.24792,1.24792,0,0,1,.25133.72412q.02139.97482.03471,1.94981a1.31785,1.31785,0,0,0,.23541.73006,5.26324,5.26324,0,0,0,1.64965,1.62481.88825.88825,0,0,0,.35294.16117,26.71707,26.71707,0,0,0,3.896-.00391,1.17954,1.17954,0,0,0,.37431-.08452,6.25447,6.25447,0,0,0,.69954-.34612,1.51133,1.51133,0,0,1,.73053-.24108c.91025-.02425,1.82188-.085,2.73056-.05627a3.74621,3.74621,0,0,0,2.20753-.59967.73628.73628,0,0,1,.74336.02766,2.14234,2.14234,0,0,1,1.20583,1.4341c.00387.65012.01583,1.30034.00868,1.95034a1.60814,1.60814,0,0,0,.41364,1.06171,6.78734,6.78734,0,0,1,1.31769,1.902.68.68,0,0,0,.62378.40434C170.30624,38.97612,170.56362,39.01038,170.82139,39.04042Z"
          />
          <path
            id="Lideta-Woreda-9"
        class="cls-1 pathHovered NaN-ri subcity Lideta-Woreda-9-path"
         data-html="true"            d="M131.72782,52.31808a2.729,2.729,0,0,1-.50683,1.80329,1.25808,1.25808,0,0,0-.22928.71856c-.00873.25572-.01764.51144-.03069.767a2.338,2.338,0,0,1-.413,1.44808,2.52494,2.52494,0,0,0-.34007,1.08059c-.00529.12779-.02424.2556-.02119.383a3.07387,3.07387,0,0,1-.51616,1.80965,1.40661,1.40661,0,0,0-.22563.72234,2.61335,2.61335,0,0,1-.45951,1.43742,8.85917,8.85917,0,0,0-.48874,1.03241,7.30194,7.30194,0,0,1-.69225.9154,5.25884,5.25884,0,0,0-.46528.607,4.94621,4.94621,0,0,0-.27317.70581q-.00984,3.45445-.01962,6.90888-.0069.26892-.01452.53783a2.62584,2.62584,0,0,0-1.60941.74293,6.47811,6.47811,0,0,1-.8073.72841,4.78549,4.78549,0,0,1-.62507.35731,17.73978,17.73978,0,0,0-2.32392-.0709,3.4431,3.4431,0,0,1-1.84536-.47565,1.51658,1.51658,0,0,0-.73016-.22633c-1.16229-.04029-2.32452-.08315-3.48708-.11458a1.55557,1.55557,0,0,1-.74024-.19356,3.61335,3.61335,0,0,0-1.83547-.5127c-1.03355.01173-2.06772-.04413-3.10152-.03951a3.51163,3.51163,0,0,1-1.84424-.47932,1.4903,1.4903,0,0,0-.73082-.2247c-1.1622-.032-2.32419-.07148-3.48648-.099a1.74132,1.74132,0,0,1-.73955-.19989,2.98254,2.98254,0,0,0-1.83182-.5168c-1.03389-.018-2.06785-.05526-3.1016-.04928a3.56264,3.56264,0,0,1-1.84133-.49088,1.49343,1.49343,0,0,0-.734-.2146c-1.29192-.0255-2.5837-.06646-3.87571-.0796a2.62682,2.62682,0,0,1-1.45907-.42394,1.48,1.48,0,0,0-.72124-.25555c-.25739-.01829-.51439-.0422-.77156-.06363.00057-.518.01482-1.03649-.00167-1.554a3.04885,3.04885,0,0,1,.50817-1.833,1.32754,1.32754,0,0,0,.23276-.72734c.015-1.03578.03809-2.0715.04079-3.1073a2.744,2.744,0,0,1,.42115-1.4671,2.10592,2.10592,0,0,0,.33306-1.09451c.011-1.03578.02815-2.0715.04227-3.10722a2.13319,2.13319,0,0,1,.3214-1.09795,2.75041,2.75041,0,0,0,.43383-1.46291c-.00193-1.42467.01443-2.84931.01183-4.274a2.762,2.762,0,0,1,.42153-1.46684,2.10574,2.10574,0,0,0,.33254-1.09459c.00278-.77691.01361-1.55377.02124-2.33065s.01728-1.55379.02222-2.33072a2.11856,2.11856,0,0,1,.32233-1.09771,2.75513,2.75513,0,0,0,.42883-1.46507c-.00353-.90658.01666-1.81323.012-2.71976a2.71085,2.71085,0,0,1,.42237-1.46644,2.06816,2.06816,0,0,0,.33106-1.09451q.00139-2.71952.00756-5.439c.35883-.11051.72321-.206,1.07448-.33683a2.76092,2.76092,0,0,0,.66383-.34266,15.76331,15.76331,0,0,0,1.98233-1.72216,9.73259,9.73259,0,0,0,1.12265-1.49707,1.48616,1.48616,0,0,1,.95159-.54179,1.6074,1.6074,0,0,1,.74155-.01637c.25713.03256.51344.077.77157.09519a2.30876,2.30876,0,0,1,1.402.58291,29.80154,29.80154,0,0,1,2.47794,2.46631,1.79827,1.79827,0,0,1,.51449,1.01715,2.98984,2.98984,0,0,0,.43819,1.46465c.369.53444.44376,1.21493.84893,1.73364a1.34049,1.34049,0,0,1,.26867.71614,3.22734,3.22734,0,0,0,.43545,1.469,2.00139,2.00139,0,0,1,.3523,1.0893c-.00136.518.02882,1.03606.03138,1.55419a2.32458,2.32458,0,0,0,.31794,1.10143,3.769,3.769,0,0,1,.36219.68057,3.22894,3.22894,0,0,0,.79677,1.31206c.44213.47241.89012.93941,1.32691,1.4167a1.60087,1.60087,0,0,1,.34079.6898,1.121,1.121,0,0,0,.14886.35182,2.19526,2.19526,0,0,0,1.51665,1.0958,2.91,2.91,0,0,1,1.45728.45751,2.62268,2.62268,0,0,0,.687.35134,2.60494,2.60494,0,0,1,1.6173,1.55665,2.04688,2.04688,0,0,0,.367.67713c.794.85346,1.60416,1.69207,2.3855,2.55681a1.62638,1.62638,0,0,1,.33471.68345,1.86891,1.86891,0,0,1-.08781,1.14107c-.142.35483-.37163.67141-.49434,1.0405-.08862.26647.28957.82168.59638.87332a2.259,2.259,0,0,0,1.49221-.251,2.93216,2.93216,0,0,1,1.46183-.43927c1.16625.00084,2.33251-.02675,3.49876-.02646a2.77832,2.77832,0,0,0,1.472-.40944,2.13517,2.13517,0,0,1,1.10017-.32172C129.39563,52.32364,130.56174,52.32237,131.72782,52.31808Z"
          />
          <path
            id="Lideta-Woreda-5"
        class="cls-1 pathHovered NaN-ri subcity Lideta-Woreda-5-path"
         data-html="true"            d="M131.72785,52.31808c-1.16611.00429-2.33222.00556-3.49826.01454a2.13517,2.13517,0,0,0-1.10017.32172,2.77832,2.77832,0,0,1-1.472.40944c-1.16625-.00029-2.33251.0273-3.49876.02646a2.93216,2.93216,0,0,0-1.46183.43927,2.259,2.259,0,0,1-1.49221.251c-.30681-.05164-.685-.60685-.59638-.87332.12271-.36909.35239-.68567.49434-1.0405a1.86891,1.86891,0,0,0,.08781-1.14107,1.62638,1.62638,0,0,0-.33471-.68345c-.78134-.86474-1.59153-1.70335-2.3855-2.55681a2.04688,2.04688,0,0,1-.367-.67713,2.60494,2.60494,0,0,0-1.6173-1.55665,2.62268,2.62268,0,0,1-.687-.35134,2.91,2.91,0,0,0-1.45728-.45751A2.19526,2.19526,0,0,1,110.825,43.347a1.121,1.121,0,0,1-.14886-.35182,1.60087,1.60087,0,0,0-.34079-.6898c-.43679-.47729-.88478-.94429-1.32691-1.4167a3.22894,3.22894,0,0,1-.79677-1.31206,3.769,3.769,0,0,0-.36219-.68057,2.32458,2.32458,0,0,1-.31794-1.10143c-.00256-.51813-.03274-1.03615-.03138-1.55419a2.00139,2.00139,0,0,0-.3523-1.0893,3.22734,3.22734,0,0,1-.43545-1.469,1.34049,1.34049,0,0,0-.26867-.71614c-.40517-.51871-.47992-1.1992-.84893-1.73364a2.98984,2.98984,0,0,1-.43819-1.46465,1.79827,1.79827,0,0,0-.51449-1.01715,29.80154,29.80154,0,0,0-2.47794-2.46631,2.30876,2.30876,0,0,0-1.402-.58291c-.25813-.01816-.51444-.06263-.77157-.09519a20.45545,20.45545,0,0,1,.3718-2.68,2.57649,2.57649,0,0,1,.57042-.9955,3.73551,3.73551,0,0,1,.57431-.51766c.413-.30788.8479-.58649,1.25954-.89609,1.13395-.85267,2.36948-1.55991,3.483-2.44124a5.06039,5.06039,0,0,0,1.608-1.05215,5.52143,5.52143,0,0,1,1.95489-1.22193,7.947,7.947,0,0,0,2.01063-1.13607,3.18928,3.18928,0,0,1,.98743-.5975,1.97868,1.97868,0,0,0,.9507-.62826,22.3357,22.3357,0,0,1,3.26834-3.28965c1.09368-.90591,2.15334-1.84965,3.16487-2.847a1.65716,1.65716,0,0,1,1.40855-.46652c.00093.12936-.003.259.0036.38806.045.87863.04358.88128.49317,1.41622a9.67172,9.67172,0,0,1,.97317,1.20447c.18629.96466.967,1.49755,1.57188,2.15647a5.23918,5.23918,0,0,1,.99372,1.62712,12.29931,12.29931,0,0,1,.89,1.70542,11.63287,11.63287,0,0,1,.67272,1.38483c.14174.355.44776.64912.5652,1.00809a3.58819,3.58819,0,0,0,.79507,1.30823c.1734.19144.33878.39025.50565.58753a1.74115,1.74115,0,0,1,.34593.68567c.137.50765.55208.87623.71137,1.36459a3.6123,3.6123,0,0,0,.50984,1.035c.31107.42341.3557.96382.66251,1.39026.45229.62862.59357,1.42872,1.09223,2.03581a3.696,3.696,0,0,0,.98835,1.63139c.61851.64571,1.388,1.18962,1.57327,2.15453.23858.30471.46578.6193.71885.9114a6.03633,6.03633,0,0,1,.69764.92562c.14781.82025.81331,1.295,1.27089,1.90883a1.24964,1.24964,0,0,1,.191.33659.991.991,0,0,1-.01061.74362,3.9807,3.9807,0,0,0-.6295,1.79489,1.37727,1.37727,0,0,1-.25417.71965,6.73627,6.73627,0,0,0-.67362,1.38363,10.5793,10.5793,0,0,0-.55383,1.01441,9.75931,9.75931,0,0,1-.71325,1.36831,5.84161,5.84161,0,0,1-.46936,1.05355,2.44007,2.44007,0,0,0-.46781,1.44863,2.31009,2.31009,0,0,1-.41481,1.06774,2.21626,2.21626,0,0,0-.32213,1.09645c-.00484.51725-.02423,1.03432-.02883,1.55157a1.40047,1.40047,0,0,1-.16648.7442,3.52332,3.52332,0,0,0-.60163,2.19685,1.98412,1.98412,0,0,1-.4817,1.42886,1.50178,1.50178,0,0,0-.17979.33876C131.80957,52.072,131.77186,52.19645,131.72785,52.31808Z"
          />
          <path
            id="Lideta-Woreda-6"
        class="cls-1 pathHovered NaN-ri subcity Lideta-Woreda-6-path"
         data-html="true"            d="M68.13974,117.7573c-.41724-.308-.8316-.61994-1.25239-.923a15.99567,15.99567,0,0,0-2.05951-1.07477,1.00582,1.00582,0,0,0-.368-.1091,26.803,26.803,0,0,0-5.05019-.012,1.91551,1.91551,0,0,0-.73309.23156,12.05012,12.05012,0,0,0-2.68039,1.5469,1.93207,1.93207,0,0,1-.32758.20554,1.71,1.71,0,0,1-.73208.23392,12.92061,12.92061,0,0,1-2.33082.02456,2.50484,2.50484,0,0,1-1.11816-.27937c-.55924-.33654-1.21449-.45455-1.76917-.7919a3.78911,3.78911,0,0,0-1.46355-.47863,2.00623,2.00623,0,0,1-.72968-.25489,3.17117,3.17117,0,0,0-1.46186-.47334c-.12943-.00538-.25812-.02779-.38756-.03385a3.2231,3.2231,0,0,1-1.48014-.41808,3.25978,3.25978,0,0,0-1.10243-.34955,4.92156,4.92156,0,0,1-.75547-.1688,8.58523,8.58523,0,0,0-2.60163-.6762,3.07838,3.07838,0,0,1-1.08357-.40463,2.29376,2.29376,0,0,0-.72782-.258,3.89223,3.89223,0,0,1-1.4737-.45438,2.45013,2.45013,0,0,0-1.48773-.33649c-.25839.02031-.51644.04527-.77464.06813-.14426,1.02569-.07939,2.06089-.13938,3.09053a4.16848,4.16848,0,0,1-.32414,1.5013,4.19831,4.19831,0,0,0-.36693,1.49194c-.03121.51466-.06333,1.02986-.07019,1.54518a5.25209,5.25209,0,0,1-.39145,1.881,2.64263,2.64263,0,0,0-.19306.74561c-.07939.899-.15411,1.79856-.24738,2.69617a3.05794,3.05794,0,0,1-.17265.75,6.73013,6.73013,0,0,0-.43205,1.87483,4.01985,4.01985,0,0,1-.39781,1.48539,4.19279,4.19279,0,0,0-.38866,1.48436,2.91875,2.91875,0,0,1-.25211,1.12446,17.619,17.619,0,0,1-1.28019,2.37754,9.4743,9.4743,0,0,0-.98859,1.654c-.27515.579-.60916,1.13157-.87592,1.71805a3.71924,3.71924,0,0,1-.69418.92379,1.83489,1.83489,0,0,1-.27033.27589,2.21166,2.21166,0,0,1-1.044.46924,35.61974,35.61974,0,0,1-3.863.0596c-.77429-.00689-1.5464.00131-2.3189.06957a5.16986,5.16986,0,0,0-1.864.45858,2.71131,2.71131,0,0,1-.73692.22172c-.50739.09079-1.00991.20878-1.51445.31552a1.11188,1.11188,0,0,1-.15733.35246c-.36353.365-.75483.70236-1.11843,1.06731a4.16887,4.16887,0,0,0-.9478,1.22214A6.27231,6.27231,0,0,1,12.094,145.047a2.99791,2.99791,0,0,0-.6139.97917,2.77695,2.77695,0,0,1-.5888.99384c-.52558.57168-1.05029,1.14615-1.6081,1.68563-.558.53961-1.146,1.04981-1.74061,1.5493a2.17136,2.17136,0,0,1-1.03739.48922,2.11859,2.11859,0,0,0-1.399.59512,10.65733,10.65733,0,0,1-.927.70295c-.32675.20017-.70122.3209-1.03761.50738a2.9716,2.9716,0,0,0-.62158.46071c-.55748.54052-1.11905,1.07947-1.63833,1.65571a1.70813,1.70813,0,0,0-.35662,1.44405,1.13666,1.13666,0,0,0,1.14418.83143,2.31605,2.31605,0,0,0,1.10908-.29382,2.72209,2.72209,0,0,1,1.0744-.41941,3.88825,3.88825,0,0,0,1.45659-.48965c.684-.3619,1.37483-.7126,2.06637-1.05963.34371-.17242.70826-.30932,1.04528-.50214a3.16826,3.16826,0,0,1,1.49121-.36239,3.251,3.251,0,0,0,1.48774-.37282,17.41541,17.41541,0,0,0,1.75065-.8219c.52977-.3732,1.18254-.51572,1.73872-.84749a1.325,1.325,0,0,1,.74439-.18577c.12879.00453.25882-.02437.38753-.01946a2.78471,2.78471,0,0,0,1.81273-.56148,1.87669,1.87669,0,0,1,1.4868-.24062,1.62706,1.62706,0,0,1,.69286.32242,7.52113,7.52113,0,0,1,.85568.78818,2.44178,2.44178,0,0,1,.7286,1.7373,2.93432,2.93432,0,0,1-.46323,1.84219,1.70376,1.70376,0,0,0-.19556.33516,1.57081,1.57081,0,0,0,.02233,1.4871A13.19234,13.19234,0,0,0,22.56,159.91522a2.71632,2.71632,0,0,1,.59459.992c.22794.605.75245,1.05606.89373,1.70744a11.1664,11.1664,0,0,0,1.19922,1.52239,1.25881,1.25881,0,0,1,.26266.71175,2.64986,2.64986,0,0,0,1.46162-.46485,2.29658,2.29658,0,0,1,.3403-.1862,1.9177,1.9177,0,0,1,1.51529-.1142,2.037,2.037,0,0,1,1.43756,1.67683,4.68459,4.68459,0,0,1-.10389,1.93141,2.30068,2.30068,0,0,1-.56456,1.004,3.39631,3.39631,0,0,1-.90257.73244,4.69043,4.69043,0,0,0-.94348.68219,1.7007,1.7007,0,0,0-.54711,1.00018,2.02955,2.02955,0,0,0,.31725,1.48229c.22089.32051.47108.62129.71383.92636.09027.11346.17333.232.25392.35237l26.9258-31.5628Z"
          />
          <path
            id="Lideta-Woreda-8"
        class="cls-1 pathHovered NaN-ri subcity Lideta-Woreda-8-path"
         data-html="true"            d="M104.10964,133.87276a6.012,6.012,0,0,1-.642-1.82281c-.22134-.133-.45379-.25083-.66144-.4026a2.14735,2.14735,0,0,0-1.05778-.43906c-.25658-.02723-.50886-.09486-.76305-.14441a18.84316,18.84316,0,0,1-2.34972-1.35,3.89581,3.89581,0,0,0-.61238-.4783c-.44023-.26852-.91321-.48569-1.34115-.77133-.43-.287-.80221-.6614-1.23561-.9421a9.75777,9.75777,0,0,1-1.32384-.79822,5.98035,5.98035,0,0,0-1.24457-.92641c-.345-.17535-.70913-.31292-1.06419-.46862a2.6669,2.6669,0,0,0-1.10615-.322c-.90758.00942-1.81531-.00017-2.723.00038a3.127,3.127,0,0,0-1.49528.34732,3.02333,3.02333,0,0,1-1.5012.32295c-.51847-.00921-1.0371-.01426-1.55529-.03226a.97466.97466,0,0,1-.37373-.0838A8.448,8.448,0,0,1,80.372,124.0477a2.47391,2.47391,0,0,0-.97071-.628c-.61719-.21088-1.10455-.67163-1.72871-.87752a1.66774,1.66774,0,0,1-.64118-.42575,7.38982,7.38982,0,0,0-2.288-1.43029,2.69165,2.69165,0,0,0-1.47893-.40313,3.87616,3.87616,0,0,1-1.843-.52751,5.46911,5.46911,0,0,0-.71718-.28685,3.11293,3.11293,0,0,1-.9757-.62261,4.598,4.598,0,0,0-1.58878-1.08872L55.41413,142.30884l-26.9258,31.5628a7.78858,7.78858,0,0,0,.88434,1.22443c.54992.55282,1.08632,1.11914,1.63421,1.674a3.05826,3.05826,0,0,0,.31224.2282,1.2332,1.2332,0,0,0,1.106.17261,3.41824,3.41824,0,0,0,.71542-.29982,2.67,2.67,0,0,1,1.11133-.31938c1.03908-.03662,2.07981-.014,3.1173-.11463a5.86751,5.86751,0,0,0,1.51588-.33773A4.29982,4.29982,0,0,1,40.021,175.844a22.91055,22.91055,0,0,1,3.89471-.04706,1.4124,1.4124,0,0,1,.995.51892,13.20452,13.20452,0,0,0,1.39992,1.87152c.72279.747,1.45855,1.48243,2.21209,2.19818a2.3025,2.3025,0,0,0,1.39334.62778c.38722.03629.77633.053,1.16313.09279a1.11132,1.11132,0,0,1,.89294,1.0954c.00715.51983.01757,1.03971.01969,1.55954.0042,1.03975-.03664,2.08055.06752,3.11792a3.025,3.025,0,0,0,.51513,1.44615,2.12436,2.12436,0,0,0,.93662.65853c.64807.04845,1.29654.092,1.944.14786a2.81,2.81,0,0,1,.76682.11668,13.64575,13.64575,0,0,0,2.65078.61991,2.47316,2.47316,0,0,1,.72594.2654,7.50551,7.50551,0,0,1,1.57973,1.132,16.93979,16.93979,0,0,1,1.58123,1.72265,3.13667,3.13667,0,0,0,1.23768.90077,7.1335,7.1335,0,0,0,2.2343.64423c.12941.011.25741.03919.38682.04954.78625.06327,1.4872.45922,2.26153.57685a3.45547,3.45547,0,0,1,.73023.253,1.92575,1.92575,0,0,1,.62473.45837,12.23716,12.23716,0,0,1,1.44119,1.83705,2.4467,2.4467,0,0,0,.86585.76648c.227.123.425.29849.64159.44206a2.184,2.184,0,0,1,.7703.85809c.285.58339.52574,1.18833.79085,1.78159a3.36522,3.36522,0,0,0,1.003,1.1693,1.59454,1.59454,0,0,0,.70066.31737c.64168.13871,1.298.02942,1.94287.117a1.96685,1.96685,0,0,1,1.04371.47029c.68863.59455,1.3,1.27349,2.024,1.83032a3.4536,3.4536,0,0,1,1.13519,1.55005,4.83089,4.83089,0,0,0,.82475,1.31621,5.61333,5.61333,0,0,0,.56375.52941c.66969-.5934,1.35083-1.17459,2.00367-1.78607a5.79742,5.79742,0,0,0,.73478-.8804,2.04878,2.04878,0,0,0,.41829-1.05143,4.97314,4.97314,0,0,1,.4853-2.2277,1.66985,1.66985,0,0,0,.22072-.72568c.02654-.38279.04037-.76648.07339-1.14866s.06708-.76558.13124-1.14327a6.53,6.53,0,0,1,.21083-.73578,4.684,4.684,0,0,1-.14827-.76124c-.02537-.777-.02279-1.555-.02573-2.3327s-.00622-1.55414-.06856-2.33093a23.3878,23.3878,0,0,1,.00329-3.49561,2.2195,2.2195,0,0,1,.16727-.75285c.25993-.59179.4853-1.20107.78093-1.7742a6.51906,6.51906,0,0,0,.64347-1.81874,2.44744,2.44744,0,0,1,.281-.71761,4.2675,4.2675,0,0,0,.49677-1.4615,4.17428,4.17428,0,0,1,.4-1.09044,1.866,1.866,0,0,0,.18591-.74732,2.32544,2.32544,0,0,0-.16248-1.13507c-.29357-.576-.54441-1.17646-.87177-1.73209-.33129-.56232-.49091-1.1951-.8119-1.76014a3.69835,3.69835,0,0,1-.36746-2.6319,2.62225,2.62225,0,0,1,1.57005-2.06491c.35711-.15173.70969-.3147,1.0603-.48107a1.864,1.864,0,0,1,.74932-.18367c.38847-.01282.77669-.03442,1.16487-.05512.2587-.01373.51766-.02684.77546-.0513a1.08464,1.08464,0,0,0,.37556-.079,10.99112,10.99112,0,0,0,2.37-1.3092c.19714-.16822.38661-.347.59481-.50028a4.07689,4.07689,0,0,1,.65377-.41292,5.84018,5.84018,0,0,0,1.7813-1.47705,3.6003,3.6003,0,0,0,.62874-.97305c.15585-.35523.32509-.70516.50173-1.05057a1.80978,1.80978,0,0,0,.2042-.74222,56.9825,56.9825,0,0,0,.02286-5.82917,5.352,5.352,0,0,0-.43858-1.87752,1.85755,1.85755,0,0,1-.16111-.75409q.00339-1.55506-.00382-3.11011a3.69714,3.69714,0,0,1,.32774-1.50522,2.42973,2.42973,0,0,0,.20177-.74627c.03633-.387.08828-.77264.12-1.15994a1.837,1.837,0,0,1,.20016-.74491c.37157-.68121.61832-1.42619,1.04929-2.076a2.49074,2.49074,0,0,0,.34718-1.09981,3.2233,3.2233,0,0,1,.3465-1.105,1.56944,1.56944,0,0,0,.02754-1.48034,2.10519,2.10519,0,0,1,.07035-1.86262,2.819,2.819,0,0,0,.18789-.74775,6.85454,6.85454,0,0,0,.044-.77593c.03385-1.03637.10621-2.07364.08487-3.10894a6.15009,6.15009,0,0,1,.55471-2.6257A.8913.8913,0,0,0,104.10964,133.87276Z"
          />
        </g>
        <path
          id="lideta_bound"
          class="cls-2"
          d="M170.048,38.95151a.68.68,0,0,1-.62378-.40434,6.78734,6.78734,0,0,0-1.31769-1.902,1.60814,1.60814,0,0,1-.41364-1.06171c.00715-.65-.00481-1.30022-.00868-1.95034a2.14234,2.14234,0,0,0-1.20583-1.4341.73628.73628,0,0,0-.74336-.02766,3.74621,3.74621,0,0,1-2.20753.59967c-.90868-.02872-1.82031.032-2.73056.05627a1.51133,1.51133,0,0,0-.73053.24108,6.25447,6.25447,0,0,1-.69954.34612,1.17954,1.17954,0,0,1-.37431.08452,26.71707,26.71707,0,0,1-3.896.00391.88825.88825,0,0,1-.35294-.16117,5.26324,5.26324,0,0,1-1.64965-1.62481,1.31785,1.31785,0,0,1-.23541-.73006q-.01458-.975-.03471-1.94981a1.24792,1.24792,0,0,0-.25133-.72412,8.14582,8.14582,0,0,1-.6881-1.38824,11.09083,11.09083,0,0,1-.66259-1.40271c-.156-.48893-.57919-.85419-.74241-1.361a2.03688,2.03688,0,0,0-.37473-.67406c-.33544-.39671-.69868-.7713-1.06731-1.13812a2.21094,2.21094,0,0,1-.8959-2.05738c-.01712-.52-.02522-1.04021-.03743-1.56032a4.3534,4.3534,0,0,0-.3395-.6911,4.19624,4.19624,0,0,0-.55134-.54713,2.75961,2.75961,0,0,0-.66664-.39457c-.51235-.2675-.65144-.46719-.69449-.85057a1.76411,1.76411,0,0,1,.17814-1.12647c.06546-.11246.12826-.22653.18963-.34128a1.24437,1.24437,0,0,0-.24327-1.73608c-.44125-.478-.91006-.93108-1.339-1.41956a1.59169,1.59169,0,0,1-.40315-1.065c-.00038-.12924-.04068-.25815-.04311-.3876A2.18061,2.18061,0,0,0,142.64459,8.599c-.12941-.01223-.2571-.04726-.38651-.05391a1.84635,1.84635,0,0,1-1.07447-.39778,5.51853,5.51853,0,0,0-1.93079-1.28487,1.46331,1.46331,0,0,1-.4216-.63245,1.48933,1.48933,0,0,1-.06609-.38413,2.1829,2.1829,0,0,0-.90035-1.647,1.052,1.052,0,0,0-1.07618-.16677c-.22985.12175-.44693.26761-.67663.38963a.76146.76146,0,0,1-1.01091-.24988.882.882,0,0,1-.04256-.73034c.097-.23979.24337-.45932.3632-.69027a.75445.75445,0,0,0,.018-.74033.93949.93949,0,0,0-.60925-.42671,3.1036,3.1036,0,0,0-.77574-.06818,3.26253,3.26253,0,0,1-1.83809-.53962A1.6144,1.6144,0,0,0,131.47527.769,8.54775,8.54775,0,0,1,129.935.52721c-.60638.25755-1.00278.8263-1.60829,1.0851a8.88186,8.88186,0,0,0-2.18927,2.19756c-.51351.75-1.06958,1.47092-1.61218,2.20077a1.35165,1.35165,0,0,1-.63226.43667,3.14319,3.14319,0,0,1-1.13323.2437,4.42915,4.42915,0,0,0-1.15667.1456,1.65716,1.65716,0,0,0-1.40855.46652c-1.01153.99734-2.07119,1.94108-3.16487,2.847a22.3357,22.3357,0,0,0-3.26834,3.28965,1.97868,1.97868,0,0,1-.9507.62826,3.18928,3.18928,0,0,0-.98743.5975,7.947,7.947,0,0,1-2.01063,1.13607,5.52143,5.52143,0,0,0-1.95489,1.22193,5.06039,5.06039,0,0,1-1.608,1.05215c-1.11354.88133-2.34907,1.58857-3.483,2.44124-.41164.3096-.84652.58821-1.25954.89609a3.73551,3.73551,0,0,0-.57431.51766,2.57649,2.57649,0,0,0-.57042.9955,20.45545,20.45545,0,0,0-.3718,2.68,1.6074,1.6074,0,0,0-.74155.01637,1.48616,1.48616,0,0,0-.95159.54179,9.73259,9.73259,0,0,1-1.12265,1.49707,15.76331,15.76331,0,0,1-1.98233,1.72216,2.76092,2.76092,0,0,1-.66383.34266c-.35127.13079-.71565.22632-1.07448.33683a1.04788,1.04788,0,0,0-1.03625-.2876,1.86174,1.86174,0,0,1-1.01527-.48733,9.37476,9.37476,0,0,0-.78456-.84438,2.10218,2.10218,0,0,0-1.04712-.4386,5.07292,5.07292,0,0,0-.7694-.04227c-.51422.00751-1.02819.03247-1.54227.05026a1.14168,1.14168,0,0,1-1.13984.84282,2.43584,2.43584,0,0,1-1.44314-.47679A1.09067,1.09067,0,0,0,83.58,28.32983a6.98613,6.98613,0,0,0-.68466.36388.97406.97406,0,0,1-.35693.13785,23.721,23.721,0,0,1-3.10576-.00734.82841.82841,0,0,1-.35883-.12493c-.66023-.40982-1.4076-.63982-2.08211-1.02142a2.161,2.161,0,0,0-1.08991-.35132c-2.33132.01106-4.66273.00534-6.99409.00227a2.0673,2.0673,0,0,0-1.1004.31243,2.76822,2.76822,0,0,1-1.46182.44213c-.51763.00294-1.03508.034-1.55276.04375a1.19035,1.19035,0,0,0-.92219.59507,14.8314,14.8314,0,0,1-.69625,1.3844,1.40149,1.40149,0,0,0-.11995.362,7.37954,7.37954,0,0,0-.03845.77567c-.00255,1.42478.01144,2.84969-.00606,4.27423a1.79807,1.79807,0,0,0,.39064,1.069c.22064.31733.50864.58687.7523.8893a2.05242,2.05242,0,0,1,.2957,1.837,1.38873,1.38873,0,0,1-.18606.33936,2.25588,2.25588,0,0,0-.46123,1.45117c-.01347.25861-.03378.518-.02672.77627a1.53121,1.53121,0,0,1-.44356,1.04554,4.87242,4.87242,0,0,1-2.0966,1.67045.91848.91848,0,0,0-.48753.56124,1.11418,1.11418,0,0,0-.06556.38155,2.49318,2.49318,0,0,1-.51837,1.42888,3.27238,3.27238,0,0,0-.30038.70589c-.12948-.01013-.259-.02885-.38846-.029a2.12641,2.12641,0,0,1-1.82365-1.25594,1.42049,1.42049,0,0,1-.14021-.35929,3.1824,3.1824,0,0,0-.33508-.69718c-.25567-.447-.463-.92188-.72391-1.36552a2.21981,2.21981,0,0,0-.84344-.78732,1.024,1.024,0,0,0-.34432-.17237,3.62491,3.62491,0,0,0-2.62069.415.865.865,0,0,1-1.08391.0745,15.22539,15.22539,0,0,0-1.38714-.68543,6.61643,6.61643,0,0,1-1.21022-.96995,1.71177,1.71177,0,0,0-1.05329-.44172c-.12836.00164-.25684-.04437-.38589-.04838a1.24677,1.24677,0,0,1-.724-.25643,7.18742,7.18742,0,0,0-1.39112-.67661c-.35242-.1589-.66051-.43109-1.02209-.55108a3.66739,3.66739,0,0,1-1.30152-.82552c-.3852-.34774-.74878-.71933-1.12837-1.07346a1.60331,1.60331,0,0,0-1.03654-.47518c-1.42784-.03626-2.85691-.023-4.28475-.0592a1.59559,1.59559,0,0,1-1.03761-.47031c-.28411-.26611-.57542-.52636-.84039-.8108a5.10445,5.10445,0,0,1-1.59394-2.1599,12.20636,12.20636,0,0,0-.99908-1.19208,1.201,1.201,0,0,1-.17411-1.42249c.28891-.56933.25267-.66455-.17881-.94089a2.03409,2.03409,0,0,1-.59871-.45634.80984.80984,0,0,1-.17705-.344c-.12867-1.16346-.02625-2.33281-.07207-3.49933a1.93514,1.93514,0,0,0-.395-1.07208c-.22587-.31518-.51687-.58274-.76167-.88545a1.85557,1.85557,0,0,1-.37244-1.45671,1.24041,1.24041,0,0,1,.27617-.71094c.43431-.48133.88622-.94677,1.3243-1.42481a3.68067,3.68067,0,0,0,.80275-1.31538c.1234-.36288.38689-.67622.52974-1.03484a1.93738,1.93738,0,0,0-.04281-1.50952,3.97062,3.97062,0,0,1-.60027-2.2061c-.0021-.25977-.00263-.51952-.00418-.77929s-.00858-.51959-.00422-.77922a2.01186,2.01186,0,0,0-.5265-1.41768c-.17239-.19416-.34472-.38863-.51-.58877A1.90715,1.90715,0,0,1,30.19247,9.526c-.0082-.1296-.01166-.25948-.01731-.38925-.76132.02914-1.52854.00892-2.28261.09889a18.39667,18.39667,0,0,1-3.42373-.022,2.85257,2.85257,0,0,1-1.09645-.27847,5.44138,5.44138,0,0,0-1.4336-.497,4.0193,4.0193,0,0,1-1.97008-1.09151,10.30521,10.30521,0,0,1-1.00211-1.14559,12.59155,12.59155,0,0,0-1.03107-1.11988,1.76692,1.76692,0,0,0-1.02076-.45937q.0186,3.67417.03908,7.3483A2.25891,2.25891,0,0,0,17.227,13.0783a2.95562,2.95562,0,0,1,.4478,1.4553c-.00117.64447.01927,1.289.0212,1.9335.01,3.352.02644,6.70409.01743,10.05606a3.37423,3.37423,0,0,0,.52843,1.82,1.55169,1.55169,0,0,1,.21135.73338,2.738,2.738,0,0,0,.48106,1.44483,2.21749,2.21749,0,0,1,.33018,1.09344,1.64955,1.64955,0,0,0,.17885.74048c.34784.5451.50167,1.18921.85287,1.72127a3.26377,3.26377,0,0,1,.54941,1.81356c.389.00463.778.006,1.1669.01579a2.5025,2.5025,0,0,1,.38608.04441,1.40017,1.40017,0,0,1,.68929.3256,2.58494,2.58494,0,0,1,.878,1.24855,4.69769,4.69769,0,0,0,.5425,1.02485,1.5169,1.5169,0,0,1,.2.73869,2.67947,2.67947,0,0,0,.49484,1.44326,15.32837,15.32837,0,0,0,.881,1.71572,7.21756,7.21756,0,0,0,.878,1.71786A14.18623,14.18623,0,0,0,27.791,45.903a8.16254,8.16254,0,0,0,.72351,1.36628,15.1141,15.1141,0,0,0,.83226,1.73641,5.22064,5.22064,0,0,0,1.98069,2.32218.89566.89566,0,0,0,.34674.16121,2.16905,2.16905,0,0,1,.99069.58554c.75368.71246,1.48513,1.44858,2.24456,2.1547a1.92144,1.92144,0,0,0,.66709.37852,1.95556,1.95556,0,0,1,.69125.339c1.26486,1.11609,2.43678,2.32585,3.58392,3.56039a1.59153,1.59153,0,0,1,.4745,1.034c.029,1.55556.028,3.11178.02671,4.66773a2.69582,2.69582,0,0,0,.43335,1.46429,2.10936,2.10936,0,0,1,.32,1.10015c.02167,1.16663.03388,2.33346.04981,3.50021-.01436,1.16687-.03479,2.33375-.03977,3.50067a1.97792,1.97792,0,0,1-.34491,1.09246c-.35907.54444-.45391,1.21508-.86,1.73148-.32581.41428-.3559.97226-.67837,1.38724-.40244.51785-.4968,1.19023-.87356,1.72351-.37459.53027-.463,1.20845-.86643,1.72659a1.21479,1.21479,0,0,0-.24887.72455,2.56558,2.56558,0,0,1-.47272,1.45289c-.235.31914-.27486.73039-.47563,1.05406a13.0488,13.0488,0,0,0-.86521,1.72852c-.41488.511-.51187,1.19-.88865,1.71412-.385.53559-.47828,1.197-.82778,1.74649a1.96532,1.96532,0,0,0-.38189,1.08c.0103,1.81528-.00446,3.63065-.00329,5.446.00026.38846.02258.77736.04847,1.16513a1.36005,1.36005,0,0,0,.09548.36944,2.51319,2.51319,0,0,0,.16706.351,2.98739,2.98739,0,0,1,.42921,1.46939q.01055,5.44637.03111,10.89276a14.2643,14.2643,0,0,0,.08833,1.94113c-.14426,1.02569-.07939,2.06089-.13938,3.09053a4.16848,4.16848,0,0,1-.32414,1.5013,4.19831,4.19831,0,0,0-.36693,1.49194c-.03121.51466-.06333,1.02986-.07019,1.54518a5.25209,5.25209,0,0,1-.39145,1.881,2.64263,2.64263,0,0,0-.19306.74561c-.07939.899-.15411,1.79856-.24738,2.69617a3.05794,3.05794,0,0,1-.17265.75,6.73013,6.73013,0,0,0-.43205,1.87483,4.01985,4.01985,0,0,1-.39781,1.48539,4.19279,4.19279,0,0,0-.38866,1.48436,2.91875,2.91875,0,0,1-.25211,1.12446,17.619,17.619,0,0,1-1.28019,2.37754,9.4743,9.4743,0,0,0-.98859,1.654c-.27515.579-.60916,1.13157-.87592,1.71805a3.71924,3.71924,0,0,1-.69418.92379,1.83489,1.83489,0,0,1-.27033.27589,2.21166,2.21166,0,0,1-1.044.46924,35.61974,35.61974,0,0,1-3.863.0596c-.77429-.00689-1.5464.00131-2.3189.06957a5.16986,5.16986,0,0,0-1.864.45858,2.71131,2.71131,0,0,1-.73692.22172c-.50739.09079-1.00991.20878-1.51445.31552a1.11188,1.11188,0,0,1-.15733.35246c-.36353.365-.75483.70236-1.11843,1.06731a4.16887,4.16887,0,0,0-.9478,1.22214A6.27231,6.27231,0,0,1,12.094,145.047a2.99791,2.99791,0,0,0-.6139.97917,2.77695,2.77695,0,0,1-.5888.99384c-.52558.57168-1.05029,1.14615-1.6081,1.68563-.558.53961-1.146,1.04981-1.74061,1.5493a2.17136,2.17136,0,0,1-1.03739.48922,2.11859,2.11859,0,0,0-1.399.59512,10.65733,10.65733,0,0,1-.927.70295c-.32675.20017-.70122.3209-1.03761.50738a2.9716,2.9716,0,0,0-.62158.46071c-.55748.54052-1.11905,1.07947-1.63833,1.65571a1.70813,1.70813,0,0,0-.35662,1.44405,1.13666,1.13666,0,0,0,1.14418.83143,2.31605,2.31605,0,0,0,1.10908-.29382,2.72209,2.72209,0,0,1,1.0744-.41941,3.88825,3.88825,0,0,0,1.45659-.48965c.684-.3619,1.37483-.7126,2.06637-1.05963.34371-.17242.70826-.30932,1.04528-.50214a3.16826,3.16826,0,0,1,1.49121-.36239,3.251,3.251,0,0,0,1.48774-.37282,17.41541,17.41541,0,0,0,1.75065-.8219c.52977-.3732,1.18254-.51572,1.73872-.84749a1.325,1.325,0,0,1,.74439-.18577c.12879.00453.25882-.02437.38753-.01946a2.78471,2.78471,0,0,0,1.81273-.56148,1.87669,1.87669,0,0,1,1.4868-.24062,1.62706,1.62706,0,0,1,.69286.32242,7.52113,7.52113,0,0,1,.85568.78818,2.44178,2.44178,0,0,1,.7286,1.7373,2.93432,2.93432,0,0,1-.46323,1.84219,1.70376,1.70376,0,0,0-.19556.33516,1.57081,1.57081,0,0,0,.02233,1.4871A13.19234,13.19234,0,0,0,22.56,159.91522a2.71632,2.71632,0,0,1,.59459.992c.22794.605.75245,1.05606.89373,1.70744a11.1664,11.1664,0,0,0,1.19922,1.52239,1.25881,1.25881,0,0,1,.26266.71175,2.64986,2.64986,0,0,0,1.46162-.46485,2.29658,2.29658,0,0,1,.3403-.1862,1.9177,1.9177,0,0,1,1.51529-.1142,2.037,2.037,0,0,1,1.43756,1.67683,4.68459,4.68459,0,0,1-.10389,1.93141,2.30068,2.30068,0,0,1-.56456,1.004,3.39631,3.39631,0,0,1-.90257.73244,4.69043,4.69043,0,0,0-.94348.68219,1.7007,1.7007,0,0,0-.54711,1.00018,2.02955,2.02955,0,0,0,.31725,1.48229c.22089.32051.47108.62129.71383.92636.09027.11346.17333.232.25392.35237a7.78858,7.78858,0,0,0,.88434,1.22443c.54992.55282,1.08632,1.11914,1.63421,1.674a3.05826,3.05826,0,0,0,.31224.2282,1.2332,1.2332,0,0,0,1.106.17261,3.41824,3.41824,0,0,0,.71542-.29982,2.67,2.67,0,0,1,1.11133-.31938c1.03908-.03662,2.07981-.014,3.1173-.11463a5.86751,5.86751,0,0,0,1.51588-.33773A4.29982,4.29982,0,0,1,40.021,175.844a22.91055,22.91055,0,0,1,3.89471-.04706,1.4124,1.4124,0,0,1,.995.51892,13.20452,13.20452,0,0,0,1.39992,1.87152c.72279.747,1.45855,1.48243,2.21209,2.19818a2.3025,2.3025,0,0,0,1.39334.62778c.38722.03629.77633.053,1.16313.09279a1.11132,1.11132,0,0,1,.89294,1.0954c.00715.51983.01757,1.03971.01969,1.55954.0042,1.03975-.03664,2.08055.06752,3.11792a3.025,3.025,0,0,0,.51513,1.44615,2.12436,2.12436,0,0,0,.93662.65853c.64807.04845,1.29654.092,1.944.14786a2.81,2.81,0,0,1,.76682.11668,13.64575,13.64575,0,0,0,2.65078.61991,2.47316,2.47316,0,0,1,.72594.2654,7.50551,7.50551,0,0,1,1.57973,1.132,16.93979,16.93979,0,0,1,1.58123,1.72265,3.13667,3.13667,0,0,0,1.23768.90077,7.1335,7.1335,0,0,0,2.2343.64423c.12941.011.25741.03919.38682.04954.78625.06327,1.4872.45922,2.26153.57685a3.45547,3.45547,0,0,1,.73023.253,1.92575,1.92575,0,0,1,.62473.45837,12.23716,12.23716,0,0,1,1.44119,1.83705,2.4467,2.4467,0,0,0,.86585.76648c.227.123.425.29849.64159.44206a2.184,2.184,0,0,1,.7703.85809c.285.58339.52574,1.18833.79085,1.78159a3.36522,3.36522,0,0,0,1.003,1.1693,1.59454,1.59454,0,0,0,.70066.31737c.64168.13871,1.298.02942,1.94287.117a1.96685,1.96685,0,0,1,1.04371.47029c.68863.59455,1.3,1.27349,2.024,1.83032a3.4536,3.4536,0,0,1,1.13519,1.55005,4.83089,4.83089,0,0,0,.82475,1.31621,5.61333,5.61333,0,0,0,.56375.52941c.66969-.5934,1.35083-1.17459,2.00367-1.78607a5.79742,5.79742,0,0,0,.73478-.8804,2.04878,2.04878,0,0,0,.41829-1.05143,4.97314,4.97314,0,0,1,.4853-2.2277,1.66985,1.66985,0,0,0,.22072-.72568c.02654-.38279.04037-.76648.07339-1.14866s.06708-.76558.13124-1.14327a6.53,6.53,0,0,1,.21083-.73578l0,0c1.42729-.00368,2.85466-.00139,4.28183-.0166a1.23621,1.23621,0,0,0,.71671-.26449,10.0614,10.0614,0,0,0,.8882-.75547,6.53373,6.53373,0,0,1,1.35529-.72706,1.59828,1.59828,0,0,0,.31691-.22334c.91767-.91678,1.83864-1.83056,2.73752-2.7656a1.839,1.839,0,0,0,.3642-.67589,2.61577,2.61577,0,0,1,.32976-.69835,2.15576,2.15576,0,0,0,.39329-.66574,3.75067,3.75067,0,0,1,1.04414-1.60822,1.97834,1.97834,0,0,0,.58322-1.39026c-.00341-.519-.01536-1.03851.00465-1.55672a2.25686,2.25686,0,0,0-.36119-1.08958c-.05532-.11315-.17032-.235-.15492-.33735a1.36583,1.36583,0,0,1,.34808-.68095,7.74884,7.74884,0,0,1,1.12825-1.0676.995.995,0,0,1,.34207-.1821c.24785-.06365.503-.09951.75576-.14314.672-.11582.974-.35389,1.01522-.937a2.53463,2.53463,0,0,1,.79011-1.715,5.69182,5.69182,0,0,1,1.16306-1.0265,5.582,5.582,0,0,0,1.35066-.73339c.27961-.26845.58628-.50949.88875-.75295a.79811.79811,0,0,1,.33821-.18629,6.77906,6.77906,0,0,1,.76865-.05389.89737.89737,0,0,1,.69037.29058,1.38573,1.38573,0,0,1,.41678.64146,1.368,1.368,0,0,0,.96058.55965,3.2226,3.2226,0,0,0,2.2278-.45789,1.242,1.242,0,0,1,.72162-.25429c.38858-.01659.77667-.0607,1.16508-.06242a1.872,1.872,0,0,0,1.3331-.69935,1.99042,1.99042,0,0,0,.44685-.62916,7.09727,7.09727,0,0,1,.48406-1.054,1.99264,1.99264,0,0,0,.35719-1.08811c-.02348-.90738-.01841-1.81544-.03619-2.723a1.08622,1.08622,0,0,0-.10855-.36462,1.61833,1.61833,0,0,0-.177-.346,2.98859,2.98859,0,0,1-.44671-1.85049,2.04013,2.04013,0,0,1,.48144-1.43018c.08605-.09708.161-.20541.25475-.294a4.15828,4.15828,0,0,0,1.01093-1.62992,1.16856,1.16856,0,0,1,.2205-.31918,2.11159,2.11159,0,0,1,1.66665-.84669,1.691,1.691,0,0,0,1.05358-.43037c.3051-.2407.57436-.52765.88455-.76072a1.61221,1.61221,0,0,1,1.08648-.33258,2.40751,2.40751,0,0,1,1.10024.31927,1.88346,1.88346,0,0,0,1.45936.42175c.25826-.00453.516-.03667.77411-.054a1.05524,1.05524,0,0,0,.91-1.05311c.00574-.51868.02582-1.03727.02946-1.556.00823-1.16787.00615-2.33579.02086-3.50352a1.02345,1.02345,0,0,1,.13566-.3601,9.9508,9.9508,0,0,0,.71022-1.37467,2.354,2.354,0,0,0-.7698-1.71593c-.193-.17175-.36431-.36787-.54665-.55173s-.36207-.37068-.55-.54872a6.9257,6.9257,0,0,0-2.41545-1.90118,1.05752,1.05752,0,0,1-.31792-.22043c-.29506-.25219-.58589-.50925-.8757-.76744a4.87834,4.87834,0,0,0-1.89021-1.31584c-.41088-.31379-.81987-.63011-1.23325-.94057a4.00633,4.00633,0,0,0-1.0048-.57047c-.60175-.22582-1.11175-.64018-1.7269-.86454-.47875-.17466-.86936-.54911-1.37145-.71349a2.447,2.447,0,0,1-.66087-.39562c-.41479-.309-.81532-.63715-1.22171-.95738-.74413-.23114-1.305-.84214-2.08227-1.00459a4.35009,4.35009,0,0,1-.64376-.42537c-.56508-.53239-1.10839-1.08794-1.65869-1.636a2.44187,2.44187,0,0,1-.62592-.96842c-.16224-.50287-.53976-.8896-.71513-1.37185a12.07479,12.07479,0,0,0-.66044-1.39918,1.65174,1.65174,0,0,1-.19-.74389c-.00722-.38808-.0381-.77567-.05016-1.16375-.01211-.38818-.02654-.77705-.01588-1.165a2.43664,2.43664,0,0,0-.30411-1.10677,4.62755,4.62755,0,0,1-.32679-.69878,3.17828,3.17828,0,0,0-.52939-1.02642c-.07565-.10462-.167-.19783-.24988-.29728a3.45343,3.45343,0,0,1-1.12086-1.9967,8.54477,8.54477,0,0,0,.248-1.89891,2.69266,2.69266,0,0,1,.32187-1.09013c.30164-.5611.55381-1.15052.87945-1.6966.32874-.55125.48373-1.1818.84457-1.71581a1.94591,1.94591,0,0,0,.30027-1.09483,3.91684,3.91684,0,0,1,.55824-2.19678,1.27519,1.27519,0,0,0-.1491-1.08683,2.88956,2.88956,0,0,0-1.16463-.95682c-.584-.2813-.63908-.37947-.7237-.80332-.05-.25071-.0833-.50476-.12411-.75733.02238-.90558.05085-1.81108.06439-2.71682a2.00822,2.00822,0,0,1,.36448-1.08322c.35666-.543.48064-1.19345.85332-1.73221.36615-.52942.52684-1.16859.85859-1.728.326-.54968.51236-1.18092.88221-1.71493a8.8575,8.8575,0,0,1,.85339-1.73012c.13291-.64893.64652-1.118.82885-1.74032.18393-.62781.70236-1.08939.83987-1.7366.40625-.6589.6675-1.39716,1.07692-2.04892.34656-.55168.49232-1.19246.86455-1.72678.37106-.53273.45448-1.20871.83949-1.73763a1.38573,1.38573,0,0,0,.25564-.72221,2.948,2.948,0,0,1,.47237-1.45437c.36393-.536.49536-1.18521.8509-1.73336.34951-.53881.477-1.19591.84555-1.735a1.66708,1.66708,0,0,0,.21471-.73528,2.87394,2.87394,0,0,1,.16436-.75111c.15323-.35433.3759-.67794.54775-1.02514.11365-.22961.17451-.48528.28664-.71585a10.19624,10.19624,0,0,0,.53291-1.02855,5.6149,5.6149,0,0,1,.52412-1.03413,1.68769,1.68769,0,0,0,.26252-.7208,3.13893,3.13893,0,0,1,.46282-1.45888c.35295-.54169.45794-1.20478.84233-1.73717.30347-.4203.35342-.96738.66452-1.39184.38386-.52376.50624-1.18654.89315-1.712a2.171,2.171,0,0,0,.326-1.10067,2.81273,2.81273,0,0,1,.38546-1.08281,2.4061,2.4061,0,0,0,.32541-1.09993c.0252-.64645.06017-1.29254.091-1.93877a4.78549,4.78549,0,0,0,.62507-.35731,6.47811,6.47811,0,0,0,.8073-.72841,2.62584,2.62584,0,0,1,1.60941-.74293q.00762-.26889.01452-.53783c.12934-.01235.25939-.01957.38787-.03791a1.8255,1.8255,0,0,0,1.37975-.621c.2962-.25195.58863-.51013.901-.74081s.74021-.23612,1.04044-.50181c.29131-.25781.58651-.51141.87344-.774.28745-.26311.55595-.54789.85343-.79863a1.91252,1.91252,0,0,1,.64795-.41531,3.12549,3.12549,0,0,0,1.30044-.81936c.6577-.62795,1.30054-1.27159,1.96547-1.89167a1.71835,1.71835,0,0,1,.64743-.41638,3.48637,3.48637,0,0,0,1.30829-.80833c.294-.25369.61055-.48125.91707-.72043.653-.12855,1.12968-.63007,1.74128-.83159a2.733,2.733,0,0,0,.99657-.58168c.48145-.43578.93724-.9,1.42174-1.33216a1.88449,1.88449,0,0,1,.64923-.41354,2.97359,2.97359,0,0,0,1.01172-.55738c.30083-.2468.59278-.50469.8845-.76234.30106-.2659.71361-.29465,1.04252-.49918a2.37212,2.37212,0,0,0,.32133-.21972c.19492-.17152.3835-.35085.56665-.535a3.65079,3.65079,0,0,0,1.09139-1.57827,2.01974,2.01974,0,0,1,.415-.64893c.24146-.30493.50967-.58859.76015-.8866.33968-.40406.3711-.9622.69253-1.38125a4.15488,4.15488,0,0,0,.49847-1.046,10.87109,10.87109,0,0,1,.58172-1.00933c.1192-.22654.15267-.50331.29133-.71351a2.1873,2.1873,0,0,1,1.88783-1.16645c1.429.00685,2.85825-.00331,4.28723-.0154a3.73626,3.73626,0,0,0,.76782-.08342c.11539-.02544.212-.14433.31284-.22615a.86.86,0,0,0,.31823-.66793,1.75934,1.75934,0,0,0-.20846-1.11891,2.50281,2.50281,0,0,1-.49561-1.44259,1.34772,1.34772,0,0,1,.48745-.99667,3.4841,3.4841,0,0,0,1.31774-.80347,3.594,3.594,0,0,1,1.63654-1.00413,1.35057,1.35057,0,0,0,.33125-.20168,2.31876,2.31876,0,0,1,1.44967-.4791,1.52074,1.52074,0,0,0,.7333-.22532,5.20839,5.20839,0,0,1,1.39518-.6671,15.41868,15.41868,0,0,1,1.71679-.88924c.453-.25243.92407-.456,1.3843-.68627a2.31638,2.31638,0,0,0,1.26424-1.4012C170.56362,39.01038,170.30624,38.97612,170.048,38.95151Zm-66.333,94.03588c.05748.15052.1211.29886.18788.44607C103.836,133.28625,103.77242,133.13791,103.71494,132.98739Zm-.08124-.22754a3.79429,3.79429,0,0,1-.16608-.7099c-.11067-.06652-.22411-.12924-.33585-.19428.11174.065.22518.12774.33585.19425A3.79423,3.79423,0,0,0,103.6337,132.75985ZM88.132,198.58681c.01357.08414.0331.16807.05359.252C88.16506,198.75488,88.14553,198.671,88.132,198.58681Z"
        />
        <text
          id="lideta"
          class="cls-3"
          transform="translate(34.69095 128.84071)"
        >
          Lideta
        </text>
        <g id="ldeta_woreda_texts">
          <text class="cls-4" transform="translate(41.82956 62.09431)">
            LI-W2
          </text>
          <text class="cls-4" transform="translate(49.22986 99.90437)">
            LI-W1
          </text>
          <text class="cls-4" transform="translate(90.16236 95.70313)">
            LI-W10
          </text>
          <text class="cls-4" transform="translate(94.30075 62.76716)">
            LI-W9
          </text>
          <text class="cls-4" transform="translate(67.01416 55.33454)">
            LI-W3
          </text>
          <text class="cls-4" transform="translate(110.86084 37.51453)">
            LI-W5
          </text>
          <text class="cls-4" transform="translate(140.08417 46.77436)">
            LI-W7
          </text>
          <text class="cls-4" transform="translate(65.21766 164.10416)">
            LI-W8
          </text>
          <text class="cls-4" transform="translate(102.00455 164.10416)">
            LI-W4
          </text>
          <text class="cls-4" transform="translate(25.79337 149.33906)">
            LI-W6
          </text>
        </g>
      </g>
    </g>
  </g>
</svg>
